<?xml version="1.0" encoding="UTF-8"?>
<svg version="1.1" xmlns="http://www.w3.org/2000/svg" width="166" height="288">
<path d="M0 0 C0.74894531 -0.01417969 1.49789062 -0.02835937 2.26953125 -0.04296875 C4.1875 0.1875 4.1875 0.1875 6.1875 2.1875 C6.43589699 4.26973736 6.43589699 4.26973736 6.43359566 6.90016365 C6.43757775 7.90039688 6.44155985 8.90063011 6.44566262 9.93117344 C6.43983693 11.03815897 6.43401125 12.1451445 6.42800903 13.28567505 C6.42971788 14.45527987 6.43142673 15.6248847 6.43318737 16.82993209 C6.43592069 20.08632226 6.4296374 23.3425548 6.41963124 26.59892631 C6.4110199 30.10676311 6.41391525 33.61459213 6.41543579 37.12243652 C6.41648612 43.20330689 6.41019416 49.28413445 6.39896011 55.36499405 C6.38272799 64.15696422 6.37749946 72.94891363 6.37498413 81.74089716 C6.37060343 96.00419709 6.35728416 110.26747419 6.33837891 124.53076172 C6.32002981 138.38883347 6.30586856 152.24689903 6.29736328 166.10498047 C6.29683783 166.95873576 6.29631239 167.81249105 6.29577102 168.69211771 C6.293161 172.97502078 6.29063357 177.25792389 6.28814721 181.54082704 C6.26740302 217.0897343 6.2321673 252.63861505 6.1875 288.1875 C-7.24175488 288.72245506 -20.66844618 289.13004559 -34.10621738 289.37917995 C-40.34801656 289.4988213 -46.5824888 289.66073371 -52.82006836 289.92260742 C-94.49410704 291.62799266 -94.49410704 291.62799266 -102.5234642 285.96183205 C-107.86319373 280.74999082 -110.72900315 274.91408278 -112.9375391 267.8533802 C-114.09745318 264.3192886 -115.79195255 261.6653874 -117.8828125 258.60546875 C-118.90973376 256.86708465 -119.92827956 255.12371972 -120.9375 253.375 C-121.50041748 252.40111328 -122.06333496 251.42722656 -122.64331055 250.42382812 C-137.16320203 224.98314834 -148.80205071 198.68497635 -155.8125 170.1875 C-155.99039063 169.48657227 -156.16828125 168.78564453 -156.3515625 168.06347656 C-163.70900491 137.80161521 -159.86771083 103.80637011 -144.42578125 76.79296875 C-119.64839251 36.77718596 -76.03511253 16.26920146 -31.8125 5.1875 C-9.78796763 0.085709 -9.78796763 0.085709 0 0 Z " fill="#29DEE2" transform="translate(159.8125,-0.1875)"/>
</svg>
