<?xml version="1.0" encoding="UTF-8"?>
<svg version="1.1" xmlns="http://www.w3.org/2000/svg" width="135" height="170">
<path d="M0 0 C9.79331931 8.19941444 17.49761996 16.7355898 23.49609375 28.08984375 C23.975625 28.98058594 24.45515625 29.87132812 24.94921875 30.7890625 C34.30229532 49.63607522 35.90435784 73.27302623 29.890625 93.41796875 C21.65106246 115.11317543 8.24488419 133.12821861 -12.50390625 144.08984375 C-13.39464844 144.569375 -14.28539063 145.04890625 -15.203125 145.54296875 C-34.06397115 154.90291034 -57.64719355 156.46619353 -77.8125 150.5 C-84.65352976 147.88665424 -91.10698624 144.64206729 -97.50390625 141.08984375 C-98.82878949 140.46408211 -98.82878949 140.46408211 -100.18043804 139.82567883 C-102.50390625 138.08984375 -102.50390625 138.08984375 -103.11914539 135.53426838 C-103.11453643 134.50462562 -103.10992746 133.47498285 -103.10517883 132.41413879 C-103.11548882 130.64098045 -103.11548882 130.64098045 -103.12600708 128.83200073 C-103.09904251 126.88452438 -103.09904251 126.88452438 -103.0715332 124.89770508 C-103.07012298 123.51797029 -103.07091422 122.13823175 -103.07374573 120.75849915 C-103.07518233 117.01053471 -103.04575439 113.26336781 -103.01087594 109.515589 C-102.97965236 105.59984505 -102.97668489 101.68408348 -102.9707489 97.76823425 C-102.95519859 90.35205396 -102.91415439 82.93624151 -102.86400145 75.52022332 C-102.80814465 67.0778029 -102.78063077 58.63536505 -102.75552428 50.19280589 C-102.70323931 32.82493894 -102.61527432 15.45743022 -102.50390625 -1.91015625 C-100.31386687 -3.18837315 -98.12082474 -4.46089556 -95.92578125 -5.73046875 C-95.00901611 -6.26667847 -95.00901611 -6.26667847 -94.07373047 -6.8137207 C-64.45141751 -23.89448637 -27.12888533 -20.17510697 0 0 Z " fill="#80B7FF" transform="translate(102.50390625,16.91015625)"/>
</svg>
