<?xml version="1.0" encoding="UTF-8"?>
<svg version="1.1" xmlns="http://www.w3.org/2000/svg" width="120" height="120">
<path d="M0 0 C0.92554687 0.40089844 1.85109375 0.80179687 2.8046875 1.21484375 C17.60901998 8.44925552 28.59335643 21.49753858 34 37 C38.90770976 53.33540938 36.84339408 70.58375699 29.3125 85.6875 C20.74013516 100.48452172 7.48561159 110.17334289 -8.734375 115.14453125 C-21.27992094 118.0783649 -36.27282395 117.21026346 -48 112 C-48.92554688 111.59910156 -49.85109375 111.19820313 -50.8046875 110.78515625 C-65.60901998 103.55074448 -76.59335643 90.50246142 -82 75 C-86.09115879 61.38249675 -85.78689342 45.02504539 -80 32 C-79.59910156 31.07445312 -79.19820313 30.14890625 -78.78515625 29.1953125 C-71.55074448 14.39098002 -58.50246142 3.40664357 -43 -2 C-29.38249675 -6.09115879 -13.02504539 -5.78689342 0 0 Z " fill="#F7F6F6" transform="translate(84,4)"/>
<path d="M0 0 C0.90556641 -0.01015137 1.81113281 -0.02030273 2.74414062 -0.03076172 C3.54110352 -0.04179932 4.33806641 -0.05283691 5.15917969 -0.06420898 C6.97851562 0.03564453 6.97851562 0.03564453 7.97851562 1.03564453 C8.05123304 3.38878008 8.0622243 5.74398122 8.04101562 8.09814453 C8.03199219 9.38849609 8.02296875 10.67884766 8.01367188 12.00830078 C8.00207031 13.00732422 7.99046875 14.00634766 7.97851562 15.03564453 C7.40818604 15.08575684 6.83785645 15.13586914 6.25024414 15.1875 C3.67951906 15.41884165 1.11036806 15.66454501 -1.45898438 15.91064453 C-2.35681641 15.98927734 -3.25464844 16.06791016 -4.1796875 16.14892578 C-5.46069336 16.27460937 -5.46069336 16.27460937 -6.76757812 16.40283203 C-7.95371704 16.51280518 -7.95371704 16.51280518 -9.16381836 16.625 C-10.08336304 16.82826904 -10.08336304 16.82826904 -11.02148438 17.03564453 C-11.35148437 17.69564453 -11.68148437 18.35564453 -12.02148438 19.03564453 C-5.42148437 19.03564453 1.17851563 19.03564453 7.97851562 19.03564453 C8.63851562 21.01564453 9.29851563 22.99564453 9.97851562 25.03564453 C10.53539062 25.04982422 11.09226563 25.06400391 11.66601562 25.07861328 C18.92779188 25.5324743 24.10637786 27.80448955 28.97851562 33.28564453 C30.95970799 38.73392353 30.66673366 43.30013819 28.54101562 48.66064453 C25.22091804 53.77216168 19.73398216 58.11715569 13.97851562 60.03564453 C12.98851563 59.54064453 12.98851563 59.54064453 11.97851562 59.03564453 C12.13247803 59.7374585 12.28644043 60.43927246 12.44506836 61.16235352 C13.42175732 66.423064 13.65178849 71.76717442 14.04101562 77.09814453 C14.13189453 78.2628125 14.22277344 79.42748047 14.31640625 80.62744141 C14.87098081 88.1121131 15.09436211 95.53136639 14.97851562 103.03564453 C0.08750168 103.90334447 -13.35920326 98.91022419 -24.70483398 89.24633789 C-35.48456588 79.62571695 -43.93490973 66.20456647 -45.24438477 51.53930664 C-45.93333447 35.4464533 -44.16589011 21.73193223 -35.02148438 8.03564453 C-34.66376953 7.42744873 -34.30605469 6.81925293 -33.9375 6.19262695 C-31.73314661 2.97494246 -30.13242565 1.29789823 -26.26220703 0.38427734 C-22.91447259 0.11860875 -19.62941329 0.06600219 -16.27148438 0.09814453 C-15.14226563 0.08203125 -14.01304688 0.06591797 -12.84960938 0.04931641 C-8.5660288 -0.002741 -4.28349552 0.05053251 0 0 Z " fill="#F0EBE2" transform="translate(45.021484375,16.96435546875)"/>
<path d="M0 0 C0.90524414 -0.00950684 1.81048828 -0.01901367 2.74316406 -0.02880859 C3.54351074 -0.03759033 4.34385742 -0.04637207 5.16845703 -0.05541992 C7.00097656 0.05322266 7.00097656 0.05322266 8.00097656 1.05322266 C8.07369398 3.4063582 8.08468524 5.76155934 8.06347656 8.11572266 C8.05445313 9.40607422 8.04542969 10.69642578 8.03613281 12.02587891 C8.02453125 13.02490234 8.01292969 14.02392578 8.00097656 15.05322266 C7.43064697 15.10333496 6.86031738 15.15344727 6.27270508 15.20507812 C3.70197999 15.43641978 1.13282899 15.68212314 -1.43652344 15.92822266 C-2.33435547 16.00685547 -3.2321875 16.08548828 -4.15722656 16.16650391 C-5.43823242 16.2921875 -5.43823242 16.2921875 -6.74511719 16.42041016 C-7.53587646 16.49372559 -8.32663574 16.56704102 -9.14135742 16.64257812 C-10.0609021 16.84584717 -10.0609021 16.84584717 -10.99902344 17.05322266 C-11.32902344 17.71322266 -11.65902344 18.37322266 -11.99902344 19.05322266 C-5.39902344 19.05322266 1.20097656 19.05322266 8.00097656 19.05322266 C8.66097656 21.03322266 9.32097656 23.01322266 10.00097656 25.05322266 C10.55785156 25.06740234 11.11472656 25.08158203 11.68847656 25.09619141 C18.95025281 25.55005242 24.1288388 27.82206767 29.00097656 33.30322266 C30.98216893 38.75150166 30.68919459 43.31771632 28.56347656 48.67822266 C25.71172489 53.04273149 21.48325584 56.45697287 17.00097656 59.05322266 C12.31617607 59.05322266 11.46726341 58.24517015 7.93847656 55.36572266 C7.08125 54.68123047 6.22402344 53.99673828 5.34082031 53.29150391 C2.31491259 50.39693775 0.25293643 47.88593077 -0.32714844 43.66650391 C-0.28847656 42.52761719 -0.28847656 42.52761719 -0.24902344 41.36572266 C-0.23355469 40.59873047 -0.21808594 39.83173828 -0.20214844 39.04150391 C0.00097656 37.05322266 0.00097656 37.05322266 1.00097656 35.05322266 C-3.94902344 35.05322266 -8.89902344 35.05322266 -13.99902344 35.05322266 C-13.66902344 36.04322266 -13.33902344 37.03322266 -12.99902344 38.05322266 C-12.73815387 46.27061396 -12.73815387 46.27061396 -13.99902344 50.05322266 C-20.74902344 50.17822266 -20.74902344 50.17822266 -22.99902344 49.05322266 C-22.99902344 48.39322266 -22.99902344 47.73322266 -22.99902344 47.05322266 C-23.65902344 47.05322266 -24.31902344 47.05322266 -24.99902344 47.05322266 C-24.99902344 47.71322266 -24.99902344 48.37322266 -24.99902344 49.05322266 C-25.98902344 48.72322266 -26.97902344 48.39322266 -27.99902344 48.05322266 C-28.6656901 46.71988932 -29.33235677 45.38655599 -29.99902344 44.05322266 C-30.98902344 43.72322266 -31.97902344 43.39322266 -32.99902344 43.05322266 C-32.99902344 44.70322266 -32.99902344 46.35322266 -32.99902344 48.05322266 C-33.65902344 48.05322266 -34.31902344 48.05322266 -34.99902344 48.05322266 C-35.02588897 46.07412868 -35.04535719 44.09493295 -35.06152344 42.11572266 C-35.073125 41.01357422 -35.08472656 39.91142578 -35.09667969 38.77587891 C-34.99902344 36.05322266 -34.99902344 36.05322266 -33.99902344 35.05322266 C-28.63506584 34.58679156 -28.63506584 34.58679156 -26.12402344 36.42822266 C-24.99902344 38.05322266 -24.99902344 38.05322266 -24.99902344 40.05322266 C-24.09152344 39.22822266 -23.18402344 38.40322266 -22.24902344 37.55322266 C-19.46277847 35.02027268 -19.12644083 35.05322266 -14.99902344 35.05322266 C-14.99902344 34.39322266 -14.99902344 33.73322266 -14.99902344 33.05322266 C-16.03027344 33.40384766 -17.06152344 33.75447266 -18.12402344 34.11572266 C-21.97891984 35.04835888 -24.2007457 34.97963186 -27.99902344 34.05322266 C-28.32902344 32.40322266 -28.65902344 30.75322266 -28.99902344 29.05322266 C-22.72902344 29.05322266 -16.45902344 29.05322266 -9.99902344 29.05322266 C-9.66902344 26.41322266 -9.33902344 23.77322266 -8.99902344 21.05322266 C-10.31902344 20.72322266 -11.63902344 20.39322266 -12.99902344 20.05322266 C-12.99902344 19.39322266 -12.99902344 18.73322266 -12.99902344 18.05322266 C-15.97824937 18.02638278 -18.95723639 18.00646229 -21.93652344 17.99072266 C-22.78666016 17.98234375 -23.63679688 17.97396484 -24.51269531 17.96533203 C-25.32158203 17.96210937 -26.13046875 17.95888672 -26.96386719 17.95556641 C-27.71273193 17.95032959 -28.46159668 17.94509277 -29.2331543 17.93969727 C-31.02570083 17.85980513 -31.02570083 17.85980513 -31.99902344 19.05322266 C-33.99860707 19.09403049 -35.99947598 19.09576622 -37.99902344 19.05322266 C-38.69824219 17.40087891 -38.69824219 17.40087891 -38.99902344 15.05322266 C-37.70605469 12.36181641 -37.70605469 12.36181641 -35.81152344 9.49072266 C-35.19921875 8.54068359 -34.58691406 7.59064453 -33.95605469 6.61181641 C-31.44559521 3.32967877 -29.57751877 1.31670194 -25.40869141 0.62084961 C-24.44592285 0.59466553 -23.4831543 0.56848145 -22.49121094 0.54150391 C-21.42128906 0.50605469 -20.35136719 0.47060547 -19.24902344 0.43408203 C-18.13527344 0.41152344 -17.02152344 0.38896484 -15.87402344 0.36572266 C-14.78347656 0.3315625 -13.69292969 0.29740234 -12.56933594 0.26220703 C-8.37995239 0.13943203 -4.1904406 0.07436633 0 0 Z " fill="#ECE8E2" transform="translate(44.9990234375,16.94677734375)"/>
<path d="M0 0 C0 0.99 0 1.98 0 3 C0.99 3 1.98 3 3 3 C3.31042285 12.80706267 3.39925415 21.63181742 0 31 C-0.66 31 -1.32 31 -2 31 C-2 29.02 -2 27.04 -2 25 C-5.96 25 -9.92 25 -14 25 C-14.33 25.99 -14.66 26.98 -15 28 C-13.02 28.33 -11.04 28.66 -9 29 C-8.3125 30.8125 -8.3125 30.8125 -8 33 C-9.0625 34.8125 -9.0625 34.8125 -11 36 C-14.1875 35.6875 -14.1875 35.6875 -17 35 C-17 34.34 -17 33.68 -17 33 C-13.535 33.495 -13.535 33.495 -10 34 C-10.33 33.01 -10.66 32.02 -11 31 C-14.00847418 29.77479736 -14.00847418 29.77479736 -17 29 C-17.33 29.99 -17.66 30.98 -18 32 C-18.33 31.67 -18.66 31.34 -19 31 C-19.33 32.65 -19.66 34.3 -20 36 C-22.33294775 36.04241723 -24.66702567 36.04092937 -27 36 C-27.33 35.67 -27.66 35.34 -28 35 C-28.99 35.495 -28.99 35.495 -30 36 C-31.98 36 -33.96 36 -36 36 C-36 31.38 -36 26.76 -36 22 C-35.34 22 -34.68 22 -34 22 C-34.33 21.01 -34.66 20.02 -35 19 C-35.14492123 17.59335074 -35.24628931 16.1818867 -35.31640625 14.76953125 C-35.35830078 13.96708984 -35.40019531 13.16464844 -35.44335938 12.33789062 C-35.48267578 11.50451172 -35.52199219 10.67113281 -35.5625 9.8125 C-35.60568359 8.96751953 -35.64886719 8.12253906 -35.69335938 7.25195312 C-35.79931518 5.16815567 -35.9001502 3.08409897 -36 1 C-34.25008666 0.97284617 -32.50005055 0.95353449 -30.75 0.9375 C-29.28820312 0.92009766 -29.28820312 0.92009766 -27.796875 0.90234375 C-25 1 -25 1 -21 2 C-21 5.96 -21 9.92 -21 14 C-21.66 14 -22.32 14 -23 14 C-23.33 12.35 -23.66 10.7 -24 9 C-24.99 10.485 -24.99 10.485 -26 12 C-26.66 12 -27.32 12 -28 12 C-28.66 10.35 -29.32 8.7 -30 7 C-30.20625 8.258125 -30.4125 9.51625 -30.625 10.8125 C-30.74101563 11.52019531 -30.85703125 12.22789063 -30.9765625 12.95703125 C-31.19577848 15.31755824 -31.19577848 15.31755824 -29 18 C-26.33346095 18.36460453 -26.33346095 18.36460453 -23.375 18.1875 C-22.37210938 18.16042969 -21.36921875 18.13335937 -20.3359375 18.10546875 C-19.17964844 18.05326172 -19.17964844 18.05326172 -18 18 C-18 19.98 -18 21.96 -18 24 C-17.16855469 23.7834375 -16.33710937 23.566875 -15.48046875 23.34375 C-14.39378906 23.0653125 -13.30710937 22.786875 -12.1875 22.5 C-11.10855469 22.2215625 -10.02960938 21.943125 -8.91796875 21.65625 C-6 21 -6 21 -3 21 C-2.34 19.35 -1.68 17.7 -1 16 C-0.34 16 0.32 16 1 16 C0.505 14.515 0.505 14.515 0 13 C-0.721875 13.33 -1.44375 13.66 -2.1875 14 C-5.01697427 15.00603529 -7.02895466 15.16977402 -10 15 C-10 16.98 -10 18.96 -10 21 C-11.32 21 -12.64 21 -14 21 C-14 19.02 -14 17.04 -14 15 C-14.66 15 -15.32 15 -16 15 C-16 10.38 -16 5.76 -16 1 C-15.34 1 -14.68 1 -14 1 C-13.97421875 1.62648437 -13.9484375 2.25296875 -13.921875 2.8984375 C-13.86515625 3.71570312 -13.8084375 4.53296875 -13.75 5.375 C-13.70359375 6.18710937 -13.6571875 6.99921875 -13.609375 7.8359375 C-13.20456052 10.13635748 -13.20456052 10.13635748 -11.203125 11.2890625 C-8.75138094 12.20473425 -8.75138094 12.20473425 -5 12 C-4.67 11.01 -4.34 10.02 -4 9 C-6.97 8.505 -6.97 8.505 -10 8 C-10.625 5.625 -10.625 5.625 -11 3 C-7.88866897 -0.11133103 -4.26881718 0 0 0 Z " fill="#E8E9EA" transform="translate(117,51)"/>
<path d="M0 0 C4.03504887 2.33530301 7.18291133 4.54402179 8.8203125 9.046875 C9.60105111 14.2847416 9.27272228 18.77943243 6.29296875 23.33984375 C3.30543344 26.80284887 -0.22340635 29.75529666 -4.1796875 32.046875 C-8.86448799 32.046875 -9.71340065 31.23882249 -13.2421875 28.359375 C-14.09941406 27.67488281 -14.95664062 26.99039063 -15.83984375 26.28515625 C-18.79380869 23.45941016 -20.81631287 20.89975826 -21.61328125 16.8359375 C-21.62317196 11.35648537 -20.86888288 7.24755175 -17.1796875 3.046875 C-12.167165 -1.24232146 -6.16750853 -2.69690337 0 0 Z " fill="#4F49EB" transform="translate(66.1796875,43.953125)"/>
<path d="M0 0 C0.33 0 0.66 0 1 0 C1 2.97 1 5.94 1 9 C6.94 9 12.88 9 19 9 C19.495 9.99 19.495 9.99 20 11 C20.99 11.33 21.98 11.66 23 12 C23 15.96 23 19.92 23 24 C22.505 22.02 22.505 22.02 22 20 C15.73 20 9.46 20 3 20 C3.33 21.32 3.66 22.64 4 24 C8.62921525 25.0161692 12.34462607 24.83796731 17 24 C17 24.66 17 25.32 17 26 C16.05125 26.268125 15.1025 26.53625 14.125 26.8125 C10.74732727 27.74986588 10.74732727 27.74986588 9 31 C8.34 31 7.68 31 7 31 C6.5875 30.34 6.175 29.68 5.75 29 C4.09604286 26.65015047 4.09604286 26.65015047 0.875 26.6875 C-1.89350443 26.68465212 -1.89350443 26.68465212 -3 28 C-5.33297433 28.04092937 -7.66705225 28.04241723 -10 28 C-10 31.96 -10 35.92 -10 40 C-5.71 40 -1.42 40 3 40 C3 42.64 3 45.28 3 48 C-1.95 48.33 -6.9 48.66 -12 49 C-15.29844444 35.80622222 -14.09022333 20.18044665 -8 8 C-7.34 8 -6.68 8 -6 8 C-6 8.66 -6 9.32 -6 10 C-4.02 10 -2.04 10 0 10 C0 6.7 0 3.4 0 0 Z " fill="#F5F3EF" transform="translate(13,26)"/>
<path d="M0 0 C2.39718424 3.74620696 2.40492148 7.56346362 2.5625 11.875 C2.59786865 12.64569824 2.6332373 13.41639648 2.66967773 14.21044922 C2.74590327 15.89208128 2.81806739 17.57390108 2.88671875 19.25585938 C3.00813818 22.19714037 3.14344049 25.13756795 3.28125 28.078125 C3.52912288 33.38507068 3.76686187 38.69238731 4 44 C-2.435 44.495 -2.435 44.495 -9 45 C-9.99 38.4 -10.98 31.8 -12 25 C-12.33 25 -12.66 25 -13 25 C-15.01898203 14.51486645 -15.01898203 14.51486645 -12.68359375 11.04296875 C-10.85946451 9.54978304 -8.97931531 8.27788789 -7 7 C-5.31471312 5.35216394 -3.64302953 3.68997323 -2 2 C-1.34 1.34 -0.68 0.68 0 0 Z " fill="#EFEAE2" transform="translate(75,63)"/>
<path d="M0 0 C0.99773438 -0.01224609 1.99546875 -0.02449219 3.0234375 -0.03710938 C3.98507813 -0.03904297 4.94671875 -0.04097656 5.9375 -0.04296875 C6.81277344 -0.04707764 7.68804687 -0.05118652 8.58984375 -0.05541992 C11.15797237 0.20342205 12.7878246 0.89246635 15 2.1875 C14.34 2.1875 13.68 2.1875 13 2.1875 C13 5.4875 13 8.7875 13 12.1875 C7.72 12.1875 2.44 12.1875 -3 12.1875 C-3.9681648 8.3148408 -4.07622858 5.15138638 -4 1.1875 C-5.65 1.1875 -7.3 1.1875 -9 1.1875 C-8.505 7.1275 -8.505 7.1275 -8 13.1875 C-11.30773548 14.01443387 -13.85465899 14.3563359 -17.2109375 14.46875 C-18.20867188 14.50613281 -19.20640625 14.54351562 -20.234375 14.58203125 C-21.27078125 14.61683594 -22.3071875 14.65164063 -23.375 14.6875 C-32.23693798 14.93584261 -32.23693798 14.93584261 -41 16.1875 C-30.51080348 4.29974394 -15.28446119 0.00987368 0 0 Z " fill="#F0EAE1" transform="translate(60,-0.1875)"/>
<path d="M0 0 C0.08636719 0.59167969 0.17273437 1.18335938 0.26171875 1.79296875 C1.25095968 7.35631451 2.44080335 10.3304027 7 14 C7.99 14.66 8.98 15.32 10 16 C11.20693821 19.62081463 11.10782079 22.9250719 11.0625 26.6875 C11.041875 29.100625 11.02125 31.51375 11 34 C2.585 34.495 2.585 34.495 -6 35 C-6.66 23.78 -7.32 12.56 -8 1 C-4 0 -4 0 0 0 Z " fill="#B8E99D" transform="translate(45,56)"/>
<path d="M0 0 C4.95 0 9.9 0 15 0 C14.67 1.32 14.34 2.64 14 4 C11.36 4.33 8.72 4.66 6 5 C6.495 6.485 6.495 6.485 7 8 C7.07973476 9.33525717 7.10771338 10.67412083 7.09765625 12.01171875 C7.09443359 12.76904297 7.09121094 13.52636719 7.08789062 14.30664062 C7.07532227 15.48516602 7.07532227 15.48516602 7.0625 16.6875 C7.05798828 17.48478516 7.05347656 18.28207031 7.04882812 19.10351562 C7.0370585 21.06904257 7.01912348 23.03453085 7 25 C6.505 23.515 6.505 23.515 6 22 C5.22398438 22.06058594 4.44796875 22.12117188 3.6484375 22.18359375 C0.09919561 22.45889294 -3.45039048 22.72948393 -7 23 C-8.83111328 23.14308594 -8.83111328 23.14308594 -10.69921875 23.2890625 C-16.81847793 23.75214157 -22.86314714 24.12273706 -29 24 C-29 23.34 -29 22.68 -29 22 C-24.38 22 -19.76 22 -15 22 C-15 19.36 -15 16.72 -15 14 C-15.99 14.165 -16.98 14.33 -18 14.5 C-22.02732942 15.08474517 -25.93474623 15.07132024 -30 15 C-29.34 14.67 -28.68 14.34 -28 14 C-28 10.04 -28 6.08 -28 2 C-25.69 2 -23.38 2 -21 2 C-21 5.63 -21 9.26 -21 13 C-20.34 13 -19.68 13 -19 13 C-19 11.35 -19 9.7 -19 8 C-17.125 8.25 -17.125 8.25 -15 9 C-13.875 11 -13.875 11 -13 13 C-12.34 13.33 -11.68 13.66 -11 14 C-11 13.34 -11 12.68 -11 12 C-10.34 12 -9.68 12 -9 12 C-9 12.66 -9 13.32 -9 14 C-6.03 14.33 -3.06 14.66 0 15 C-0.33 14.01 -0.66 13.02 -1 12 C-0.67 11.67 -0.34 11.34 0 11 C0.07226502 9.14712498 0.0838122 7.29166122 0.0625 5.4375 C0.041875 3.643125 0.02125 1.84875 0 0 Z " fill="#EEEBDF" transform="translate(31,52)"/>
<path d="M0 0 C3.89210184 7.09596616 5.75456452 14.30398399 6.28125 22.3359375 C5.29125 22.3359375 4.30125 22.3359375 3.28125 22.3359375 C3.28125 21.3459375 3.28125 20.3559375 3.28125 19.3359375 C0.31125 19.9959375 -2.65875 20.6559375 -5.71875 21.3359375 C-6.04875 22.9859375 -6.37875 24.6359375 -6.71875 26.3359375 C-4.73875 26.9959375 -2.75875 27.6559375 -0.71875 28.3359375 C-1.04875 29.6559375 -1.37875 30.9759375 -1.71875 32.3359375 C-3.69875 32.0059375 -5.67875 31.6759375 -7.71875 31.3359375 C-8.04875 31.9959375 -8.37875 32.6559375 -8.71875 33.3359375 C-11.50660189 28.57619037 -11.3317696 23.75366315 -11.71875 18.3359375 C-6.43875 18.0059375 -1.15875 17.6759375 4.28125 17.3359375 C4.28125 16.3459375 4.28125 15.3559375 4.28125 14.3359375 C-4.13375 14.8309375 -4.13375 14.8309375 -12.71875 15.3359375 C-12.904375 12.8815625 -13.09 10.4271875 -13.28125 7.8984375 C-13.34256104 7.12443604 -13.40387207 6.35043457 -13.46704102 5.55297852 C-13.59044543 3.81632092 -13.6563945 2.07585705 -13.71875 0.3359375 C-11.99284618 -1.38996632 -9.69782714 -1.19543255 -7.34375 -1.4765625 C-5.87808594 -1.67185547 -5.87808594 -1.67185547 -4.3828125 -1.87109375 C-1.71875 -1.6640625 -1.71875 -1.6640625 0 0 Z " fill="#E9E7E6" transform="translate(113.71875,31.6640625)"/>
<path d="M0 0 C8.57142857 -0.14285714 8.57142857 -0.14285714 12 1 C13.46255003 6.53679654 13.14723829 9.46678436 10.4375 14.5625 C7.68941793 19.16185413 4.7454501 23.16942604 1 27 C0.34 27 -0.32 27 -1 27 C-2.94250868 23.11498265 -2.65349557 18.25705445 -3 14 C-6.63 13.67 -10.26 13.34 -14 13 C-14 12.67 -14 12.34 -14 12 C-11.36 12 -8.72 12 -6 12 C-6 10.02 -6 8.04 -6 6 C-5.34 6.33 -4.68 6.66 -4 7 C-3.67 6.34 -3.34 5.68 -3 5 C-0.69 5.66 1.62 6.32 4 7 C4 7.99 4 8.98 4 10 C1.69 9.67 -0.62 9.34 -3 9 C-3 9.66 -3 10.32 -3 11 C-0.36 11 2.28 11 5 11 C5 9.35 5 7.7 5 6 C3.02 5.34 1.04 4.68 -1 4 C-0.67 2.68 -0.34 1.36 0 0 Z " fill="#F3F0EA" transform="translate(103,75)"/>
<path d="M0 0 C1 1 1 1 1.1328125 3.65234375 C1.13023438 4.73644531 1.12765625 5.82054687 1.125 6.9375 C1.12886719 8.55978516 1.12886719 8.55978516 1.1328125 10.21484375 C1 13 1 13 0 15 C-5.61 15 -11.22 15 -17 15 C-17.33 10.71 -17.66 6.42 -18 2 C-12.0063721 -0.1310677 -6.34479831 -0.47201787 0 0 Z " fill="#EAE2B3" transform="translate(32,20)"/>
<path d="M0 0 C5.28 0 10.56 0 16 0 C17.63356321 4.90068963 17.05529694 9.85738476 17 15 C8.585 15.495 8.585 15.495 0 16 C0 10.72 0 5.44 0 0 Z " fill="#F0EBE2" transform="translate(79,14)"/>
<path d="M0 0 C1.09506492 3.28519475 1.09960608 5.73663415 1.0625 9.1875 C1.05347656 10.27417969 1.04445313 11.36085938 1.03515625 12.48046875 C1.02355469 13.31191406 1.01195313 14.14335938 1 15 C-2.46222615 16.06723961 -5.64039266 16.10173486 -9.25 16.0625 C-10.32765625 16.05347656 -11.4053125 16.04445313 -12.515625 16.03515625 C-13.33546875 16.02355469 -14.1553125 16.01195313 -15 16 C-16.00109515 12.68929162 -16.10356134 9.69915231 -16.0625 6.25 C-16.05347656 5.26515625 -16.04445313 4.2803125 -16.03515625 3.265625 C-16.02355469 2.51796875 -16.01195313 1.7703125 -16 1 C-10.59255982 0.22750855 -5.46137814 -0.09752461 0 0 Z " fill="#EFEAE0" transform="translate(96,32)"/>
<path d="M0 0 C1.03590199 5.05002222 1.10251672 9.87416389 1 15 C-4.69370789 16.23107198 -10.20215428 16.07070544 -16 16 C-16 11.05 -16 6.1 -16 1 C-10.60869279 0.3364545 -5.42910999 -0.11551298 0 0 Z " fill="#EFE9DF" transform="translate(74,15)"/>
<path d="M0 0 C3.125 0.25 3.125 0.25 5 1.625 C6.125 3.25 6.125 3.25 6.125 5.25 C7.48625 3.9815625 7.48625 3.9815625 8.875 2.6875 C11.80513366 0.24111482 11.80513366 0.24111482 14.375 0.3125 C16.125 1.25 16.125 1.25 18.125 3.25 C18.32725023 7.42983803 18.46150858 11.24047425 17.125 15.25 C10.375 15.375 10.375 15.375 8.125 14.25 C8.125 13.59 8.125 12.93 8.125 12.25 C7.465 12.25 6.805 12.25 6.125 12.25 C6.125 12.91 6.125 13.57 6.125 14.25 C5.135 13.92 4.145 13.59 3.125 13.25 C2.45833333 11.91666667 1.79166667 10.58333333 1.125 9.25 C0.135 8.92 -0.855 8.59 -1.875 8.25 C-1.875 9.9 -1.875 11.55 -1.875 13.25 C-2.535 13.25 -3.195 13.25 -3.875 13.25 C-3.90186553 11.27090602 -3.92133375 9.29171029 -3.9375 7.3125 C-3.94910156 6.21035156 -3.96070313 5.10820313 -3.97265625 3.97265625 C-3.83805711 0.22003236 -3.75483457 0.32650735 0 0 Z " fill="#BDC0D2" transform="translate(13.875,51.75)"/>
<path d="M0 0 C0 0.99 0 1.98 0 3 C0.99 3 1.98 3 3 3 C3.05380578 5.79192205 3.09357669 8.5828141 3.125 11.375 C3.15013672 12.56609375 3.15013672 12.56609375 3.17578125 13.78125 C3.19335473 15.85492015 3.10335168 17.92883241 3 20 C2.34 20.66 1.68 21.32 1 22 C0.01 21.67 -0.98 21.34 -2 21 C-1.67 19.35 -1.34 17.7 -1 16 C-0.34 16 0.32 16 1 16 C0.67 15.01 0.34 14.02 0 13 C-1.0828125 13.495 -1.0828125 13.495 -2.1875 14 C-5.01697427 15.00603529 -7.02895466 15.16977402 -10 15 C-10 16.98 -10 18.96 -10 21 C-11.32 21 -12.64 21 -14 21 C-14 19.02 -14 17.04 -14 15 C-14.66 15 -15.32 15 -16 15 C-16 10.38 -16 5.76 -16 1 C-15.34 1 -14.68 1 -14 1 C-13.97421875 1.62648437 -13.9484375 2.25296875 -13.921875 2.8984375 C-13.86515625 3.71570312 -13.8084375 4.53296875 -13.75 5.375 C-13.70359375 6.18710937 -13.6571875 6.99921875 -13.609375 7.8359375 C-13.20456052 10.13635748 -13.20456052 10.13635748 -11.203125 11.2890625 C-8.75138094 12.20473425 -8.75138094 12.20473425 -5 12 C-4.67 11.01 -4.34 10.02 -4 9 C-6.97 8.505 -6.97 8.505 -10 8 C-10.625 5.625 -10.625 5.625 -11 3 C-7.88866897 -0.11133103 -4.26881718 0 0 0 Z " fill="#DBDCE2" transform="translate(117,51)"/>
<path d="M0 0 C2.31 0 4.62 0 7 0 C7 3.63 7 7.26 7 11 C7.66 11 8.32 11 9 11 C9 9.35 9 7.7 9 6 C10.875 6.25 10.875 6.25 13 7 C14.125 9 14.125 9 15 11 C15.66 11.33 16.32 11.66 17 12 C17 11.34 17 10.68 17 10 C17.66 10.33 18.32 10.66 19 11 C18.67 11.66 18.34 12.32 18 13 C16.68 13 15.36 13 14 13 C14.33 14.65 14.66 16.3 15 18 C21.6 18 28.2 18 35 18 C35 19.65 35 21.3 35 23 C34.505 21.515 34.505 21.515 34 20 C33.22398438 20.06058594 32.44796875 20.12117188 31.6484375 20.18359375 C28.09919561 20.45889294 24.54960952 20.72948393 21 21 C19.16888672 21.14308594 19.16888672 21.14308594 17.30078125 21.2890625 C11.18152207 21.75214157 5.13685286 22.12273706 -1 22 C-1 21.34 -1 20.68 -1 20 C3.62 20 8.24 20 13 20 C13 17.36 13 14.72 13 12 C12.01 12.165 11.02 12.33 10 12.5 C5.97267058 13.08474517 2.06525377 13.07132024 -2 13 C-1.34 12.67 -0.68 12.34 0 12 C0 8.04 0 4.08 0 0 Z " fill="#F7F5F2" transform="translate(3,54)"/>
<path d="M0 0 C2.475 0.495 2.475 0.495 5 1 C5.42984747 6.17760426 5.85701773 11.35541992 6.28173828 16.53344727 C6.42651488 18.29392422 6.57201529 20.05434181 6.71826172 21.81469727 C6.92867555 24.34896731 7.13646208 26.88344135 7.34375 29.41796875 C7.40937134 30.20149216 7.47499268 30.98501556 7.54260254 31.7922821 C7.84644813 35.53780057 8.07850614 39.24151835 8 43 C5.525 43.495 5.525 43.495 3 44 C2.57028728 38.53754375 2.14311155 33.07489717 1.71826172 27.61206055 C1.57344759 25.75458446 1.42794643 23.8971618 1.28173828 22.03979492 C1.07142382 19.36651212 0.86359956 16.69304546 0.65625 14.01953125 C0.59062866 13.19226028 0.52500732 12.36498932 0.45739746 11.51264954 C0.16124114 7.66447957 -0.08183559 3.86332201 0 0 Z " fill="#FDFDFE" transform="translate(57,76)"/>
<path d="M0 0 C0 4.95 0 9.9 0 15 C-1.32 15.33 -2.64 15.66 -4 16 C-4.556875 15.4225 -5.11375 14.845 -5.6875 14.25 C-8.96496519 11.06111495 -12.66777795 10.22190878 -17 9 C-17 6.36 -17 3.72 -17 1 C-11.29014022 0.25983299 -5.75813575 -0.10469338 0 0 Z " fill="#E5E3E8" transform="translate(76,34)"/>
<path d="M0 0 C2 1 2 1 3 3 C3.39302445 6.09506752 3.62908496 8.04448766 3 11 C0.875 13.5625 0.875 13.5625 -2 15 C-5.15548924 14.93689022 -7.13769198 14.48864121 -9.875 12.9375 C-11.71933749 9.76114098 -11.52080575 6.57123945 -11 3 C-8.88635164 -1.22729673 -4.14812414 -0.60493477 0 0 Z " fill="#F9F8FD" transform="translate(64,51)"/>
<path d="M0 0 C2.31 0 4.62 0 7 0 C7 0.66 7 1.32 7 2 C5.68 2 4.36 2 3 2 C3 5.96 3 9.92 3 14 C7.29 14 11.58 14 16 14 C16 16.64 16 19.28 16 22 C11.05 22.33 6.1 22.66 1 23 C0.19753146 19.79012584 -0.11934909 17.66366478 -0.09765625 14.453125 C-0.09443359 13.60878906 -0.09121094 12.76445313 -0.08789062 11.89453125 C-0.07951172 11.02183594 -0.07113281 10.14914063 -0.0625 9.25 C-0.05798828 8.36183594 -0.05347656 7.47367188 -0.04882812 6.55859375 C-0.037074 4.37232671 -0.02064249 2.18619821 0 0 Z " fill="#DBD8D8" transform="translate(0,52)"/>
<path d="M0 0 C2.77186988 -0.10787818 5.53955537 -0.18723327 8.3125 -0.25 C9.09818359 -0.28351562 9.88386719 -0.31703125 10.69335938 -0.3515625 C16.46053369 -0.44972717 16.46053369 -0.44972717 19.04296875 1.703125 C20 4 20 4 20 9 C13.4 9 6.8 9 0 9 C0 6.03 0 3.06 0 0 Z " fill="#F0EADF" transform="translate(15,35)"/>
<path d="M0 0 C0 2.31 0 4.62 0 7 C-1.98 7.99 -1.98 7.99 -4 9 C-4 9.66 -4 10.32 -4 11 C-7.9813783 12.3271261 -11.85045227 12.06915913 -16 12 C-16.02688151 10.35425434 -16.04634123 8.70838587 -16.0625 7.0625 C-16.07410156 6.14597656 -16.08570313 5.22945312 -16.09765625 4.28515625 C-16 2 -16 2 -15 1 C-13.23501627 0.76369639 -11.46206484 0.58557627 -9.6875 0.4375 C-8.72199219 0.35371094 -7.75648437 0.26992188 -6.76171875 0.18359375 C-4.5119476 0.03403329 -2.25473692 0 0 0 Z " fill="#E7E0B4" transform="translate(53,38)"/>
<path d="M0 0 C1.25425781 0.00902344 2.50851563 0.01804687 3.80078125 0.02734375 C4.75339844 0.03894531 5.70601562 0.05054687 6.6875 0.0625 C6.6875 2.3725 6.6875 4.6825 6.6875 7.0625 C0.34508005 8.21566726 -5.87938704 8.15757063 -12.3125 8.0625 C-12.3125 5.7525 -12.3125 3.4425 -12.3125 1.0625 C-8.15623632 0.05323521 -4.26884906 -0.03989579 0 0 Z " fill="#EFE9DE" transform="translate(32.3125,92.9375)"/>
<path d="M0 0 C1.32 0 2.64 0 4 0 C5.35439668 2.70879335 5.06501451 5.00933268 5 8 C5.66 8.33 6.32 8.66 7 9 C0.49577707 11.00865708 -5.1781317 12.38614349 -12 12 C-11.01 11.67 -10.02 11.34 -9 11 C-9 7.7 -9 4.4 -9 1 C-7.02 1 -5.04 1 -3 1 C-2.67 2.65 -2.34 4.3 -2 6 C-1.34 4.02 -0.68 2.04 0 0 Z " fill="#EFE9E0" transform="translate(75,108)"/>
<path d="M0 0 C1 1 1 1 1.09765625 4.81640625 C1.09098089 6.39846682 1.07901875 7.98051159 1.0625 9.5625 C1.05798828 10.36880859 1.05347656 11.17511719 1.04882812 12.00585938 C1.03700518 14.00393756 1.01906914 16.00197783 1 18 C-2.99468118 14.88370109 -5.82865208 12.26524067 -8.375 7.8125 C-8.87773437 6.95269531 -9.38046875 6.09289062 -9.8984375 5.20703125 C-11 3 -11 3 -11 1 C-7.32307787 -0.17661508 -3.8361222 -0.14475933 0 0 Z " fill="#EFEADF" transform="translate(17,85)"/>
<path d="M0 0 C2.97 0 5.94 0 9 0 C9 3.63 9 7.26 9 11 C10.32 10.67 11.64 10.34 13 10 C14.74886981 9.93375493 16.50002748 9.91447405 18.25 9.9375 C19.14203125 9.94652344 20.0340625 9.95554687 20.953125 9.96484375 C21.62859375 9.97644531 22.3040625 9.98804688 23 10 C22.505 6.04 22.505 6.04 22 2 C22.66 2 23.32 2 24 2 C24 5.3 24 8.6 24 12 C18.72 12 13.44 12 8 12 C7.0318352 8.1273408 6.92377142 4.96388638 7 1 C5.35 1 3.7 1 2 1 C2.495 6.94 2.495 6.94 3 13 C-0.30773548 13.82693387 -2.85465899 14.1688359 -6.2109375 14.28125 C-7.20867188 14.31863281 -8.20640625 14.35601562 -9.234375 14.39453125 C-10.27078125 14.42933594 -11.3071875 14.46414063 -12.375 14.5 C-21.23693798 14.74834261 -21.23693798 14.74834261 -30 16 C-28.90112305 14.02441406 -28.90112305 14.02441406 -27 12 C-24.08911133 11.54589844 -24.08911133 11.54589844 -20.58203125 11.609375 C-18.70161133 11.62871094 -18.70161133 11.62871094 -16.78320312 11.6484375 C-15.47287109 11.68195312 -14.16253906 11.71546875 -12.8125 11.75 C-11.4772399 11.77006693 -10.14195117 11.78831738 -8.80664062 11.8046875 C-5.53703854 11.85190197 -2.26887808 11.91774816 1 12 C0.67 8.04 0.34 4.08 0 0 Z " fill="#E4E5EC" transform="translate(49,0)"/>
<path d="M0 0 C2.31 0.66 4.62 1.32 7 2 C7 2.99 7 3.98 7 5 C4.69 4.67 2.38 4.34 0 4 C0 4.66 0 5.32 0 6 C2.31 6.33 4.62 6.66 7 7 C6.01 7.33 5.02 7.66 4 8 C4.165 8.66 4.33 9.32 4.5 10 C5.12183299 13.73099794 5.06408926 17.21873378 5 21 C4.01 21.33 3.02 21.66 2 22 C0.05749132 18.11498265 0.34650443 13.25705445 0 9 C-3.63 8.67 -7.26 8.34 -11 8 C-11 7.67 -11 7.34 -11 7 C-8.36 7 -5.72 7 -3 7 C-3 5.02 -3 3.04 -3 1 C-2.34 1.33 -1.68 1.66 -1 2 C-0.67 1.34 -0.34 0.68 0 0 Z " fill="#F3F3F5" transform="translate(100,80)"/>
<path d="M0 0 C0.66 0 1.32 0 2 0 C2.02578125 0.62648437 2.0515625 1.25296875 2.078125 1.8984375 C2.13484375 2.71570312 2.1915625 3.53296875 2.25 4.375 C2.29640625 5.18710937 2.3428125 5.99921875 2.390625 6.8359375 C2.79543948 9.13635748 2.79543948 9.13635748 4.796875 10.2890625 C7.24861906 11.20473425 7.24861906 11.20473425 11 11 C11.33 10.01 11.66 9.02 12 8 C9.03 7.505 9.03 7.505 6 7 C5.375 4.625 5.375 4.625 5 2 C5.66 1.34 6.32 0.68 7 0 C9.625 0.375 9.625 0.375 12 1 C12 1.33 12 1.66 12 2 C10.35 2 8.7 2 7 2 C7.33 2.99 7.66 3.98 8 5 C10.50447516 6.21869929 10.50447516 6.21869929 13 7 C13.125 9.375 13.125 9.375 13 12 C11 14 11 14 8.375 14.125 C7.59125 14.08375 6.8075 14.0425 6 14 C6 15.98 6 17.96 6 20 C4.68 20 3.36 20 2 20 C2 18.02 2 16.04 2 14 C1.34 14 0.68 14 0 14 C0 9.38 0 4.76 0 0 Z " fill="#CCCED8" transform="translate(101,52)"/>
<path d="M0 0 C4.95 0 9.9 0 15 0 C14.67 1.32 14.34 2.64 14 4 C11.36 4.33 8.72 4.66 6 5 C6 8.3 6 11.6 6 15 C5.67 14.01 5.34 13.02 5 12 C3.68 12.33 2.36 12.66 1 13 C0.67 8.71 0.34 4.42 0 0 Z " fill="#EDEDEA" transform="translate(31,52)"/>
<path d="M0 0 C6.65137288 2.98215399 11.22768463 8.31382763 14 15 C10.04 15 6.08 15 2 15 C1.90912109 13.62714844 1.90912109 13.62714844 1.81640625 12.2265625 C1.69072266 10.44378906 1.69072266 10.44378906 1.5625 8.625 C1.48128906 7.44164062 1.40007812 6.25828125 1.31640625 5.0390625 C1.18915064 2.08481099 1.18915064 2.08481099 0 0 Z " fill="#EFE9E0" transform="translate(97,13)"/>
<path d="M0 0 C5.28 0 10.56 0 16 0 C17.63356321 4.90068963 17.05529694 9.85738476 17 15 C8.585 15.495 8.585 15.495 0 16 C0 10.72 0 5.44 0 0 Z M1 2 C1.33 5.96 1.66 9.92 2 14 C3.8253125 14.0309375 3.8253125 14.0309375 5.6875 14.0625 C6.37199219 14.07410156 7.05648437 14.08570313 7.76171875 14.09765625 C10.25492215 13.98887774 12.56712913 13.54111139 15 13 C15.02687279 11.18757948 15.04633715 9.37504767 15.0625 7.5625 C15.07410156 6.55316406 15.08570312 5.54382813 15.09765625 4.50390625 C15.28612676 2.05978933 15.28612676 2.05978933 14 1 C9.52519101 0.82451729 5.39166027 1.14309068 1 2 Z " fill="#E4E5ED" transform="translate(79,14)"/>
<path d="M0 0 C1.31223496 3.93670488 0.24296256 6.12488144 -1 10 C-1.66 10 -2.32 10 -3 10 C-3 8.02 -3 6.04 -3 4 C-6.96 4 -10.92 4 -15 4 C-15.33 4.99 -15.66 5.98 -16 7 C-13.03 7.495 -13.03 7.495 -10 8 C-9.3125 9.8125 -9.3125 9.8125 -9 12 C-10.0625 13.8125 -10.0625 13.8125 -12 15 C-15.1875 14.6875 -15.1875 14.6875 -18 14 C-18 13.34 -18 12.68 -18 12 C-15.69 12.33 -13.38 12.66 -11 13 C-11.33 12.01 -11.66 11.02 -12 10 C-14.50447516 8.78130071 -14.50447516 8.78130071 -17 8 C-17.042721 6.33388095 -17.04063832 4.66617115 -17 3 C-13.31914067 -0.68085933 -4.86170414 -0.20688103 0 0 Z " fill="#BBBECF" transform="translate(118,72)"/>
<path d="M0 0 C0.33 0.66 0.66 1.32 1 2 C3.64 1.67 6.28 1.34 9 1 C9.33 3.64 9.66 6.28 10 9 C6.98509443 10.00496852 4.95818308 10.10335303 1.8125 10.0625 C0.224375 10.041875 -1.36375 10.02125 -3 10 C-2.01 6.7 -1.02 3.4 0 0 Z " fill="#F0EAE0" transform="translate(4,36)"/>
<path d="M0 0 C1.03590199 5.05002222 1.10251672 9.87416389 1 15 C-4.69370789 16.23107198 -10.20215428 16.07070544 -16 16 C-16 11.05 -16 6.1 -16 1 C-10.60869279 0.3364545 -5.42910999 -0.11551298 0 0 Z M-15 3 C-14.67 6.96 -14.34 10.92 -14 15 C-7.565 14.505 -7.565 14.505 -1 14 C-0.979375 12.576875 -0.95875 11.15375 -0.9375 9.6875 C-0.92589844 8.88699219 -0.91429688 8.08648437 -0.90234375 7.26171875 C-0.90342145 4.83138666 -0.90342145 4.83138666 -2 2 C-3.79158489 1.97303635 -5.58328473 1.95362083 -7.375 1.9375 C-8.87160156 1.92009766 -8.87160156 1.92009766 -10.3984375 1.90234375 C-12.98432453 1.81993398 -12.98432453 1.81993398 -15 3 Z " fill="#E2E3EC" transform="translate(74,15)"/>
<path d="M0 0 C4.62 0 9.24 0 14 0 C14 1.98 14 3.96 14 6 C11.35541621 7.32229189 9.32238699 7.09677194 6.375 7.0625 C5.37210937 7.05347656 4.36921875 7.04445313 3.3359375 7.03515625 C2.56507812 7.02355469 1.79421875 7.01195312 1 7 C0.67 4.69 0.34 2.38 0 0 Z " fill="#F2EDE5" transform="translate(60,36)"/>
<path d="M0 0 C1.09506492 3.28519475 1.09960608 5.73663415 1.0625 9.1875 C1.05347656 10.27417969 1.04445313 11.36085938 1.03515625 12.48046875 C1.02355469 13.31191406 1.01195313 14.14335938 1 15 C-2.46222615 16.06723961 -5.64039266 16.10173486 -9.25 16.0625 C-10.32765625 16.05347656 -11.4053125 16.04445313 -12.515625 16.03515625 C-13.33546875 16.02355469 -14.1553125 16.01195313 -15 16 C-16.00109515 12.68929162 -16.10356134 9.69915231 -16.0625 6.25 C-16.05347656 5.26515625 -16.04445313 4.2803125 -16.03515625 3.265625 C-16.02355469 2.51796875 -16.01195313 1.7703125 -16 1 C-10.59255982 0.22750855 -5.46137814 -0.09752461 0 0 Z M-14 3 C-14 6.96 -14 10.92 -14 15 C-9.38 14.67 -4.76 14.34 0 14 C-0.33 10.04 -0.66 6.08 -1 2 C-2.588125 1.979375 -4.17625 1.95875 -5.8125 1.9375 C-6.70582031 1.92589844 -7.59914063 1.91429687 -8.51953125 1.90234375 C-11.13413791 1.88990033 -11.13413791 1.88990033 -14 3 Z " fill="#E2E4EC" transform="translate(96,32)"/>
<path d="M0 0 C5.85125242 1.80038536 10.79302425 3.78718518 16 7 C12.65060119 9.02558881 10.13037449 9.21738987 6.25 9.125 C5.26515625 9.10695313 4.2803125 9.08890625 3.265625 9.0703125 C2.14414063 9.03550781 2.14414063 9.03550781 1 9 C0.67 6.03 0.34 3.06 0 0 Z " fill="#EFEBE3" transform="translate(77,2)"/>
<path d="M0 0 C1.11955078 0.24556641 1.11955078 0.24556641 2.26171875 0.49609375 C5.54381541 1.10007445 8.67010069 1.06529214 12 1 C12 1.33 12 1.66 12 2 C9.69 2.66 7.38 3.32 5 4 C5 5.32 5 6.64 5 8 C6.98 8.66 8.96 9.32 11 10 C10.67 11.32 10.34 12.64 10 14 C7.03 13.505 7.03 13.505 4 13 C3.67 13.66 3.34 14.32 3 15 C1.08697693 11.73386305 0.64325339 9.00554752 0.375 5.25 C0.30023438 4.26515625 0.22546875 3.2803125 0.1484375 2.265625 C0.09945312 1.51796875 0.05046875 0.7703125 0 0 Z " fill="#F4F2F1" transform="translate(102,50)"/>
<path d="M0 0 C-0.33 1.32 -0.66 2.64 -1 4 C-1.66 3.34 -2.32 2.68 -3 2 C-5.74485593 1.85492305 -8.38480543 1.81347577 -11.125 1.875 C-12.25615234 1.88853516 -12.25615234 1.88853516 -13.41015625 1.90234375 C-15.27357254 1.9259313 -17.13682593 1.96180281 -19 2 C-19.33 2.66 -19.66 3.32 -20 4 C-20.70125 3.97679687 -21.4025 3.95359375 -22.125 3.9296875 C-28.15558862 3.81497522 -33.22443873 4.25643433 -39 6 C-37.25 2.125 -37.25 2.125 -35 1 C-33.2326861 0.84645548 -31.46021433 0.75036403 -29.6875 0.68359375 C-28.61113281 0.64169922 -27.53476562 0.59980469 -26.42578125 0.55664062 C-25.29527344 0.51732422 -24.16476563 0.47800781 -23 0.4375 C-21.35064453 0.37272461 -21.35064453 0.37272461 -19.66796875 0.30664062 C-13.10878678 0.06154664 -6.56355422 -0.05833859 0 0 Z " fill="#E5E5E7" transform="translate(52,17)"/>
<path d="M0 0 C0 1.98 0 3.96 0 6 C-2.52475462 7.26237731 -4.31200466 7.09856404 -7.125 7.0625 C-8.03507812 7.05347656 -8.94515625 7.04445313 -9.8828125 7.03515625 C-10.58148438 7.02355469 -11.28015625 7.01195312 -12 7 C-12 5.02 -12 3.04 -12 1 C-10.18755015 0.83278881 -8.37503867 0.66624559 -6.5625 0.5 C-5.55316406 0.4071875 -4.54382812 0.314375 -3.50390625 0.21875 C-1 0 -1 0 0 0 Z " fill="#B1E694" transform="translate(50,38)"/>
<path d="M0 0 C0.66 0 1.32 0 2 0 C3.4606285 2.64738916 4 3.89448334 4 7 C7.01327566 5.49336217 7.61056618 2.96833589 9 0 C9.66 0 10.32 0 11 0 C11 3.96 11 7.92 11 12 C10.34 12 9.68 12 9 12 C8.67 10.35 8.34 8.7 8 7 C7.01 8.485 7.01 8.485 6 10 C5.34 10 4.68 10 4 10 C3.34 8.35 2.68 6.7 2 5 C1.67 7.31 1.34 9.62 1 12 C0.67 12 0.34 12 0 12 C0 8.04 0 4.08 0 0 Z " fill="#767FA7" transform="translate(85,53)"/>
<path d="M0 0 C0.33 0 0.66 0 1 0 C1 1.98 1 3.96 1 6 C1.66 6 2.32 6 3 6 C2.67 8.64 2.34 11.28 2 14 C1.34 13.67 0.68 13.34 0 13 C-0.33 14.65 -0.66 16.3 -1 18 C-1.66 18 -2.32 18 -3 18 C-3 13.71 -3 9.42 -3 5 C-2.34 5 -1.68 5 -1 5 C-0.67 3.35 -0.34 1.7 0 0 Z " fill="#BDC4D0" transform="translate(98,69)"/>
<path d="M0 0 C4.875 0.875 4.875 0.875 6 2 C6.23529412 7.52941176 6.23529412 7.52941176 5 10 C3.35 10 1.7 10 0 10 C0 6.7 0 3.4 0 0 Z " fill="#F3F1F0" transform="translate(83,75)"/>
<path d="M0 0 C3.375 -0.125 3.375 -0.125 7 0 C9.42522207 2.42522207 9.29629254 3.1720679 9.3125 6.5 C9.33763672 7.69109375 9.33763672 7.69109375 9.36328125 8.90625 C9.24339844 9.5971875 9.12351562 10.288125 9 11 C6 13 6 13 0 13 C0 8.71 0 4.42 0 0 Z M2 1 C2 4.3 2 7.6 2 11 C3.65 11 5.3 11 7 11 C8.38125018 8.23749964 8.19079306 6.05268901 8 3 C7.34 2.34 6.68 1.68 6 1 C4.68 1 3.36 1 2 1 Z " fill="#7F87AD" transform="translate(81,74)"/>
<path d="M0 0 C1.98 0 3.96 0 6 0 C5.01 0.33 4.02 0.66 3 1 C3.165 1.66 3.33 2.32 3.5 3 C4.12183299 6.73099794 4.06408926 10.21873378 4 14 C3.01 14.33 2.02 14.66 1 15 C-0.44207941 12.11584117 -0.09394887 9.58278472 -0.0625 6.375 C-0.05347656 5.18648438 -0.04445313 3.99796875 -0.03515625 2.7734375 C-0.02355469 1.85820313 -0.01195313 0.94296875 0 0 Z " fill="#FCFCFC" transform="translate(101,87)"/>
<path d="M0 0 C0.99 0.33 1.98 0.66 3 1 C4.14507772 6.19689119 4.14507772 6.19689119 4 9 C1.5625 12 1.5625 12 -1 14 C-1.22142255 12.04310341 -1.4267568 10.08438048 -1.625 8.125 C-1.74101563 7.03445312 -1.85703125 5.94390625 -1.9765625 4.8203125 C-1.98429687 3.88960938 -1.99203125 2.95890625 -2 2 C-1.34 1.34 -0.68 0.68 0 0 Z " fill="#EAE7E5" transform="translate(106,86)"/>
<path d="M0 0 C0 1.98 0 3.96 0 6 C-3.63 6 -7.26 6 -11 6 C-11 4.68 -11 3.36 -11 2 C-9.5422647 1.664061 -8.08378894 1.33133376 -6.625 1 C-5.40683594 0.7215625 -5.40683594 0.7215625 -4.1640625 0.4375 C-2 0 -2 0 0 0 Z " fill="#EFEADF" transform="translate(46,25)"/>
<path d="M0 0 C0.66 0 1.32 0 2 0 C2 2.31 2 4.62 2 7 C2.73605469 6.7834375 3.47210938 6.566875 4.23046875 6.34375 C5.20628906 6.0653125 6.18210937 5.786875 7.1875 5.5 C8.63189453 5.08234375 8.63189453 5.08234375 10.10546875 4.65625 C12.85345876 4.03322392 15.19598416 3.87697188 18 4 C16.02 4.99 16.02 4.99 14 6 C14.33 7.98 14.66 9.96 15 12 C14.34 12 13.68 12 13 12 C13 10.02 13 8.04 13 6 C12.113125 6.33 11.22625 6.66 10.3125 7 C7.29076653 7.91222143 5.11626294 8.18330958 2 8 C2 9.65 2 11.3 2 13 C1.67 13 1.34 13 1 13 C0.67 8.71 0.34 4.42 0 0 Z " fill="#F6F4F0" transform="translate(33,19)"/>
<path d="M0 0 C4.95 0 9.9 0 15 0 C14.67 0.99 14.34 1.98 14 3 C7.565 3.495 7.565 3.495 1 4 C0.67 2.68 0.34 1.36 0 0 Z " fill="#FBFBFC" transform="translate(31,52)"/>
<path d="M0 0 C0.99 0.33 1.98 0.66 3 1 C2.34 1 1.68 1 1 1 C1 1.99 1 2.98 1 4 C2.65 4 4.3 4 6 4 C6 6.31 6 8.62 6 11 C4.02 11 2.04 11 0 11 C0 7.37 0 3.74 0 0 Z " fill="#EFEEF0" transform="translate(3,54)"/>
<path d="M0 0 C2.475 0.495 2.475 0.495 5 1 C5 3.64 5 6.28 5 9 C3.0625 9.5625 3.0625 9.5625 1 10 C0 9 0 9 -0.09765625 6.93359375 C-0.08605469 6.10988281 -0.07445313 5.28617188 -0.0625 4.4375 C-0.05347656 3.61121094 -0.04445313 2.78492188 -0.03515625 1.93359375 C-0.02355469 1.29550781 -0.01195313 0.65742187 0 0 Z " fill="#F0EFF0" transform="translate(25,54)"/>
<path d="M0 0 C1.4540625 0.0309375 1.4540625 0.0309375 2.9375 0.0625 C2.9375 0.7225 2.9375 1.3825 2.9375 2.0625 C1.2875 2.0625 -0.3625 2.0625 -2.0625 2.0625 C-2.3925 3.0525 -2.7225 4.0425 -3.0625 5.0625 C-0.0925 5.5575 -0.0925 5.5575 2.9375 6.0625 C3.625 7.875 3.625 7.875 3.9375 10.0625 C2.875 11.875 2.875 11.875 0.9375 13.0625 C-2.25 12.75 -2.25 12.75 -5.0625 12.0625 C-5.0625 11.4025 -5.0625 10.7425 -5.0625 10.0625 C-2.7525 10.3925 -0.4425 10.7225 1.9375 11.0625 C1.6075 10.0725 1.2775 9.0825 0.9375 8.0625 C-1.56697516 6.84380071 -1.56697516 6.84380071 -4.0625 6.0625 C-4.105221 4.39638095 -4.10313832 2.72867115 -4.0625 1.0625 C-3.0625 0.0625 -3.0625 0.0625 0 0 Z " fill="#848CB0" transform="translate(105.0625,73.9375)"/>
<path d="M0 0 C0.66 0 1.32 0 2 0 C2 1.65 2 3.3 2 5 C3.98 5 5.96 5 8 5 C8.33 7.31 8.66 9.62 9 12 C8.34 12 7.68 12 7 12 C6.731875 11.360625 6.46375 10.72125 6.1875 10.0625 C5.11332248 7.66868314 5.11332248 7.66868314 2 7 C2 8.65 2 10.3 2 12 C1.34 12 0.68 12 0 12 C0 8.04 0 4.08 0 0 Z " fill="#7D86AC" transform="translate(10,53)"/>
<path d="M0 0 C0.99 0.33 1.98 0.66 3 1 C4.61729417 4.67566856 4.06546005 9.07239675 4 13 C5.918125 12.938125 5.918125 12.938125 7.875 12.875 C10.0546875 12.8046875 10.0546875 12.8046875 12 13 C12.66 13.66 13.32 14.32 14 15 C10.04 15 6.08 15 2 15 C1.90912109 13.62714844 1.90912109 13.62714844 1.81640625 12.2265625 C1.69072266 10.44378906 1.69072266 10.44378906 1.5625 8.625 C1.48128906 7.44164062 1.40007812 6.25828125 1.31640625 5.0390625 C1.18915064 2.08481099 1.18915064 2.08481099 0 0 Z " fill="#E6E6ED" transform="translate(97,13)"/>
<path d="M0 0 C2.625 0.375 2.625 0.375 5 1 C5 1.33 5 1.66 5 2 C3.35 2 1.7 2 0 2 C0.33 2.99 0.66 3.98 1 5 C3.50447516 6.21869929 3.50447516 6.21869929 6 7 C6.042721 8.66611905 6.04063832 10.33382885 6 12 C5 13 5 13 1.4375 13.0625 C0.303125 13.041875 -0.83125 13.02125 -2 13 C-2 12.34 -2 11.68 -2 11 C-0.02 11 1.96 11 4 11 C4.33 10.01 4.66 9.02 5 8 C2.03 7.505 2.03 7.505 -1 7 C-1.625 4.625 -1.625 4.625 -2 2 C-1.34 1.34 -0.68 0.68 0 0 Z " fill="#838BB0" transform="translate(108,52)"/>
<path d="M0 0 C2.875 -0.125 2.875 -0.125 6 0 C8 2 8 2 8.125 4.625 C8.08375 5.40875 8.0425 6.1925 8 7 C5.69 6.67 3.38 6.34 1 6 C0.67 4.02 0.34 2.04 0 0 Z " fill="#9299BA" transform="translate(11,52)"/>
<path d="M0 0 C0.90105469 0.00902344 1.80210938 0.01804688 2.73046875 0.02734375 C3.41753906 0.03894531 4.10460937 0.05054688 4.8125 0.0625 C3.8225 0.5575 3.8225 0.5575 2.8125 1.0625 C2.8125 3.3725 2.8125 5.6825 2.8125 8.0625 C0.8125 5.0625 0.8125 5.0625 0.8125 2.0625 C-0.5075 2.0625 -1.8275 2.0625 -3.1875 2.0625 C-3.1875 4.0425 -3.1875 6.0225 -3.1875 8.0625 C-3.8475 7.7325 -4.5075 7.4025 -5.1875 7.0625 C-5.1875 5.4125 -5.1875 3.7625 -5.1875 2.0625 C-6.1775 1.7325 -7.1675 1.4025 -8.1875 1.0625 C-5.17259443 0.05753148 -3.14568308 -0.04085303 0 0 Z " fill="#F6F4EE" transform="translate(110.1875,36.9375)"/>
<path d="M0 0 C3.63 0 7.26 0 11 0 C11.33 2.64 11.66 5.28 12 8 C10.68 8 9.36 8 8 8 C7.67 5.69 7.34 3.38 7 1 C4.69 1 2.38 1 0 1 C0 0.67 0 0.34 0 0 Z " fill="#F0EADF" transform="translate(28,102)"/>
<path d="M0 0 C0.66 0 1.32 0 2 0 C2.33 2.31 2.66 4.62 3 7 C7.29 7 11.58 7 16 7 C12.01219998 8.99390001 10.52852428 9.22686963 6.25 9.125 C5.26515625 9.10695313 4.2803125 9.08890625 3.265625 9.0703125 C2.14414063 9.03550781 2.14414063 9.03550781 1 9 C0.67 6.03 0.34 3.06 0 0 Z " fill="#E6E7EE" transform="translate(77,2)"/>
<path d="M0 0 C1.21236328 0.01353516 1.21236328 0.01353516 2.44921875 0.02734375 C3.37154297 0.04474609 3.37154297 0.04474609 4.3125 0.0625 C4.3125 1.0525 4.3125 2.0425 4.3125 3.0625 C-0.71046004 4.19266601 -4.66624074 3.84166092 -9.6875 3.0625 C-6.66074696 0.03574696 -4.08749979 -0.05923913 0 0 Z " fill="#EFE9DF" transform="translate(9.6875,46.9375)"/>
<path d="M0 0 C3.96 0 7.92 0 12 0 C10.02 0.99 10.02 0.99 8 2 C7.3006486 4.18541552 7.3006486 4.18541552 7.25 6.625 C7.19328125 7.44226563 7.1365625 8.25953125 7.078125 9.1015625 C7.05234375 9.72804688 7.0265625 10.35453125 7 11 C5.25434889 7.78360346 4.795563 5.67986596 5 2 C3.02 2 1.04 2 -1 2 C-0.67 1.34 -0.34 0.68 0 0 Z " fill="#F7F4EF" transform="translate(67,107)"/>
<path d="M0 0 C0.33 1.32 0.66 2.64 1 4 C0.01 4.495 0.01 4.495 -1 5 C-1.65555119 7.52733235 -1.65555119 7.52733235 -2 10 C-2.33 10 -2.66 10 -3 10 C-3 8.35 -3 6.7 -3 5 C-5.31 5 -7.62 5 -10 5 C-10 4.34 -10 3.68 -10 3 C-5.05 1.515 -5.05 1.515 0 0 Z " fill="#F9F7F4" transform="translate(117,63)"/>
<path d="M0 0 C1.9375 0.375 1.9375 0.375 4 1 C5.32229189 3.64458379 5.09677194 5.67761301 5.0625 8.625 C5.05347656 9.62789062 5.04445313 10.63078125 5.03515625 11.6640625 C5.02355469 12.43492188 5.01195313 13.20578125 5 14 C4.67 14 4.34 14 4 14 C3.67 11.03 3.34 8.06 3 5 C2.01 4.67 1.02 4.34 0 4 C0 2.68 0 1.36 0 0 Z " fill="#C4EBAE" transform="translate(88,69)"/>
<path d="M0 0 C-0.33 0.66 -0.66 1.32 -1 2 C-6.28 2 -11.56 2 -17 2 C-17.33 2.66 -17.66 3.32 -18 4 C-18 3.01 -18 2.02 -18 1 C-15.56348622 0.63737003 -13.12623023 0.28461036 -10.6875 -0.0625 C-9.99720703 -0.16626953 -9.30691406 -0.27003906 -8.59570312 -0.37695312 C-5.30415164 -0.83808836 -3.19783876 -1.06594625 0 0 Z " fill="#DDDEE3" transform="translate(48,50)"/>
<path d="M0 0 C0.66 0.33 1.32 0.66 2 1 C2.125 3.875 2.125 3.875 2 7 C1.34 7.66 0.68 8.32 0 9 C-0.99 8.67 -1.98 8.34 -3 8 C-2.67 6.35 -2.34 4.7 -2 3 C-1.34 3 -0.68 3 0 3 C0 2.01 0 1.02 0 0 Z " fill="#EDE9E4" transform="translate(118,64)"/>
<path d="M0 0 C1.32 0 2.64 0 4 0 C4.33 1.98 4.66 3.96 5 6 C3.35 6 1.7 6 0 6 C0 4.02 0 2.04 0 0 Z " fill="#EFEADF" transform="translate(107,39)"/>
<path d="M0 0 C0.99 0.495 0.99 0.495 2 1 C2.37890625 3.3984375 2.37890625 3.3984375 2.5625 6.375 C2.76686657 9.53642575 2.99377883 11.98133648 4 15 C3.01 15.33 2.02 15.66 1 16 C0.67 10.72 0.34 5.44 0 0 Z " fill="#E2E3EA" transform="translate(99,88)"/>
<path d="M0 0 C0.33 1.98 0.66 3.96 1 6 C-0.32 6.33 -1.64 6.66 -3 7 C-3.33 5.02 -3.66 3.04 -4 1 C-2 0 -2 0 0 0 Z " fill="#EFEAE0" transform="translate(51,24)"/>
<path d="M0 0 C1.65 0.33 3.3 0.66 5 1 C5 2.32 5 3.64 5 5 C2.03 4.505 2.03 4.505 -1 4 C-0.67 2.68 -0.34 1.36 0 0 Z " fill="#E5E6EC" transform="translate(103,75)"/>
<path d="M0 0 C1.65 0.33 3.3 0.66 5 1 C4.67 2.32 4.34 3.64 4 5 C1.03 4.505 1.03 4.505 -2 4 C-1.34 3.67 -0.68 3.34 0 3 C0 2.01 0 1.02 0 0 Z " fill="#E8E8EC" transform="translate(108,59)"/>
<path d="M0 0 C1.65 0 3.3 0 5 0 C5 1.32 5 2.64 5 4 C3.35 4.33 1.7 4.66 0 5 C0 3.35 0 1.7 0 0 Z " fill="#F0EADF" transform="translate(109,68)"/>
<path d="M0 0 C0.99 0.495 0.99 0.495 2 1 C2.625 3.5625 2.625 3.5625 3 6 C3.99 5.67 4.98 5.34 6 5 C6 5.66 6 6.32 6 7 C4.02 7.33 2.04 7.66 0 8 C0 5.36 0 2.72 0 0 Z " fill="#D4D7E4" transform="translate(86,57)"/>
<path d="M0 0 C0 1.32 0 2.64 0 4 C-1.98 4 -3.96 4 -6 4 C-6 3.01 -6 2.02 -6 1 C-4 0 -4 0 0 0 Z " fill="#FCFCFD" transform="translate(10,54)"/>
<path d="M0 0 C2.31 0 4.62 0 7 0 C7 0.99 7 1.98 7 3 C5.35 3.33 3.7 3.66 2 4 C1.34 2.68 0.68 1.36 0 0 Z " fill="#EFEADF" transform="translate(91,69)"/>
<path d="M0 0 C1.65 0 3.3 0 5 0 C5 1.32 5 2.64 5 4 C3.35 4 1.7 4 0 4 C0 2.68 0 1.36 0 0 Z " fill="#F4F5F8" transform="translate(12,54)"/>
<path d="M0 0 C0.33 0.99 0.66 1.98 1 3 C0.67 3.66 0.34 4.32 0 5 C-1.65 5 -3.3 5 -5 5 C-5.33 4.01 -5.66 3.02 -6 2 C-4.02 2 -2.04 2 0 2 C0 1.34 0 0.68 0 0 Z " fill="#F5F4F4" transform="translate(114,53)"/>
<path d="M0 0 C4.875 0.875 4.875 0.875 6 2 C6.04080783 3.99958364 6.04254356 6.00045254 6 8 C5.67 8 5.34 8 5 8 C5 6.35 5 4.7 5 3 C3.68 3 2.36 3 1 3 C0.67 2.01 0.34 1.02 0 0 Z " fill="#D8D9E4" transform="translate(83,75)"/>
<path d="M0 0 C0.99 0 1.98 0 3 0 C3 1.98 3 3.96 3 6 C2.01 6 1.02 6 0 6 C0 4.02 0 2.04 0 0 Z " fill="#EFEAE0" transform="translate(5,59)"/>
<path d="M0 0 C1.4606285 2.64738916 2 3.89448334 2 7 C2.99 7.33 3.98 7.66 5 8 C4.01 8 3.02 8 2 8 C1.67 8.66 1.34 9.32 1 10 C0 9 0 9 -0.09765625 6.93359375 C-0.08605469 6.10988281 -0.07445313 5.28617188 -0.0625 4.4375 C-0.05347656 3.61121094 -0.04445313 2.78492188 -0.03515625 1.93359375 C-0.02355469 1.29550781 -0.01195313 0.65742187 0 0 Z " fill="#F8F5F1" transform="translate(86,35)"/>
</svg>
