<?xml version="1.0" encoding="UTF-8"?>
<svg version="1.1" xmlns="http://www.w3.org/2000/svg" width="220" height="170">
<path d="M0 0 C52.92236204 -0.32242427 52.92236204 -0.32242427 75.06640625 -0.390625 C90.36821898 -0.43813039 105.66967982 -0.49403489 120.97119141 -0.60351562 C132.11429108 -0.68320541 143.25710583 -0.73485449 154.40048254 -0.75270796 C160.30204178 -0.7631458 166.20278583 -0.78770762 172.10408401 -0.84584045 C177.65777586 -0.90010628 183.21031611 -0.91689972 188.76424789 -0.90486145 C190.80328885 -0.90706396 192.84236795 -0.92299983 194.88117981 -0.9536438 C197.66558057 -0.99344445 200.44563214 -0.98389225 203.23013306 -0.96203613 C204.44123904 -0.99699023 204.44123904 -0.99699023 205.67681181 -1.03265047 C209.18818276 -0.95811885 211.19265042 -0.76309798 213.80357623 1.7047205 C219.41133617 8.99482286 220.97791404 14.79027792 220 24 C218.4375 27.375 218.4375 27.375 216 30 C215.56042969 30.48726562 215.12085938 30.97453125 214.66796875 31.4765625 C201.31757905 44.65795993 176.64473311 47.3640738 159.1953125 51.69140625 C111.63699288 63.50764611 64.10080548 76.11660854 27 110 C25.69675781 111.17949219 25.69675781 111.17949219 24.3671875 112.3828125 C14.97803186 121.3010387 7.73369817 132.00162631 1 143 C0.67 143 0.34 143 0 143 C0 95.81 0 48.62 0 0 Z " fill="#B8ECF8" transform="translate(0,0)"/>
</svg>
