<?xml version="1.0" encoding="UTF-8"?>
<svg version="1.1" xmlns="http://www.w3.org/2000/svg" width="512" height="512">
<path d="M0 0 C2.22665163 0.00316736 4.45197696 -0.0204506 6.6784668 -0.0456543 C23.44860113 -0.11962508 43.36747121 1.6470693 55.86791992 13.98754883 C75.55708315 37.79026948 72.989485 79.80696524 72.85620117 108.87817383 C72.83557617 115.29254883 72.81495117 121.70692383 72.79370117 128.31567383 C102.49370117 128.81067383 102.49370117 128.81067383 132.79370117 129.31567383 C131.7168464 199.69130035 130.58366901 270.06588797 129.37936729 340.43945426 C129.26421816 347.17579298 129.150518 353.91215519 129.03744507 360.64852905 C128.8979327 368.95784806 128.75634391 377.26712876 128.61224377 385.57636952 C128.53818336 389.84926325 128.46494097 394.12216628 128.39411163 398.3951149 C128.07866809 417.38061623 127.6390011 436.34464022 126.79370117 455.31567383 C124.73241449 455.37612246 122.67112435 455.43645341 120.60983276 455.49673462 C119.46195219 455.53034403 118.31407162 455.56395344 117.13140678 455.59858131 C115.31116086 455.65075884 113.49086872 455.70149988 111.67045784 455.74756432 C110.00555887 455.79000578 108.3409979 455.84520111 106.67651367 455.90161133 C105.0583374 455.94874268 105.0583374 455.94874268 103.4074707 455.99682617 C100.63608464 456.06243705 100.63608464 456.06243705 98.79370117 458.31567383 C97.80370117 458.31567383 96.81370117 458.31567383 95.79370117 458.31567383 C95.6931543 458.97414307 95.59260742 459.6326123 95.48901367 460.31103516 C94.59718885 464.16485821 93.1529902 467.73563861 91.66870117 471.38989258 C91.20826416 472.53745781 91.20826416 472.53745781 90.73852539 473.70820618 C89.76094958 476.14150704 88.77730883 478.57230588 87.79370117 481.00317383 C87.13186539 482.64950652 86.47040298 484.29598935 85.80932617 485.94262695 C80.99053306 497.92201005 80.99053306 497.92201005 79.79370117 500.31567383 C43.67298579 500.42943732 7.57926039 500.20052096 -28.53595257 499.54088902 C-34.73576335 499.42860386 -40.93566793 499.32171215 -47.13555908 499.213974 C-57.48781557 499.03329943 -67.83999733 498.84877113 -78.19213867 498.66162109 C-90.09263848 498.44651714 -101.99323079 498.23728894 -113.89388919 498.03115946 C-125.49054423 497.83020173 -137.08713274 497.62563325 -148.68369293 497.4192791 C-153.56188416 497.33250613 -158.44009327 497.24686973 -163.31832123 497.16218758 C-169.04821274 497.06252386 -174.77803811 496.95963622 -180.50782967 496.85438728 C-182.58891208 496.81663772 -184.67001345 496.77991509 -186.75113487 496.74438095 C-200.25231997 496.51296712 -213.72195182 496.03143225 -227.20629883 495.31567383 C-224.60336111 434.39623926 -221.69513664 373.49085875 -218.80512598 312.5845263 C-218.2480951 300.84427629 -217.69327565 289.10392287 -217.1393802 277.36352456 C-216.5634734 265.15710252 -215.98596007 252.95075741 -215.40677178 240.74449062 C-215.08439976 233.94989606 -214.76266356 227.15527288 -214.44268417 220.36056519 C-214.14414256 214.02314579 -213.84353391 207.68582775 -213.54134369 201.34858131 C-213.43135601 199.03474234 -213.3220957 196.72086865 -213.21363449 194.40695763 C-212.16194664 171.98774991 -212.16194664 171.98774991 -211.20629883 162.31567383 C-201.17702876 158.28464824 -191.1426498 154.26606055 -181.08129883 150.31567383 C-179.93685303 149.86212524 -179.93685303 149.86212524 -178.76928711 149.39941406 C-173.43759687 147.31567383 -173.43759687 147.31567383 -171.20629883 147.31567383 C-171.31458008 146.20772461 -171.31458008 146.20772461 -171.42504883 145.07739258 C-172.06041015 138.13254031 -172.32982184 131.28786137 -172.20629883 124.31567383 C-158.5283106 124.08812874 -144.86974866 124.75979229 -131.20629883 125.31567383 C-131.16666016 124.64028564 -131.12702148 123.96489746 -131.08618164 123.26904297 C-130.25414285 109.53235841 -129.1809925 95.8436653 -127.57824707 82.17550659 C-127.4166059 80.79450529 -127.25835039 79.41310248 -127.10388184 78.03128052 C-123.77677178 48.52960949 -123.77677178 48.52960949 -115.19067383 40.40942383 C-104.411108 32.72050275 -92.11588064 28.95898848 -79.14575195 26.95947266 C-75.10016134 26.22659556 -73.46512505 25.64050074 -70.86254883 22.37426758 C-70.31598633 21.36493164 -69.76942383 20.3555957 -69.20629883 19.31567383 C-58.01220404 5.70905861 -33.62400762 2.2680913 -17.29928589 0.50094604 C-11.54484567 -0.00843976 -5.77296879 -0.01708166 0 0 Z M-45.20629883 23.31567383 C-45.20629883 23.64567383 -45.20629883 23.97567383 -45.20629883 24.31567383 C-44.58811279 24.3553125 -43.96992676 24.39495117 -43.33300781 24.43579102 C-5.02727881 27.0096516 -5.02727881 27.0096516 6.87963867 38.29223633 C21.42130032 56.77094175 22.15575018 86.49363509 23.06713867 108.87036133 C23.1114502 109.95172363 23.15576172 111.03308594 23.20141602 112.1472168 C23.41094896 117.53624545 23.60022731 122.92604474 23.79370117 128.31567383 C33.03370117 128.31567383 42.27370117 128.31567383 51.79370117 128.31567383 C52.27634661 85.24060348 52.27634661 85.24060348 48.41870117 42.37817383 C48.31710693 41.64453613 48.2155127 40.91089844 48.11083984 40.1550293 C47.14965553 34.35760646 45.18456579 29.64651674 40.92651367 25.49536133 C18.35646067 10.82921794 -23.25790744 5.51968081 -45.20629883 23.31567383 Z M-56.20629883 37.31567383 C-68.38668052 64.22233665 -68.30494799 97.25487965 -69.20629883 126.31567383 C-44.87515647 127.5189501 -20.55992988 127.42050734 3.79370117 127.31567383 C5.66941763 86.82274476 5.66941763 86.82274476 -6.57348633 50.69067383 C-19.05604033 39.3076194 -39.9241689 36.97646279 -56.20629883 37.31567383 Z M-96.08129883 49.56567383 C-114.52880205 69.64481542 -114.61443745 99.64583743 -116.20629883 125.31567383 C-105.51836695 125.99427268 -94.91899035 126.43873025 -84.20629883 126.31567383 C-83.18328058 115.16269842 -82.17382581 104.00876768 -81.20629883 92.85083008 C-80.95646568 89.98517422 -80.70639751 87.11953894 -80.45629883 84.25390625 C-80.2885508 82.32431245 -80.12189793 80.39462316 -79.95629883 78.46484375 C-79.0603557 68.0398805 -78.10198869 57.66296924 -76.57348633 47.30957031 C-76.24172284 44.60450668 -76.13537087 42.03658433 -76.20629883 39.31567383 C-83.60805617 39.31567383 -90.90617107 44.61057701 -96.08129883 49.56567383 Z " fill="#FE869C" transform="translate(303.206298828125,5.684326171875)"/>
<path d="M0 0 C0.85942389 -0.00397608 1.71884777 -0.00795216 2.6043148 -0.01204872 C5.5597362 -0.02154955 8.51502455 -0.02077056 11.47045898 -0.01782227 C13.0440578 -0.01773068 13.0440578 -0.01773068 14.64944649 -0.01763725 C48.02052495 0.01151197 81.38211517 1.01621503 114.73924506 1.8907572 C122.05800224 2.08224877 129.37691439 2.26714149 136.69588464 2.45028585 C145.59343323 2.6729732 154.49087144 2.89984468 163.38827825 3.12811971 C165.9020929 3.19236631 168.4159249 3.25589164 170.92976189 3.31925774 C200.66026664 4.07157903 200.66026664 4.07157903 212.03125 4.6015625 C213.09367999 4.64233744 213.09367999 4.64233744 214.1775732 4.68393612 C218.73063769 4.92985644 218.73063769 4.92985644 220.96655273 7.16577148 C221.21673489 9.08816433 221.21673489 9.08816433 221.21641541 11.495224 C221.22304986 12.87359971 221.22304986 12.87359971 221.22981834 14.2798214 C221.22407106 15.30042467 221.21832378 16.32102795 221.21240234 17.37255859 C221.2135737 18.4583703 221.21474506 19.54418201 221.21595192 20.66289711 C221.21570034 24.36057718 221.19915774 28.05798001 221.18139648 31.75561523 C221.17651487 33.73987461 221.17163835 35.72413403 221.16710299 37.70839423 C221.07357597 74.15339648 220.35643359 110.5947669 219.68695009 147.03270471 C219.54328848 154.87940196 219.40725008 162.72621851 219.27287918 170.57307965 C219.12557154 179.16430217 218.97296796 187.75542287 218.817976 196.34650993 C218.75281801 199.96404118 218.68955699 203.58159808 218.62787056 207.19919014 C218.55582619 211.41148166 218.47917241 215.62366405 218.39886475 219.83580589 C218.37022018 221.37778419 218.3431934 222.91979349 218.31788445 224.46183014 C218.28319191 226.55962824 218.24270473 228.65723555 218.20069885 230.75489807 C218.17949761 231.92784204 218.15829638 233.100786 218.13645267 234.30927372 C217.96655273 237.16577148 217.96655273 237.16577148 216.96655273 240.16577148 C213.61257118 241.84276226 209.83344168 241.28237049 206.14697266 241.25341797 C204.75480546 241.24762427 204.75480546 241.24762427 203.33451366 241.24171352 C190.58205212 241.17257139 177.83076367 240.96304955 165.07983398 240.76342773 C162.2893263 240.72069259 159.49881182 240.67840815 156.70829773 240.63609314 C150.86280664 240.54720473 145.01733492 240.45712541 139.171875 240.36621094 C133.30958534 240.2750392 127.44728258 240.18479524 121.58496094 240.09570312 C120.87213081 240.0848684 120.15930069 240.07403367 119.42486966 240.06287062 C118.71299933 240.05205124 118.001129 240.04123185 117.26768684 240.03008461 C100.91008688 239.78147148 84.55261166 239.52552272 68.19520319 239.26462829 C63.37061105 239.187792 58.54599795 239.11237894 53.72137451 239.03753662 C47.13493652 238.93529555 40.54855911 238.8296187 33.9622097 238.72179985 C31.55103343 238.68277066 29.13984119 238.6447126 26.72863197 238.60777473 C20.22231682 238.50767959 13.71681534 238.39076306 7.21145248 238.24052048 C4.95410458 238.18852057 2.69667065 238.14017963 0.43918228 238.0946846 C-3.05840806 238.01961115 -6.55484546 237.92376598 -10.05175781 237.82226562 C-11.12624333 237.80166549 -12.20072886 237.78106535 -13.30777454 237.75984097 C-14.78583088 237.71044416 -14.78583088 237.71044416 -16.29374695 237.66004944 C-17.16328853 237.63702287 -18.0328301 237.6139963 -18.92872143 237.59027195 C-21.03344727 237.16577148 -21.03344727 237.16577148 -23.03344727 234.16577148 C-23.77745259 224.71601135 -22.82976505 215.04520564 -22.22094727 205.60327148 C-22.03276023 202.57084105 -21.84777962 199.53821558 -21.66235352 196.50561523 C-21.61218079 195.69188446 -21.56200806 194.87815369 -21.51031494 194.0397644 C-21.11020789 187.52171231 -20.73702334 181.0023533 -20.37329102 174.48217773 C-20.31603851 173.45642639 -20.25878601 172.43067505 -20.19979858 171.37384033 C-20.08054271 169.23553712 -19.96133175 167.09723141 -19.84216309 164.95892334 C-18.94201511 148.82354665 -18.01375818 132.69028424 -17.02172852 116.56030273 C-16.95701544 115.50724567 -16.95701544 115.50724567 -16.89099503 114.43291473 C-16.67217565 110.87256302 -16.4531333 107.31222504 -16.23400879 103.75189209 C-16.19058853 103.04637962 -16.14716827 102.34086716 -16.10243225 101.61397552 C-16.01482551 100.19098356 -15.92716891 98.76799466 -15.83946228 97.34500885 C-14.73480395 79.41555933 -13.7094544 61.48678019 -12.90844727 43.54077148 C-12.4139928 32.55052306 -11.88698461 21.57280693 -11.03344727 10.60327148 C-10.9623877 9.62600098 -10.89132813 8.64873047 -10.81811523 7.6418457 C-10.63333373 5.47523177 -10.34613217 3.31765166 -10.03344727 1.16577148 C-6.87138932 -0.41525749 -3.47310721 0.00435846 0 0 Z " fill="#FE879C" transform="translate(134.033447265625,228.834228515625)"/>
<path d="M0 0 C26.23505478 -0.1301629 52.45621061 0.08297435 78.6875 0.5 C79.43990715 0.51195782 80.1923143 0.52391563 80.96752167 0.53623581 C90.31177558 0.68525464 99.65592825 0.83993906 109 1 C107.92740679 71.3756796 106.78996757 141.75022989 105.58566612 212.12378043 C105.47051699 218.86011915 105.35681683 225.59648136 105.2437439 232.33285522 C105.10423153 240.64217424 104.96264274 248.95145493 104.8185426 257.2606957 C104.74448218 261.53358942 104.6712398 265.80649246 104.60041046 270.07944107 C104.28496692 289.06494241 103.84529993 308.0289664 103 327 C100.93871332 327.06044863 98.87742318 327.12077958 96.81613159 327.18106079 C95.66825102 327.2146702 94.52037045 327.24827961 93.33770561 327.28290749 C91.51745969 327.33508501 89.69716755 327.38582605 87.87675667 327.43189049 C86.21185769 327.47433195 84.54729673 327.52952728 82.8828125 327.5859375 C81.26463623 327.63306885 81.26463623 327.63306885 79.61376953 327.68115234 C76.84238346 327.74676322 76.84238346 327.74676322 75 330 C74.01 330 73.02 330 72 330 C71.89945312 330.65846924 71.79890625 331.31693848 71.6953125 331.99536133 C70.80348768 335.84918438 69.35928903 339.41996478 67.875 343.07421875 C67.41456299 344.22178398 67.41456299 344.22178398 66.94482422 345.39253235 C65.96724841 347.82583321 64.98360766 350.25663205 64 352.6875 C63.33816422 354.33383269 62.67670181 355.98031553 62.015625 357.62695312 C57.19683189 369.60633622 57.19683189 369.60633622 56 372 C19.87928461 372.11376349 -16.21444078 371.88484713 -52.32965374 371.2252152 C-58.52946452 371.11293003 -64.7293691 371.00603833 -70.92926025 370.89830017 C-81.28151674 370.7176256 -91.6336985 370.5330973 -101.98583984 370.34594727 C-113.88633965 370.13084331 -125.78693196 369.92161511 -137.68759036 369.71548563 C-149.2842454 369.5145279 -160.88083392 369.30995943 -172.4773941 369.10360527 C-177.35558534 369.0168323 -182.23379444 368.9311959 -187.1120224 368.84651375 C-192.84191391 368.74685003 -198.57173928 368.64396239 -204.30153084 368.53871346 C-206.38261325 368.50096389 -208.46371463 368.46424126 -210.54483604 368.42870712 C-224.04602115 368.19729329 -237.515653 367.71575843 -251 367 C-250.97412497 366.35747473 -250.94824993 365.71494946 -250.92159081 365.05295372 C-250.88771578 364.20946184 -250.85384075 363.36596996 -250.81893921 362.49691772 C-250.7853298 361.66103308 -250.75172039 360.82514843 -250.71709251 359.96393394 C-250.64767512 358.20089501 -250.58354186 356.43764686 -250.52197266 354.67431641 C-250.4863623 353.90780762 -250.45075195 353.14129883 -250.4140625 352.3515625 C-250.3826416 351.56604004 -250.3512207 350.78051758 -250.31884766 349.97119141 C-250 348 -250 348 -248 346 C-245.16154671 345.75669765 -245.16154671 345.75669765 -241.45608521 345.76622009 C-240.77584474 345.76521681 -240.09560428 345.76421353 -239.39475048 345.76317984 C-237.10305882 345.7622233 -234.81167009 345.77559853 -232.52001953 345.78881836 C-230.88044833 345.79101893 -229.24087571 345.79232492 -227.6013031 345.7928009 C-224.05945064 345.79574195 -220.51768992 345.8050176 -216.97586441 345.81910515 C-211.34758874 345.84140166 -205.71934712 345.84946951 -200.09103394 345.85560608 C-191.15356676 345.86701313 -182.2161495 345.88773486 -173.27871025 345.91250378 C-157.37175066 345.95655933 -141.46477731 345.99029022 -125.55777252 346.01274782 C-119.99317817 346.0210332 -114.42863761 346.03509167 -108.86406839 346.05358535 C-63.68933789 349.90801195 -63.68933789 349.90801195 -23 340 C-22.66581055 339.3179248 -22.33162109 338.63584961 -21.98730469 337.93310547 C-18.64800894 334.68488142 -14.5575849 335.39643181 -10.08203125 335.390625 C-9.10965012 335.37408875 -8.13726898 335.35755249 -7.13542175 335.34051514 C-4.02771776 335.29190534 -0.92050353 335.27063524 2.1875 335.25 C4.29364461 335.22185121 6.39976627 335.19192532 8.50585938 335.16015625 C13.67053262 335.08614275 18.83493189 335.03664737 24 335 C24.0145394 334.13421452 24.02907881 333.26842903 24.0440588 332.37640762 C24.40023169 311.1780679 24.75935363 289.97977985 25.12164211 268.78154373 C25.29678262 258.52967884 25.47097379 248.27779956 25.64282227 238.02587891 C25.79284305 229.07627802 25.94475481 220.12671143 26.09881264 211.1771791 C26.18010229 206.4512527 26.26052997 201.72531565 26.33868217 196.99933624 C26.53211586 185.33227775 26.74564863 173.66589878 27 162 C27.02228896 160.94965804 27.02228896 160.94965804 27.04502821 159.87809706 C27.35942783 145.25191036 27.9380727 130.97619391 30.546875 116.5703125 C30.80413145 115.068219 31.05971449 113.56583812 31.31378174 112.0632019 C31.97312486 108.18907581 32.65370537 104.31902092 33.33996582 100.44958496 C34.02081108 96.58970517 34.68159035 92.72640241 35.34375 88.86328125 C36.25281168 83.56964954 37.16800473 78.27715901 38.09224701 72.98615646 C40.47592866 59.33739093 42.73713439 45.66938446 45 32 C30.15 32 15.3 32 0 32 C0 21.44 0 10.88 0 0 Z " fill="#D84270" transform="translate(327,134)"/>
<path d="M0 0 C9.9 0 19.8 0 30 0 C30.18346074 35.53354556 29.66172084 71.04416385 29.0005216 106.56971741 C28.85331326 114.49457843 28.71191518 122.41954051 28.5709734 130.34451507 C28.31968623 144.47126338 28.06559125 158.59795938 27.80883789 172.72460938 C27.79362251 173.56183473 27.77840712 174.39906009 27.76273067 175.26165591 C27.59199789 184.65351067 27.42074431 194.04535586 27.24914551 203.43719482 C27.18634527 206.87512179 27.12356076 210.31304904 27.06079102 213.75097656 C27.03754044 215.02431881 27.03754044 215.02431881 27.01382016 216.32338513 C26.75574879 230.46350824 26.50181985 244.60370249 26.25107628 258.7439574 C26.096916 267.42710835 25.9391278 276.11017862 25.77660633 284.79317717 C25.66609248 290.71094739 25.55936125 296.62877791 25.45564967 302.54667123 C25.39573205 305.95809352 25.33403346 309.3694601 25.26767159 312.78076363 C25.1967335 316.47276243 25.13231364 320.16481841 25.06956482 323.85696411 C25.04719724 324.9384193 25.02482965 326.01987448 25.00178427 327.13410103 C24.98635834 328.1203984 24.97093241 329.10669577 24.95503902 330.12288094 C24.93947049 330.97434012 24.92390196 331.8257993 24.90786165 332.70306027 C24.91886461 335.00415744 24.91886461 335.00415744 25.56531006 337.17981994 C26 339 26 339 25 341 C-11.12071539 341.11376349 -47.21444078 340.88484713 -83.32965374 340.2252152 C-89.52946452 340.11293003 -95.7293691 340.00603833 -101.92926025 339.89830017 C-112.28151674 339.7176256 -122.6336985 339.5330973 -132.98583984 339.34594727 C-144.88633965 339.13084331 -156.78693196 338.92161511 -168.68759036 338.71548563 C-180.2842454 338.5145279 -191.88083392 338.30995943 -203.4773941 338.10360527 C-208.35558534 338.0168323 -213.23379444 337.9311959 -218.1120224 337.84651375 C-223.84191391 337.74685003 -229.57173928 337.64396239 -235.30153084 337.53871346 C-237.38261325 337.50096389 -239.46371463 337.46424126 -241.54483604 337.42870712 C-255.04602115 337.19729329 -268.515653 336.71575843 -282 336 C-281.97412497 335.35747473 -281.94824993 334.71494946 -281.92159081 334.05295372 C-281.88771578 333.20946184 -281.85384075 332.36596996 -281.81893921 331.49691772 C-281.7853298 330.66103308 -281.75172039 329.82514843 -281.71709251 328.96393394 C-281.64767512 327.20089501 -281.58354186 325.43764686 -281.52197266 323.67431641 C-281.4863623 322.90780762 -281.45075195 322.14129883 -281.4140625 321.3515625 C-281.3826416 320.56604004 -281.3512207 319.78051758 -281.31884766 318.97119141 C-281 317 -281 317 -279 315 C-276.16154671 314.75669765 -276.16154671 314.75669765 -272.45608521 314.76622009 C-271.77584474 314.76521681 -271.09560428 314.76421353 -270.39475048 314.76317984 C-268.10305882 314.7622233 -265.81167009 314.77559853 -263.52001953 314.78881836 C-261.88044833 314.79101893 -260.24087571 314.79232492 -258.6013031 314.7928009 C-255.05945064 314.79574195 -251.51768992 314.8050176 -247.97586441 314.81910515 C-242.34758874 314.84140166 -236.71934712 314.84946951 -231.09103394 314.85560608 C-222.15356676 314.86701313 -213.2161495 314.88773486 -204.27871025 314.91250378 C-188.37175066 314.95655933 -172.46477731 314.99029022 -156.55777252 315.01274782 C-150.99317817 315.0210332 -145.42863761 315.03509167 -139.86406839 315.05358535 C-94.68933789 318.90801195 -94.68933789 318.90801195 -54 309 C-53.66581055 308.3179248 -53.33162109 307.63584961 -52.98730469 306.93310547 C-49.64800894 303.68488142 -45.5575849 304.39643181 -41.08203125 304.390625 C-40.10965012 304.37408875 -39.13726898 304.35755249 -38.13542175 304.34051514 C-35.02771776 304.29190534 -31.92050353 304.27063524 -28.8125 304.25 C-26.70635539 304.22185121 -24.60023373 304.19192532 -22.49414062 304.16015625 C-17.32946738 304.08614275 -12.16506811 304.03664737 -7 304 C-6.9854606 303.13421452 -6.97092119 302.26842903 -6.9559412 301.37640762 C-6.59976831 280.1780679 -6.24064637 258.97977985 -5.87835789 237.78154373 C-5.70321738 227.52967884 -5.52902621 217.27779956 -5.35717773 207.02587891 C-5.20715695 198.07627802 -5.05524519 189.12671143 -4.90118736 180.1771791 C-4.81989771 175.4512527 -4.73947003 170.72531565 -4.66131783 165.99933624 C-4.46788414 154.33227775 -4.25435137 142.66589878 -4 131 C-3.97771104 129.94965804 -3.97771104 129.94965804 -3.95497179 128.87809706 C-3.64057217 114.25191036 -3.0619273 99.97619391 -0.453125 85.5703125 C-0.19586855 84.068219 0.05971449 82.56583812 0.31378174 81.0632019 C0.97312486 77.18907581 1.65370537 73.31902092 2.33996582 69.44958496 C3.02081108 65.58970517 3.68159035 61.72640241 4.34375 57.86328125 C5.25281168 52.56964954 6.16800473 47.27715901 7.09224701 41.98615646 C9.47589766 28.33756839 11.74248371 14.66995479 14 1 C9.38 1 4.76 1 0 1 C0 0.67 0 0.34 0 0 Z " fill="#F7577A" transform="translate(358,165)"/>
<path d="M0 0 C2.22665163 0.00316736 4.45197696 -0.0204506 6.6784668 -0.0456543 C23.44860113 -0.11962508 43.36747121 1.6470693 55.86791992 13.98754883 C75.55668473 37.78978783 72.99235085 79.80636356 72.85620117 108.87817383 C72.85116898 110.77595909 72.84660916 112.67374566 72.8425293 114.5715332 C72.83167632 119.15294676 72.81450961 123.73429512 72.79370117 128.31567383 C73.45370117 128.64567383 74.11370117 128.97567383 74.79370117 129.31567383 C71.89780466 129.34273828 69.00216322 129.36254412 66.10620117 129.37817383 C65.28958008 129.38655273 64.47295898 129.39493164 63.6315918 129.40356445 C62.8355957 129.40678711 62.03959961 129.41000977 61.21948242 129.41333008 C60.49156494 129.41856689 59.76364746 129.42380371 59.01367188 129.42919922 C56.53230356 129.30230641 54.21634376 128.85383194 51.79370117 128.31567383 C51.77388184 127.10959473 51.7540625 125.90351563 51.73364258 124.66088867 C51.31629823 83.40702789 51.31629823 83.40702789 47.41870117 42.37817383 C47.31702637 41.64453613 47.21535156 40.91089844 47.1105957 40.1550293 C46.13753351 34.28175435 44.23251293 29.41428902 39.63745117 25.46020508 C18.93026315 13.69161988 -7.81780371 10.97786437 -30.94067383 16.24926758 C-35.89521861 17.86719907 -39.96743671 20.34055453 -44.20629883 23.31567383 C-43.61840576 23.3553125 -43.0305127 23.39495117 -42.42480469 23.43579102 C-4.66916416 26.10132819 -4.66916416 26.10132819 6.72729492 37.19848633 C8.27638213 39.16864711 9.55730796 41.13746432 10.79370117 43.31567383 C11.1572168 43.92024414 11.52073242 44.52481445 11.89526367 45.14770508 C17.31239472 54.96883962 19.21263739 65.88118812 20.98120117 76.81567383 C21.14813477 77.84748779 21.31506836 78.87930176 21.48706055 79.94238281 C23.26681793 91.53735569 23.96241884 103.06444103 23.89916992 114.78833008 C23.89620407 115.94124039 23.89323822 117.0941507 23.8901825 118.28199768 C23.85016011 126.87791697 23.68161721 135.46856769 23.46948242 144.06176758 C23.44030731 145.27313385 23.4111322 146.48450012 23.381073 147.73257446 C23.26058289 152.67909044 23.13915653 157.62540837 22.99462891 162.57128906 C22.88896294 166.25541466 22.80252 169.93957203 22.71948242 173.62426758 C22.66344597 175.30364662 22.66344597 175.30364662 22.60627747 177.01695251 C22.57590645 178.56752098 22.57590645 178.56752098 22.54492188 180.14941406 C22.50828178 181.50618507 22.50828178 181.50618507 22.47090149 182.8903656 C22.86006692 185.81430318 23.94330414 187.07070698 25.79370117 189.31567383 C26.76282285 194.58931098 26.68309354 199.75518988 23.66870117 204.31567383 C19.98223881 208.60968166 16.03344724 210.43439665 10.41870117 210.87817383 C5.06440538 210.70603911 1.42618169 208.11366305 -2.20629883 204.31567383 C-4.98013972 199.92451203 -4.86647765 195.35053158 -4.20629883 190.31567383 C-2.60439443 187.27757929 -1.20943768 185.16137702 1.40715027 182.95544434 C3.27822754 180.74266057 3.16812321 179.39139109 3.16601562 176.5168457 C3.17214874 175.53313995 3.17828186 174.5494342 3.18460083 173.53591919 C3.17548676 172.46292572 3.16637268 171.38993225 3.15698242 170.28442383 C3.15834198 169.16172089 3.15970154 168.03901794 3.16110229 166.8822937 C3.15961646 163.19316352 3.13429345 159.50469111 3.10620117 155.81567383 C3.09552233 153.26831062 3.08486165 150.72094734 3.07421875 148.17358398 C6.20966273 97.95695129 6.20966273 97.95695129 -6.57348633 51.49536133 C-19.74337481 40.09965471 -39.5880419 39.02578501 -56.20629883 37.31567383 C-65.6499234 66.43351625 -66.79589197 97.00608971 -69.20629883 127.31567383 C-74.15629883 126.98567383 -79.10629883 126.65567383 -84.20629883 126.31567383 C-83.67497098 112.35006942 -82.84572856 98.44775746 -81.58666992 84.52856445 C-81.3307709 81.68480703 -81.08651274 78.84020463 -80.84301758 75.99536133 C-79.76110728 63.68476203 -78.18318302 51.51392902 -76.20629883 39.31567383 C-88.54343839 43.70288694 -98.10914597 50.45094395 -104.20629883 62.31567383 C-117.39084954 91.08196628 -116.6826165 127.17651091 -118.20629883 158.31567383 C-118.25979492 159.29922852 -118.31329102 160.2827832 -118.3684082 161.29614258 C-118.4908456 163.69875473 -118.57783789 166.09844967 -118.64379883 168.50317383 C-118.68375977 169.73422852 -118.7237207 170.9652832 -118.76489258 172.23364258 C-118.03390875 176.26683305 -116.24716012 177.6777618 -113.20629883 180.31567383 C-111.31607992 184.09611165 -111.58862264 188.20782733 -112.20629883 192.31567383 C-114.30332991 196.9353327 -117.33557299 200.28997014 -121.95629883 202.44067383 C-126.85972765 203.9516141 -131.39290158 202.68670296 -136.20629883 201.31567383 C-136.20629883 200.65567383 -136.20629883 199.99567383 -136.20629883 199.31567383 C-136.80442383 199.10942383 -137.40254883 198.90317383 -138.01879883 198.69067383 C-141.16829553 196.71099019 -141.92151269 194.78459641 -143.20629883 191.31567383 C-143.93625833 186.90073803 -143.59717996 184.06848193 -141.51879883 180.06567383 C-139.20629883 177.31567383 -139.20629883 177.31567383 -136.63989258 175.87036133 C-132.73383867 171.76994518 -133.20255682 167.16772245 -132.95629883 161.69067383 C-132.88459473 160.52334717 -132.81289062 159.35602051 -132.73901367 158.15332031 C-132.35360212 151.5654408 -132.12008928 144.97584354 -131.92285156 138.38012695 C-131.1689949 113.6616695 -129.15901302 88.67693323 -125.20629883 64.25317383 C-125.06474365 63.35840332 -124.92318848 62.46363281 -124.77734375 61.54174805 C-123.32642138 53.37306303 -121.25938068 44.85015497 -114.35473633 39.67895508 C-103.1488088 32.5682847 -90.49340941 28.33247319 -77.39379883 26.37817383 C-73.80133136 25.73104585 -73.43230648 25.59979773 -71.01879883 22.56567383 C-70.42067383 21.49317383 -69.82254883 20.42067383 -69.20629883 19.31567383 C-57.97451341 5.71552472 -33.65047791 2.2709567 -17.29928589 0.50094604 C-11.54484567 -0.00843976 -5.77296879 -0.01708166 0 0 Z " fill="#FEACC7" transform="translate(303.206298828125,5.684326171875)"/>
<path d="M0 0 C5.85982077 3.98092032 11.17996218 9.32047528 12.94921875 16.32421875 C15.32304281 40.3316559 3.33450627 60.94526767 -11.05078125 79.32421875 C-11.55512695 79.96987793 -12.05947266 80.61553711 -12.57910156 81.28076172 C-19.69751768 90.32933876 -27.18976603 98.9179308 -35.05078125 107.32421875 C-36.03728993 108.41082711 -37.02162048 109.49941642 -38.00390625 110.58984375 C-38.49294434 111.13092773 -38.98198242 111.67201172 -39.48583984 112.22949219 C-40.83949835 113.72866095 -42.19129728 115.2295082 -43.54296875 116.73046875 C-45.90822042 119.17677266 -48.3917469 121.21181515 -51.05078125 123.32421875 C-51.38078125 123.98421875 -51.71078125 124.64421875 -52.05078125 125.32421875 C-72.98656449 118.19140126 -95.10242497 91.49224421 -108.05078125 74.32421875 C-108.67944092 73.51017578 -108.67944092 73.51017578 -109.32080078 72.6796875 C-121.94063133 56.31880047 -137.38225839 36.07402605 -135.05078125 14.32421875 C-133.00791808 10.23849241 -130.82699605 7.81199728 -127.05078125 5.32421875 C-112.73527571 0.70073078 -97.16533248 3.62777499 -84.05078125 10.32421875 C-76.53438086 14.60331496 -69.61592999 19.45550338 -62.98828125 25.01171875 C-62.20239624 25.67034912 -62.20239624 25.67034912 -61.40063477 26.34228516 C-57.86229522 29.40293456 -54.95694441 32.68218309 -52.05078125 36.32421875 C-51.49390625 35.42960937 -50.93703125 34.535 -50.36328125 33.61328125 C-30.57281403 2.12248701 -30.57281403 2.12248701 -16.0546875 -2.28125 C-9.9738389 -3.47845411 -5.36615616 -3.00462575 0 0 Z " fill="#DCF6F2" transform="translate(297.05078125,286.67578125)"/>
<path d="M0 0 C0.85942389 -0.00397608 1.71884777 -0.00795216 2.6043148 -0.01204872 C5.5597362 -0.02154955 8.51502455 -0.02077056 11.47045898 -0.01782227 C13.0440578 -0.01773068 13.0440578 -0.01773068 14.64944649 -0.01763725 C48.02052495 0.01151197 81.38211517 1.01621503 114.73924506 1.8907572 C122.05800224 2.08224877 129.37691439 2.26714149 136.69588464 2.45028585 C145.59343323 2.6729732 154.49087144 2.89984468 163.38827825 3.12811971 C165.9020929 3.19236631 168.4159249 3.25589164 170.92976189 3.31925774 C200.66026664 4.07157903 200.66026664 4.07157903 212.03125 4.6015625 C213.09367999 4.64233744 213.09367999 4.64233744 214.1775732 4.68393612 C218.73063769 4.92985644 218.73063769 4.92985644 220.96655273 7.16577148 C221.21673489 9.08816433 221.21673489 9.08816433 221.21641541 11.495224 C221.22304986 12.87359971 221.22304986 12.87359971 221.22981834 14.2798214 C221.22407106 15.30042467 221.21832378 16.32102795 221.21240234 17.37255859 C221.2135737 18.4583703 221.21474506 19.54418201 221.21595192 20.66289711 C221.21570034 24.36057718 221.19915774 28.05798001 221.18139648 31.75561523 C221.17651487 33.73987461 221.17163835 35.72413403 221.16710299 37.70839423 C221.07357597 74.15339648 220.35643359 110.5947669 219.68695009 147.03270471 C219.54328848 154.87940196 219.40725008 162.72621851 219.27287918 170.57307965 C219.12557154 179.16430217 218.97296796 187.75542287 218.817976 196.34650993 C218.75281801 199.96404118 218.68955699 203.58159808 218.62787056 207.19919014 C218.55582619 211.41148166 218.47917241 215.62366405 218.39886475 219.83580589 C218.37022018 221.37778419 218.3431934 222.91979349 218.31788445 224.46183014 C218.28319191 226.55962824 218.24270473 228.65723555 218.20069885 230.75489807 C218.17949761 231.92784204 218.15829638 233.100786 218.13645267 234.30927372 C217.96655273 237.16577148 217.96655273 237.16577148 216.96655273 240.16577148 C213.61257118 241.84276226 209.83344168 241.28237049 206.14697266 241.25341797 C204.75480546 241.24762427 204.75480546 241.24762427 203.33451366 241.24171352 C190.58205212 241.17257139 177.83076367 240.96304955 165.07983398 240.76342773 C162.2893263 240.72069259 159.49881182 240.67840815 156.70829773 240.63609314 C150.86280664 240.54720473 145.01733492 240.45712541 139.171875 240.36621094 C133.30958534 240.2750392 127.44728258 240.18479524 121.58496094 240.09570312 C120.87213081 240.0848684 120.15930069 240.07403367 119.42486966 240.06287062 C118.71299933 240.05205124 118.001129 240.04123185 117.26768684 240.03008461 C100.91008688 239.78147148 84.55261166 239.52552272 68.19520319 239.26462829 C63.37061105 239.187792 58.54599795 239.11237894 53.72137451 239.03753662 C47.13493652 238.93529555 40.54855911 238.8296187 33.9622097 238.72179985 C31.55103343 238.68277066 29.13984119 238.6447126 26.72863197 238.60777473 C20.22231682 238.50767959 13.71681534 238.39076306 7.21145248 238.24052048 C4.95410458 238.18852057 2.69667065 238.14017963 0.43918228 238.0946846 C-3.05840806 238.01961115 -6.55484546 237.92376598 -10.05175781 237.82226562 C-11.12624333 237.80166549 -12.20072886 237.78106535 -13.30777454 237.75984097 C-14.78583088 237.71044416 -14.78583088 237.71044416 -16.29374695 237.66004944 C-17.16328853 237.63702287 -18.0328301 237.6139963 -18.92872143 237.59027195 C-21.03344727 237.16577148 -21.03344727 237.16577148 -23.03344727 234.16577148 C-23.77745259 224.71601135 -22.82976505 215.04520564 -22.22094727 205.60327148 C-22.03276023 202.57084105 -21.84777962 199.53821558 -21.66235352 196.50561523 C-21.61218079 195.69188446 -21.56200806 194.87815369 -21.51031494 194.0397644 C-21.11020789 187.52171231 -20.73702334 181.0023533 -20.37329102 174.48217773 C-20.31603851 173.45642639 -20.25878601 172.43067505 -20.19979858 171.37384033 C-20.08054271 169.23553712 -19.96133175 167.09723141 -19.84216309 164.95892334 C-18.94201511 148.82354665 -18.01375818 132.69028424 -17.02172852 116.56030273 C-16.95701544 115.50724567 -16.95701544 115.50724567 -16.89099503 114.43291473 C-16.67217565 110.87256302 -16.4531333 107.31222504 -16.23400879 103.75189209 C-16.19058853 103.04637962 -16.14716827 102.34086716 -16.10243225 101.61397552 C-16.01482551 100.19098356 -15.92716891 98.76799466 -15.83946228 97.34500885 C-14.73480395 79.41555933 -13.7094544 61.48678019 -12.90844727 43.54077148 C-12.4139928 32.55052306 -11.88698461 21.57280693 -11.03344727 10.60327148 C-10.9623877 9.62600098 -10.89132813 8.64873047 -10.81811523 7.6418457 C-10.63333373 5.47523177 -10.34613217 3.31765166 -10.03344727 1.16577148 C-6.87138932 -0.41525749 -3.47310721 0.00435846 0 0 Z M-1.03344727 9.16577148 C-1.35917555 11.85348885 -1.68231991 14.54147624 -2.00402832 17.22967529 C-2.09547497 17.98203146 -2.18692162 18.73438763 -2.28113937 19.50954247 C-3.09111651 26.30677062 -3.51898166 33.0928821 -3.81469727 39.93139648 C-3.87371216 41.17032654 -3.93272705 42.40925659 -3.99353027 43.68572998 C-4.17909315 47.59550662 -4.35690495 51.50557805 -4.53344727 55.41577148 C-4.76894769 60.54617752 -5.00842631 65.67637673 -5.25219727 70.80639648 C-5.31277817 72.08272446 -5.37335907 73.35905243 -5.43577576 74.67405701 C-5.92178442 84.58975469 -6.58557059 94.48688825 -7.29652405 104.3886261 C-8.14537188 116.37576351 -8.73237088 128.37119801 -9.29550171 140.37463379 C-10.34369035 162.65114936 -11.57133134 184.90630585 -13.11914062 207.15380859 C-13.18067322 208.04899704 -13.24220581 208.94418549 -13.30560303 209.86650085 C-13.41863256 211.50382194 -13.53406872 213.14097987 -13.65264893 214.77790833 C-13.70314392 215.50692856 -13.75363892 216.23594879 -13.80566406 216.98706055 C-13.87203316 217.91473236 -13.87203316 217.91473236 -13.93974304 218.86114502 C-14.07943718 222.29687928 -14.04654 225.72730841 -14.03344727 229.16577148 C-13.3659335 229.17515716 -12.69841974 229.18454283 -12.01067829 229.19421291 C4.52308729 229.42677704 21.05683172 229.66079088 37.59055614 229.89626217 C45.58737974 230.01011985 53.58420894 230.12354767 61.58105469 230.23583984 C70.08122129 230.35524479 78.5813712 230.47578419 87.08150339 230.59761477 C88.61937106 230.61965122 90.15723924 230.64165141 91.69510794 230.6636157 C107.88211342 230.89496101 124.06859511 231.13596251 140.25415039 231.45532227 C141.44555413 231.47873593 142.63695787 231.5021496 143.86446476 231.52627277 C149.27737976 231.63365978 154.69015919 231.74514333 160.10282898 231.86424255 C176.39178932 232.20872439 192.67477148 232.21121783 208.96655273 232.16577148 C209.34150971 212.74904821 209.7154147 193.33230493 210.08819485 173.91553974 C210.2614574 164.8920891 210.43502039 155.86864446 210.609375 146.84521484 C210.81143507 136.38567935 211.01265176 125.92612793 211.21264648 115.46655273 C211.2290139 114.6105493 211.24538131 113.75454587 211.2622447 112.87260294 C211.89069102 79.97126089 212.45393477 47.06911976 212.96655273 14.16577148 C202.40656883 13.44286413 191.86392085 12.94823432 181.28100586 12.68505859 C179.7869099 12.64573756 178.2928203 12.606174 176.79873657 12.56639099 C172.78479913 12.46032483 168.77077539 12.35798598 164.75671577 12.25666118 C161.36469581 12.17074783 157.97272107 12.08311239 154.58074331 11.99555117 C146.53786654 11.78802497 138.49491228 11.58371954 130.4519043 11.38134766 C122.27249886 11.17547826 114.09326044 10.96374465 105.91408205 10.74905962 C98.80500636 10.56271247 91.69583195 10.38049394 84.58657408 10.20123297 C80.38020761 10.09511689 76.17389029 9.987635 71.96766663 9.87598991 C47.62984667 9.23224215 23.3125434 9.06009131 -1.03344727 9.16577148 Z " fill="#FEACC6" transform="translate(134.033447265625,228.834228515625)"/>
<path d="M0 0 C2.475 0.495 2.475 0.495 5 1 C5.08554077 34.49286586 4.84769177 67.98459525 4.6328125 101.4765625 C4.62553919 102.61030954 4.62553919 102.61030954 4.61811894 103.76696056 C4.521298 118.83943895 4.42274566 133.91190589 4.32132149 148.98435402 C4.29931324 152.25877491 4.27732926 155.53319596 4.25537109 158.80761719 C4.24991449 159.62111603 4.24445788 160.43461488 4.23883592 161.2727652 C4.14996675 174.55456954 4.06887646 187.83641048 3.99069478 201.11828156 C3.90991026 214.81749374 3.82167767 228.51664252 3.7262429 242.21576059 C3.67302505 249.88356118 3.6231759 257.55135209 3.58185196 265.21922684 C3.54682098 271.71849513 3.50517892 278.21767691 3.45466317 284.7168441 C3.42911762 288.03067903 3.40792094 291.34444316 3.39316177 294.65834618 C3.37669583 298.24230663 3.34816261 301.82596764 3.31643677 305.40982056 C3.31448055 306.46501314 3.31252434 307.52020572 3.31050885 308.60737383 C3.29408552 310.03784629 3.29408552 310.03784629 3.2773304 311.49721718 C3.27201431 312.3244789 3.26669823 313.15174062 3.26122105 314.00407088 C3 316 3 316 1 318 C0.01 318 -0.98 318 -2 318 C-2.1043335 318.66604248 -2.20866699 319.33208496 -2.31616211 320.01831055 C-3.16814114 323.73313379 -4.52656733 327.17989833 -5.94140625 330.70703125 C-6.22853989 331.43242599 -6.51567352 332.15782074 -6.81150818 332.90519714 C-7.72455816 335.20922134 -8.64343525 337.51086937 -9.5625 339.8125 C-10.18463155 341.37940379 -10.80638057 342.94645951 -11.42773438 344.51367188 C-12.9473988 348.34422156 -14.47229159 352.17265173 -16 356 C-16.99 355.67 -17.98 355.34 -19 355 C-18.52680693 326.20388595 -18.05144805 297.40780825 -17.57340158 268.61177436 C-17.51587922 265.14670073 -17.4583738 261.68162682 -17.40087891 258.21655273 C-17.38944107 257.52723992 -17.37800323 256.8379271 -17.36621879 256.12772601 C-17.2075249 246.56178431 -17.04973418 236.99582811 -16.89271042 227.42985885 C-16.81625087 222.77341441 -16.73962463 218.11697272 -16.66302919 213.46053052 C-16.61942729 210.80724438 -16.57590261 208.15395696 -16.53245497 205.50066829 C-16.29477926 190.99287941 -16.05003971 176.48527418 -15.78619385 161.97793579 C-15.69211836 156.77582334 -15.5984267 151.57370407 -15.50488281 146.37158203 C-15.48185483 145.09838144 -15.45882684 143.82518084 -15.43510103 142.51339841 C-15.14471192 126.32682127 -14.92815068 110.14163644 -14.79773903 93.95298481 C-14.73251281 85.9406969 -14.63886596 77.92882399 -14.53681314 69.91692752 C-14.45872714 63.60039599 -14.41794532 57.2851497 -14.40660477 50.96816492 C-14.39051576 47.13053396 -14.33776747 43.29406358 -14.27445269 39.45694852 C-14.25300987 37.70508089 -14.24670656 35.95294677 -14.25730085 34.20097995 C-14.33443662 19.51960614 -14.33443662 19.51960614 -8.5473938 13.07618713 C-7.0456182 11.70197534 -5.53196836 10.34047042 -4 9 C-2.00902154 6.01353231 -1.05875074 3.40312738 0 0 Z " fill="#D64170" transform="translate(401,146)"/>
<path d="M0 0 C0.73879395 0.00451172 1.47758789 0.00902344 2.23876953 0.01367188 C3.02525879 0.01560547 3.81174805 0.01753906 4.62207031 0.01953125 C12.04177314 0.07012972 19.44996291 0.35519699 26.86376953 0.63867188 C36.24555195 0.99523279 45.60046673 1.19484721 54.98876953 1.13867188 C74.99322264 1.0199687 94.99208442 1.64492656 114.98876953 2.13867188 C114.98876953 13.02867187 114.98876953 23.91867188 114.98876953 35.13867188 C110.97504326 35.80762625 107.81405267 36.26321123 103.86343384 36.25892639 C102.87914398 36.26030106 101.89485413 36.26167572 100.8807373 36.26309204 C99.81762329 36.25949677 98.75450928 36.25590149 97.65917969 36.25219727 C95.96074417 36.25241631 95.96074417 36.25241631 94.22799683 36.25263977 C90.49458891 36.25194448 86.76123121 36.24416998 83.02783203 36.23632812 C80.43565905 36.23446259 77.84348572 36.23303932 75.25131226 36.23204041 C69.13162345 36.22861558 63.0119553 36.2207383 56.89227426 36.21069092 C49.92249998 36.19949725 42.95272482 36.19401114 35.98294377 36.18899548 C21.65154273 36.17855478 7.32015677 36.16097565 -7.01123047 36.13867188 C-7.02316708 33.16209722 -7.03178215 30.18557172 -7.03857422 27.20898438 C-7.04407288 25.96435425 -7.04407288 25.96435425 -7.04968262 24.69458008 C-7.06306769 16.83563024 -6.8556176 8.95707123 -6.01123047 1.13867188 C-4.32751197 -0.54504662 -2.24828973 0.00660129 0 0 Z " fill="#EF354E" transform="translate(192.01123046875,130.861328125)"/>
<path d="M0 0 C2.22665163 0.00316736 4.45197696 -0.0204506 6.6784668 -0.0456543 C23.44860113 -0.11962508 43.36747121 1.6470693 55.86791992 13.98754883 C75.55668473 37.78978783 72.99235085 79.80636356 72.85620117 108.87817383 C72.85116898 110.77595909 72.84660916 112.67374566 72.8425293 114.5715332 C72.83167632 119.15294676 72.81450961 123.73429512 72.79370117 128.31567383 C73.45370117 128.64567383 74.11370117 128.97567383 74.79370117 129.31567383 C71.89780466 129.34273828 69.00216322 129.36254412 66.10620117 129.37817383 C65.28958008 129.38655273 64.47295898 129.39493164 63.6315918 129.40356445 C62.8355957 129.40678711 62.03959961 129.41000977 61.21948242 129.41333008 C60.49156494 129.41856689 59.76364746 129.42380371 59.01367188 129.42919922 C56.53230356 129.30230641 54.21634376 128.85383194 51.79370117 128.31567383 C51.76397217 126.50655518 51.76397217 126.50655518 51.73364258 124.66088867 C51.31629823 83.40702789 51.31629823 83.40702789 47.41870117 42.37817383 C47.31702637 41.64453613 47.21535156 40.91089844 47.1105957 40.1550293 C46.13753351 34.28175435 44.23251293 29.41428902 39.63745117 25.46020508 C18.6117858 13.51061859 -7.10520154 11.6676308 -30.58911133 15.97583008 C-34.06294168 17.26257286 -36.23354376 18.71186239 -39.21801758 20.84692383 C-45.8747595 25.23830322 -52.08005933 25.52228572 -59.89379883 25.75317383 C-61.17963867 25.81698242 -62.46547852 25.88079102 -63.7902832 25.9465332 C-66.92884989 26.09821115 -70.06559467 26.22061736 -73.20629883 26.31567383 C-68.11940899 15.42392471 -59.17390085 11.17613483 -48.33959961 7.07055664 C-32.75283597 1.55507562 -16.43214324 -0.04862114 0 0 Z " fill="#FE869B" transform="translate(303.206298828125,5.684326171875)"/>
<path d="M0 0 C0.33 0 0.66 0 1 0 C1.05877208 17.54150557 0.9185842 35.0677452 0.5625 52.60546875 C0.51743129 54.92100082 0.47259573 57.23653744 0.42797852 59.55207825 C0.31191406 65.54408386 0.19275891 71.53602383 0.07287598 77.5279541 C-0.04970145 83.68331189 -0.16923987 89.8387287 -0.2890625 95.99414062 C-0.5231301 107.99615261 -0.76075716 119.99809006 -1 132 C-11.23 132 -21.46 132 -32 132 C-30.16349388 125.26614424 -28.29349297 118.6534637 -26.1328125 112.03515625 C-23.0029705 102.25833494 -20.35446762 92.39694709 -17.875 82.4375 C-17.64888031 81.53664673 -17.42276062 80.63579346 -17.18978882 79.7076416 C-10.59905978 53.33330848 -5.3354561 26.65060857 0 0 Z " fill="#F7587A" transform="translate(344,329)"/>
<path d="M0 0 C1.67542976 0.28604898 3.34385343 0.61781233 5 1 C5.08554077 34.49286586 4.84769177 67.98459525 4.6328125 101.4765625 C4.62796363 102.23239386 4.62311475 102.98822522 4.61811894 103.76696056 C4.521298 118.83943895 4.42274566 133.91190589 4.32132149 148.98435402 C4.29931324 152.25877491 4.27732926 155.53319596 4.25537109 158.80761719 C4.24991449 159.62111603 4.24445788 160.43461488 4.23883592 161.2727652 C4.14996675 174.55456954 4.06887646 187.83641048 3.99069478 201.11828156 C3.90991026 214.81749374 3.82167767 228.51664252 3.7262429 242.21576059 C3.67302505 249.88356118 3.6231759 257.55135209 3.58185196 265.21922684 C3.54682098 271.71849513 3.50517892 278.21767691 3.45466317 284.7168441 C3.42911762 288.03067903 3.40792094 291.34444316 3.39316177 294.65834618 C3.37669583 298.24230663 3.34816261 301.82596764 3.31643677 305.40982056 C3.31448055 306.46501314 3.31252434 307.52020572 3.31050885 308.60737383 C3.29955996 309.56102214 3.28861107 310.51467044 3.2773304 311.49721718 C3.27201431 312.3244789 3.26669823 313.15174062 3.26122105 314.00407088 C3 316 3 316 1 318 C0.01 318 -0.98 318 -2 318 C-3.60090716 314.79818569 -3.13818287 311.32184623 -3.12939453 307.80517578 C-3.13112136 306.9440792 -3.13284819 306.08298262 -3.13462734 305.1957922 C-3.13902858 302.27894708 -3.13599845 299.36215857 -3.1328125 296.4453125 C-3.13387367 294.34402956 -3.1352607 292.24274676 -3.13694763 290.14146423 C-3.13979928 284.35584129 -3.13526847 278.57024524 -3.12877274 272.78462601 C-3.12499644 269.12154353 -3.12292984 265.45846365 -3.12130737 261.79537964 C-3.09966072 220.04430071 -2.8869627 178.29473312 -2.59383392 136.54476166 C-2.56799912 132.86290191 -2.54285936 129.18103781 -2.51791072 125.49917197 C-2.30394633 94.00778823 -2.01237058 62.51785256 -1.55786014 31.02894282 C-1.52748601 28.88115335 -1.49885241 26.73334713 -1.47070503 24.58552742 C-1.41862662 20.6369183 -1.35821721 16.68846317 -1.29663086 12.73999023 C-1.28170279 11.55835485 -1.26677471 10.37671947 -1.25139427 9.15927696 C-1.2332448 8.09173494 -1.21509533 7.02419292 -1.19639587 5.92430115 C-1.18254821 4.99184287 -1.16870054 4.05938459 -1.15443325 3.09867001 C-1 1 -1 1 0 0 Z " fill="#5E5A68" transform="translate(401,146)"/>
<path d="M0 0 C13.67798823 -0.22754509 27.33655017 0.44411847 41 1 C41.2355602 27.67991013 41.2355602 27.67991013 40 37 C38.09365564 38.90634436 34.59922481 38.18389516 32.00170898 38.20532227 C31.27004517 38.21522186 30.53838135 38.22512146 29.7845459 38.23532104 C27.35509528 38.26702383 24.92562507 38.29172793 22.49609375 38.31640625 C20.81599913 38.33696822 19.13590977 38.35796448 17.45582581 38.37937927 C13.02532197 38.43467826 8.59477085 38.48405287 4.16418457 38.53222656 C-0.35347725 38.5823846 -4.87107008 38.63810033 -9.38867188 38.69335938 C-18.2590557 38.8010366 -27.12949932 38.90246018 -36 39 C-35.67 38.01 -35.34 37.02 -35 36 C-32.5126983 34.80877227 -30.11491422 33.8105141 -27.53515625 32.86328125 C-26.78664902 32.57897751 -26.03814178 32.29467377 -25.26695251 32.00175476 C-23.68265885 31.40233774 -22.09628759 30.80838787 -20.50805664 30.21948242 C-18.0718656 29.31597342 -15.64202959 28.39688962 -13.21289062 27.47460938 C-11.67482495 26.89491505 -10.1364242 26.31610883 -8.59765625 25.73828125 C-7.86740738 25.46333328 -7.13715851 25.18838531 -6.38478088 24.90510559 C-1.23534919 23 -1.23534919 23 1 23 C0.89171875 21.89205078 0.89171875 21.89205078 0.78125 20.76171875 C0.14588867 13.81686648 -0.12352301 6.97218755 0 0 Z " fill="#F6587B" transform="translate(131,130)"/>
<path d="M0 0 C0.73879395 0.00451172 1.47758789 0.00902344 2.23876953 0.01367188 C3.02525879 0.01560547 3.81174805 0.01753906 4.62207031 0.01953125 C12.04177314 0.07012972 19.44996291 0.35519699 26.86376953 0.63867188 C36.24555195 0.99523279 45.60046673 1.19484721 54.98876953 1.13867188 C74.99305773 1.01996968 94.99227995 1.64074604 114.98876953 2.13867188 C114.98876953 6.09867188 114.98876953 10.05867187 114.98876953 14.13867188 C101.77960967 14.93789033 88.60705145 15.33181172 75.37548828 15.45507812 C73.46319736 15.47574526 71.55090999 15.49674346 69.6386261 15.51805115 C64.66135823 15.57254592 59.68405367 15.62221255 54.70672607 15.67089844 C50.66295817 15.71129458 46.61923227 15.75522866 42.57550335 15.79933262 C37.69634441 15.85246453 32.81716892 15.90398177 27.93798828 15.95507812 C27.02966436 15.96463594 26.12134045 15.97419376 25.18549156 15.98404121 C14.78610116 16.09193576 4.38883861 16.1671015 -6.01123047 16.13867188 C-6.03808142 13.65943387 -6.05799594 11.18048348 -6.07373047 8.70117188 C-6.08629883 7.6405957 -6.08629883 7.6405957 -6.09912109 6.55859375 C-6.10776634 4.75173628 -6.06343058 2.94479585 -6.01123047 1.13867188 C-4.32751197 -0.54504662 -2.24828973 0.00660129 0 0 Z " fill="#F6587B" transform="translate(192.01123046875,130.861328125)"/>
<path d="M0 0 C-2.60180842 2.60180842 -4.39741915 2.5676903 -8 3 C-9.32 3 -10.64 3 -12 3 C-12.2784375 4.2375 -12.2784375 4.2375 -12.5625 5.5 C-14.20204896 9.4919453 -16.33659322 11.94087132 -19.24609375 15.0703125 C-21.04655377 16.92751457 -21.04655377 16.92751457 -22.25756836 19.07397461 C-24 21 -24 21 -26.48095703 21.60717773 C-27.52106934 21.65302002 -28.56118164 21.6988623 -29.6328125 21.74609375 C-30.88481445 21.8013623 -32.13681641 21.85663086 -33.42675781 21.91357422 C-43.24169259 22.13735584 -53.05835153 22.10086325 -62.875 22.0625 C-65.12369692 22.05747407 -67.37239493 22.0529131 -69.62109375 22.04882812 C-75.08077865 22.03876975 -80.54030941 22.01917924 -86 22 C-86 15.07 -86 8.14 -86 1 C-57.34102028 -0.29323357 -28.6814947 -0.10269255 0 0 Z " fill="#EF354D" transform="translate(413,144)"/>
<path d="M0 0 C0.74056641 0.00451172 1.48113281 0.00902344 2.24414062 0.01367188 C4.05862899 0.02537825 5.87307534 0.04331102 7.6875 0.0625 C7.51734375 0.58714844 7.3471875 1.11179688 7.171875 1.65234375 C-1.79203929 30.30826123 -2.94638683 60.30988551 -5.3125 90.0625 C-10.2625 89.7325 -15.2125 89.4025 -20.3125 89.0625 C-19.78380126 75.00185561 -18.92174273 61.01269879 -17.63793945 47.00073242 C-17.37288965 44.10191938 -17.11661742 41.2024217 -16.86132812 38.30273438 C-16.01932656 28.88173575 -15.06845392 19.51101782 -13.67749023 10.15405273 C-13.31595794 7.09178953 -13.24784997 4.14279858 -13.3125 1.0625 C-8.8746439 -0.04915232 -4.54293614 -0.05277763 0 0 Z " fill="#FE869B" transform="translate(239.3125,42.9375)"/>
<path d="M0 0 C26.23464475 -0.14356389 52.45663413 0.08298108 78.6875 0.5 C79.81611073 0.51793673 79.81611073 0.51793673 80.96752167 0.53623581 C90.31177668 0.68525466 99.65591836 0.84045344 109 1 C109 4.63 109 8.26 109 12 C108.67 12 108.34 12 108 12 C108 8.7 108 5.4 108 2 C106.83976318 2.56589844 105.67952637 3.13179687 104.48413086 3.71484375 C90.65982395 10.06606974 78.62396666 11.14432374 63.5625 11 C61.33030788 11.00751428 59.09812503 11.0185444 56.8659668 11.03295898 C51.30126031 11.06031861 45.73774773 11.04338136 40.1730957 11.01287842 C35.26631833 10.99296363 30.35986799 11.01407049 25.453125 11.03515625 C16.96835043 11.06585846 8.48467701 11.05204341 0 11 C0 7.37 0 3.74 0 0 Z " fill="#F6587B" transform="translate(327,134)"/>
<path d="M0 0 C5.94 0 11.88 0 18 0 C18.02683436 3.31255326 18.0467578 6.62489183 18.0625 9.9375 C18.07087891 10.88302734 18.07925781 11.82855469 18.08789062 12.80273438 C18.09272461 14.15141602 18.09272461 14.15141602 18.09765625 15.52734375 C18.10551147 16.77632446 18.10551147 16.77632446 18.11352539 18.05053711 C18 20 18 20 17 21 C14.85441173 21.08775605 12.70595579 21.10695219 10.55859375 21.09765625 C9.25341797 21.09443359 7.94824219 21.09121094 6.60351562 21.08789062 C5.2148431 21.07953401 3.82617123 21.07106905 2.4375 21.0625 C1.04492344 21.05748666 -0.34765481 21.05292347 -1.74023438 21.04882812 C-5.1601987 21.03699434 -8.58007844 21.0205088 -12 21 C-8.83090029 18.42409667 -5.78764581 16.1844067 -2.1875 14.25 C-1.39730469 13.82203125 -0.60710937 13.3940625 0.20703125 12.953125 C0.79871094 12.63859375 1.39039063 12.3240625 2 12 C1.67 10.7625 1.34 9.525 1 8.25 C0.20108841 5.25408155 0 3.19892281 0 0 Z " fill="#EF374F" transform="translate(153,147)"/>
<path d="M0 0 C0.33 0 0.66 0 1 0 C1 8.91 1 17.82 1 27 C0.67 27 0.34 27 0 27 C-0.06058594 26.10796875 -0.12117188 25.2159375 -0.18359375 24.296875 C-0.26738281 23.12640625 -0.35117187 21.9559375 -0.4375 20.75 C-0.51871094 19.58984375 -0.59992188 18.4296875 -0.68359375 17.234375 C-0.88754346 14.16009302 -0.88754346 14.16009302 -1.59375 11.90625 C-2.146605 9.31208424 -1.63840432 7.32463107 -1.0625 4.75 C-0.86785156 3.85796875 -0.67320312 2.9659375 -0.47265625 2.046875 C-0.31667969 1.37140625 -0.16070312 0.6959375 0 0 Z " fill="#F86484" transform="translate(344,329)"/>
</svg>
