<?xml version="1.0" encoding="UTF-8"?>
<svg version="1.1" xmlns="http://www.w3.org/2000/svg" width="512" height="512">
<path d="M0 0 C16.09864625 12.28450545 26.12161264 28.43500429 29.1015625 48.5 C30.0646421 62.70542408 28.31798195 76.60428083 21.3515625 89.1875 C20.68833984 90.44433594 20.68833984 90.44433594 20.01171875 91.7265625 C10.62846471 108.51764868 -4.86146456 119.36402612 -23.19921875 124.64453125 C-37.22980743 127.75498073 -51.08243894 126.70949952 -64.6484375 122.1875 C-64.6484375 125.8175 -64.6484375 129.4475 -64.6484375 133.1875 C-62.67435913 133.16393433 -62.67435913 133.16393433 -60.66040039 133.13989258 C-55.74591264 133.0853127 -50.83145134 133.05104823 -45.91674805 133.02270508 C-43.79560836 133.00768216 -41.6744994 132.98725789 -39.5534668 132.96118164 C-36.49259831 132.92451162 -33.43214296 132.90770825 -30.37109375 132.89453125 C-28.964291 132.87130547 -28.964291 132.87130547 -27.52906799 132.84761047 C-20.16933741 132.84575804 -13.62679074 133.79186804 -7.7734375 138.5 C-3.05493279 144.46752067 -2.16789925 148.80368384 -2.6484375 156.1875 C-3.13126585 159.39456698 -3.84777149 162.52355746 -4.60449219 165.67602539 C-4.81264557 166.57822815 -5.02079895 167.48043091 -5.23526001 168.40997314 C-5.92084091 171.37065357 -6.62041225 174.32783123 -7.3203125 177.28515625 C-7.80480371 179.36369362 -8.28845233 181.44242756 -8.77130127 183.52134705 C-10.04324122 188.9867467 -11.3272566 194.44924129 -12.61364746 199.91125488 C-13.65299148 204.33295317 -14.68404813 208.75656279 -15.71458054 213.18032169 C-21.2564875 236.96926718 -21.2564875 236.96926718 -24.05867004 248.70619583 C-24.63178579 251.11744197 -25.19493414 253.53086858 -25.75769043 255.94454956 C-26.10122039 257.38561758 -26.44530093 258.82655451 -26.79003906 260.26733398 C-27.0802594 261.4984642 -27.37047974 262.72959442 -27.66949463 263.99803162 C-29.67471412 270.53118523 -33.92486676 275.50806167 -39.6484375 279.1875 C-45.6910172 281.78172849 -51.24434899 282.89735395 -57.75735474 283.61125183 C-58.74817641 283.72815457 -59.73899809 283.84505731 -60.75984466 283.96550256 C-64.06426904 284.35285557 -67.37017192 284.72560854 -70.67626953 285.09838867 C-73.05202149 285.37382067 -75.4276702 285.6501445 -77.80322266 285.92729187 C-83.57582707 286.59838486 -89.3494575 287.26002362 -95.12364902 287.9173102 C-101.85166593 288.68361439 -108.57839252 289.46096648 -115.30508278 290.23881558 C-127.30774912 291.62640138 -139.31150112 293.00435698 -151.31591797 294.37670898 C-162.95860585 295.70771963 -174.60055576 297.04495148 -186.24169922 298.3894043 C-186.95905794 298.472252 -187.67641666 298.55509971 -188.41551353 298.64045795 C-189.8607026 298.80736697 -191.30589164 298.97427637 -192.75108062 299.14118614 C-193.82048868 299.26469378 -193.82048868 299.26469378 -194.91150093 299.39069653 C-195.97824837 299.51389999 -195.97824837 299.51389999 -197.06654627 299.63959242 C-208.17058127 300.92181807 -219.27521979 302.19880235 -230.37994114 303.47506824 C-234.40130136 303.937289 -238.42258255 304.4001903 -242.44380988 304.86356565 C-249.41778099 305.6671378 -256.39215436 306.4670988 -263.36698914 307.26313972 C-265.68346803 307.52803676 -267.99981555 307.79408551 -270.31602097 308.06136322 C-273.47482325 308.42564997 -276.63407758 308.78572661 -279.79348755 309.1446991 C-280.71216303 309.25159929 -281.63083851 309.35849948 -282.57735264 309.46863908 C-286.96163935 309.96218394 -291.22710353 310.30836945 -295.6484375 310.1875 C-295.3184375 311.8375 -294.9884375 313.4875 -294.6484375 315.1875 C-293.56620659 315.16870789 -293.56620659 315.16870789 -292.46211243 315.14953613 C-241.29482443 314.27789287 -190.12441228 314.02634976 -138.95062488 313.95158577 C-132.96800147 313.94212272 -126.98543236 313.92472765 -121.00283813 313.90405273 C-113.61191753 313.87870825 -106.22107168 313.86435836 -98.83010608 313.86376166 C-94.99283918 313.86321181 -91.15573457 313.85784102 -87.31850624 313.8398819 C-83.76102508 313.82346167 -80.20381782 313.8211766 -76.64631212 313.82991505 C-74.73655035 313.83101872 -72.82679782 313.81732024 -70.91708851 313.80312347 C-60.3090363 313.85495145 -60.3090363 313.85495145 -55.6484375 317.1875 C-53.25769472 320.58081233 -52.65881864 322.59577516 -52.5859375 326.75 C-53.64961126 330.19129746 -54.66066043 331.91315219 -57.47973633 334.1418457 C-62.39396435 336.51127479 -68.17696179 335.9749384 -73.5234375 336 C-74.78414063 336.02513672 -76.04484375 336.05027344 -77.34375 336.07617188 C-80.44562637 336.13491953 -83.54609527 336.17129231 -86.6484375 336.1875 C-86.16117187 337.05503906 -85.67390625 337.92257812 -85.171875 338.81640625 C-82.3799986 344.99432762 -82.88761467 351.50224296 -84.7109375 357.9375 C-88.04091615 363.52327064 -92.07566365 369.56501829 -98.50390625 371.78515625 C-105.89388924 373.17161936 -113.42824229 373.33608368 -120.0078125 369.3828125 C-125.37290133 365.47396207 -129.56654233 360.53860015 -131.1875 354.01953125 C-132.22857508 346.98622169 -130.83418298 341.55899095 -127.6484375 335.1875 C-176.6534375 335.6825 -176.6534375 335.6825 -226.6484375 336.1875 C-225.6584375 338.8275 -224.6684375 341.4675 -223.6484375 344.1875 C-222.91533233 351.88510432 -224.49928811 358.79360579 -229.2734375 365 C-234.65212232 370.65485201 -240.52071624 372.41157771 -248.2109375 372.6875 C-255.83674513 372.41197548 -260.73805033 370.5043334 -265.9609375 364.9375 C-270.36726998 359.2945129 -271.96492995 353.7581544 -272.046875 346.65625 C-271.65834549 344.2488907 -270.99428176 342.30331245 -270.12353516 340.03320312 C-269.84869293 339.31297974 -269.57385071 338.59275635 -269.29067993 337.85070801 C-269.07873993 337.30184937 -268.86679993 336.75299072 -268.6484375 336.1875 C-269.70756348 336.19797363 -270.76668945 336.20844727 -271.85791016 336.21923828 C-275.8051411 336.25556788 -279.75235739 336.27844748 -283.69970703 336.29736328 C-285.40481048 336.3073914 -287.10989686 336.32101726 -288.81494141 336.33837891 C-291.27250392 336.36276803 -293.72983811 336.37401512 -296.1875 336.3828125 C-296.94398834 336.39313507 -297.70047668 336.40345764 -298.47988892 336.41409302 C-303.5855338 336.41516379 -308.15581641 335.96794363 -312.3984375 332.9375 C-315.90571277 328.02731463 -316.14506134 321.99305358 -316.64822388 316.17880249 C-316.77329372 314.83389911 -316.77329372 314.83389911 -316.90089023 313.46182597 C-317.17791437 310.46390447 -317.4446516 307.46515825 -317.71142578 304.46630859 C-317.90814933 302.31424947 -318.10550189 300.16224777 -318.30343628 298.01029968 C-318.83875197 292.17024322 -319.36512337 286.32941137 -319.88980722 280.4883914 C-320.44006142 274.37858072 -320.99818919 268.26948925 -321.5553894 262.16030884 C-322.48978152 251.90319989 -323.41884195 241.6456196 -324.34423828 231.38769531 C-325.53272615 218.21364579 -326.72948183 205.04036151 -327.92903328 191.86731529 C-328.95968455 180.54892785 -329.98710047 169.23024711 -331.01370382 157.91149187 C-331.34412663 154.26928597 -331.67488753 150.62711087 -332.00564957 146.98493576 C-332.5246207 141.26748611 -333.04159149 135.54985885 -333.55699539 129.83208656 C-333.74665822 127.7309308 -333.93692958 125.62982987 -334.12784576 123.52878761 C-334.38778694 120.66675072 -334.64550383 117.80452223 -334.90261841 114.94223022 C-335.0173005 113.68766984 -335.0173005 113.68766984 -335.1342994 112.40776479 C-335.44006527 108.98023336 -335.6484375 105.63195773 -335.6484375 102.1875 C-337.5665625 101.9090625 -337.5665625 101.9090625 -339.5234375 101.625 C-340.24273437 101.52058594 -340.96203125 101.41617188 -341.703125 101.30859375 C-343.72984417 101.0190703 -343.72984417 101.0190703 -345.6484375 102.1875 C-354.16294575 102.82893458 -362.14954797 101.6271657 -370.45703125 99.88671875 C-371.62677994 99.64967728 -372.79652863 99.4126358 -374.00172424 99.16841125 C-376.452431 98.66883052 -378.90196833 98.16348107 -381.3503418 97.65258789 C-385.09698707 96.87269996 -388.84777457 96.1158091 -392.59960938 95.36132812 C-394.98986187 94.87114793 -397.37984614 94.37965758 -399.76953125 93.88671875 C-400.88726425 93.66159103 -402.00499725 93.43646332 -403.15660095 93.20451355 C-404.1986116 92.98451187 -405.24062225 92.76451019 -406.31420898 92.5378418 C-407.22621567 92.34908981 -408.13822235 92.16033783 -409.0778656 91.96586609 C-414.39957614 90.35445852 -417.44036097 87.65589231 -420.6484375 83.1875 C-422.18441204 80.11555092 -421.8749413 77.58505707 -421.6484375 74.1875 C-420.01294982 70.01700641 -418.07574372 67.07928962 -414.6484375 64.1875 C-406.35758701 61.42388317 -397.37443003 63.75979395 -389.0703125 65.48828125 C-387.90010559 65.72532272 -386.72989868 65.9623642 -385.52423096 66.20658875 C-383.06596036 66.70709874 -380.60867154 67.21245289 -378.15234375 67.72241211 C-374.39851302 68.49998436 -370.64107569 69.25784884 -366.8828125 70.01367188 C-364.48673935 70.50403797 -362.09089742 70.99553555 -359.6953125 71.48828125 C-358.57646667 71.71340897 -357.45762085 71.93853668 -356.30487061 72.17048645 C-344.10543525 74.73050225 -344.10543525 74.73050225 -339.6484375 79.1875 C-336.12336731 80.09731435 -332.59735432 80.86501333 -329.03320312 81.59960938 C-323.26817081 82.85679713 -319.06655748 84.06032003 -315.6484375 89.1875 C-315.18463642 91.7870764 -314.81489094 94.31919694 -314.5234375 96.9375 C-314.39388672 97.97390625 -314.39388672 97.97390625 -314.26171875 99.03125 C-313.73886453 103.44646337 -313.56698486 107.74251332 -313.6484375 112.1875 C-312.87653076 112.06632812 -312.10462402 111.94515625 -311.30932617 111.8203125 C-307.8185602 111.27368951 -304.32726041 110.73055391 -300.8359375 110.1875 C-299.01352539 109.90132812 -299.01352539 109.90132812 -297.15429688 109.609375 C-295.99091797 109.42890625 -294.82753906 109.2484375 -293.62890625 109.0625 C-292.55535889 108.89492187 -291.48181152 108.72734375 -290.37573242 108.5546875 C-287.6484375 108.1875 -287.6484375 108.1875 -284.6484375 108.1875 C-284.80699219 107.54039062 -284.96554687 106.89328125 -285.12890625 106.2265625 C-287.38838539 93.00945897 -285.9430752 80.92834346 -278.8984375 69.4375 C-271.75034569 59.43017146 -261.71215592 53.43020323 -249.6484375 51.1875 C-236.62150536 49.7883339 -225.56627022 51.82177602 -214.72265625 59.47265625 C-210.30913042 63.12150341 -206.81347695 67.43994083 -203.6484375 72.1875 C-203.21144531 70.81078125 -203.21144531 70.81078125 -202.765625 69.40625 C-200.34180731 62.15004106 -197.99734319 55.81728429 -192.6484375 50.1875 C-192.00132812 49.50042969 -191.35421875 48.81335938 -190.6875 48.10546875 C-181.17246784 38.84806381 -169.92370964 35.875 -156.9465332 35.875 C-144.5400267 36.12209122 -134.4819235 41.23819221 -125.8046875 50.0625 C-117.89781874 59.74438011 -115.46405263 71.0180987 -115.6484375 83.1875 C-110.6984375 82.1975 -110.6984375 82.1975 -105.6484375 81.1875 C-105.85339844 80.4140625 -106.05835938 79.640625 -106.26953125 78.84375 C-107.79501768 72.94617567 -109.15055171 67.26170665 -109.6484375 61.1875 C-109.72771484 60.23423828 -109.72771484 60.23423828 -109.80859375 59.26171875 C-110.63565843 40.16731235 -102.60366265 23.35036922 -90.78125 8.90625 C-67.69769906 -16.05965059 -27.56983881 -18.86785429 0 0 Z M-185.03515625 61.89453125 C-189.42194462 68.12950649 -190.06937291 73.19696567 -189.8359375 80.625 C-189.82240234 81.45193359 -189.80886719 82.27886719 -189.79492188 83.13085938 C-189.75990742 85.1500264 -189.70611312 87.16885318 -189.6484375 89.1875 C-182.64163128 89.30207834 -175.7623249 88.97454209 -168.78515625 88.34765625 C-167.29264091 88.21803749 -167.29264091 88.21803749 -165.76997375 88.08580017 C-163.68492746 87.90375518 -161.60006342 87.71961141 -159.51538086 87.53344727 C-156.32776443 87.24927137 -153.13954742 86.97278006 -149.95117188 86.69726562 C-147.91662693 86.51868127 -145.88212027 86.33966017 -143.84765625 86.16015625 C-142.89863937 86.07782242 -141.9496225 85.99548859 -140.97184753 85.91065979 C-140.08354752 85.83065231 -139.1952475 85.75064484 -138.2800293 85.66821289 C-137.50410934 85.59937393 -136.72818939 85.53053497 -135.92875671 85.45960999 C-133.46720182 85.16587319 -131.07244687 84.70284189 -128.6484375 84.1875 C-128.68195026 73.79854486 -130.36318646 64.67418529 -137.80078125 56.953125 C-142.18270566 53.32773797 -146.10022594 51.31978807 -151.6484375 50.1875 C-152.3084375 49.8575 -152.9684375 49.5275 -153.6484375 49.1875 C-166.91939382 48.00785944 -176.19702297 52.04052059 -185.03515625 61.89453125 Z M-266.40625 75.14453125 C-271.03716082 80.99469153 -272.93475872 86.14115222 -272.8359375 93.6875 C-272.82949219 94.7703125 -272.82304687 95.853125 -272.81640625 96.96875 C-272.65239285 100.11170444 -272.23022305 103.09705517 -271.6484375 106.1875 C-261.6099538 105.0574192 -251.62006237 103.81764389 -241.6484375 102.1875 C-241.6484375 99.5475 -241.6484375 96.9075 -241.6484375 94.1875 C-240.88176758 94.13215088 -240.11509766 94.07680176 -239.32519531 94.01977539 C-235.84933525 93.7667989 -232.37389396 93.50845958 -228.8984375 93.25 C-227.691875 93.16298828 -226.4853125 93.07597656 -225.2421875 92.98632812 C-224.08203125 92.89931641 -222.921875 92.81230469 -221.7265625 92.72265625 C-220.12409668 92.60482788 -220.12409668 92.60482788 -218.48925781 92.48461914 C-216.1028202 92.23502353 -213.94797928 91.84970982 -211.6484375 91.1875 C-213.14957217 81.73035159 -217.13712035 74.40018966 -224.74609375 68.40625 C-238.23664005 59.76343594 -256.04977541 63.61432288 -266.40625 75.14453125 Z M-60.6484375 154.1875 C-59.40891144 164.72347151 -58.1292917 175.14924655 -56.41625977 185.60473633 C-56.07752977 187.67642198 -55.74651009 189.74925174 -55.41601562 191.82226562 C-55.20096554 193.15111371 -54.98548834 194.47989276 -54.76953125 195.80859375 C-54.5780249 196.9886499 -54.38651855 198.16870605 -54.18920898 199.38452148 C-53.79061384 202.12788148 -53.79061384 202.12788148 -52.6484375 204.1875 C-47.0384375 204.1875 -41.4284375 204.1875 -35.6484375 204.1875 C-34.4024691 199.08313153 -33.15707286 193.97863011 -31.91308594 188.8737793 C-31.49056238 187.14062638 -31.06771693 185.40755191 -30.64453125 183.67456055 C-30.03298704 181.16996968 -29.42263759 178.6650901 -28.8125 176.16015625 C-28.62595856 175.39727798 -28.43941711 174.63439972 -28.2472229 173.84840393 C-27.70748675 171.62966477 -27.17576562 169.40921934 -26.6484375 167.1875 C-26.45723328 166.38899628 -26.26602905 165.59049255 -26.06903076 164.76779175 C-25.8856012 163.97873444 -25.70217163 163.18967712 -25.51318359 162.37670898 C-25.34708588 161.66876694 -25.18098816 160.96082489 -25.00985718 160.23143005 C-24.53235444 157.87695729 -24.53235444 157.87695729 -24.6484375 154.1875 C-36.5284375 154.1875 -48.4084375 154.1875 -60.6484375 154.1875 Z M-50.6484375 220.1875 C-49.3284375 228.7675 -48.0084375 237.3475 -46.6484375 246.1875 C-45.9884375 245.8575 -45.3284375 245.5275 -44.6484375 245.1875 C-43.89655813 243.01830144 -43.89655813 243.01830144 -43.359375 240.3828125 C-43.14023437 239.40699219 -42.92109375 238.43117188 -42.6953125 237.42578125 C-42.36273438 235.88470703 -42.36273438 235.88470703 -42.0234375 234.3125 C-41.79398437 233.29285156 -41.56453125 232.27320313 -41.328125 231.22265625 C-40.07417742 225.75508922 -40.07417742 225.75508922 -39.6484375 220.1875 C-43.2784375 220.1875 -46.9084375 220.1875 -50.6484375 220.1875 Z " fill="#FD8431" transform="translate(451.6484375,76.8125)"/>
<path d="M0 0 C16.09864625 12.28450545 26.12161264 28.43500429 29.1015625 48.5 C30.0646421 62.70542408 28.31798195 76.60428083 21.3515625 89.1875 C20.90941406 90.02539062 20.46726562 90.86328125 20.01171875 91.7265625 C10.62846471 108.51764868 -4.86146456 119.36402612 -23.19921875 124.64453125 C-42.68252226 128.9637963 -60.79318022 125.34322049 -77.6484375 115.1875 C-92.55047587 105.23285857 -104.65469167 89.57586013 -108.23046875 71.79296875 C-108.36839844 70.93316406 -108.50632812 70.07335937 -108.6484375 69.1875 C-108.83986328 68.09888672 -108.83986328 68.09888672 -109.03515625 66.98828125 C-109.3259858 65.06578459 -109.4895956 63.12537112 -109.6484375 61.1875 C-109.70128906 60.55199219 -109.75414062 59.91648437 -109.80859375 59.26171875 C-110.63565843 40.16731235 -102.60366265 23.35036922 -90.78125 8.90625 C-67.69769906 -16.05965059 -27.56983881 -18.86785429 0 0 Z " fill="#FE8D92" transform="translate(451.6484375,76.8125)"/>
<path d="M0 0 C9.69934729 7.58109903 15.58491876 17.92935011 17.125 30.25 C17.1870775 31.87394748 17.21212041 33.50005297 17.1875 35.125 C17.17847656 35.90617187 17.16945313 36.68734375 17.16015625 37.4921875 C17.14275391 38.36230469 17.14275391 38.36230469 17.125 39.25 C17.805625 39.085 18.48625 38.92 19.1875 38.75 C22.54077212 38.17923028 25.72887785 38.21799885 29.125 38.25 C29.79982422 39.66539062 29.79982422 39.66539062 30.48828125 41.109375 C38.19750642 56.72822429 48.68048581 68.17008365 64.77197266 75.44702148 C67.125 77.25 67.125 77.25 67.83203125 80.38671875 C67.86683594 81.55847656 67.90164063 82.73023438 67.9375 83.9375 C68.00904297 85.70673828 68.00904297 85.70673828 68.08203125 87.51171875 C68.09621094 88.41535156 68.11039063 89.31898438 68.125 90.25 C36.67568285 90.27278979 5.22636804 90.29049788 -26.22295543 90.30106533 C-29.93192147 90.30231611 -33.6408875 90.30361042 -37.34985352 90.30493164 C-38.45748282 90.30532511 -38.45748282 90.30532511 -39.58748848 90.30572652 C-51.55958919 90.31008334 -63.53168511 90.31797095 -75.50378298 90.3271528 C-87.77911221 90.33648901 -100.05443894 90.34205554 -112.32977158 90.34408849 C-119.91040608 90.34546379 -127.49102708 90.34981473 -135.07165743 90.35791647 C-140.87468485 90.36380422 -146.67770527 90.36445905 -152.48073578 90.36310768 C-154.86851396 90.36338421 -157.25629262 90.36539188 -159.64406776 90.36920547 C-162.88862125 90.37413597 -166.13311561 90.37300068 -169.37767029 90.37025452 C-170.81489737 90.37462378 -170.81489737 90.37462378 -172.28115934 90.37908131 C-178.76087879 90.36412121 -178.76087879 90.36412121 -179.875 89.25 C-181.00798734 82.57796347 -180.97630722 76.00381462 -180.875 69.25 C-175.07762883 66.9430876 -169.14614469 66.36677608 -163 65.625 C-161.93007812 65.4909375 -160.86015625 65.356875 -159.7578125 65.21875 C-157.13083491 64.8903778 -154.50329366 64.56763588 -151.875 64.25 C-152.03508545 63.50830566 -152.1951709 62.76661133 -152.36010742 62.00244141 C-154.79536333 48.98438779 -153.04489074 36.78736277 -146.125 25.5 C-138.97690819 15.49267146 -128.93871842 9.49270323 -116.875 7.25 C-103.84806786 5.8508339 -92.79283272 7.88427602 -81.94921875 15.53515625 C-77.53569292 19.18400341 -74.04003945 23.50244083 -70.875 28.25 C-70.58367187 27.3321875 -70.29234375 26.414375 -69.9921875 25.46875 C-67.56836981 18.21254106 -65.22390569 11.87978429 -59.875 6.25 C-58.90433594 5.21939453 -58.90433594 5.21939453 -57.9140625 4.16796875 C-42.30870904 -11.01485709 -17.63029952 -12.05409442 0 0 Z M-52.26171875 17.95703125 C-56.64850712 24.19200649 -57.29593541 29.25946567 -57.0625 36.6875 C-57.04896484 37.51443359 -57.03542969 38.34136719 -57.02148438 39.19335938 C-56.98646992 41.2125264 -56.93267562 43.23135318 -56.875 45.25 C-49.86819378 45.36457834 -42.9888874 45.03704209 -36.01171875 44.41015625 C-34.51920341 44.28053749 -34.51920341 44.28053749 -32.99653625 44.14830017 C-30.91148996 43.96625518 -28.82662592 43.78211141 -26.74194336 43.59594727 C-23.55432693 43.31177137 -20.36610992 43.03528006 -17.17773438 42.75976562 C-15.14318943 42.58118127 -13.10868277 42.40216017 -11.07421875 42.22265625 C-10.12520187 42.14032242 -9.176185 42.05798859 -8.19841003 41.97315979 C-7.31011002 41.89315231 -6.42181 41.81314484 -5.5065918 41.73071289 C-4.73067184 41.66187393 -3.95475189 41.59303497 -3.15531921 41.52210999 C-0.69376432 41.22837319 1.70099063 40.76534189 4.125 40.25 C4.09148724 29.86104486 2.41025104 20.73668529 -5.02734375 13.015625 C-9.40926816 9.39023797 -13.32678844 7.38228807 -18.875 6.25 C-19.535 5.92 -20.195 5.59 -20.875 5.25 C-34.14595632 4.07035944 -43.42358547 8.10302059 -52.26171875 17.95703125 Z M-133.6328125 31.20703125 C-138.26372332 37.05719153 -140.16132122 42.20365222 -140.0625 49.75 C-140.05605469 50.8328125 -140.04960937 51.915625 -140.04296875 53.03125 C-139.87895535 56.17420444 -139.45678555 59.15955517 -138.875 62.25 C-128.8365163 61.1199192 -118.84662487 59.88014389 -108.875 58.25 C-108.875 55.61 -108.875 52.97 -108.875 50.25 C-108.10833008 50.19465088 -107.34166016 50.13930176 -106.55175781 50.08227539 C-103.07589775 49.8292989 -99.60045646 49.57095958 -96.125 49.3125 C-94.9184375 49.22548828 -93.711875 49.13847656 -92.46875 49.04882812 C-91.30859375 48.96181641 -90.1484375 48.87480469 -88.953125 48.78515625 C-87.35065918 48.66732788 -87.35065918 48.66732788 -85.71582031 48.54711914 C-83.3293827 48.29752353 -81.17454178 47.91220982 -78.875 47.25 C-80.37613467 37.79285159 -84.36368285 30.46268966 -91.97265625 24.46875 C-105.46320255 15.82593594 -123.27633791 19.67682288 -133.6328125 31.20703125 Z " fill="#AAEDE8" transform="translate(318.875,120.75)"/>
<path d="M0 0 C0.598125 0.78375 1.19625 1.5675 1.8125 2.375 C3.91085249 5.14574323 3.91085249 5.14574323 7 7 C10.43307165 7.24270825 10.43307165 7.24270825 14.1875 7.125 C15.45980469 7.10695313 16.73210937 7.08890625 18.04296875 7.0703125 C19.01878906 7.04710937 19.99460938 7.02390625 21 7 C21.33 8.65 21.66 10.3 22 12 C22.72148727 11.98747192 23.44297455 11.97494385 24.18632507 11.96203613 C75.35361307 11.09039287 126.52402522 10.83884976 177.69781262 10.76408577 C183.68043603 10.75462272 189.66300514 10.73722765 195.64559937 10.71655273 C203.03651997 10.69120825 210.42736582 10.67685836 217.81833142 10.67626166 C221.65559832 10.67571181 225.49270293 10.67034102 229.32993126 10.6523819 C232.88741242 10.63596167 236.44461968 10.6336766 240.00212538 10.64241505 C241.91188715 10.64351872 243.82163968 10.62982024 245.73134899 10.61562347 C256.3394012 10.66745145 256.3394012 10.66745145 261 14 C263.39074278 17.39331233 263.98961886 19.40827516 264.0625 23.5625 C262.99882624 27.00379746 261.98777707 28.72565219 259.16870117 30.9543457 C254.25447315 33.32377479 248.47147571 32.7874384 243.125 32.8125 C241.86429688 32.83763672 240.60359375 32.86277344 239.3046875 32.88867188 C236.20281113 32.94741953 233.10234223 32.98379231 230 33 C230.48726562 33.86753906 230.97453125 34.73507812 231.4765625 35.62890625 C234.2684389 41.80682762 233.76082283 48.31474296 231.9375 54.75 C228.60752135 60.33577064 224.57277385 66.37751829 218.14453125 68.59765625 C210.75454826 69.98411936 203.22019521 70.14858368 196.640625 66.1953125 C191.27553617 62.28646207 187.08189517 57.35110015 185.4609375 50.83203125 C184.41986242 43.79872169 185.81425452 38.37149095 189 32 C139.995 32.495 139.995 32.495 90 33 C90.99 35.64 91.98 38.28 93 41 C93.73310517 48.69760432 92.14914939 55.60610579 87.375 61.8125 C81.99631518 67.46735201 76.12772126 69.22407771 68.4375 69.5 C60.81169237 69.22447548 55.91038717 67.3168334 50.6875 61.75 C46.28116752 56.1070129 44.68350755 50.5706544 44.6015625 43.46875 C44.99009201 41.0613907 45.65415574 39.11581245 46.52490234 36.84570312 C46.93716568 35.76536804 46.93716568 35.76536804 47.35775757 34.66320801 C47.56969757 34.11434937 47.78163757 33.56549072 48 33 C46.94087402 33.01047363 45.88174805 33.02094727 44.79052734 33.03173828 C40.8432964 33.06806788 36.89608011 33.09094748 32.94873047 33.10986328 C31.24362702 33.1198914 29.53854064 33.13351726 27.83349609 33.15087891 C25.37593358 33.17526803 22.91859939 33.18651512 20.4609375 33.1953125 C19.70444916 33.20563507 18.94796082 33.21595764 18.16854858 33.22659302 C13.0629037 33.22766379 8.49262109 32.78044363 4.25 29.75 C-1.4548943 21.76314798 -0.1625752 9.33904182 0 0 Z " fill="#FDB735" transform="translate(135,380)"/>
<path d="M0 0 C25.74 0 51.48 0 78 0 C80.29854397 24.13471167 80.29854397 24.13471167 80.8515625 31.80078125 C80.94719986 33.0879731 80.94719986 33.0879731 81.04476929 34.40116882 C81.24023646 37.03813246 81.43270694 39.67530324 81.625 42.3125 C81.76021349 44.14389522 81.89562955 45.9752755 82.03125 47.80664062 C82.35648409 52.20425966 82.67903934 56.6020671 83 61 C66.07817815 63.57995965 49.12537827 65.76356947 32.125 67.75 C31.17176849 67.86250092 30.21853699 67.97500183 29.23641968 68.09091187 C26.49400452 68.41363055 23.75104559 68.73119259 21.0078125 69.046875 C19.7765287 69.19190208 19.7765287 69.19190208 18.52037048 69.33985901 C14.32055166 69.8155757 10.23567386 70.10353681 6 70 C1.99016766 31.75775619 1.99016766 31.75775619 0.75 17 C0.67023926 16.06671875 0.59047852 15.1334375 0.50830078 14.171875 C0.12130876 9.39569629 0 4.82381083 0 0 Z " fill="#01CBC0" transform="translate(148,297)"/>
<path d="M0 0 C30.03 0 60.06 0 91 0 C89.86375526 17.04367113 87.88633655 34.02297104 86 51 C58.94 51 31.88 51 4 51 C2.28658016 47.57316032 2.50383227 43.64203662 2.24609375 39.86328125 C2.18092056 38.95047897 2.11574738 38.0376767 2.04859924 37.09721375 C1.91130903 35.16138769 1.77610898 33.22541246 1.64282227 31.28930664 C1.43950549 28.34157605 1.22909388 25.394418 1.01757812 22.44726562 C0.88499187 20.56513404 0.75281735 18.6829734 0.62109375 16.80078125 C0.55860947 15.92448563 0.49612518 15.04819 0.43174744 14.14533997 C0.34649559 12.89450874 0.34649559 12.89450874 0.25952148 11.6184082 C0.20924301 10.89385941 0.15896454 10.16931061 0.10716248 9.42280579 C-0.03163667 6.2847355 0 3.14113838 0 0 Z " fill="#AAEDE8" transform="translate(236,231)"/>
<path d="M0 0 C26.07 0 52.14 0 79 0 C77.8457905 17.31314244 77.8457905 17.31314244 77.0625 24.3046875 C76.97750244 25.08014923 76.89250488 25.85561096 76.80493164 26.65457153 C76.62842698 28.25573546 76.45029932 29.85672135 76.27050781 31.45751953 C75.99493088 33.92030187 75.72773432 36.38390889 75.4609375 38.84765625 C75.28695414 40.41672172 75.11249391 41.98573441 74.9375 43.5546875 C74.81870483 44.65754593 74.81870483 44.65754593 74.69750977 45.78268433 C74.11473312 50.88526688 74.11473312 50.88526688 73 52 C71.07316428 52.30092273 69.13674368 52.54067645 67.19848633 52.75610352 C65.95662064 52.89617325 64.71475494 53.03624298 63.43525696 53.18055725 C62.06753581 53.33019674 60.69979335 53.47964154 59.33203125 53.62890625 C57.93532657 53.78413008 56.53865438 53.9396465 55.14201355 54.09544373 C52.20752513 54.42180633 49.27271867 54.7450929 46.33764648 55.06616211 C42.58567326 55.4767684 38.83449136 55.89413801 35.08351612 56.31375217 C32.19521584 56.63622543 29.30656309 56.95544467 26.41779137 57.27366447 C25.03547848 57.42625449 23.65326559 57.57975337 22.27115822 57.7341938 C20.33062525 57.9504599 18.38956363 58.16196628 16.44848633 58.37329102 C15.34563797 58.49462906 14.24278961 58.6159671 13.10652161 58.74098206 C10.05454065 58.99545247 7.06094146 59.04616726 4 59 C3.42715356 51.56209085 2.85785868 44.12391594 2.29101562 36.68554688 C2.09782083 34.15586206 1.90381731 31.62623887 1.70898438 29.09667969 C1.4288539 25.45784199 1.15164584 21.81879157 0.875 18.1796875 C0.78750488 17.05134491 0.70000977 15.92300232 0.60986328 14.76046753 C0.52978027 13.69982086 0.44969727 12.63917419 0.3671875 11.54638672 C0.29612793 10.61817108 0.22506836 9.68995544 0.15185547 8.73361206 C-0.0096409 5.82645021 0 2.91164405 0 0 Z " fill="#AAEDE8" transform="translate(241,297)"/>
<path d="M0 0 C26.07 0 52.14 0 79 0 C79.99 11.50875 79.99 11.50875 81 23.25 C81.31324219 26.87597168 81.31324219 26.87597168 81.6328125 30.57519531 C81.79700952 32.49282703 81.9610806 34.41046953 82.125 36.328125 C82.21136719 37.32247559 82.29773438 38.31682617 82.38671875 39.34130859 C82.50853516 40.77192627 82.50853516 40.77192627 82.6328125 42.23144531 C82.73940186 43.47054657 82.73940186 43.47054657 82.84814453 44.73468018 C82.9878704 46.81905545 83 48.91094672 83 51 C56.93 51 30.86 51 4 51 C3.34 43.69875 2.68 36.3975 2 28.875 C1.68675781 25.43296143 1.68675781 25.43296143 1.3671875 21.92138672 C1.20291368 20.09083926 1.03883791 18.26027402 0.875 16.4296875 C0.78863281 15.48875244 0.70226562 14.54781738 0.61328125 13.57836914 C0.49146484 12.20902222 0.49146484 12.20902222 0.3671875 10.81201172 C0.29612793 10.02591522 0.22506836 9.23981873 0.15185547 8.42990112 C-0.02343854 5.62495032 0 2.81042292 0 0 Z " fill="#01CBC0" transform="translate(142,231)"/>
<path d="M0 0 C6.30455584 4.47420092 11.34799325 10.03373396 14.25 17.25 C14.58381177 20.05762016 14.53700981 22.80300373 14.4375 25.625 C14.41719727 26.72908203 14.41719727 26.72908203 14.39648438 27.85546875 C14.36144869 29.65396743 14.30765288 31.45208422 14.25 33.25 C11.28 33.25 8.31 33.25 5.25 33.25 C4.97027344 32.404375 4.69054687 31.55875 4.40234375 30.6875 C1.20215281 21.63229733 -2.16675984 14.40980246 -10.9375 9.8125 C-19.39567141 5.97100871 -28.68239587 6.25025034 -37.3984375 9.2109375 C-45.0761593 12.60341923 -50.55975755 18.18506433 -53.875 25.8515625 C-55.02979825 30.33671641 -54.96521242 34.51722695 -54.875 39.125 C-54.86597656 40.00414062 -54.85695312 40.88328125 -54.84765625 41.7890625 C-54.82424577 43.9428271 -54.7883801 46.09645014 -54.75 48.25 C-54.05438965 48.12882812 -53.3587793 48.00765625 -52.64208984 47.8828125 C-49.47059885 47.33336212 -46.2978381 46.79161481 -43.125 46.25 C-42.03058594 46.05921875 -40.93617188 45.8684375 -39.80859375 45.671875 C-38.74511719 45.49140625 -37.68164062 45.3109375 -36.5859375 45.125 C-35.61188965 44.95742187 -34.6378418 44.78984375 -33.63427734 44.6171875 C-30.64195244 44.23624483 -27.76314583 44.18747038 -24.75 44.25 C-24.40756873 47.51994537 -24.07780858 50.79105899 -23.75 54.0625 C-23.65460938 54.97193359 -23.55921875 55.88136719 -23.4609375 56.81835938 C-23.37070313 57.73037109 -23.28046875 58.64238281 -23.1875 59.58203125 C-23.06181641 60.81530151 -23.06181641 60.81530151 -22.93359375 62.07348633 C-22.66051829 66.79820016 -22.71702736 71.51878614 -22.75 76.25 C-32.12035938 76.27312504 -41.49070901 76.29091591 -50.86109066 76.30181217 C-55.21168459 76.30704065 -59.56225907 76.31413765 -63.9128418 76.32543945 C-68.10790258 76.33626959 -72.30294459 76.3422771 -76.49801826 76.34487724 C-78.10206968 76.34673126 -79.70612003 76.35035144 -81.3101635 76.35573006 C-83.54916515 76.36294219 -85.7880883 76.36399087 -88.02709961 76.36352539 C-89.30395126 76.365746 -90.58080292 76.36796661 -91.89634705 76.37025452 C-94.75 76.25 -94.75 76.25 -95.75 75.25 C-96.88298734 68.57796347 -96.85130722 62.00381462 -96.75 55.25 C-90.95262883 52.9430876 -85.02114469 52.36677608 -78.875 51.625 C-77.80507812 51.4909375 -76.73515625 51.356875 -75.6328125 51.21875 C-73.00583491 50.8903778 -70.37829366 50.56763588 -67.75 50.25 C-67.91008545 49.50830566 -68.0701709 48.76661133 -68.23510742 48.00244141 C-70.67036333 34.98438779 -68.91989074 22.78736277 -62 11.5 C-47.69979898 -8.52028143 -20.44466628 -12.55494607 0 0 Z " fill="#07CBBF" transform="translate(234.75,134.75)"/>
<path d="M0 0 C8.5880572 -0.02312635 17.17610149 -0.04091658 25.76418209 -0.05181217 C29.751572 -0.05704036 33.73894067 -0.06413684 37.72631836 -0.07543945 C41.57125114 -0.08627061 45.41616345 -0.09227732 49.26111031 -0.09487724 C50.73118983 -0.09673108 52.20126818 -0.10035091 53.67133904 -0.10573006 C55.72354467 -0.11294355 57.77566467 -0.11399081 59.82788086 -0.11352539 C60.99814316 -0.115746 62.16840546 -0.11796661 63.37413025 -0.12025452 C66 0 66 0 67 1 C67.90329931 5.07151726 68.51847669 9.196993 69.1875 13.3125 C69.39052734 14.44751953 69.59355469 15.58253906 69.80273438 16.75195312 C71.04576867 24.45173801 71.24831269 31.44967267 69 39 C65.98704698 42.01295302 62.29478666 41.9047214 58.2265625 42.45703125 C56.89245834 42.64698418 56.89245834 42.64698418 55.53140259 42.84077454 C46.40035958 44.12316048 37.25217728 45.27404608 28.09619141 46.36254883 C25.34064737 46.69160222 22.58638102 47.03025211 19.83203125 47.36914062 C18.04173614 47.58391326 16.25137385 47.79812679 14.4609375 48.01171875 C13.65659271 48.11167648 12.85224792 48.21163422 12.02352905 48.31462097 C6.32992092 48.97842303 0.72942529 49.10731891 -5 49 C-4.55889127 38.35254789 -3.63143031 27.78384548 -2.5 17.1875 C-2.30410278 15.33656738 -2.30410278 15.33656738 -2.10424805 13.44824219 C-1.093665 4.19363114 -1.093665 4.19363114 0 0 Z " fill="#AAEDE9" transform="translate(335,297)"/>
<path d="M0 0 C16.17 0 32.34 0 49 0 C49.94875 5.65125 50.8975 11.3025 51.875 17.125 C52.17003418 18.87699707 52.46506836 20.62899414 52.76904297 22.43408203 C53.9803872 29.65415055 55.16488809 36.87817055 56.2578125 44.1171875 C56.51135498 45.79337158 56.51135498 45.79337158 56.77001953 47.50341797 C56.84591309 48.32729004 56.92180664 49.15116211 57 50 C56 51 56 51 53.56394958 51.12025452 C52.48251175 51.11803391 51.40107391 51.11581329 50.28686523 51.11352539 C49.0656749 51.11344986 47.84448456 51.11337433 46.58628845 51.11329651 C45.24372314 51.10818911 43.90115825 51.10297311 42.55859375 51.09765625 C41.19238842 51.09579199 39.82618243 51.09436813 38.4599762 51.09336853 C34.85798305 51.08954394 31.25603 51.07971417 27.65405273 51.06866455 C23.98096255 51.05844916 20.30786591 51.05387064 16.63476562 51.04882812 C9.42315877 51.03809184 2.211585 51.02101614 -5 51 C-4.44228026 39.23946906 -3.37767068 27.62095 -1.9375 15.9375 C-1.298125 10.678125 -0.65875 5.41875 0 0 Z " fill="#AAECE7" transform="translate(342,231)"/>
<path d="M0 0 C6.06595198 3.15538309 10.58431595 8.43263536 12.7421875 14.90625 C13.45199493 24.24294778 12.46887365 30.74247303 6.4921875 38.15625 C1.1947854 43.82732777 -3.10831597 45.05497159 -10.6953125 45.34375 C-18.08604447 45.1570725 -22.42873157 43.28524987 -28.0078125 38.59375 C-32.97763538 32.65757267 -35.37833736 27.6734077 -35.2578125 19.90625 C-34.43173568 12.941787 -31.52829527 8.07582243 -26.4453125 3.21875 C-18.13954402 -2.80700361 -9.47004918 -4.10749121 0 0 Z " fill="#FE8531" transform="translate(355.2578125,404.09375)"/>
<path d="M0 0 C5.27607977 4.04670196 8.6020862 8.45121462 10 15 C10.73310517 22.69760432 9.14914939 29.60610579 4.375 35.8125 C-1.00368482 41.46735201 -6.87227874 43.22407771 -14.5625 43.5 C-22.18830763 43.22447548 -27.08961283 41.3168334 -32.3125 35.75 C-36.70749478 30.12153257 -38.58413858 24.36874618 -38.27734375 17.2265625 C-37.32213739 9.55800443 -33.86808115 4.88359071 -28 0 C-19.3599828 -6.02791898 -8.79278329 -5.53015498 0 0 Z " fill="#FE8431" transform="translate(218,406)"/>
<path d="M0 0 C2.375 0.9375 2.375 0.9375 4.375 3.9375 C4.61550903 6.23442078 4.61550903 6.23442078 4.60205078 8.9597168 C4.60182419 10.49096443 4.60182419 10.49096443 4.60159302 12.05314636 C4.59127045 13.15322525 4.58094788 14.25330414 4.5703125 15.38671875 C4.5674826 16.5144722 4.56465271 17.64222565 4.56173706 18.80415344 C4.55052916 22.41120958 4.52542323 26.01801873 4.5 29.625 C4.489971 32.06835579 4.48084501 34.51171547 4.47265625 36.95507812 C4.45058783 42.94930323 4.41710417 48.94338397 4.375 54.9375 C5.00727005 54.93083817 5.6395401 54.92417633 6.29096985 54.91731262 C12.86051355 54.85103853 19.42996259 54.80573239 25.99975586 54.77270508 C28.45292008 54.75760119 30.90605724 54.73711679 33.35913086 54.71118164 C36.88141555 54.67486943 40.40334381 54.65778964 43.92578125 54.64453125 C45.02586014 54.62904739 46.12593903 54.61356354 47.25935364 54.59761047 C48.79060127 54.59727058 48.79060127 54.59727058 50.3527832 54.59692383 C51.25213089 54.59026199 52.15147858 54.58360016 53.07807922 54.57673645 C55.375 54.9375 55.375 54.9375 57.2084198 56.25956726 C58.375 57.9375 58.375 57.9375 58.0625 61.125 C57.835625 62.053125 57.60875 62.98125 57.375 63.9375 C54.2499944 64.97916853 52.03727815 65.07656399 48.7578125 65.09863281 C47.60651855 65.10824036 46.45522461 65.1178479 45.26904297 65.12774658 C44.02525879 65.13199646 42.78147461 65.13624634 41.5 65.140625 C40.22398926 65.14632507 38.94797852 65.15202515 37.63330078 65.15789795 C34.93323192 65.16735001 32.23327429 65.17424626 29.53320312 65.17773438 C26.07287733 65.18322825 22.6129432 65.20728059 19.15274048 65.23570633 C15.85185654 65.25879654 12.55095343 65.26077924 9.25 65.265625 C8.00621582 65.2779718 6.76243164 65.2903186 5.48095703 65.30303955 C4.32966309 65.30003845 3.17836914 65.29703735 1.9921875 65.29394531 C0.97753418 65.29759094 -0.03711914 65.30123657 -1.08251953 65.30499268 C-3.625 64.9375 -3.625 64.9375 -5.45082092 63.76530457 C-7.08748884 61.21755938 -7.01292601 59.35569717 -7.02905273 56.33618164 C-7.04173691 55.18811539 -7.05442108 54.04004913 -7.06748962 52.85719299 C-7.06455399 51.61654587 -7.06161835 50.37589874 -7.05859375 49.09765625 C-7.0638356 47.82401718 -7.06907745 46.55037811 -7.07447815 45.23814392 C-7.0809079 42.54199431 -7.08098429 39.84668907 -7.07104492 37.15063477 C-7.05955932 33.69916105 -7.07975698 30.24871107 -7.10896206 26.79737186 C-7.13174367 23.50162806 -7.12485663 20.20596036 -7.12109375 16.91015625 C-7.13232773 15.67153336 -7.14356171 14.43291046 -7.15513611 13.15675354 C-7.14106468 11.42992592 -7.14106468 11.42992592 -7.12670898 9.66821289 C-7.12654282 8.65578018 -7.12637665 7.64334747 -7.12620544 6.60023499 C-6.3459382 2.45493904 -4.3508336 -0.10359128 0 0 Z " fill="#FF1F2A" transform="translate(410.625,77.0625)"/>
<path d="M0 0 C4.65390587 0.43904772 9.13915593 1.15913699 13.6875 2.25 C14.57824219 2.46140625 15.46898438 2.6728125 16.38671875 2.890625 C20.00639261 4.42722796 21.63985111 5.81137418 24 9 C25.05147025 12.64524941 25.44082549 16.29414165 25.8125 20.0625 C25.93085205 21.11566406 26.0492041 22.16882813 26.17114258 23.25390625 C27.19925662 33.17867354 27.29759606 43.03604294 27 53 C23.96160478 53.63520458 20.96008383 54.1612457 17.875 54.5 C14.09505786 54.86152325 14.09505786 54.86152325 11 56 C9.77030122 59.51190809 9.77030122 59.51190809 9 63 C6.51212142 59.13795022 6.46066982 54.9687595 6.1484375 50.515625 C6.05280014 49.29223419 6.05280014 49.29223419 5.95523071 48.04412842 C5.75397903 45.44661601 5.56434189 42.84840501 5.375 40.25 C5.24034898 38.48561848 5.10494104 36.72129456 4.96875 34.95703125 C4.63705613 30.63863924 4.31577388 26.31958412 4 22 C1.36 21.34 -1.28 20.68 -4 20 C-3.360625 19.21625 -2.72125 18.4325 -2.0625 17.625 C0.55569593 14.29275064 1.13876955 12.76963536 1.125 8.625 C1.12757812 7.85414063 1.13015625 7.08328125 1.1328125 6.2890625 C1.00389788 4.0671811 0.61383717 2.13381492 0 0 Z " fill="#FEB634" transform="translate(112,157)"/>
<path d="M0 0 C3.3 0 6.6 0 10 0 C12.11412956 20.29564376 13.51492714 40.65093043 15 61 C8.565 61.495 8.565 61.495 2 62 C1.70914688 56.2243222 1.42465946 50.44837434 1.14550781 44.67211914 C1.05015705 42.71630861 0.95321019 40.7605751 0.85449219 38.80493164 C0.20229969 25.85757951 -0.13569785 12.96385688 0 0 Z " fill="#A8EBE6" transform="translate(216,297)"/>
<path d="M0 0 C2.64 0 5.28 0 8 0 C8.5720401 6.62007655 9.14143339 13.24037693 9.70898438 19.86083984 C9.90238437 22.11317099 10.09639094 24.36545013 10.29101562 26.61767578 C10.57060557 29.85435737 10.84801595 33.09121949 11.125 36.328125 C11.21249512 37.33554749 11.29999023 38.34296997 11.39013672 39.38092041 C11.47021973 40.32159363 11.55030273 41.26226685 11.6328125 42.23144531 C11.70387207 43.05751282 11.77493164 43.88358032 11.84814453 44.73468018 C11.9878704 46.81905545 12 48.91094672 12 51 C8.7 51 5.4 51 2 51 C1.22370116 44.56128609 0.72157153 38.16573076 0.4375 31.6875 C0.3950415 30.74632324 0.35258301 29.80514648 0.30883789 28.83544922 C-0.08990259 19.22235379 -0.09389743 9.61927013 0 0 Z " fill="#A8EAE4" transform="translate(213,231)"/>
<path d="M0 0 C3 1 3 1 4.16796875 3.21484375 C4.50441406 4.11332031 4.84085937 5.01179688 5.1875 5.9375 C5.53167969 6.83339844 5.87585938 7.72929687 6.23046875 8.65234375 C7 11 7 11 7 13 C10.3 13.33 13.6 13.66 17 14 C17.495 15.485 17.495 15.485 18 17 C16.56445975 17.50559908 15.1264798 18.0042749 13.6875 18.5 C12.88699219 18.7784375 12.08648437 19.056875 11.26171875 19.34375 C9 20 9 20 6 20 C5.86722656 20.77085937 5.73445313 21.54171875 5.59765625 22.3359375 C5.33275391 23.84027344 5.33275391 23.84027344 5.0625 25.375 C4.80146484 26.87160156 4.80146484 26.87160156 4.53515625 28.3984375 C4 31 4 31 3 33 C2.01 33 1.02 33 0 33 C-0.99 29.04 -1.98 25.08 -3 21 C-6.96 20.01 -10.92 19.02 -15 18 C-15 17.01 -15 16.02 -15 15 C-13.56445975 14.49440092 -12.1264798 13.9957251 -10.6875 13.5 C-9.88699219 13.2215625 -9.08648437 12.943125 -8.26171875 12.65625 C-6 12 -6 12 -3 12 C-2.95101563 11.38511719 -2.90203125 10.77023437 -2.8515625 10.13671875 C-2.77679688 9.32847656 -2.70203125 8.52023437 -2.625 7.6875 C-2.52058594 6.48673828 -2.52058594 6.48673828 -2.4140625 5.26171875 C-2 3 -2 3 0 0 Z " fill="#FDB437" transform="translate(442,362)"/>
<path d="M0 0 C3 1 3 1 4.16796875 2.9609375 C4.50441406 3.75757813 4.84085938 4.55421875 5.1875 5.375 C5.53167969 6.16648438 5.87585938 6.95796875 6.23046875 7.7734375 C7 10 7 10 7 13 C10.63 13.66 14.26 14.32 18 15 C17.67 15.99 17.34 16.98 17 18 C13.3962102 19.52160014 10.94779314 20 7 20 C6.81824219 20.84304687 6.63648437 21.68609375 6.44921875 22.5546875 C6.19785156 23.65039062 5.94648437 24.74609375 5.6875 25.875 C5.44386719 26.96554688 5.20023438 28.05609375 4.94921875 29.1796875 C4 32 4 32 1 34 C-1.29604234 29.7938048 -2.03772466 25.6739088 -3 21 C-6.63 20.34 -10.26 19.68 -14 19 C-14 17.68 -14 16.36 -14 15 C-12.95199219 14.77957031 -12.95199219 14.77957031 -11.8828125 14.5546875 C-9.12884985 13.87594883 -6.59431914 13.15063656 -4 12 C-2.32926958 9.23785028 -2.32926958 9.23785028 -2 6 C-1.33333333 4 -0.66666667 2 0 0 Z " fill="#FDB436" transform="translate(77,208)"/>
<path d="M0 0 C18.81 0 37.62 0 57 0 C57.495 1.98 57.495 1.98 58 4 C57 5 57 5 54.71580505 5.12025452 C53.70542679 5.11803391 52.69504852 5.11581329 51.65405273 5.11352539 C50.5129454 5.11344986 49.37183807 5.11337433 48.19615173 5.11329651 C46.9545076 5.10813522 45.71286346 5.10297394 44.43359375 5.09765625 C42.53795433 5.09553383 42.53795433 5.09553383 40.60401917 5.09336853 C37.23875111 5.08870582 33.8735501 5.0797148 30.50830078 5.06866455 C27.0765033 5.05844846 23.64469891 5.05387049 20.21289062 5.04882812 C13.47524176 5.0377738 6.73762475 5.0210171 0 5 C0 3.35 0 1.7 0 0 Z " fill="#FFFCFA" transform="translate(237,218)"/>
<path d="M0 0 C2.0625 0.4375 2.0625 0.4375 4 1 C4.57717445 6.7609992 5.14651382 12.52270283 5.70898438 18.28515625 C5.90090622 20.24044051 6.09487091 22.19552547 6.29101562 24.15039062 C8.37857926 44.98342367 8.37857926 44.98342367 8 55 C6.68 55 5.36 55 4 55 C1.82975353 52.82975353 2.30983611 48.11756707 2.02734375 45.1015625 C1.93997452 44.19683197 1.85260529 43.29210144 1.7625885 42.35995483 C1.57801482 40.43500722 1.39574878 38.50983719 1.21557617 36.58447266 C0.94186608 33.67146674 0.65800058 30.75958103 0.37304688 27.84765625 C-1.59922262 7.30286889 -1.59922262 7.30286889 -1 1 C-0.67 0.67 -0.34 0.34 0 0 Z " fill="#FFF6F0" transform="translate(131,250)"/>
<path d="M0 0 C0.99 0.33 1.98 0.66 3 1 C3.94921875 3.06640625 3.94921875 3.06640625 4.6875 5.5625 C4.93886719 6.38878906 5.19023437 7.21507813 5.44921875 8.06640625 C5.63097656 8.70449219 5.81273437 9.34257813 6 10 C8.64 10.33 11.28 10.66 14 11 C14 11.99 14 12.98 14 14 C12.741875 14.309375 11.48375 14.61875 10.1875 14.9375 C7.33850176 15.96616485 6.26743091 16.5086937 4.80078125 19.203125 C4.0736706 21.45894146 3.46747675 23.67722488 3 26 C2.01 26 1.02 26 0 26 C-0.66 23.03 -1.32 20.06 -2 17 C-6.455 16.01 -6.455 16.01 -11 15 C-11 13.68 -11 12.36 -11 11 C-9.741875 10.855625 -8.48375 10.71125 -7.1875 10.5625 C-4.95170303 10.13357299 -4.95170303 10.13357299 -3 9 C-1.38701861 6.12605596 -0.6360833 3.22017171 0 0 Z " fill="#FDB336" transform="translate(301,63)"/>
<path d="M0 0 C0.495 1.98 0.495 1.98 1 4 C-3.37486381 5.59777635 -7.50536888 6.47726621 -12.12109375 7.0703125 C-12.78407974 7.15626678 -13.44706573 7.24222107 -14.13014221 7.33078003 C-15.52397143 7.51005297 -16.91818359 7.6863711 -18.31274414 7.85986328 C-20.42898857 8.12393791 -22.54356922 8.39913692 -24.65820312 8.67578125 C-30.80669541 9.46024515 -36.78749451 10.10255438 -43 10 C-43.625 8.125 -43.625 8.125 -44 6 C-41.13663191 3.13663191 -38.00143547 3.32259821 -34.140625 2.9296875 C-33.35862732 2.84373322 -32.57662964 2.75777893 -31.77093506 2.66921997 C-30.11368362 2.48874297 -28.45596693 2.31249598 -26.79785156 2.14013672 C-24.27300361 1.87739382 -21.74979547 1.60200134 -19.2265625 1.32421875 C-17.6146641 1.15029148 -16.00268707 0.97709116 -14.390625 0.8046875 C-13.64041077 0.72346649 -12.89019653 0.64224548 -12.11724854 0.55856323 C-8.05947887 0.14003167 -4.07887258 -0.08286467 0 0 Z " fill="#FFF5EF" transform="translate(305,357)"/>
<path d="M0 0 C1.65 0.33 3.3 0.66 5 1 C3.51737978 8.44105555 2.0225856 15.87951395 0.5 23.3125 C0.28730469 24.37017578 0.07460938 25.42785156 -0.14453125 26.51757812 C-0.35464844 27.53916016 -0.56476563 28.56074219 -0.78125 29.61328125 C-0.96751953 30.52891846 -1.15378906 31.44455566 -1.34570312 32.38793945 C-2.01231256 35.04915376 -2.92368701 37.47959582 -4 40 C-5.65 39.67 -7.3 39.34 -9 39 C-6.51756451 25.83893139 -3.56358976 12.91071044 0 0 Z " fill="#FFF6EF" transform="translate(427,268)"/>
<path d="M0 0 C0.70744354 0.00141495 1.41488708 0.0028299 2.14376831 0.00428772 C4.40578419 0.00989025 6.66770148 0.02244307 8.9296875 0.03515625 C10.46223815 0.04017093 11.99479036 0.04473389 13.52734375 0.04882812 C17.28649638 0.05986048 21.04557522 0.07712673 24.8046875 0.09765625 C25.4646875 1.41765625 26.1246875 2.73765625 26.8046875 4.09765625 C23.10062936 6.56702834 21.21806075 6.34241315 16.80078125 6.328125 C16.12169205 6.32766678 15.44260284 6.32720856 14.74293518 6.32673645 C13.30980681 6.32371955 11.87668156 6.31585003 10.44360352 6.3034668 C8.24678981 6.28519453 6.05039745 6.28295731 3.85351562 6.28320312 C-6.90012553 6.24524973 -6.90012553 6.24524973 -9.1953125 5.09765625 C-9.1953125 3.77765625 -9.1953125 2.45765625 -9.1953125 1.09765625 C-6.23720774 -0.38139613 -3.240597 -0.02425278 0 0 Z " fill="#FFF1E0" transform="translate(263.1953125,398.90234375)"/>
<path d="M0 0 C0 1.32 0 2.64 0 4 C-0.6290625 4.27972656 -1.258125 4.55945313 -1.90625 4.84765625 C-11.46748613 9.32588582 -17.95457367 14.66110991 -23 24 C-24.32 23.67 -25.64 23.34 -27 23 C-26.56029337 15.9646939 -20.98585295 10.71813413 -16.0625 6.1875 C-11.22553795 2.1443905 -6.53201251 -0.59381932 0 0 Z " fill="#FFFAF7" transform="translate(388,79)"/>
<path d="M0 0 C-0.0625 1.75 -0.0625 1.75 -1 4 C-2.69149225 4.92866241 -4.3846955 5.85446907 -6.08984375 6.7578125 C-11.43560058 10.23419424 -14.02765286 15.4345664 -15.625 21.4375 C-15.89183594 22.70400391 -15.89183594 22.70400391 -16.1640625 23.99609375 C-17 26 -17 26 -19.0234375 26.84765625 C-19.67570313 26.89792969 -20.32796875 26.94820312 -21 27 C-21.33 26.67 -21.66 26.34 -22 26 C-21.86302331 17.37046823 -18.92698117 11.08257853 -12.9296875 4.84765625 C-5.62256349 -1.7449335 -5.62256349 -1.7449335 0 0 Z " fill="#F1FCFB" transform="translate(192,139)"/>
<path d="M0 0 C2.16796875 0.3359375 2.16796875 0.3359375 4 1 C3.06325008 6.16905376 0.01391308 8.82032439 -4 12 C-10.11122816 15.77920334 -15.69527774 18.99609849 -23 18 C-23 16.68 -23 15.36 -23 14 C-21.865625 13.608125 -20.73125 13.21625 -19.5625 12.8125 C-13.21442441 10.40809615 -7.33573911 7.67132508 -2.6875 2.625 C-1.800625 1.75875 -0.91375 0.8925 0 0 Z " fill="#FFFAF7" transform="translate(453,175)"/>
<path d="M0 0 C0.5625 1.9375 0.5625 1.9375 1 4 C-1.2844215 6.2844215 -6.35007612 5.76414479 -9.4375 6.0625 C-10.30310547 6.15337891 -11.16871094 6.24425781 -12.06054688 6.33789062 C-18.05847588 6.93187764 -23.97471015 7.10934455 -30 7 C-30 3 -30 3 -29 2 C-27.62166168 1.77331922 -26.23349022 1.60563726 -24.84375 1.46484375 C-23.98523438 1.37783203 -23.12671875 1.29082031 -22.2421875 1.20117188 C-21.33726562 1.11416016 -20.43234375 1.02714844 -19.5 0.9375 C-18.62601562 0.84662109 -17.75203125 0.75574219 -16.8515625 0.66210938 C-11.20542064 0.10503455 -5.67303319 -0.08647916 0 0 Z " fill="#FAFEFD" transform="translate(330,164)"/>
<path d="M0 0 C1.17755859 -0.02126953 1.17755859 -0.02126953 2.37890625 -0.04296875 C4.4375 0.1875 4.4375 0.1875 6.4375 2.1875 C6.4375 3.1775 6.4375 4.1675 6.4375 5.1875 C5.35082031 5.22617187 5.35082031 5.22617187 4.2421875 5.265625 C-1.74226617 5.61671295 -6.00007368 5.95096127 -10.5625 10.1875 C-12.41303296 12.76151261 -14.03843365 15.40911356 -15.5625 18.1875 C-16.8825 17.8575 -18.2025 17.5275 -19.5625 17.1875 C-18.95273263 12.00447733 -16.85357473 8.13413069 -12.84765625 4.73046875 C-8.6231045 1.63127328 -5.3369263 0.0439615 0 0 Z " fill="#FFF6F0" transform="translate(345.5625,405.8125)"/>
<path d="M0 0 C6.5780426 -0.37322228 12.54796264 1.03250849 18.9375 2.5 C20.00291016 2.73847656 21.06832031 2.97695312 22.16601562 3.22265625 C24.77890813 3.80850659 27.39007007 4.40111458 30 5 C30.5625 6.9375 30.5625 6.9375 31 9 C30.67 9.33 30.34 9.66 30 10 C23.58055307 9.48466283 17.35814629 8.39075792 11.0625 7.0625 C9.78922852 6.80823242 9.78922852 6.80823242 8.49023438 6.54882812 C7.68005859 6.37931641 6.86988281 6.20980469 6.03515625 6.03515625 C4.94279663 5.80904663 4.94279663 5.80904663 3.82836914 5.57836914 C2 5 2 5 0 3 C0 2.01 0 1.02 0 0 Z " fill="#FFF6EF" transform="translate(50,148)"/>
<path d="M0 0 C0.33 0.99 0.66 1.98 1 3 C-1.22949696 5.22949696 -2.81448879 5.79864589 -5.75 6.875 C-11.2773771 9.03027941 -15.53720148 11.43271587 -19.625 15.8125 C-20.800625 16.8953125 -20.800625 16.8953125 -22 18 C-24.3125 17.8125 -24.3125 17.8125 -26 17 C-25.06364176 11.83310752 -22.01548954 9.17551468 -18 6 C-12.05182777 2.36588943 -7.10194696 -0.43265947 0 0 Z " fill="#FAFEFE" transform="translate(286,118)"/>
<path d="M0 0 C1.06863281 0.01804687 2.13726562 0.03609375 3.23828125 0.0546875 C4.04652344 0.07789063 4.85476562 0.10109375 5.6875 0.125 C6.0175 1.775 6.3475 3.425 6.6875 5.125 C5.89085937 5.15078125 5.09421875 5.1765625 4.2734375 5.203125 C-3.28077173 5.60748656 -7.68115492 6.21432068 -12.9375 11.875 C-14.3125 13.125 -14.3125 13.125 -18.3125 13.125 C-18.04525011 8.58175182 -16.15061745 6.52143819 -13.078125 3.45703125 C-8.90632152 0.30971933 -5.12890951 -0.11272329 0 0 Z " fill="#FFF9F6" transform="translate(205.3125,406.875)"/>
<path d="M0 0 C0.5625 1.9375 0.5625 1.9375 1 4 C-2.30843088 7.30843088 -11.59352508 6.94124852 -16.0859375 7.12890625 C-18.39426635 7.12559919 -20.69370343 7.09370957 -23 7 C-23.5625 5.0625 -23.5625 5.0625 -24 3 C-21.97442368 0.97442368 -18.15922135 1.27249989 -15.375 0.9375 C-14.67503906 0.84662109 -13.97507813 0.75574219 -13.25390625 0.66210938 C-8.80031697 0.11264057 -4.48667653 -0.0883204 0 0 Z " fill="#EBFBFA" transform="translate(202,187)"/>
<path d="M0 0 C6.6 0 13.2 0 20 0 C20 1.32 20 2.64 20 4 C19 5 19 5 17.23413086 5.11352539 C16.48526611 5.10828857 15.73640137 5.10305176 14.96484375 5.09765625 C14.15595703 5.09443359 13.34707031 5.09121094 12.51367188 5.08789062 C11.66353516 5.07951172 10.81339844 5.07113281 9.9375 5.0625 C9.08349609 5.05798828 8.22949219 5.05347656 7.34960938 5.04882812 C5.23304337 5.03700373 3.11651315 5.01906769 1 5 C0.67 3.35 0.34 1.7 0 0 Z " fill="#FFF6EB" transform="translate(145,400)"/>
<path d="M0 0 C2.125 0.375 2.125 0.375 4 1 C4.625 2.875 4.625 2.875 5 5 C4.34 5.66 3.68 6.32 3 7 C0.875 6.625 0.875 6.625 -1 6 C-1.625 4.125 -1.625 4.125 -2 2 C-1.34 1.34 -0.68 0.68 0 0 Z " fill="#FFEEE2" transform="translate(243,363)"/>
<path d="M0 0 C1.65 0.33 3.3 0.66 5 1 C5 2.65 5 4.3 5 6 C3.125 6.625 3.125 6.625 1 7 C0.34 6.34 -0.32 5.68 -1 5 C-0.625 2.375 -0.625 2.375 0 0 Z " fill="#FFF0E4" transform="translate(432,252)"/>
<path d="M0 0 C1.65 0.33 3.3 0.66 5 1 C5 2.65 5 4.3 5 6 C3.125 6.625 3.125 6.625 1 7 C0.34 6.34 -0.32 5.68 -1 5 C-0.625 2.375 -0.625 2.375 0 0 Z " fill="#FFF3EE" transform="translate(353,116)"/>
<path d="M0 0 C1.32 0.33 2.64 0.66 4 1 C4.33 2.32 4.66 3.64 5 5 C3.02 5.99 3.02 5.99 1 7 C0.01 6.01 -0.98 5.02 -2 4 C-1.34 2.68 -0.68 1.36 0 0 Z " fill="#FFF3E6" transform="translate(237,399)"/>
<path d="M0 0 C1.98 0.495 1.98 0.495 4 1 C4.33 2.65 4.66 4.3 5 6 C3.125 6.625 3.125 6.625 1 7 C0.34 6.34 -0.32 5.68 -1 5 C-0.625 2.375 -0.625 2.375 0 0 Z " fill="#FFF3EC" transform="translate(92,157)"/>
<path d="M0 0 C1.65 0.33 3.3 0.66 5 1 C5 2.65 5 4.3 5 6 C4.01 6.33 3.02 6.66 2 7 C1.01 6.34 0.02 5.68 -1 5 C-0.67 3.35 -0.34 1.7 0 0 Z " fill="#F8FDFD" transform="translate(298,117)"/>
<path d="M0 0 C2.125 0.9375 2.125 0.9375 4 2 C3.67 3.65 3.34 5.3 3 7 C1.35 6.67 -0.3 6.34 -2 6 C-2 4.35 -2 2.7 -2 1 C-1.34 0.67 -0.68 0.34 0 0 Z " fill="#FFF7F3" transform="translate(399,72)"/>
<path d="M0 0 C1.65 0.33 3.3 0.66 5 1 C5.33 2.32 5.66 3.64 6 5 C4.35 5.33 2.7 5.66 1 6 C-0.0625 4.125 -0.0625 4.125 -1 2 C-0.67 1.34 -0.34 0.68 0 0 Z " fill="#FFF4EB" transform="translate(316,354)"/>
<path d="M0 0 C1.65 0.33 3.3 0.66 5 1 C5.33 2.32 5.66 3.64 6 5 C4.35 5.33 2.7 5.66 1 6 C-0.0625 4.125 -0.0625 4.125 -1 2 C-0.67 1.34 -0.34 0.68 0 0 Z " fill="#FFF3EB" transform="translate(415,322)"/>
<path d="M0 0 C1.65 0 3.3 0 5 0 C5.33 1.65 5.66 3.3 6 5 C4.34385343 5.38218767 2.67542976 5.71395102 1 6 C0 5 0 5 -0.0625 2.4375 C-0.041875 1.633125 -0.02125 0.82875 0 0 Z " fill="#FFF4EC" transform="translate(215,219)"/>
<path d="M0 0 C1.2065625 0.0309375 1.2065625 0.0309375 2.4375 0.0625 C3.5625 3.8125 3.5625 3.8125 2.4375 6.0625 C0.7875 5.7325 -0.8625 5.4025 -2.5625 5.0625 C-3.125 3.125 -3.125 3.125 -3.5625 1.0625 C-2.5625 0.0625 -2.5625 0.0625 0 0 Z " fill="#FFF6F3" transform="translate(411.5625,190.9375)"/>
<path d="M0 0 C1.65 0.33 3.3 0.66 5 1 C5.33 2.32 5.66 3.64 6 5 C4.35 5.33 2.7 5.66 1 6 C-0.0625 4.125 -0.0625 4.125 -1 2 C-0.67 1.34 -0.34 0.68 0 0 Z " fill="#FFF7F3" transform="translate(458,164)"/>
<path d="M0 0 C1.65 0.33 3.3 0.66 5 1 C4.67 2.65 4.34 4.3 4 6 C2.35 5.67 0.7 5.34 -1 5 C-0.67 3.35 -0.34 1.7 0 0 Z " fill="#FFF8F4" transform="translate(216,415)"/>
<path d="M0 0 C1.67542976 0.28604898 3.34385343 0.61781233 5 1 C5 2.65 5 4.3 5 6 C3.35 6 1.7 6 0 6 C-0.38218767 4.34385343 -0.71395102 2.67542976 -1 1 C-0.67 0.67 -0.34 0.34 0 0 Z " fill="#FFF8F2" transform="translate(300,400)"/>
<path d="M0 0 C1.65 0.33 3.3 0.66 5 1 C4.67 2.65 4.34 4.3 4 6 C2.35 5.67 0.7 5.34 -1 5 C-0.67 3.35 -0.34 1.7 0 0 Z " fill="#FFF8F3" transform="translate(176,400)"/>
<path d="M0 0 C1.67542976 0.28604898 3.34385343 0.61781233 5 1 C5 2.65 5 4.3 5 6 C3.35 6 1.7 6 0 6 C-0.38218767 4.34385343 -0.71395102 2.67542976 -1 1 C-0.67 0.67 -0.34 0.34 0 0 Z " fill="#FFF5EE" transform="translate(136,318)"/>
<path d="M0 0 C1.65 0.33 3.3 0.66 5 1 C5 2.32 5 3.64 5 5 C3.125 5.625 3.125 5.625 1 6 C0.34 5.34 -0.32 4.68 -1 4 C-0.625 1.875 -0.625 1.875 0 0 Z " fill="#FFF5ED" transform="translate(307,217)"/>
<path d="M0 0 C1.98 0.495 1.98 0.495 4 1 C4.33 2.32 4.66 3.64 5 5 C3.02 5.99 3.02 5.99 1 7 C0.34 6.34 -0.32 5.68 -1 5 C-0.625 2.375 -0.625 2.375 0 0 Z " fill="#F9FEFD" transform="translate(340,163)"/>
<path d="M0 0 C1.67542976 0.28604898 3.34385343 0.61781233 5 1 C4.67 2.65 4.34 4.3 4 6 C2.68 6 1.36 6 0 6 C-0.38218767 4.34385343 -0.71395102 2.67542976 -1 1 C-0.67 0.67 -0.34 0.34 0 0 Z " fill="#FFF8F4" transform="translate(129,230)"/>
<path d="M0 0 C1.67542976 0.28604898 3.34385343 0.61781233 5 1 C5 2.65 5 4.3 5 6 C3.35 5.67 1.7 5.34 0 5 C-0.5625 3.0625 -0.5625 3.0625 -1 1 C-0.67 0.67 -0.34 0.34 0 0 Z " fill="#F1FCFB" transform="translate(158,193)"/>
<path d="M0 0 C2.125 0.375 2.125 0.375 4 1 C4.33 2.32 4.66 3.64 5 5 C3.35 5.33 1.7 5.66 0 6 C-0.66 4.68 -1.32 3.36 -2 2 C-1.34 1.34 -0.68 0.68 0 0 Z " fill="#FBFEFE" transform="translate(284,168)"/>
<path d="M0 0 C1.98 0.495 1.98 0.495 4 1 C4.33 2.32 4.66 3.64 5 5 C4.01 5.66 3.02 6.32 2 7 C1.01 6.34 0.02 5.68 -1 5 C-0.67 3.35 -0.34 1.7 0 0 Z " fill="#FBFEFE" transform="translate(255,145)"/>
<path d="M0 0 C2.475 0.495 2.475 0.495 5 1 C5.33 2.32 5.66 3.64 6 5 C4.34385343 5.38218767 2.67542976 5.71395102 1 6 C0 5 0 5 -0.0625 2.4375 C-0.041875 1.633125 -0.02125 0.82875 0 0 Z " fill="#F1FCFB" transform="translate(200,132)"/>
<path d="M0 0 C1.67542976 0.28604898 3.34385343 0.61781233 5 1 C4.67 2.65 4.34 4.3 4 6 C2.68 5.67 1.36 5.34 0 5 C-0.5625 3.0625 -0.5625 3.0625 -1 1 C-0.67 0.67 -0.34 0.34 0 0 Z " fill="#FFFAF8" transform="translate(356,415)"/>
<path d="M0 0 C2.0625 0.4375 2.0625 0.4375 4 1 C4.33 2.32 4.66 3.64 5 5 C3.35 5.33 1.7 5.66 0 6 C-0.38218767 4.34385343 -0.71395102 2.67542976 -1 1 C-0.67 0.67 -0.34 0.34 0 0 Z " fill="#F0FCFB" transform="translate(171,173)"/>
</svg>
