<?xml version="1.0" encoding="UTF-8"?>
<svg version="1.1" xmlns="http://www.w3.org/2000/svg" width="64" height="64">
<path d="M0 0 C8.04071716 5.46768767 14.35713546 11.78672485 16.953125 21.328125 C17.97008074 32.73931439 17.08780568 41.52074309 9.640625 50.578125 C3.75028057 56.89640044 -1.9995096 60.87830798 -10.81640625 61.6640625 C-22.23808647 61.92046185 -29.76998744 60.10045244 -38.2578125 52.1875 C-45.41707366 44.7468705 -47.46537447 37.63799487 -47.41040039 27.37304688 C-47.154444 17.46241552 -43.06295379 11.07888989 -36.046875 4.328125 C-26.55128048 -3.80505814 -11.27874483 -6.1129075 0 0 Z " fill="#FC641F" transform="translate(47.046875,2.671875)"/>
<path d="M0 0 C0.88945313 -0.02320313 1.77890625 -0.04640625 2.6953125 -0.0703125 C7.12599715 -0.03063473 9.41782831 0.34013353 13.1015625 2.93359375 C16.53893607 8.01407421 15.55230226 14.71458225 15.375 20.5625 C15.35373047 22.44098633 15.35373047 22.44098633 15.33203125 24.35742188 C15.18210494 33.56789506 15.18210494 33.56789506 14 34.75 C11.9394469 34.84993532 9.8754741 34.88080906 7.8125 34.8828125 C6.55695312 34.88410156 5.30140625 34.88539062 4.0078125 34.88671875 C3.35071289 34.88462402 2.69361328 34.8825293 2.01660156 34.88037109 C0.00838665 34.87502234 -1.99960459 34.88031691 -4.0078125 34.88671875 C-5.26335938 34.88542969 -6.51890625 34.88414063 -7.8125 34.8828125 C-8.97394531 34.88168457 -10.13539062 34.88055664 -11.33203125 34.87939453 C-14 34.75 -14 34.75 -15 33.75 C-15.3389344 29.36230115 -15.32519037 24.96159601 -15.375 20.5625 C-15.43107422 18.71301758 -15.43107422 18.71301758 -15.48828125 16.82617188 C-15.5875413 6.60790103 -15.5875413 6.60790103 -13.1015625 2.93359375 C-8.71468149 -0.15490308 -5.24884635 -0.13692643 0 0 Z " fill="#FEF7F4" transform="translate(32,14.25)"/>
<path d="M0 0 C0.99 0 1.98 0 3 0 C3.33 2.31 3.66 4.62 4 7 C6.64 7 9.28 7 12 7 C12.33 4.69 12.66 2.38 13 0 C13.99 0 14.98 0 16 0 C16.3125 3.25 16.3125 3.25 16 7 C13.28148463 10.21279089 11.59276322 10.90640581 7.4375 11.5625 C4 11 4 11 1.5625 8.875 C-0.20830209 5.61672415 -0.33975517 3.65236803 0 0 Z " fill="#FD6926" transform="translate(24,29)"/>
<path d="M0 0 C1.87939453 -0.34057617 1.87939453 -0.34057617 4.1328125 -0.29296875 C4.93847656 -0.28330078 5.74414062 -0.27363281 6.57421875 -0.26367188 C7.41597656 -0.23853516 8.25773437 -0.21339844 9.125 -0.1875 C9.97449219 -0.17396484 10.82398438 -0.16042969 11.69921875 -0.14648438 C13.79974837 -0.11108219 15.89995293 -0.05727401 18 0 C18.33 0.99 18.66 1.98 19 3 C12.07 3 5.14 3 -2 3 C-1.34 2.01 -0.68 1.02 0 0 Z " fill="#FD6724" transform="translate(23,19)"/>
</svg>
