<?xml version="1.0" encoding="UTF-8"?>
<svg version="1.1" xmlns="http://www.w3.org/2000/svg" width="64" height="64">
<path d="M0 0 C8.04071716 5.46768767 14.35713546 11.78672485 16.953125 21.328125 C17.97008074 32.73931439 17.08780568 41.52074309 9.640625 50.578125 C3.75028057 56.89640044 -1.9995096 60.87830798 -10.81640625 61.6640625 C-22.23808647 61.92046185 -29.76998744 60.10045244 -38.2578125 52.1875 C-45.41707366 44.7468705 -47.46537447 37.63799487 -47.41040039 27.37304688 C-47.154444 17.46241552 -43.06295379 11.07888989 -36.046875 4.328125 C-26.55128048 -3.80505814 -11.27874483 -6.1129075 0 0 Z " fill="#7EDE3E" transform="translate(47.046875,2.671875)"/>
<path d="M0 0 C0.9075 0.37125 1.815 0.7425 2.75 1.125 C3.4925 1.41375 4.235 1.7025 5 2 C5.99 1.34 6.98 0.68 8 0 C12.20851192 -0.54554784 14.29799985 -0.43314903 17.9375 1.8125 C20.99277161 6.53428339 21.04075128 10.5341839 20 16 C17.50417758 21.89921663 13.55875136 26.19060295 7.9375 29.24609375 C4.76182389 30.4817903 3.16685273 30.25354587 0 29 C-6.85302253 25.28172639 -10.4269578 20.30219846 -13 13 C-13.56994891 9.22408848 -13.32190318 7.67446381 -11.6875 4.25 C-8.27758063 -0.29655915 -5.40387761 -0.37268121 0 0 Z " fill="#FBFEF9" transform="translate(28,17)"/>
</svg>
