<?xml version="1.0" encoding="UTF-8"?>
<!DOCTYPE svg PUBLIC "-//W3C//DTD SVG 1.1//EN" "http://www.w3.org/Graphics/SVG/1.1/DTD/svg11.dtd">
<svg xmlns="http://www.w3.org/2000/svg" version="1.1" width="512px" height="512px" style="shape-rendering:geometricPrecision; text-rendering:geometricPrecision; image-rendering:optimizeQuality; fill-rule:evenodd; clip-rule:evenodd" xmlns:xlink="http://www.w3.org/1999/xlink">
<g><path style="opacity:0.997" fill="#fd6a16" d="M 232.5,-0.5 C 247.833,-0.5 263.167,-0.5 278.5,-0.5C 368.144,10.3879 435.644,54.7213 481,132.5C 497.695,163.971 507.861,197.304 511.5,232.5C 511.5,247.833 511.5,263.167 511.5,278.5C 510.249,288.138 508.582,297.805 506.5,307.5C 489.585,292.088 473.085,276.088 457,259.5C 456.601,259.728 456.435,260.062 456.5,260.5C 452.976,253.991 447.976,248.824 441.5,245C 412.928,232.545 384.261,220.379 355.5,208.5C 348.12,205.369 340.787,202.036 333.5,198.5C 327.748,196.361 322.081,194.027 316.5,191.5C 309.38,188.773 302.38,185.773 295.5,182.5C 289.716,179.608 283.716,177.275 277.5,175.5C 270.686,171.928 263.686,168.594 256.5,165.5C 247.298,161.985 238.132,158.318 229,154.5C 200.114,187.267 164.614,197.434 122.5,185C 110.548,180.689 99.881,174.356 90.5,166C 83.5858,161.593 76.5858,161.426 69.5,165.5C 68.5001,200.827 68.1668,236.16 68.5,271.5C 64.767,282.871 63.267,294.538 64,306.5C 66.074,313.736 70.2407,319.402 76.5,323.5C 137.846,386.182 199.846,448.849 262.5,511.5C 252.5,511.5 242.5,511.5 232.5,511.5C 142.856,500.612 75.3562,456.279 30,378.5C 13.3053,347.029 3.1386,313.696 -0.5,278.5C -0.5,263.167 -0.5,247.833 -0.5,232.5C 10.3875,142.857 54.7208,75.3573 132.5,30C 163.971,13.3053 197.304,3.1386 232.5,-0.5 Z"/></g>
<g><path style="opacity:1" fill="#fefefe" d="M 256.5,165.5 C 255.89,166.391 255.557,167.391 255.5,168.5C 249.004,177.33 243.337,186.663 238.5,196.5C 244.263,198.214 249.93,200.214 255.5,202.5C 255.5,202.833 255.5,203.167 255.5,203.5C 256.158,231.187 255.491,258.52 253.5,285.5C 225.891,279.769 198.224,274.269 170.5,269C 158.008,268.31 145.508,267.81 133,267.5C 111.452,268.149 89.9518,269.482 68.5,271.5C 68.1668,236.16 68.5001,200.827 69.5,165.5C 76.5858,161.426 83.5858,161.593 90.5,166C 99.881,174.356 110.548,180.689 122.5,185C 164.614,197.434 200.114,187.267 229,154.5C 238.132,158.318 247.298,161.985 256.5,165.5 Z"/></g>
<g><path style="opacity:1" fill="#b0b4c7" d="M 256.5,165.5 C 263.686,168.594 270.686,171.928 277.5,175.5C 271.275,184.263 265.275,193.263 259.5,202.5C 258.311,203.429 256.978,203.762 255.5,203.5C 255.5,203.167 255.5,202.833 255.5,202.5C 255.5,191.167 255.5,179.833 255.5,168.5C 255.557,167.391 255.89,166.391 256.5,165.5 Z"/></g>
<g><path style="opacity:1" fill="#ced2e1" d="M 255.5,168.5 C 255.5,179.833 255.5,191.167 255.5,202.5C 249.93,200.214 244.263,198.214 238.5,196.5C 243.337,186.663 249.004,177.33 255.5,168.5 Z"/></g>
<g><path style="opacity:1" fill="#e8ecf4" d="M 277.5,175.5 C 283.716,177.275 289.716,179.608 295.5,182.5C 289.897,192.197 283.897,201.697 277.5,211C 284.249,214.55 291.249,217.217 298.5,219C 304.635,209.89 310.635,200.724 316.5,191.5C 322.081,194.027 327.748,196.361 333.5,198.5C 329.044,208.067 323.544,217.067 317,225.5C 316.544,226.744 317.044,227.577 318.5,228C 324.834,230.682 331.167,233.015 337.5,235C 342.972,225.715 348.972,216.882 355.5,208.5C 384.261,220.379 412.928,232.545 441.5,245C 447.976,248.824 452.976,253.991 456.5,260.5C 458.283,264.634 459.283,268.967 459.5,273.5C 459.5,279.167 459.5,284.833 459.5,290.5C 429.426,296.064 399.093,299.064 368.5,299.5C 330.426,298.659 292.759,294.326 255.5,286.5C 254.508,286.672 253.842,286.338 253.5,285.5C 255.491,258.52 256.158,231.187 255.5,203.5C 256.978,203.762 258.311,203.429 259.5,202.5C 265.275,193.263 271.275,184.263 277.5,175.5 Z"/></g>
<g><path style="opacity:1" fill="#b0b4c8" d="M 295.5,182.5 C 302.38,185.773 309.38,188.773 316.5,191.5C 310.635,200.724 304.635,209.89 298.5,219C 291.249,217.217 284.249,214.55 277.5,211C 283.897,201.697 289.897,192.197 295.5,182.5 Z"/></g>
<g><path style="opacity:1" fill="#b0b4c8" d="M 333.5,198.5 C 340.787,202.036 348.12,205.369 355.5,208.5C 348.972,216.882 342.972,225.715 337.5,235C 331.167,233.015 324.834,230.682 318.5,228C 317.044,227.577 316.544,226.744 317,225.5C 323.544,217.067 329.044,208.067 333.5,198.5 Z"/></g>
<g><path style="opacity:1" fill="#e83c00" d="M 506.5,307.5 C 486.781,394.053 436.447,455.553 355.5,492C 330.621,502.136 304.954,508.636 278.5,511.5C 273.167,511.5 267.833,511.5 262.5,511.5C 199.846,448.849 137.846,386.182 76.5,323.5C 79.0236,324.927 81.6902,326.094 84.5,327C 141.499,327.5 198.499,327.667 255.5,327.5C 319.168,327.667 382.834,327.5 446.5,327C 453.845,324.321 458.345,319.155 460,311.5C 460.827,298.66 460.66,285.993 459.5,273.5C 459.283,268.967 458.283,264.634 456.5,260.5C 456.435,260.062 456.601,259.728 457,259.5C 473.085,276.088 489.585,292.088 506.5,307.5 Z"/></g>
<g><path style="opacity:1" fill="#cdd1e0" d="M 253.5,285.5 C 253.842,286.338 254.508,286.672 255.5,286.5C 255.5,300.167 255.5,313.833 255.5,327.5C 198.499,327.667 141.499,327.5 84.5,327C 81.6902,326.094 79.0236,324.927 76.5,323.5C 70.2407,319.402 66.074,313.736 64,306.5C 63.267,294.538 64.767,282.871 68.5,271.5C 89.9518,269.482 111.452,268.149 133,267.5C 145.508,267.81 158.008,268.31 170.5,269C 198.224,274.269 225.891,279.769 253.5,285.5 Z"/></g>
<g><path style="opacity:1" fill="#afb4c7" d="M 459.5,273.5 C 460.66,285.993 460.827,298.66 460,311.5C 458.345,319.155 453.845,324.321 446.5,327C 382.834,327.5 319.168,327.667 255.5,327.5C 255.5,313.833 255.5,300.167 255.5,286.5C 292.759,294.326 330.426,298.659 368.5,299.5C 399.093,299.064 429.426,296.064 459.5,290.5C 459.5,284.833 459.5,279.167 459.5,273.5 Z"/></g>
</svg>
