<?xml version="1.0" encoding="UTF-8"?>
<!DOCTYPE svg PUBLIC "-//W3C//DTD SVG 1.1//EN" "http://www.w3.org/Graphics/SVG/1.1/DTD/svg11.dtd">
<svg xmlns="http://www.w3.org/2000/svg" version="1.1" width="512px" height="512px" style="shape-rendering:geometricPrecision; text-rendering:geometricPrecision; image-rendering:optimizeQuality; fill-rule:evenodd; clip-rule:evenodd" xmlns:xlink="http://www.w3.org/1999/xlink">
<g><path style="opacity:0.997" fill="#edae54" d="M 232.5,-0.5 C 247.833,-0.5 263.167,-0.5 278.5,-0.5C 368.145,10.3883 435.645,54.7216 481,132.5C 497.556,163.659 507.722,196.659 511.5,231.5C 511.5,233.833 511.5,236.167 511.5,238.5C 509.833,237.167 508.167,235.833 506.5,234.5C 501.194,228.527 495.527,222.86 489.5,217.5C 484.86,212.194 479.86,207.194 474.5,202.5C 470.86,198.194 466.86,194.194 462.5,190.5C 454.167,181.5 445.5,172.833 436.5,164.5C 407.368,134.868 378.035,105.368 348.5,76C 345.833,74 343.167,74 340.5,76C 331.965,84.7023 323.298,93.2023 314.5,101.5C 309.983,96.2475 304.317,94.4142 297.5,96C 281.763,107.534 264.43,115.868 245.5,121C 184.461,129.051 144.294,162.218 125,220.5C 123.025,241.737 117.025,261.737 107,280.5C 103.084,285.996 99.4175,291.663 96,297.5C 94.7404,304.22 96.5738,309.887 101.5,314.5C 92.869,323.632 84.0356,332.632 75,341.5C 74.2937,343.971 74.627,346.305 76,348.5C 105.368,378.035 134.868,407.368 164.5,436.5C 170.5,443.167 176.833,449.5 183.5,455.5C 189.5,462.167 195.833,468.5 202.5,474.5C 207.167,479.833 212.167,484.833 217.5,489.5C 222.833,495.5 228.5,501.167 234.5,506.5C 235.833,508.167 237.167,509.833 238.5,511.5C 236.167,511.5 233.833,511.5 231.5,511.5C 147.774,501.227 82.9409,460.894 37,390.5C 16.1784,355.868 3.67839,318.535 -0.5,278.5C -0.5,263.167 -0.5,247.833 -0.5,232.5C 10.3875,142.857 54.7208,75.3573 132.5,30C 163.971,13.3053 197.304,3.1386 232.5,-0.5 Z"/></g>
<g><path style="opacity:1" fill="#64798a" d="M 436.5,164.5 C 436.628,166.655 436.128,168.655 435,170.5C 426.298,179.035 417.798,187.702 409.5,196.5C 405.036,200.463 400.702,204.63 396.5,209C 394.167,211 391.833,211 389.5,209C 360.333,179.833 331.167,150.667 302,121.5C 300,119.167 300,116.833 302,114.5C 306.37,110.298 310.537,105.964 314.5,101.5C 323.298,93.2023 331.965,84.7023 340.5,76C 343.167,74 345.833,74 348.5,76C 378.035,105.368 407.368,134.868 436.5,164.5 Z"/></g>
<g><path style="opacity:1" fill="#eaeff2" d="M 314.5,101.5 C 310.537,105.964 306.37,110.298 302,114.5C 300,116.833 300,119.167 302,121.5C 331.167,150.667 360.333,179.833 389.5,209C 391.833,211 394.167,211 396.5,209C 400.702,204.63 405.036,200.463 409.5,196.5C 414.753,201.017 416.586,206.683 415,213.5C 403.659,228.182 395.492,244.515 390.5,262.5C 388.834,271.823 387.168,281.156 385.5,290.5C 379.418,310.999 369.418,329.332 355.5,345.5C 351.833,348.5 348.5,351.833 345.5,355.5C 329.332,369.418 310.999,379.418 290.5,385.5C 279.434,387.234 268.434,389.4 257.5,392C 251.786,393.509 246.452,395.675 241.5,398.5C 231.935,402.618 222.935,407.785 214.5,414C 207.523,415.774 201.523,414.274 196.5,409.5C 200.463,405.036 204.63,400.702 209,396.5C 211,394.167 211,391.833 209,389.5C 179.833,360.333 150.667,331.167 121.5,302C 119.167,301.333 116.833,301.333 114.5,302C 110.298,306.37 105.964,310.537 101.5,314.5C 96.5738,309.887 94.7404,304.22 96,297.5C 99.4175,291.663 103.084,285.996 107,280.5C 117.025,261.737 123.025,241.737 125,220.5C 144.294,162.218 184.461,129.051 245.5,121C 264.43,115.868 281.763,107.534 297.5,96C 304.317,94.4142 309.983,96.2475 314.5,101.5 Z"/></g>
<g><path style="opacity:1" fill="#d4d5da" d="M 237.5,148.5 C 294.431,143.866 334.264,167.533 357,219.5C 371.532,270.568 358.032,312.401 316.5,345C 287.277,363.461 255.944,368.127 222.5,359C 184.022,345.523 159.855,319.023 150,279.5C 141.074,220.176 163.908,178.343 218.5,154C 224.921,152.021 231.255,150.188 237.5,148.5 Z"/></g>
<g><path style="opacity:1" fill="#667b8b" d="M 188.5,184.5 C 193.419,187.748 197.753,191.748 201.5,196.5C 199.833,198.833 197.833,200.833 195.5,202.5C 191.167,198.833 187.167,194.833 183.5,190.5C 185.19,188.481 186.856,186.481 188.5,184.5 Z"/></g>
<g><path style="opacity:1" fill="#677b8c" d="M 319.5,184.5 C 322.787,185.264 325.454,187.097 327.5,190C 323.333,194.167 319.167,198.333 315,202.5C 312.833,200.333 310.667,198.167 308.5,196C 312.37,192.298 316.037,188.464 319.5,184.5 Z"/></g>
<g><path style="opacity:1" fill="#cc964a" d="M 436.5,164.5 C 445.5,172.833 454.167,181.5 462.5,190.5C 439.753,214.749 416.419,238.582 392.5,262C 391.906,262.464 391.239,262.631 390.5,262.5C 395.492,244.515 403.659,228.182 415,213.5C 416.586,206.683 414.753,201.017 409.5,196.5C 417.798,187.702 426.298,179.035 435,170.5C 436.128,168.655 436.628,166.655 436.5,164.5 Z"/></g>
<g><path style="opacity:1" fill="#d19a4c" d="M 462.5,190.5 C 466.86,194.194 470.86,198.194 474.5,202.5C 445.585,232.916 416.085,262.916 386,292.5C 385.536,291.906 385.369,291.239 385.5,290.5C 387.168,281.156 388.834,271.823 390.5,262.5C 391.239,262.631 391.906,262.464 392.5,262C 416.419,238.582 439.753,214.749 462.5,190.5 Z"/></g>
<g><path style="opacity:1" fill="#d79f50" d="M 474.5,202.5 C 479.86,207.194 484.86,212.194 489.5,217.5C 449.085,259.416 408.085,300.916 366.5,342C 367.416,342.278 368.082,342.778 368.5,343.5C 364.859,343.652 362.193,345.318 360.5,348.5C 358.589,347.925 356.922,346.925 355.5,345.5C 369.418,329.332 379.418,310.999 385.5,290.5C 385.369,291.239 385.536,291.906 386,292.5C 416.085,262.916 445.585,232.916 474.5,202.5 Z"/></g>
<g><path style="opacity:1" fill="#dea452" d="M 489.5,217.5 C 495.527,222.86 501.194,228.527 506.5,234.5C 416.167,325.5 325.5,416.167 234.5,506.5C 228.5,501.167 222.833,495.5 217.5,489.5C 259.416,449.085 300.916,408.085 342,366.5C 342.278,367.416 342.778,368.082 343.5,368.5C 346.883,371.887 350.55,374.887 354.5,377.5C 363.833,371.5 371.5,363.833 377.5,354.5C 374.887,350.55 371.887,346.883 368.5,343.5C 368.082,342.778 367.416,342.278 366.5,342C 408.085,300.916 449.085,259.416 489.5,217.5 Z"/></g>
<g><path style="opacity:1" fill="#e2a754" d="M 506.5,234.5 C 508.167,235.833 509.833,237.167 511.5,238.5C 511.5,242.167 511.5,245.833 511.5,249.5C 510.732,248.737 510.232,247.737 510,246.5C 422.167,334.333 334.333,422.167 246.5,510C 244.292,510.191 242.292,510.691 240.5,511.5C 239.833,511.5 239.167,511.5 238.5,511.5C 237.167,509.833 235.833,508.167 234.5,506.5C 325.5,416.167 416.167,325.5 506.5,234.5 Z"/></g>
<g><path style="opacity:0.999" fill="#e5a956" d="M 511.5,249.5 C 511.5,257.833 511.5,266.167 511.5,274.5C 510.698,273.048 510.198,271.382 510,269.5C 429.25,349.75 349.083,430.416 269.5,511.5C 259.833,511.5 250.167,511.5 240.5,511.5C 242.292,510.691 244.292,510.191 246.5,510C 334.333,422.167 422.167,334.333 510,246.5C 510.232,247.737 510.732,248.737 511.5,249.5 Z"/></g>
<g><path style="opacity:1" fill="#657a8b" d="M 254.5,247.5 C 262.242,249.324 264.409,253.991 261,261.5C 259.416,262.861 257.582,263.528 255.5,263.5C 250.944,263.899 248.278,261.899 247.5,257.5C 247.5,256.167 247.5,254.833 247.5,253.5C 248.779,250.348 251.112,248.348 254.5,247.5 Z"/></g>
<g><path style="opacity:1" fill="#e46353" d="M 247.5,253.5 C 247.5,254.833 247.5,256.167 247.5,257.5C 222.833,257.5 198.167,257.5 173.5,257.5C 173.5,256.167 173.5,254.833 173.5,253.5C 198.167,253.5 222.833,253.5 247.5,253.5 Z"/></g>
<g><path style="opacity:1" fill="#32a3da" d="M 255.5,263.5 C 257.582,263.528 259.416,262.861 261,261.5C 264.409,253.991 262.242,249.324 254.5,247.5C 268.096,236.076 281.262,224.076 294,211.5C 293.981,209.893 293.815,208.226 293.5,206.5C 297.466,205.838 301.466,205.505 305.5,205.5C 305.495,209.534 305.162,213.534 304.5,217.5C 302.774,217.185 301.107,217.019 299.5,217C 287.132,229.7 275.132,242.7 263.5,256C 272.797,266.966 282.464,277.632 292.5,288C 293.996,288.507 295.163,288.007 296,286.5C 296.333,286.833 296.667,287.167 297,287.5C 298.354,291.363 298.854,295.363 298.5,299.5C 294.481,299.354 290.481,299.021 286.5,298.5C 286.383,296.516 287.05,294.85 288.5,293.5C 277.454,283.45 266.454,273.45 255.5,263.5 Z"/></g>
<g><path style="opacity:0.998" fill="#e9ac57" d="M 511.5,274.5 C 511.5,275.833 511.5,277.167 511.5,278.5C 510.259,286.724 508.926,295.058 507.5,303.5C 439.25,370.25 371.417,437.583 304,505.5C 303.536,506.094 303.369,506.761 303.5,507.5C 295.058,508.926 286.724,510.259 278.5,511.5C 275.5,511.5 272.5,511.5 269.5,511.5C 349.083,430.416 429.25,349.75 510,269.5C 510.198,271.382 510.698,273.048 511.5,274.5 Z"/></g>
<g><path style="opacity:1" fill="#647989" d="M 196.5,409.5 C 187.702,417.798 179.035,426.298 170.5,435C 168.655,436.128 166.655,436.628 164.5,436.5C 134.868,407.368 105.368,378.035 76,348.5C 74.627,346.305 74.2937,343.971 75,341.5C 84.0356,332.632 92.869,323.632 101.5,314.5C 105.964,310.537 110.298,306.37 114.5,302C 116.833,301.333 119.167,301.333 121.5,302C 150.667,331.167 179.833,360.333 209,389.5C 211,391.833 211,394.167 209,396.5C 204.63,400.702 200.463,405.036 196.5,409.5 Z"/></g>
<g><path style="opacity:1" fill="#667b8c" d="M 194.5,309.5 C 197.407,310.734 199.741,312.734 201.5,315.5C 197.833,319.833 193.833,323.833 189.5,327.5C 187.167,325.833 185.167,323.833 183.5,321.5C 187.189,317.48 190.855,313.48 194.5,309.5 Z"/></g>
<g><path style="opacity:1" fill="#667b8b" d="M 314.5,309.5 C 318.964,313.463 323.298,317.63 327.5,322C 325.333,324.167 323.167,326.333 321,328.5C 316.833,324.333 312.667,320.167 308.5,316C 310.706,313.963 312.706,311.797 314.5,309.5 Z"/></g>
<g><path style="opacity:1" fill="#eaeeef" d="M 368.5,343.5 C 371.887,346.883 374.887,350.55 377.5,354.5C 371.5,363.833 363.833,371.5 354.5,377.5C 350.55,374.887 346.883,371.887 343.5,368.5C 343.652,364.859 345.318,362.193 348.5,360.5C 352.167,356.167 356.167,352.167 360.5,348.5C 362.193,345.318 364.859,343.652 368.5,343.5 Z"/></g>
<g><path style="opacity:1" fill="#d5d5d8" d="M 355.5,345.5 C 356.922,346.925 358.589,347.925 360.5,348.5C 356.167,352.167 352.167,356.167 348.5,360.5C 347.925,358.589 346.925,356.922 345.5,355.5C 348.5,351.833 351.833,348.5 355.5,345.5 Z"/></g>
<g><path style="opacity:0.998" fill="#edae56" d="M 507.5,303.5 C 490.835,381.971 447.835,441.138 378.5,481C 354.868,493.711 329.868,502.544 303.5,507.5C 303.369,506.761 303.536,506.094 304,505.5C 371.417,437.583 439.25,370.25 507.5,303.5 Z"/></g>
<g><path style="opacity:1" fill="#d79f50" d="M 345.5,355.5 C 346.925,356.922 347.925,358.589 348.5,360.5C 345.318,362.193 343.652,364.859 343.5,368.5C 342.778,368.082 342.278,367.416 342,366.5C 300.916,408.085 259.416,449.085 217.5,489.5C 212.167,484.833 207.167,479.833 202.5,474.5C 232.916,445.585 262.916,416.085 292.5,386C 291.906,385.536 291.239,385.369 290.5,385.5C 310.999,379.418 329.332,369.418 345.5,355.5 Z"/></g>
<g><path style="opacity:1" fill="#d0994c" d="M 290.5,385.5 C 291.239,385.369 291.906,385.536 292.5,386C 262.916,416.085 232.916,445.585 202.5,474.5C 195.833,468.5 189.5,462.167 183.5,455.5C 203.449,437.218 222.783,418.218 241.5,398.5C 246.452,395.675 251.786,393.509 257.5,392C 268.434,389.4 279.434,387.234 290.5,385.5 Z"/></g>
<g><path style="opacity:1" fill="#c99449" d="M 241.5,398.5 C 222.783,418.218 203.449,437.218 183.5,455.5C 176.833,449.5 170.5,443.167 164.5,436.5C 166.655,436.628 168.655,436.128 170.5,435C 179.035,426.298 187.702,417.798 196.5,409.5C 201.523,414.274 207.523,415.774 214.5,414C 222.935,407.785 231.935,402.618 241.5,398.5 Z"/></g>
</svg>
