<?xml version="1.0" encoding="UTF-8"?>
<svg version="1.1" xmlns="http://www.w3.org/2000/svg" width="64" height="64">
<path d="M0 0 C8.04071716 5.46768767 14.35713546 11.78672485 16.953125 21.328125 C17.97008074 32.73931439 17.08780568 41.52074309 9.640625 50.578125 C3.75028057 56.89640044 -1.9995096 60.87830798 -10.81640625 61.6640625 C-22.23808647 61.92046185 -29.76998744 60.10045244 -38.2578125 52.1875 C-45.41707366 44.7468705 -47.46537447 37.63799487 -47.41040039 27.37304688 C-47.154444 17.46241552 -43.06295379 11.07888989 -36.046875 4.328125 C-26.55128048 -3.80505814 -11.27874483 -6.1129075 0 0 Z " fill="#5BDBBA" transform="translate(47.046875,2.671875)"/>
<path d="M0 0 C4.34366872 2.20895973 6.96862512 4.83254776 9.078125 9.3046875 C9.98807419 14.44543141 9.52676855 18.92019894 6.6328125 23.3984375 C3.13034221 27.69292369 -0.90651839 31.49622904 -4.921875 35.3046875 C-8.46899846 33.79372603 -10.77851015 31.71636615 -13.484375 28.9921875 C-14.24878906 28.23292969 -15.01320313 27.47367188 -15.80078125 26.69140625 C-19.91297603 22.06424049 -21.51049291 18.71393187 -21.265625 12.58203125 C-20.59214898 8.12025264 -18.80642556 4.91729026 -15.37890625 1.984375 C-10.50684834 -1.20420295 -5.5202782 -1.99717382 0 0 Z " fill="#FBFEFD" transform="translate(37.921875,15.6953125)"/>
<path d="M0 0 C1.67542976 0.28604898 3.34385343 0.61781233 5 1 C5 2.65 5 4.3 5 6 C1.25 7.125 1.25 7.125 -1 6 C-1.042721 4.33388095 -1.04063832 2.66617115 -1 1 C-0.67 0.67 -0.34 0.34 0 0 Z " fill="#68DDBF" transform="translate(30,27)"/>
</svg>
