<?xml version="1.0" encoding="UTF-8"?>
<svg version="1.1" xmlns="http://www.w3.org/2000/svg" width="512" height="512">
<path d="M0 0 C0.85605835 -0.00701431 1.7121167 -0.01402863 2.59411621 -0.02125549 C5.34014217 -0.03864898 8.08595223 -0.04510757 10.83203125 -0.046875 C11.77204987 -0.04754974 12.71206848 -0.04822449 13.68057251 -0.04891968 C27.88877497 -0.03271807 41.6584078 0.51783235 55.64453125 3.203125 C56.52850586 3.3587793 57.41248047 3.51443359 58.32324219 3.67480469 C98.39193429 10.80097251 136.78029924 27.87871353 168.64453125 53.203125 C169.54042969 53.90695313 170.43632812 54.61078125 171.359375 55.3359375 C178.77981035 61.27654428 185.75611819 67.66117058 192.64453125 74.203125 C193.47210938 74.98816406 194.2996875 75.77320312 195.15234375 76.58203125 C200.29560556 81.59088727 204.91493981 86.91042697 209.34765625 92.55566406 C210.25875613 93.71306278 211.175982 94.86565264 212.09765625 96.01464844 C239.18669319 129.82463962 257.27735968 169.48725755 264.64453125 212.203125 C264.8053418 213.08371582 264.96615234 213.96430664 265.13183594 214.87158203 C269.99143232 242.3608659 269.67385681 272.77407242 264.64453125 300.203125 C264.48355957 301.12158203 264.32258789 302.04003906 264.15673828 302.98632812 C259.95143975 326.36794954 252.14343902 348.9194367 241.64453125 370.203125 C241.11158447 371.29560547 241.11158447 371.29560547 240.56787109 372.41015625 C230.97693362 391.88146965 218.42879085 409.97173168 203.73046875 425.93359375 C201.80298449 428.0307255 199.93691768 430.16688855 198.08203125 432.328125 C194.47655767 436.45588681 190.79538649 440.61525932 186.64453125 444.203125 C185.98453125 444.203125 185.32453125 444.203125 184.64453125 444.203125 C184.64453125 444.863125 184.64453125 445.523125 184.64453125 446.203125 C181.74829612 448.93672058 178.56930735 451.33627929 175.43701172 453.79345703 C174.21792211 454.75219081 173.00355536 455.716954 171.79345703 456.68701172 C134.29116036 486.73638048 89.37184018 505.52997705 41.64453125 511.203125 C40.94569824 511.2973877 40.24686523 511.39165039 39.52685547 511.48876953 C30.56840288 512.57200012 21.52953128 512.44699667 12.51953125 512.453125 C11.62847687 512.45379974 10.73742249 512.45447449 9.81936646 512.45516968 C-4.43760743 512.43805101 -18.30253126 511.77983805 -32.35546875 509.203125 C-33.27392578 509.04215332 -34.19238281 508.88118164 -35.13867188 508.71533203 C-58.52029329 504.5100335 -81.07178045 496.70203277 -102.35546875 486.203125 C-103.08378906 485.84782715 -103.81210938 485.4925293 -104.5625 485.12646484 C-136.22586889 469.53011625 -165.54843264 445.96515943 -187.35546875 418.203125 C-187.98453125 417.45289063 -188.61359375 416.70265625 -189.26171875 415.9296875 C-200.37818805 402.58081248 -209.34278625 387.56995915 -217.35546875 372.203125 C-217.73268066 371.4920459 -218.10989258 370.7809668 -218.49853516 370.04833984 C-229.87413569 348.37700724 -237.12271812 324.24129266 -241.35546875 300.203125 C-241.5162793 299.36555664 -241.67708984 298.52798828 -241.84277344 297.66503906 C-246.97033114 270.4202634 -246.59495832 239.38915579 -241.35546875 212.203125 C-241.11401123 210.85323486 -241.11401123 210.85323486 -240.86767578 209.47607422 C-236.63060491 186.06839453 -228.86995121 163.51838676 -218.35546875 142.203125 C-218.0001709 141.47480469 -217.64487305 140.74648437 -217.27880859 139.99609375 C-201.73751298 108.44449224 -178.17267466 78.79900208 -150.35546875 57.203125 C-149.11290495 56.2088034 -147.8707445 55.21397762 -146.62890625 54.21875 C-105.76434571 21.82095687 -52.61033873 0.29123437 0 0 Z " fill="#11ABFF" transform="translate(244.35546875,-0.203125)"/>
<path d="M0 0 C22.41738634 9.81067236 40.24838812 52.96756451 49 74 C55.64046973 91.20433316 60.86346646 108.81394992 64 127 C64.16081055 127.88059082 64.32162109 128.76118164 64.48730469 129.66845703 C69.34690107 157.1577409 69.02932556 187.57094742 64 215 C63.83902832 215.91845703 63.67805664 216.83691406 63.51220703 217.78320312 C59.3069085 241.16482454 51.49890777 263.7163117 41 285 C40.46705322 286.09248047 40.46705322 286.09248047 39.92333984 287.20703125 C30.33240237 306.67834465 17.7842596 324.76860668 3.0859375 340.73046875 C1.15845324 342.8276005 -0.70761357 344.96376355 -2.5625 347.125 C-6.16797358 351.25276181 -9.84914476 355.41213432 -14 359 C-14.66 359 -15.32 359 -16 359 C-16 359.66 -16 360.32 -16 361 C-18.89623513 363.73359558 -22.0752239 366.13315429 -25.20751953 368.59033203 C-26.42660914 369.54906581 -27.64097589 370.513829 -28.85107422 371.48388672 C-66.35337089 401.53325548 -111.27269107 420.32685205 -159 426 C-159.69883301 426.0942627 -160.39766602 426.18852539 -161.11767578 426.28564453 C-170.07612837 427.36887512 -179.11499997 427.24387167 -188.125 427.25 C-189.01605438 427.25067474 -189.90710876 427.25134949 -190.82516479 427.25204468 C-205.08213868 427.23492601 -218.94706251 426.57671305 -233 424 C-233.91845703 423.83902832 -234.83691406 423.67805664 -235.78320312 423.51220703 C-259.16482454 419.3069085 -281.7163117 411.49890777 -303 401 C-304.09248047 400.46705322 -304.09248047 400.46705322 -305.20703125 399.92333984 C-336.87040014 384.32699125 -366.19296389 360.76203443 -388 333 C-388.6290625 332.24976563 -389.258125 331.49953125 -389.90625 330.7265625 C-403.45216053 314.46036666 -413.8816943 295.83628993 -423 276.8125 C-423.37406982 276.03463135 -423.74813965 275.2567627 -424.13354492 274.45532227 C-426.20820117 270.02967729 -427.79500164 265.738405 -429 261 C-423.77683616 256.14124294 -423.77683616 256.14124294 -420.25 255.5 C-418 256 -418 256 -416 259 C-416.99 259.33 -417.98 259.66 -419 260 C-419.66 260.66 -420.32 261.32 -421 262 C-422.32 262 -423.64 262 -425 262 C-425 262.99 -425 263.98 -425 265 C-424.00419922 264.566875 -424.00419922 264.566875 -422.98828125 264.125 C-422.10527344 263.75375 -421.22226562 263.3825 -420.3125 263 C-419.44238281 262.62875 -418.57226562 262.2575 -417.67578125 261.875 C-414.9427998 260.98129512 -412.85299066 260.83550324 -410 261 C-409.67 259.02 -409.34 257.04 -409 255 C-408.01 254.67 -407.02 254.34 -406 254 C-405.34 254.66 -404.68 255.32 -404 256 C-402.515 255.01 -402.515 255.01 -401 254 C-403.64738916 252.5393715 -404.89448334 252 -408 252 C-406.13216429 249.19824644 -404.69725519 247.88807863 -402 246 C-401.34 246.33 -400.68 246.66 -400 247 C-399.608125 246.566875 -399.21625 246.13375 -398.8125 245.6875 C-396.71680722 243.73633776 -394.48410667 242.40989838 -392 241 C-391.34 241.99 -390.68 242.98 -390 244 C-389.731875 243.38125 -389.46375 242.7625 -389.1875 242.125 C-388 240 -388 240 -385 238 C-385 238.99 -385 239.98 -385 241 C-385.66 241.66 -386.32 242.32 -387 243 C-386.67 243 -386.34 243 -386 243 C-385.236875 242.05125 -384.47375 241.1025 -383.6875 240.125 C-380.73714703 236.53582416 -378.15781009 235.43134101 -373.8125 233.8125 C-370.56978571 232.47236326 -368.19002056 230.61592002 -365.5 228.375 C-361.64322013 225.21705545 -358.99339843 224.50953045 -354 224 C-352.48705712 222.06402968 -352.48705712 222.06402968 -352 220 C-350.68 220.99 -349.36 221.98 -348 223 C-346.55174614 221.55174614 -345.13921278 220.06748051 -343.75 218.5625 C-340.93562208 215.94001148 -338.47531922 214.59285464 -335 213 C-334.13375 212.4225 -333.2675 211.845 -332.375 211.25 C-330 210 -330 210 -327.6875 210.3125 C-326.8521875 210.6528125 -326.8521875 210.6528125 -326 211 C-325.67 210.01 -325.34 209.02 -325 208 C-323.02 208.99 -323.02 208.99 -321 210 C-321.33 210.99 -321.66 211.98 -322 213 C-320.85464788 211.97509314 -320.85464788 211.97509314 -320.17578125 210.1328125 C-317.67823864 205.60238637 -312.64959094 202.93726758 -308.25 200.4375 C-306 200 -306 200 -303.6875 201.375 C-303.130625 201.91125 -302.57375 202.4475 -302 203 C-302 202.01 -302 201.02 -302 200 C-301.34 200 -300.68 200 -300 200 C-299.67 199.01 -299.34 198.02 -299 197 C-298.34 197.33 -297.68 197.66 -297 198 C-296.41992188 197.25943359 -296.41992188 197.25943359 -295.828125 196.50390625 C-295.30734375 195.86324219 -294.7865625 195.22257813 -294.25 194.5625 C-293.48429687 193.60537109 -293.48429687 193.60537109 -292.703125 192.62890625 C-290.80332371 190.81189446 -289.56413092 190.39576803 -287 190 C-287 191.33333333 -287 192.66666667 -287 194 C-284.65941363 191.87219421 -283.29299694 189.88437779 -282 187 C-281.01 187.33 -280.02 187.66 -279 188 C-279.33 188.99 -279.66 189.98 -280 191 C-279.34 191.33 -278.68 191.66 -278 192 C-278.66 192.33 -279.32 192.66 -280 193 C-278.8007138 203.1845604 -278.8007138 203.1845604 -274 212 C-269.20781829 215.00685911 -265.44964905 215.34984059 -260.015625 214.52734375 C-257.50544048 213.87060943 -255.89845664 212.74658011 -254 211 C-253.34 211 -252.68 211 -252 211 C-251.67 210.01 -251.34 209.02 -251 208 C-250.34 208 -249.68 208 -249 208 C-248.67 207.01 -248.34 206.02 -248 205 C-247.34 205 -246.68 205 -246 205 C-245.67 204.01 -245.34 203.02 -245 202 C-244.34 202 -243.68 202 -243 202 C-243 201.34 -243 200.68 -243 200 C-242.34 200 -241.68 200 -241 200 C-240.67 199.01 -240.34 198.02 -240 197 C-239.34 197 -238.68 197 -238 197 C-237.67 196.01 -237.34 195.02 -237 194 C-236.34 194 -235.68 194 -235 194 C-235 193.34 -235 192.68 -235 192 C-234.34 192 -233.68 192 -233 192 C-232.67 191.01 -232.34 190.02 -232 189 C-231.34 189 -230.68 189 -230 189 C-230 188.34 -230 187.68 -230 187 C-229.34 187 -228.68 187 -228 187 C-228 186.34 -228 185.68 -228 185 C-227.34 185 -226.68 185 -226 185 C-226 184.34 -226 183.68 -226 183 C-225.34 183 -224.68 183 -224 183 C-224 182.34 -224 181.68 -224 181 C-223.34 181 -222.68 181 -222 181 C-222 180.34 -222 179.68 -222 179 C-221.34 179 -220.68 179 -220 179 C-220 178.34 -220 177.68 -220 177 C-219.34 177 -218.68 177 -218 177 C-218 176.34 -218 175.68 -218 175 C-217.34 175 -216.68 175 -216 175 C-216 174.34 -216 173.68 -216 173 C-215.34 173 -214.68 173 -214 173 C-214 172.34 -214 171.68 -214 171 C-213.34 171 -212.68 171 -212 171 C-211.67 170.01 -211.34 169.02 -211 168 C-210.34 168 -209.68 168 -209 168 C-206.19676092 162.79398457 -204.29095052 158.07592897 -205.27685547 152.05126953 C-207.87688561 144.67603212 -216.49685802 138.380035 -221.9375 133 C-223.10635742 131.83791016 -223.10635742 131.83791016 -224.29882812 130.65234375 C-226.1969242 128.76589243 -228.09733149 126.88183755 -230 125 C-229.34 124.67 -228.68 124.34 -228 124 C-227.67 123.34 -227.34 122.68 -227 122 C-225.6078125 122.2784375 -225.6078125 122.2784375 -224.1875 122.5625 C-220.98656229 123.24123881 -220.98656229 123.24123881 -218 122 C-217.690625 121.360625 -217.38125 120.72125 -217.0625 120.0625 C-215.7657662 117.54531085 -214.5778263 117.03113052 -212 116 C-212.66 114.02 -213.32 112.04 -214 110 C-213.401875 110.66 -212.80375 111.32 -212.1875 112 C-210.12498166 114.3373846 -210.12498166 114.3373846 -207 114 C-206.34 114 -205.68 114 -205 114 C-204.67 113.34 -204.34 112.68 -204 112 C-202.00428677 111.32060826 -200.00405227 110.65438441 -198 110 C-197.34 109.34 -196.68 108.68 -196 108 C-195.34 108.66 -194.68 109.32 -194 110 C-194 108.35 -194 106.7 -194 105 C-192.33333333 105 -190.66666667 105 -189 105 C-189 156.48 -189 207.96 -189 261 C-215 261 -215 261 -219 258 C-219.50390625 254.890625 -219.50390625 254.890625 -219.5625 251.25 C-219.88790848 244.23563949 -220.21081949 239.58509414 -225.5625 234.625 C-229.71850491 231.85433006 -233.06377236 231.48523511 -238 232 C-242.17905855 233.57700323 -244.70772617 235.13932829 -247 239 C-249.73350162 247.20050485 -249.42277135 259.69427241 -246.375 267.75 C-245.2932271 269.97452327 -245.2932271 269.97452327 -244 272 C-243.36384766 273.04994141 -243.36384766 273.04994141 -242.71484375 274.12109375 C-236.83767359 282.78132499 -229.2297986 287.98048533 -219 290 C-213.79286366 290.4731525 -208.59882717 290.60116088 -203.375 290.6875 C-201.97523005 290.72075062 -200.57548912 290.75524713 -199.17578125 290.79101562 C-195.78393514 290.87288777 -192.39232789 290.94223788 -189 291 C-188.50371094 292.08539063 -188.00742187 293.17078125 -187.49609375 294.2890625 C-182.59270389 305.1109614 -182.59270389 305.1109614 -174 313 C-172.6078125 314.0828125 -172.6078125 314.0828125 -171.1875 315.1875 C-162.91892837 319.88923681 -154.40238112 321.10906989 -145 320 C-142.26835193 319.23159339 -139.64019821 318.41593577 -136.96875 317.48046875 C-136.19583618 317.21611023 -135.42292236 316.95175171 -134.62658691 316.67938232 C-124.52750645 313.19529218 -114.51229278 309.47442775 -104.5 305.75 C-103.49507507 305.37660492 -102.49015015 305.00320984 -101.45477295 304.61849976 C-96.4421835 302.75548087 -91.43089947 300.88901079 -86.42089844 299.01904297 C-82.43002268 297.5303719 -78.43483902 296.05412583 -74.43572998 294.58773804 C-71.49490339 293.50649292 -68.56030168 292.40863803 -65.625 291.3125 C-64.63048828 290.95188477 -63.63597656 290.59126953 -62.61132812 290.21972656 C-55.08928138 287.37433804 -47.72248432 283.80441604 -44.0625 276.25 C-43.68222656 275.49203125 -43.30195313 274.7340625 -42.91015625 273.953125 C-42.60980469 273.30859375 -42.30945313 272.6640625 -42 272 C-41.67 271.34 -41.34 270.68 -41 270 C-40.89532618 267.1503994 -40.85220593 264.32487209 -40.85282898 261.47473145 C-40.84731395 260.13517938 -40.84731395 260.13517938 -40.8416875 258.76856565 C-40.83062082 255.75781409 -40.82680172 252.74709701 -40.82299805 249.73632812 C-40.81673548 247.58479705 -40.81008887 245.43326707 -40.80308533 243.28173828 C-40.78565252 237.42187179 -40.77511664 231.56201347 -40.7668798 225.70212746 C-40.76173285 222.04127993 -40.75565688 218.38043496 -40.74936867 214.71958923 C-40.73030741 203.26665089 -40.71608012 191.81371901 -40.7077567 180.36076784 C-40.69798982 167.1393737 -40.67168844 153.91814723 -40.63125581 140.69681215 C-40.60108438 130.48013813 -40.58628671 120.26351212 -40.58297569 110.04679441 C-40.58062574 103.94421173 -40.5716727 97.84180797 -40.54651451 91.73927307 C-40.52321205 85.99369745 -40.5190095 80.24841827 -40.52927589 74.50280762 C-40.52977088 72.39777134 -40.52346136 70.29272037 -40.50971985 68.18772888 C-40.35399841 51.87274919 -40.35399841 51.87274919 -46.875 37.1875 C-48 35 -48 35 -47.1875 32.1875 C-46.795625 31.465625 -46.40375 30.74375 -46 30 C-45.34 30.66 -44.68 31.32 -44 32 C-44.33 32.66 -44.66 33.32 -45 34 C-44.34 34.33 -43.68 34.66 -43 35 C-40.77260299 33.93798263 -40.77260299 33.93798263 -38 32 C-37.67 32.33 -37.34 32.66 -37 33 C-36.690625 31.824375 -36.690625 31.824375 -36.375 30.625 C-35 28 -35 28 -32.0625 26.6875 C-29 26 -29 26 -26 26 C-25.34 25.67 -24.68 25.34 -24 25 C-23.34 24.67 -22.68 24.34 -22 24 C-20.73854232 21.63813861 -20.73854232 21.63813861 -20 19 C-20.33 18.01 -20.66 17.02 -21 16 C-20.34 15.34 -19.68 14.68 -19 14 C-18.34 16.31 -17.68 18.62 -17 21 C-15.515 20.01 -15.515 20.01 -14 19 C-14 18.01 -14 17.02 -14 16 C-13.68911632 14.32900023 -13.35919668 12.66128463 -13 11 C-11 14.75 -11 14.75 -11 17 C-8.37812506 15.95125002 -7.20628639 15.35068687 -5.75 12.875 C-5.37875 11.946875 -5.37875 11.946875 -5 11 C-4.01 12.32 -3.02 13.64 -2 15 C1.09756244 12.61149897 1.09756244 12.61149897 4 10 C3.34 9.67 2.68 9.34 2 9 C3 6 3 6 4 5 C2.02 4.01 2.02 4.01 0 3 C0 2.01 0 1.02 0 0 Z M-352 224 C-351.67 224.66 -351.34 225.32 -351 226 C-350.67 225.34 -350.34 224.68 -350 224 C-350.66 224 -351.32 224 -352 224 Z " fill="#3E72FE" transform="translate(445,85)"/>
<path d="M0 0 C1.3845446 -0.00243468 2.76908743 -0.00616051 4.15362549 -0.01106262 C7.87670409 -0.02038116 11.59951563 -0.01112421 15.32257318 0.00226951 C19.23896421 0.01368007 23.15534392 0.00946925 27.07174683 0.00752258 C33.64325261 0.00664283 40.2146546 0.01765475 46.78613281 0.03613281 C54.36157144 0.05731317 61.93685839 0.06080462 69.51232064 0.05457085 C76.83152571 0.04885856 84.15067789 0.05454365 91.46987534 0.0657444 C94.57089094 0.07036394 97.67187391 0.07127581 100.772892 0.06915855 C104.42888013 0.06726232 108.08471586 0.07548106 111.74066925 0.09121895 C113.70671124 0.09742111 115.67277642 0.0939751 117.63882446 0.09014893 C131.62979192 0.1733609 142.1802844 2.36773962 152.64404297 12.0168457 C159.74928855 19.92175915 161.91067076 27.8257526 161.90840149 38.15155029 C161.91207818 39.04770499 161.91575487 39.94385968 161.91954297 40.86717057 C161.9305746 43.87637796 161.93442276 46.88555081 161.93823242 49.89477539 C161.9444974 52.04984649 161.95114423 54.20491651 161.95814514 56.35998535 C161.97918157 63.4422124 161.98954626 70.52443967 161.99951172 77.60668945 C162.00355925 80.04457867 162.00767617 82.48246777 162.0118618 84.92035675 C162.03091153 96.37221625 162.04514375 107.82406931 162.05347377 119.27594161 C162.06324967 132.49733558 162.08957946 145.71856228 162.12997466 158.9398973 C162.16012431 169.15827889 162.17494151 179.37661249 162.17825478 189.5950377 C162.18060633 195.69864462 162.1895808 201.80207279 162.21471596 207.90563202 C162.23798172 213.64794491 162.24223576 219.38996117 162.23195457 225.13230896 C162.23145876 227.23818701 162.23779244 229.3440796 162.25151062 231.44991302 C162.26921263 234.32867854 162.26213146 237.20637754 162.24897766 240.08514404 C162.25994691 240.91512146 162.27091615 241.74509887 162.2822178 242.60022712 C162.19540052 250.48995 158.98147392 256.95825748 153.65161133 262.74487305 C143.73682183 271.28058102 128.26560228 274.76819751 116.19873047 279.12231445 C113.99355338 279.92367794 111.78863901 280.72576473 109.58398438 281.52856445 C105.2652522 283.10079969 100.9454632 284.67007748 96.625 286.23754883 C91.67156078 288.0374211 86.72637422 289.85812886 81.78857422 291.70043945 C81.1519133 291.93784851 80.51525238 292.17525757 79.85929871 292.41986084 C77.068163 293.46169888 74.27829391 294.50683573 71.48950195 295.55493164 C58.82854816 300.27834575 47.70332518 302.68596636 34.61669922 297.7590332 C22.96367191 292.09990229 17.01222211 283.17098514 12.76123047 271.37231445 C11.49230957 271.3582959 11.49230957 271.3582959 10.19775391 271.34399414 C6.99903959 271.2994584 3.80121335 271.23761747 0.60302734 271.16479492 C-0.76989947 271.13691335 -2.14297702 271.11553918 -3.51611328 271.10131836 C-17.39088158 270.94918274 -27.78676907 268.95681635 -37.81689453 259.1730957 C-45.31769554 250.49878227 -47.42469966 242.59741975 -47.48876953 231.49731445 C-47.50939453 230.61172852 -47.53001953 229.72614258 -47.55126953 228.8137207 C-47.58256779 223.56343755 -47.1972282 219.90157379 -44.23876953 215.37231445 C-39.81438897 211.27976244 -36.37589776 210.00183826 -30.29736328 210.09106445 C-25.73754427 210.71403783 -22.93074715 213.62423054 -19.92626953 216.87231445 C-16.37744023 222.12983934 -16.95905356 228.08512409 -16.71533203 234.25512695 C-16.55806641 235.28379883 -16.40080078 236.3124707 -16.23876953 237.37231445 C-12.80115837 239.66405523 -11.31805338 239.66755493 -7.25830078 239.78637695 C-5.51323242 239.84438477 -5.51323242 239.84438477 -3.73291016 239.90356445 C-2.51796875 239.93450195 -1.30302734 239.96543945 -0.05126953 239.99731445 C1.17527344 240.03598633 2.40181641 240.0746582 3.66552734 240.11450195 C6.69727703 240.20887548 9.72901888 240.29445994 12.76123047 240.37231445 C12.7575433 239.53208835 12.75385612 238.69186224 12.75005722 237.82617474 C12.66159739 217.35157672 12.59546797 196.87701179 12.55398178 176.40226269 C12.53338447 166.50068981 12.50531814 156.59924474 12.45947266 146.69775391 C12.41951806 138.0644102 12.39377709 129.4311591 12.38487649 120.7977255 C12.37967631 116.22925779 12.36751339 111.66105492 12.33831024 107.09267235 C12.31100466 102.78592939 12.30281582 98.47955843 12.30879974 94.17273712 C12.30770624 92.59864335 12.29984288 91.02453614 12.28440857 89.45051765 C12.17945282 78.1871514 12.87659947 67.57086439 21.01123047 58.99731445 C21.71763672 58.22645508 22.42404297 57.4555957 23.15185547 56.66137695 C29.73439111 50.88687712 37.08460038 47.86578224 45.26123047 44.9465332 C46.33751709 44.55407913 47.41380371 44.16162506 48.52270508 43.75727844 C51.93248804 42.51616489 55.3467075 41.28781929 58.76123047 40.05981445 C61.08575491 39.21625532 63.40997708 38.37186271 65.73388672 37.52661133 C71.40620685 35.46552476 77.08221563 33.41487741 82.76123047 31.37231445 C70.29621294 31.32602819 57.83121576 31.29046413 45.36612988 31.26869011 C39.57844704 31.25824109 33.79082289 31.24406147 28.00317383 31.22143555 C22.42055495 31.19974708 16.8379926 31.18775426 11.25533485 31.18255997 C9.12262392 31.17885702 6.98991618 31.17162635 4.85722923 31.16085434 C1.87618635 31.14639259 -1.10462119 31.14433429 -4.08569336 31.14526367 C-4.97257843 31.13807312 -5.8594635 31.13088257 -6.77322388 31.12347412 C-7.99104805 31.12759811 -7.99104805 31.12759811 -9.23347473 31.13180542 C-9.93864636 31.12996183 -10.643818 31.12811825 -11.37035847 31.1262188 C-13.57320916 31.27656031 -13.57320916 31.27656031 -16.23876953 33.37231445 C-17.3717413 36.77122976 -17.41790861 39.6069315 -17.55126953 43.18481445 C-18.04597783 50.46302291 -19.43307241 53.89286118 -24.92626953 58.74731445 C-29.1970708 60.84242451 -32.56472423 61.21833341 -37.23876953 60.37231445 C-41.88302819 57.87817554 -45.55251976 55.43106378 -47.23876953 50.37231445 C-47.52144992 46.85655025 -47.51645185 43.3356846 -47.55126953 39.80981445 C-47.58027344 38.8578418 -47.60927734 37.90586914 -47.63916016 36.92504883 C-47.73650569 25.92500319 -44.1673896 18.4321065 -36.58642578 10.56762695 C-26.22028744 0.87416648 -13.70505974 -0.0825547 0 0 Z " fill="#FDF7F8" transform="translate(243.23876953125,105.627685546875)"/>
<path d="M0 0 C0.95614197 -0.00014603 1.91228394 -0.00029205 2.8973999 -0.0004425 C6.06817874 0.000256 9.23889935 0.00804549 12.40966797 0.01586914 C14.60399341 0.01773354 16.79831926 0.01915734 18.99264526 0.02015686 C24.77619571 0.02398029 30.55972117 0.03380911 36.34326172 0.04486084 C42.24169578 0.0550787 48.14013387 0.05965529 54.03857422 0.06469727 C65.6180123 0.07543151 77.19743181 0.09250586 88.77685547 0.11352539 C86.56186358 2.32851728 85.12045525 2.86103283 82.19458008 3.89770508 C80.76685524 4.40898956 80.76685524 4.40898956 79.31028748 4.93060303 C78.27702835 5.29518616 77.24376923 5.65976929 76.17919922 6.03540039 C73.99352033 6.82149177 71.80797783 7.60796245 69.62255859 8.39477539 C66.17708211 9.62818696 62.73037847 10.85784676 59.28100586 12.08032227 C55.95144344 13.26293147 52.6276363 14.46070342 49.30419922 15.66040039 C47.77556496 16.1951297 47.77556496 16.1951297 46.21604919 16.74066162 C35.60830956 20.590682 25.60763158 26.24238664 20.49169922 36.75415039 C18.22921843 42.56037349 17.36445783 47.94370063 16.77685547 54.11352539 C15.78685547 55.10352539 15.78685547 55.10352539 14.77685547 56.11352539 C14.11685547 55.78352539 13.45685547 55.45352539 12.77685547 55.11352539 C12.44685547 56.76352539 12.11685547 58.41352539 11.77685547 60.11352539 C10.78685547 59.78352539 9.79685547 59.45352539 8.77685547 59.11352539 C8.36435547 59.62915039 7.95185547 60.14477539 7.52685547 60.67602539 C6.94935547 61.15040039 6.37185547 61.62477539 5.77685547 62.11352539 C3.58935547 61.80102539 3.58935547 61.80102539 1.77685547 61.11352539 C1.44685547 62.10352539 1.11685547 63.09352539 0.77685547 64.11352539 C-3.27919037 64.11352539 -3.97790949 63.62596542 -7.22314453 61.11352539 C-6.23314453 63.09352539 -6.23314453 63.09352539 -5.22314453 65.11352539 C-7.22314453 67.11352539 -7.22314453 67.11352539 -9.09814453 67.98852539 C-11.38672959 69.03393553 -11.38672959 69.03393553 -13.09814453 71.30102539 C-13.79939453 71.89915039 -14.50064453 72.49727539 -15.22314453 73.11352539 C-18.34814453 72.73852539 -18.34814453 72.73852539 -21.22314453 72.11352539 C-21.88314453 72.77352539 -22.54314453 73.43352539 -23.22314453 74.11352539 C-22.53687988 74.77884277 -21.85061523 75.44416016 -21.14355469 76.12963867 C-18.58757357 78.61293679 -16.04508533 81.1096819 -13.50634766 83.6105957 C-12.40806627 84.68882601 -11.30621311 85.76343111 -10.20068359 86.83422852 C-8.60736651 88.37874129 -7.02757317 89.93606238 -5.44970703 91.49633789 C-4.95693268 91.9684671 -4.46415833 92.44059631 -3.95645142 92.92703247 C-0.32013563 96.56096165 1.6084409 100.05960796 1.89404297 105.23852539 C1.11030557 111.30616975 -1.39687366 116.16475831 -6.22314453 120.11352539 C-6.88314453 120.11352539 -7.54314453 120.11352539 -8.22314453 120.11352539 C-8.22314453 120.77352539 -8.22314453 121.43352539 -8.22314453 122.11352539 C-8.88314453 122.11352539 -9.54314453 122.11352539 -10.22314453 122.11352539 C-10.22314453 122.77352539 -10.22314453 123.43352539 -10.22314453 124.11352539 C-10.88314453 124.11352539 -11.54314453 124.11352539 -12.22314453 124.11352539 C-12.22314453 124.77352539 -12.22314453 125.43352539 -12.22314453 126.11352539 C-12.88314453 126.11352539 -13.54314453 126.11352539 -14.22314453 126.11352539 C-14.22314453 126.77352539 -14.22314453 127.43352539 -14.22314453 128.11352539 C-14.88314453 128.11352539 -15.54314453 128.11352539 -16.22314453 128.11352539 C-16.22314453 128.77352539 -16.22314453 129.43352539 -16.22314453 130.11352539 C-16.88314453 130.11352539 -17.54314453 130.11352539 -18.22314453 130.11352539 C-18.22314453 130.77352539 -18.22314453 131.43352539 -18.22314453 132.11352539 C-18.88314453 132.11352539 -19.54314453 132.11352539 -20.22314453 132.11352539 C-20.22314453 132.77352539 -20.22314453 133.43352539 -20.22314453 134.11352539 C-20.88314453 134.11352539 -21.54314453 134.11352539 -22.22314453 134.11352539 C-22.22314453 134.77352539 -22.22314453 135.43352539 -22.22314453 136.11352539 C-22.88314453 136.11352539 -23.54314453 136.11352539 -24.22314453 136.11352539 C-24.22314453 136.77352539 -24.22314453 137.43352539 -24.22314453 138.11352539 C-25.59814453 139.73852539 -25.59814453 139.73852539 -27.22314453 141.11352539 C-27.88314453 141.11352539 -28.54314453 141.11352539 -29.22314453 141.11352539 C-29.22314453 141.77352539 -29.22314453 142.43352539 -29.22314453 143.11352539 C-30.87317281 144.46739475 -32.54058323 145.80030682 -34.22314453 147.11352539 C-34.55314453 147.77352539 -34.88314453 148.43352539 -35.22314453 149.11352539 C-35.88314453 149.11352539 -36.54314453 149.11352539 -37.22314453 149.11352539 C-37.22314453 149.77352539 -37.22314453 150.43352539 -37.22314453 151.11352539 C-38.88529721 152.45248171 -40.55278061 153.78482681 -42.22314453 155.11352539 C-42.86251953 155.93852539 -43.50189453 156.76352539 -44.16064453 157.61352539 C-47.64401984 161.8357985 -51.20423998 164.18514251 -56.59814453 165.11352539 C-61.59176111 165.45036293 -65.29474474 164.20647364 -69.22314453 161.11352539 C-73.1516053 156.61736798 -73.75645209 151.90051172 -74.22314453 146.11352539 C-74.42939453 145.14415039 -74.63564453 144.17477539 -74.84814453 143.17602539 C-74.97189453 142.49540039 -75.09564453 141.81477539 -75.22314453 141.11352539 C-74.89314453 140.78352539 -74.56314453 140.45352539 -74.22314453 140.11352539 C-74.22314453 139.12352539 -74.22314453 138.13352539 -74.22314453 137.11352539 C-75.21314453 137.44352539 -76.20314453 137.77352539 -77.22314453 138.11352539 C-76.89314453 139.10352539 -76.56314453 140.09352539 -76.22314453 141.11352539 C-76.86251953 141.31977539 -77.50189453 141.52602539 -78.16064453 141.73852539 C-80.5723953 143.00890748 -80.5723953 143.00890748 -80.97314453 146.23852539 C-81.05564453 147.18727539 -81.13814453 148.13602539 -81.22314453 149.11352539 C-82.34814453 147.42602539 -82.34814453 147.42602539 -83.22314453 145.11352539 C-82.34814453 142.36352539 -82.34814453 142.36352539 -81.22314453 140.11352539 C-86.23449138 141.87426888 -88.30138111 143.73088026 -91.22314453 148.11352539 C-91.88314453 147.78352539 -92.54314453 147.45352539 -93.22314453 147.11352539 C-94.21314453 148.43352539 -95.20314453 149.75352539 -96.22314453 151.11352539 C-95.56314453 152.10352539 -94.90314453 153.09352539 -94.22314453 154.11352539 C-96.8898112 152.78019206 -99.55647786 151.44685872 -102.22314453 150.11352539 C-109.72482948 154.64902369 -109.72482948 154.64902369 -114.03564453 161.92602539 C-114.09751953 162.64790039 -114.15939453 163.36977539 -114.22314453 164.11352539 C-115.72314453 162.80102539 -115.72314453 162.80102539 -117.22314453 161.11352539 C-117.22314453 160.12352539 -117.22314453 159.13352539 -117.22314453 158.11352539 C-119.38125841 159.06082076 -119.38125841 159.06082076 -121.22314453 161.11352539 C-122.21314453 160.78352539 -123.20314453 160.45352539 -124.22314453 160.11352539 C-126.6387113 161.37862293 -126.6387113 161.37862293 -129.22314453 163.11352539 C-130.25439453 163.58790039 -131.28564453 164.06227539 -132.34814453 164.55102539 C-135.31997547 166.1661509 -136.34870391 167.3870663 -138.22314453 170.11352539 C-139.52459255 171.1546838 -140.85112322 172.1673038 -142.22314453 173.11352539 C-144.22314453 172.11352539 -144.22314453 172.11352539 -146.22314453 170.11352539 C-146.50158203 171.07258789 -146.50158203 171.07258789 -146.78564453 172.05102539 C-147.49720703 173.07196289 -147.49720703 173.07196289 -148.22314453 174.11352539 C-149.84653253 174.24880772 -151.47006153 174.38259831 -153.09423828 174.50805664 C-156.98799863 175.61545637 -159.72645757 178.55165422 -162.69580078 181.20336914 C-165.4738892 183.3030372 -167.93625023 184.03521619 -171.22314453 185.11352539 C-173.57815969 186.78619156 -173.57815969 186.78619156 -175.59814453 188.73852539 C-176.28650391 189.37016602 -176.97486328 190.00180664 -177.68408203 190.65258789 C-178.44591797 191.37575195 -178.44591797 191.37575195 -179.22314453 192.11352539 C-178.89314453 193.10352539 -178.56314453 194.09352539 -178.22314453 195.11352539 C-179.21314453 194.78352539 -180.20314453 194.45352539 -181.22314453 194.11352539 C-181.55314453 193.12352539 -181.88314453 192.13352539 -182.22314453 191.11352539 C-181.23314453 190.12352539 -180.24314453 189.13352539 -179.22314453 188.11352539 C-180.87314453 189.76352539 -182.52314453 191.41352539 -184.22314453 193.11352539 C-184.88314453 192.78352539 -185.54314453 192.45352539 -186.22314453 192.11352539 C-189.49051756 192.11352539 -191.61735 193.5510019 -193.97314453 195.73852539 C-194.38564453 196.19227539 -194.79814453 196.64602539 -195.22314453 197.11352539 C-195.88314453 196.78352539 -196.54314453 196.45352539 -197.22314453 196.11352539 C-198.21314453 197.43352539 -199.20314453 198.75352539 -200.22314453 200.11352539 C-199.23314453 200.11352539 -198.24314453 200.11352539 -197.22314453 200.11352539 C-195.47314453 201.36352539 -195.47314453 201.36352539 -194.22314453 203.11352539 C-194.53564453 205.30102539 -194.53564453 205.30102539 -195.22314453 207.11352539 C-195.22314453 206.12352539 -195.22314453 205.13352539 -195.22314453 204.11352539 C-196.54314453 205.10352539 -197.86314453 206.09352539 -199.22314453 207.11352539 C-200.21314453 206.12352539 -200.21314453 206.12352539 -201.22314453 205.11352539 C-201.55314453 205.77352539 -201.88314453 206.43352539 -202.22314453 207.11352539 C-202.88314453 207.11352539 -203.54314453 207.11352539 -204.22314453 207.11352539 C-203.89314453 208.10352539 -203.56314453 209.09352539 -203.22314453 210.11352539 C-204.16064453 212.30102539 -204.16064453 212.30102539 -205.22314453 214.11352539 C-207.86314453 214.11352539 -210.50314453 214.11352539 -213.22314453 214.11352539 C-213.22314453 213.45352539 -213.22314453 212.79352539 -213.22314453 212.11352539 C-216.19314453 213.10352539 -216.19314453 213.10352539 -219.22314453 214.11352539 C-219.55314453 213.12352539 -219.88314453 212.13352539 -220.22314453 211.11352539 C-216.47314453 209.11352539 -216.47314453 209.11352539 -214.22314453 209.11352539 C-213.89314453 208.45352539 -213.56314453 207.79352539 -213.22314453 207.11352539 C-212.56314453 207.11352539 -211.90314453 207.11352539 -211.22314453 207.11352539 C-213.64867362 206.247265 -214.79451418 205.93939431 -217.22314453 206.92602539 C-218.21314453 207.51383789 -218.21314453 207.51383789 -219.22314453 208.11352539 C-220.55353027 208.78605495 -221.8864863 209.45355039 -223.22314453 210.11352539 C-233.49326776 185.81868194 -239.07048283 158.6216105 -239.59814453 132.23852539 C-239.65421875 131.14024414 -239.65421875 131.14024414 -239.71142578 130.01977539 C-239.74658203 127.87133789 -239.74658203 127.87133789 -239.22314453 124.11352539 C-236.82470703 121.79321289 -236.82470703 121.79321289 -234.22314453 120.11352539 C-233.56314453 119.12352539 -232.90314453 118.13352539 -232.22314453 117.11352539 C-230.83095703 117.67040039 -230.83095703 117.67040039 -229.41064453 118.23852539 C-228.35876953 118.52727539 -227.30689453 118.81602539 -226.22314453 119.11352539 C-222.99909475 117.4439772 -222.99909475 117.4439772 -222.53564453 114.48852539 C-222.43251953 113.70477539 -222.32939453 112.92102539 -222.22314453 112.11352539 C-221.23314453 112.11352539 -220.24314453 112.11352539 -219.22314453 112.11352539 C-218.89314453 113.43352539 -218.56314453 114.75352539 -218.22314453 116.11352539 C-217.83126953 115.72165039 -217.43939453 115.32977539 -217.03564453 114.92602539 C-216.43751953 114.32790039 -215.83939453 113.72977539 -215.22314453 113.11352539 C-214.01658203 111.75227539 -214.01658203 111.75227539 -212.78564453 110.36352539 C-211.94001953 109.62102539 -211.09439453 108.87852539 -210.22314453 108.11352539 C-207.91064453 108.30102539 -207.91064453 108.30102539 -206.22314453 109.11352539 C-206.22314453 107.46352539 -206.22314453 105.81352539 -206.22314453 104.11352539 C-205.23314453 104.11352539 -204.24314453 104.11352539 -203.22314453 104.11352539 C-202.89314453 104.44352539 -202.56314453 104.77352539 -202.22314453 105.11352539 C-201.56314453 103.13352539 -200.90314453 101.15352539 -200.22314453 99.11352539 C-198.57314453 99.11352539 -196.92314453 99.11352539 -195.22314453 99.11352539 C-194.89314453 100.10352539 -194.56314453 101.09352539 -194.22314453 102.11352539 C-193.56314453 102.11352539 -192.90314453 102.11352539 -192.22314453 102.11352539 C-192.55314453 101.12352539 -192.88314453 100.13352539 -193.22314453 99.11352539 C-193.57134494 97.44990122 -193.90718945 95.78357368 -194.22314453 94.11352539 C-192.90314453 94.11352539 -191.58314453 94.11352539 -190.22314453 94.11352539 C-190.22314453 95.76352539 -190.22314453 97.41352539 -190.22314453 99.11352539 C-187.74814453 98.61852539 -187.74814453 98.61852539 -185.22314453 98.11352539 C-184.72814453 96.62852539 -184.72814453 96.62852539 -184.22314453 95.11352539 C-183.56314453 95.11352539 -182.90314453 95.11352539 -182.22314453 95.11352539 C-181.43939453 94.47415039 -180.65564453 93.83477539 -179.84814453 93.17602539 C-177.22314453 91.11352539 -177.22314453 91.11352539 -175.09814453 90.61352539 C-173.0030884 90.28139796 -173.0030884 90.28139796 -171.91064453 88.05102539 C-171.35376953 87.41165039 -170.79689453 86.77227539 -170.22314453 86.11352539 C-166.72314453 85.98852539 -166.72314453 85.98852539 -163.22314453 86.11352539 C-160.18179962 84.44428468 -160.18179962 84.44428468 -159.22314453 82.11352539 C-157.24314453 83.10352539 -157.24314453 83.10352539 -155.22314453 84.11352539 C-155.22314453 84.77352539 -155.22314453 85.43352539 -155.22314453 86.11352539 C-155.88314453 86.11352539 -156.54314453 86.11352539 -157.22314453 86.11352539 C-157.22314453 87.10352539 -157.22314453 88.09352539 -157.22314453 89.11352539 C-153.07168391 87.26843178 -150.86113712 85.75646753 -148.22314453 82.11352539 C-147.23314453 82.11352539 -146.24314453 82.11352539 -145.22314453 82.11352539 C-143.171908 81.17004082 -141.23205724 80.08378909 -139.25830078 78.98852539 C-137.22314453 78.11352539 -137.22314453 78.11352539 -133.22314453 78.11352539 C-133.22314453 77.45352539 -133.22314453 76.79352539 -133.22314453 76.11352539 C-131.22314453 74.11352539 -131.22314453 74.11352539 -129.22314453 73.11352539 C-128.89314453 72.45352539 -128.56314453 71.79352539 -128.22314453 71.11352539 C-126.22314453 71.11352539 -124.22314453 71.11352539 -122.22314453 71.11352539 C-121.89314453 70.45352539 -121.56314453 69.79352539 -121.22314453 69.11352539 C-119.5618599 68.75432871 -117.8941443 68.42440907 -116.22314453 68.11352539 C-113.9890634 67.12268572 -113.9890634 67.12268572 -112.22314453 66.11352539 C-112.40876953 65.39165039 -112.59439453 64.66977539 -112.78564453 63.92602539 C-113.24754408 60.95667116 -112.90919085 59.01016541 -112.22314453 56.11352539 C-112.22314453 55.12352539 -112.22314453 54.13352539 -112.22314453 53.11352539 C-111.41876953 53.85602539 -111.41876953 53.85602539 -110.59814453 54.61352539 C-107.62956008 56.48842083 -105.67002026 56.34853964 -102.22314453 56.11352539 C-102.22314453 58.09352539 -102.22314453 60.07352539 -102.22314453 62.11352539 C-98.89782342 59.42159878 -97.6985951 56.04806024 -96.22314453 52.11352539 C-96.22314453 51.12352539 -96.22314453 50.13352539 -96.22314453 49.11352539 C-94.90314453 50.10352539 -93.58314453 51.09352539 -92.22314453 52.11352539 C-89.97534703 50.06118854 -89.22092033 49.10685278 -88.22314453 46.11352539 C-87.43939453 46.31977539 -86.65564453 46.52602539 -85.84814453 46.73852539 C-84.98189453 46.86227539 -84.11564453 46.98602539 -83.22314453 47.11352539 C-82.23314453 46.12352539 -82.23314453 46.12352539 -81.22314453 45.11352539 C-80.23314453 44.12352539 -80.23314453 44.12352539 -79.22314453 43.11352539 C-78.23314453 43.11352539 -77.24314453 43.11352539 -76.22314453 43.11352539 C-75.23314453 42.12352539 -75.23314453 42.12352539 -74.22314453 41.11352539 C-73.23314453 40.95883789 -73.23314453 40.95883789 -72.22314453 40.80102539 C-71.56314453 40.57415039 -70.90314453 40.34727539 -70.22314453 40.11352539 C-68.9265402 37.62318153 -68.9265402 37.62318153 -68.22314453 35.11352539 C-67.48064453 35.29915039 -66.73814453 35.48477539 -65.97314453 35.67602539 C-63.25414599 36.10859334 -61.76130052 36.1106581 -59.22314453 35.11352539 C-58.89314453 34.45352539 -58.56314453 33.79352539 -58.22314453 33.11352539 C-57.56314453 33.77352539 -56.90314453 34.43352539 -56.22314453 35.11352539 C-55.23314453 35.11352539 -54.24314453 35.11352539 -53.22314453 35.11352539 C-52.89314453 35.44352539 -52.56314453 35.77352539 -52.22314453 36.11352539 C-51.31564453 35.63915039 -50.40814453 35.16477539 -49.47314453 34.67602539 C-46.22314453 33.11352539 -46.22314453 33.11352539 -43.91064453 32.55102539 C-43.07533203 32.33446289 -43.07533203 32.33446289 -42.22314453 32.11352539 C-41.89314453 31.45352539 -41.56314453 30.79352539 -41.22314453 30.11352539 C-40.56314453 30.11352539 -39.90314453 30.11352539 -39.22314453 30.11352539 C-40.21314453 27.14352539 -40.21314453 27.14352539 -41.22314453 24.11352539 C-40.75005859 24.47446289 -40.27697266 24.83540039 -39.78955078 25.20727539 C-35.29162059 28.36371763 -31.87611549 29.87948566 -26.33251953 29.53540039 C-21.94902919 28.65870232 -19.19892559 26.4324639 -16.59033203 22.90649414 C-14.92020899 19.49467135 -14.82101852 16.8979861 -14.72314453 13.11352539 C-14.59579529 8.18935474 -14.21702911 5.10537149 -11.22314453 1.11352539 C-7.774363 -0.61086538 -3.79503385 -0.01500711 0 0 Z M-152.22314453 77.11352539 C-151.23314453 77.60852539 -151.23314453 77.60852539 -150.22314453 78.11352539 C-150.22314453 79.10352539 -150.22314453 80.09352539 -150.22314453 81.11352539 C-150.88314453 80.78352539 -151.54314453 80.45352539 -152.22314453 80.11352539 C-152.22314453 79.12352539 -152.22314453 78.13352539 -152.22314453 77.11352539 Z M-153.22314453 81.11352539 C-152.56314453 81.77352539 -151.90314453 82.43352539 -151.22314453 83.11352539 C-152.54314453 83.44352539 -153.86314453 83.77352539 -155.22314453 84.11352539 C-154.56314453 83.12352539 -153.90314453 82.13352539 -153.22314453 81.11352539 Z M-146.22314453 173.11352539 C-145.23314453 173.60852539 -145.23314453 173.60852539 -144.22314453 174.11352539 C-145.21314453 174.60852539 -145.21314453 174.60852539 -146.22314453 175.11352539 C-146.22314453 174.45352539 -146.22314453 173.79352539 -146.22314453 173.11352539 Z " fill="#2297FE" transform="translate(239.22314453125,135.886474609375)"/>
<path d="M0 0 C1.66666667 0 3.33333333 0 5 0 C5 51.48 5 102.96 5 156 C-21 156 -21 156 -25 153 C-25.50390625 149.890625 -25.50390625 149.890625 -25.5625 146.25 C-25.88790848 139.23563949 -26.21081949 134.58509414 -31.5625 129.625 C-35.71850491 126.85433006 -39.06377236 126.48523511 -44 127 C-48.17905855 128.57700323 -50.70772617 130.13932829 -53 134 C-55.98454103 142.9536231 -55.47380683 156.54143649 -51.26953125 164.96484375 C-47.75706454 170.59559807 -43.83038659 175.4537538 -39 180 C-40.58074564 180.81752303 -42.16471223 181.62881997 -43.75 182.4375 C-44.63171875 182.88996094 -45.5134375 183.34242188 -46.421875 183.80859375 C-49 185 -49 185 -51.265625 185.47265625 C-51.83796875 185.64667969 -52.4103125 185.82070313 -53 186 C-53.33 186.99 -53.66 187.98 -54 189 C-54.99 189.33 -55.98 189.66 -57 190 C-57.66 189.67 -58.32 189.34 -59 189 C-59.33 189.66 -59.66 190.32 -60 191 C-60.66 191 -61.32 191 -62 191 C-65.11785113 191.64644661 -65.11785113 191.64644661 -66 194 C-66.99 194.66 -67.98 195.32 -69 196 C-69.825 196.70125 -70.65 197.4025 -71.5 198.125 C-74 200 -74 200 -77 200 C-78.79340513 200.89781874 -78.79340513 200.89781874 -80.5625 202.0625 C-82.2640625 203.0215625 -82.2640625 203.0215625 -84 204 C-84.66 203.67 -85.32 203.34 -86 203 C-86.33 203.66 -86.66 204.32 -87 205 C-87.66 205 -88.32 205 -89 205 C-90.485 205.7425 -90.485 205.7425 -92 206.5 C-95 208 -95 208 -97 208 C-97.33 208.66 -97.66 209.32 -98 210 C-99.875 210.5625 -99.875 210.5625 -102 211 C-102.99 211.33 -103.98 211.66 -105 212 C-105 212.66 -105 213.32 -105 214 C-105.66 214 -106.32 214 -107 214 C-107.33 214.66 -107.66 215.32 -108 216 C-108.99 216 -109.98 216 -111 216 C-114.11681225 216.81664605 -114.11681225 216.81664605 -117 218 C-117.33 218.66 -117.66 219.32 -118 220 C-118.66 220.33 -119.32 220.66 -120 221 C-120.66 220.67 -121.32 220.34 -122 220 C-122.33 220.66 -122.66 221.32 -123 222 C-125.35001881 223.58785055 -127.35117189 224.84733456 -130.125 225.5 C-132.12715693 225.86620054 -132.12715693 225.86620054 -133.5625 227.5625 C-134.036875 228.036875 -134.51125 228.51125 -135 229 C-135.99 229 -136.98 229 -138 229 C-141.11681225 229.81664605 -141.11681225 229.81664605 -144 231 C-144.33 231.66 -144.66 232.32 -145 233 C-146 234 -146 234 -149 235 C-149.33 235.66 -149.66 236.32 -150 237 C-150.66 236.01 -151.32 235.02 -152 234 C-152.33 234.66 -152.66 235.32 -153 236 C-153.99 236.33 -154.98 236.66 -156 237 C-157.01187895 238.65948148 -158.0126546 240.32580562 -159 242 C-159.66 242 -160.32 242 -161 242 C-161.33 242.66 -161.66 243.32 -162 244 C-164.14881388 245.24769838 -165.49679597 246 -168 246 C-169.69774938 247.29352333 -171.36739286 248.62517293 -173 250 C-197.92088041 230.06329568 -215.40818785 200.16949829 -229 171.8125 C-229.37406982 171.03463135 -229.74813965 170.2567627 -230.13354492 169.45532227 C-232.20820117 165.02967729 -233.79500164 160.738405 -235 156 C-229.77683616 151.14124294 -229.77683616 151.14124294 -226.25 150.5 C-224 151 -224 151 -222 154 C-222.99 154.33 -223.98 154.66 -225 155 C-225.99 155.99 -225.99 155.99 -227 157 C-228.32 157 -229.64 157 -231 157 C-231 157.99 -231 158.98 -231 160 C-230.00419922 159.566875 -230.00419922 159.566875 -228.98828125 159.125 C-228.10527344 158.75375 -227.22226563 158.3825 -226.3125 158 C-225.44238281 157.62875 -224.57226562 157.2575 -223.67578125 156.875 C-220.9427998 155.98129512 -218.85299066 155.83550324 -216 156 C-215.505 153.03 -215.505 153.03 -215 150 C-214.01 149.67 -213.02 149.34 -212 149 C-211.34 149.66 -210.68 150.32 -210 151 C-208.515 150.01 -208.515 150.01 -207 149 C-209.64738916 147.5393715 -210.89448334 147 -214 147 C-212.13216429 144.19824644 -210.69725519 142.88807863 -208 141 C-207.34 141.33 -206.68 141.66 -206 142 C-205.608125 141.566875 -205.21625 141.13375 -204.8125 140.6875 C-202.71680722 138.73633776 -200.48410667 137.40989838 -198 136 C-197.34 136.99 -196.68 137.98 -196 139 C-195.731875 138.38125 -195.46375 137.7625 -195.1875 137.125 C-194 135 -194 135 -191 133 C-191 133.99 -191 134.98 -191 136 C-191.66 136.66 -192.32 137.32 -193 138 C-192.67 138 -192.34 138 -192 138 C-191.236875 137.05125 -190.47375 136.1025 -189.6875 135.125 C-186.73714703 131.53582416 -184.15781009 130.43134101 -179.8125 128.8125 C-176.56978571 127.47236326 -174.19002056 125.61592002 -171.5 123.375 C-167.64322013 120.21705545 -164.99339843 119.50953045 -160 119 C-158.48705712 117.06402968 -158.48705712 117.06402968 -158 115 C-156.68 115.99 -155.36 116.98 -154 118 C-152.55174614 116.55174614 -151.13921278 115.06748051 -149.75 113.5625 C-146.93562208 110.94001148 -144.47531922 109.59285464 -141 108 C-140.13375 107.4225 -139.2675 106.845 -138.375 106.25 C-136 105 -136 105 -133.6875 105.3125 C-133.130625 105.539375 -132.57375 105.76625 -132 106 C-131.505 104.515 -131.505 104.515 -131 103 C-129.02 103.99 -129.02 103.99 -127 105 C-127.495 106.485 -127.495 106.485 -128 108 C-126.85464788 106.97509314 -126.85464788 106.97509314 -126.17578125 105.1328125 C-123.67823864 100.60238637 -118.64959094 97.93726758 -114.25 95.4375 C-112 95 -112 95 -109.6875 96.375 C-109.130625 96.91125 -108.57375 97.4475 -108 98 C-108 97.01 -108 96.02 -108 95 C-107.34 95 -106.68 95 -106 95 C-105.67 94.01 -105.34 93.02 -105 92 C-104.34 92.33 -103.68 92.66 -103 93 C-102.41992188 92.25943359 -102.41992188 92.25943359 -101.828125 91.50390625 C-101.30734375 90.86324219 -100.7865625 90.22257812 -100.25 89.5625 C-99.73953125 88.92441406 -99.2290625 88.28632813 -98.703125 87.62890625 C-96.80332371 85.81189446 -95.56413092 85.39576803 -93 85 C-93 86.33333333 -93 87.66666667 -93 89 C-90.65941363 86.87219421 -89.29299694 84.88437779 -88 82 C-87.01 82.33 -86.02 82.66 -85 83 C-85.33 83.99 -85.66 84.98 -86 86 C-85.34 86.33 -84.68 86.66 -84 87 C-84.99 87.495 -84.99 87.495 -86 88 C-84.8007138 98.1845604 -84.8007138 98.1845604 -80 107 C-75.20781829 110.00685911 -71.44964905 110.34984059 -66.015625 109.52734375 C-63.50544048 108.87060943 -61.89845664 107.74658011 -60 106 C-59.34 106 -58.68 106 -58 106 C-57.67 105.01 -57.34 104.02 -57 103 C-56.34 103 -55.68 103 -55 103 C-54.67 102.01 -54.34 101.02 -54 100 C-53.34 100 -52.68 100 -52 100 C-51.67 99.01 -51.34 98.02 -51 97 C-50.34 97 -49.68 97 -49 97 C-49 96.34 -49 95.68 -49 95 C-48.34 95 -47.68 95 -47 95 C-46.67 94.01 -46.34 93.02 -46 92 C-45.34 92 -44.68 92 -44 92 C-43.67 91.01 -43.34 90.02 -43 89 C-42.34 89 -41.68 89 -41 89 C-41 88.34 -41 87.68 -41 87 C-40.34 87 -39.68 87 -39 87 C-38.67 86.01 -38.34 85.02 -38 84 C-37.34 84 -36.68 84 -36 84 C-36 83.34 -36 82.68 -36 82 C-35.34 82 -34.68 82 -34 82 C-34 81.34 -34 80.68 -34 80 C-33.34 80 -32.68 80 -32 80 C-32 79.34 -32 78.68 -32 78 C-31.34 78 -30.68 78 -30 78 C-30 77.34 -30 76.68 -30 76 C-29.34 76 -28.68 76 -28 76 C-28 75.34 -28 74.68 -28 74 C-27.34 74 -26.68 74 -26 74 C-26 73.34 -26 72.68 -26 72 C-25.34 72 -24.68 72 -24 72 C-24 71.34 -24 70.68 -24 70 C-23.34 70 -22.68 70 -22 70 C-22 69.34 -22 68.68 -22 68 C-21.34 68 -20.68 68 -20 68 C-20 67.34 -20 66.68 -20 66 C-19.34 66 -18.68 66 -18 66 C-17.67 65.01 -17.34 64.02 -17 63 C-16.34 63 -15.68 63 -15 63 C-12.19676092 57.79398457 -10.29095052 53.07592897 -11.27685547 47.05126953 C-13.87688561 39.67603212 -22.49685802 33.380035 -27.9375 28 C-28.71673828 27.22527344 -29.49597656 26.45054687 -30.29882812 25.65234375 C-32.1969242 23.76589243 -34.09733149 21.88183755 -36 20 C-35.01 19.505 -35.01 19.505 -34 19 C-33.67 18.34 -33.34 17.68 -33 17 C-32.071875 17.185625 -31.14375 17.37125 -30.1875 17.5625 C-26.98656229 18.24123881 -26.98656229 18.24123881 -24 17 C-23.690625 16.360625 -23.38125 15.72125 -23.0625 15.0625 C-21.7657662 12.54531085 -20.5778263 12.03113052 -18 11 C-18.99 8.03 -18.99 8.03 -20 5 C-19.401875 5.66 -18.80375 6.32 -18.1875 7 C-16.12498166 9.3373846 -16.12498166 9.3373846 -13 9 C-12.34 9 -11.68 9 -11 9 C-10.67 8.34 -10.34 7.68 -10 7 C-8.00428677 6.32060826 -6.00405227 5.65438441 -4 5 C-3.34 4.34 -2.68 3.68 -2 3 C-1.01 3.99 -1.01 3.99 0 5 C0 3.35 0 1.7 0 0 Z M-158 119 C-157.67 119.66 -157.34 120.32 -157 121 C-156.67 120.34 -156.34 119.68 -156 119 C-156.66 119 -157.32 119 -158 119 Z " fill="#2E87FE" transform="translate(251,190)"/>
<path d="M0 0 C18.02884274 7.99487315 34.54363629 17.71590308 50 30 C50.89589844 30.70382813 51.79179687 31.40765625 52.71484375 32.1328125 C59.58792089 37.63521859 66.08097775 43.50849532 72.47070312 49.55859375 C73.92199299 50.92647615 75.39024791 52.27629317 76.859375 53.625 C77.68953125 54.40875 78.5196875 55.1925 79.375 56 C80.46941406 57.0209375 80.46941406 57.0209375 81.5859375 58.0625 C83 60 83 60 82.7265625 62.25 C82.48679687 62.8275 82.24703125 63.405 82 64 C82.639375 64.2475 83.27875 64.495 83.9375 64.75 C86 66 86 66 86.75 68.125 C86.8325 68.74375 86.915 69.3625 87 70 C86.34 69.67 85.68 69.34 85 69 C84.67 69.66 84.34 70.32 84 71 C84.99 71.33 85.98 71.66 87 72 C84.57202689 74.42797311 81.8700731 76.1282132 79 78 C78.01 77.01 77.02 76.02 76 75 C75.71125 75.61875 75.4225 76.2375 75.125 76.875 C74 79 74 79 72 81 C71.01 80.67 70.02 80.34 69 80 C69.33 79.01 69.66 78.02 70 77 C69.67 76.34 69.34 75.68 69 75 C68.40267181 77.76264289 68 80.16032769 68 83 C66.515 83.495 66.515 83.495 65 84 C64.34 83.01 63.68 82.02 63 81 C62.6596875 81.8353125 62.6596875 81.8353125 62.3125 82.6875 C60.59377841 85.71572375 58.67211603 87.77323664 56 90 C53.9375 89.6875 53.9375 89.6875 52 89 C48.90774748 89.93704622 48.11149156 90.81269417 46.4375 93.625 C45.7259375 94.800625 45.7259375 94.800625 45 96 C44.01 96 43.02 96 42 96 C41.67 96.66 41.34 97.32 41 98 C40.01 98 39.02 98 38 98 C37.67 96.35 37.34 94.7 37 93 C35.02 94.485 35.02 94.485 33 96 C32.5875 95.61328125 32.175 95.2265625 31.75 94.828125 C20.49142581 84.67530363 8.76806354 83.69664025 -5.97998047 83.7253418 C-7.36098504 83.72098522 -8.7419872 83.71579895 -10.12298584 83.70985413 C-13.84624879 83.69655439 -17.56940967 83.69587531 -21.29269171 83.69841743 C-24.41364282 83.69949331 -27.5345738 83.69458807 -30.65552056 83.689812 C-38.02508266 83.678748 -45.39459378 83.67826184 -52.76416016 83.68432617 C-60.33841102 83.69036359 -67.912476 83.67805373 -75.48669517 83.6567561 C-82.01612931 83.63907897 -88.54550462 83.63314834 -95.07496178 83.63639385 C-98.96304966 83.63819715 -102.85100493 83.63566664 -106.73907089 83.62167931 C-110.39835661 83.6090055 -114.05735481 83.61113409 -117.71663666 83.62409019 C-119.67994453 83.62754261 -121.64326158 83.61634882 -123.60653687 83.60452271 C-136.59760149 83.68065845 -147.25558955 85.85485941 -156.96875 94.81640625 C-164.48076639 102.69447428 -166.66897319 111.33729952 -166.4375 122 C-166.44458984 122.92039062 -166.45167969 123.84078125 -166.45898438 124.7890625 C-166.39946154 131.29078704 -165.17644778 136.88438901 -163 143 C-163.66 143 -164.32 143 -165 143 C-165.33 143.99 -165.66 144.98 -166 146 C-166.99 146 -167.98 146 -169 146 C-169.66 146.66 -170.32 147.32 -171 148 C-171.66 148 -172.32 148 -173 148 C-174.62514468 149.45833358 -174.62514468 149.45833358 -176 151 C-176.66 150.34 -177.32 149.68 -178 149 C-179.71502233 147.55876888 -179.71502233 147.55876888 -182 147 C-185.23394361 148.28322447 -185.23394361 148.28322447 -188 150 C-188.33 149.67 -188.66 149.34 -189 149 C-189.66 149.99 -190.32 150.98 -191 152 C-193.375 153.5625 -193.375 153.5625 -196 155 C-196.70125 155.391875 -197.4025 155.78375 -198.125 156.1875 C-200 157 -200 157 -203 157 C-203.61875 157.680625 -204.2375 158.36125 -204.875 159.0625 C-205.57625 159.701875 -206.2775 160.34125 -207 161 C-209.75 160.75 -209.75 160.75 -212 160 C-212.0825 160.61875 -212.165 161.2375 -212.25 161.875 C-213 164 -213 164 -215.0625 165.25 C-215.701875 165.4975 -216.34125 165.745 -217 166 C-217.99 165.01 -218.98 164.02 -220 163 C-219.67 163.99 -219.34 164.98 -219 166 C-219.77734375 168.04296875 -219.77734375 168.04296875 -220.9375 170.1875 C-221.31777344 170.90292969 -221.69804687 171.61835938 -222.08984375 172.35546875 C-222.39019531 172.89816406 -222.69054687 173.44085938 -223 174 C-223.66 174 -224.32 174 -225 174 C-225.33 174.66 -225.66 175.32 -226 176 C-226.2165625 175.071875 -226.2165625 175.071875 -226.4375 174.125 C-226.93152225 171.96741678 -226.93152225 171.96741678 -228 170 C-228.66 170.66 -229.32 171.32 -230 172 C-231.32 172 -232.64 172 -234 172 C-234.33 170.35 -234.66 168.7 -235 167 C-235 167.66 -235 168.32 -235 169 C-235.1741452 178.08721311 -235.1741452 178.08721311 -238.375 181.625 C-241 183 -241 183 -244 183 C-246.10820797 183.3185177 -246.10820797 183.3185177 -248 184 C-248.33 184.66 -248.66 185.32 -249 186 C-249.66 185.01 -250.32 184.02 -251 183 C-251.33 183.66 -251.66 184.32 -252 185 C-253.4375 187.125 -253.4375 187.125 -255 189 C-255.66 189 -256.32 189 -257 189 C-257 189.66 -257 190.32 -257 191 C-257.66 191 -258.32 191 -259 191 C-259.33 191.66 -259.66 192.32 -260 193 C-260.99 193 -261.98 193 -263 193 C-265.01755281 193.86490647 -265.01755281 193.86490647 -267.0625 195 C-270.79166667 197 -270.79166667 197 -273 197 C-273.66 197.99 -274.32 198.98 -275 200 C-276.96752828 201.06246527 -278.96587579 202.07137808 -281 203 C-281.33 202.34 -281.66 201.68 -282 201 C-281.67 200.34 -281.34 199.68 -281 199 C-280.34 199 -279.68 199 -279 199 C-279.66 198.34 -280.32 197.68 -281 197 C-281.66 197 -282.32 197 -283 197 C-283.66 197.66 -284.32 198.32 -285 199 C-291 201.77777778 -291 201.77777778 -294.25 202.5 C-296.12545776 202.88263629 -296.12545776 202.88263629 -297.5 204.5 C-299 206 -299 206 -300.83984375 206.43359375 C-304.02980785 207.27002195 -306.39122761 209.10768397 -309.09765625 210.94140625 C-311 212 -311 212 -314 212 C-314.433125 211.0409375 -314.433125 211.0409375 -314.875 210.0625 C-315.82823451 207.84793921 -315.82823451 207.84793921 -318 207 C-317.01 207.99 -317.01 207.99 -316 209 C-315.1875 210.9375 -315.1875 210.9375 -315 213 C-316.4375 214.75 -316.4375 214.75 -318 216 C-318.33 215.01 -318.66 214.02 -319 213 C-319.66 213.99 -320.32 214.98 -321 216 C-322.31647119 216.69937532 -323.65022151 217.36729133 -325 218 C-325.66 218.66 -326.32 219.32 -327 220 C-327.66 219.01 -328.32 218.02 -329 217 C-329.33 218.65 -329.66 220.3 -330 222 C-333 223 -333 223 -335 223 C-335.66 223.825 -336.32 224.65 -337 225.5 C-337.66 226.325 -338.32 227.15 -339 228 C-339.66 228 -340.32 228 -341 228 C-341.33 228.66 -341.66 229.32 -342 230 C-342.33 229.01 -342.66 228.02 -343 227 C-343.45375 227.45375 -343.9075 227.9075 -344.375 228.375 C-347.19895562 231.19895562 -349.22977353 232.61096919 -353 234 C-353.33 233.01 -353.66 232.02 -354 231 C-354.99 231.99 -354.99 231.99 -356 233 C-360.70588235 237 -360.70588235 237 -363 237 C-363.53040464 215.49821199 -361.67561883 194.99054411 -357 174 C-354.31270315 178.03094528 -354.7048435 180.93390451 -355.375 185.625 C-355.99106068 187.96603059 -356.8272327 189.88901886 -358 192 C-357.67 192.33 -357.34 192.66 -357 193 C-356.505 192.01 -356.505 192.01 -356 191 C-355.34 191 -354.68 191 -354 191 C-354 190.34 -354 189.68 -354 189 C-353.34 189 -352.68 189 -352 189 C-351.505 188.01 -351.505 188.01 -351 187 C-350.525625 186.401875 -350.05125 185.80375 -349.5625 185.1875 C-347.9119986 182.87679805 -346.96116768 180.66169512 -346 178 C-344.68 178 -343.36 178 -342 178 C-341.01 177.01 -341.01 177.01 -340 176 C-338.0625 174.8125 -338.0625 174.8125 -336 174 C-335.01 174.33 -334.02 174.66 -333 175 C-331.88625 173.7934375 -331.88625 173.7934375 -330.75 172.5625 C-328.24695171 170.23011409 -327.2819045 169.36465606 -324 169 C-323.505 166.03 -323.505 166.03 -323 163 C-322.34 163 -321.68 163 -321 163 C-320.67 162.34 -320.34 161.68 -320 161 C-319.505 163.475 -319.505 163.475 -319 166 C-316.36541671 166.73182869 -314.60669617 167.19600953 -311.96875 166.34375 C-309.33686387 164.54738327 -308.81675588 162.8466771 -307.75 159.875 C-307.41484375 158.96492187 -307.0796875 158.05484375 -306.734375 157.1171875 C-306.49203125 156.41851562 -306.2496875 155.71984375 -306 155 C-305.34 155 -304.68 155 -304 155 C-303.67 153.68 -303.34 152.36 -303 151 C-295 151 -295 151 -292.9375 151.625 C-291.9784375 151.810625 -291.9784375 151.810625 -291 152 C-290.34 151.34 -289.68 150.68 -289 150 C-288.2575 150.020625 -287.515 150.04125 -286.75 150.0625 C-283.17868452 149.98133374 -281.11315688 148.71541298 -278 147 C-276.9275 146.484375 -275.855 145.96875 -274.75 145.4375 C-271.94792702 144.14731757 -271.94792702 144.14731757 -270 142 C-268.66666667 141.66666667 -267.33333333 141.33333333 -266 141 C-265.34 140.34 -264.68 139.68 -264 139 C-263.01 138.7834375 -263.01 138.7834375 -262 138.5625 C-259.61359262 138.12541292 -259.61359262 138.12541292 -258 135 C-257.83286431 132.37468476 -257.83286431 132.37468476 -258 130 C-257.01 129.67 -256.02 129.34 -255 129 C-254.34 128.34 -253.68 127.68 -253 127 C-252.505 130.465 -252.505 130.465 -252 134 C-250.35 133.34 -248.7 132.68 -247 132 C-247.495 128.535 -247.495 128.535 -248 125 C-246.25 124.375 -246.25 124.375 -244 124 C-243.34 124.350625 -242.68 124.70125 -242 125.0625 C-241.01 125.5265625 -241.01 125.5265625 -240 126 C-238.09989652 125.17574711 -238.09989652 125.17574711 -236 124 C-234.2984375 123.7834375 -234.2984375 123.7834375 -232.5625 123.5625 C-228.90272302 122.98464048 -227.02777551 122.04579427 -224 120 C-223.278125 119.649375 -222.55625 119.29875 -221.8125 118.9375 C-219.82177761 118.02391338 -219.82177761 118.02391338 -218 116 C-216.01178687 115.60235737 -214.01055661 115.26224651 -212 115 C-212 114.01 -212 113.02 -212 112 C-212 108.82629722 -211.69066658 107.6205332 -210 105 C-207.875 103.75 -207.875 103.75 -206 103 C-205.01 106.465 -205.01 106.465 -204 110 C-203.67 110 -203.34 110 -203 110 C-203 107.69 -203 105.38 -203 103 C-200.03 102.505 -200.03 102.505 -197 102 C-196.34 103.32 -195.68 104.64 -195 106 C-195.061875 105.05125 -195.12375 104.1025 -195.1875 103.125 C-195.125625 102.09375 -195.06375 101.0625 -195 100 C-194.01 99.34 -193.02 98.68 -192 98 C-191.34 99.98 -190.68 101.96 -190 104 C-188.8553125 103.01 -188.8553125 103.01 -187.6875 102 C-185 100 -185 100 -182 100 C-179.82967524 98.56009377 -179.82967524 98.56009377 -178 97 C-178.33 94.69 -178.66 92.38 -179 90 C-176.77810176 92.22189824 -176.07401108 94.08482708 -175 97 C-174.01 96.67 -173.02 96.34 -172 96 C-172.99 94.35 -173.98 92.7 -175 91 C-174.01 89.68 -173.02 88.36 -172 87 C-171.34 88.98 -170.68 90.96 -170 93 C-165.92035719 91.69844994 -165.92035719 91.69844994 -162 90 C-162 90.99 -162 91.98 -162 93 C-157.28527961 91.15998355 -157.28527961 91.15998355 -154.6875 87 C-152.74670764 83.54970248 -152.17368879 83.42408743 -148.5625 82.3125 C-147.77101562 82.0959375 -146.97953125 81.879375 -146.1640625 81.65625 C-143.65822308 80.89635646 -141.92915895 79.761406 -140 78 C-141.65 77.67 -143.3 77.34 -145 77 C-144 75 -144 75 -143 74 C-143.66 73.67 -144.32 73.34 -145 73 C-145.66 73.66 -146.32 74.32 -147 75 C-147.66 73.68 -148.32 72.36 -149 71 C-146.64561267 69.57055055 -145.51967567 68.91338739 -142.75 69.375 C-142.1725 69.58125 -141.595 69.7875 -141 70 C-141.33 69.01 -141.66 68.02 -142 67 C-141.34 66.773125 -140.68 66.54625 -140 66.3125 C-136.07265467 64.59428642 -132.58739822 62.33225393 -129 60 C-129 61.32 -129 62.64 -129 64 C-128.443125 63.835 -127.88625 63.67 -127.3125 63.5 C-124.80008123 62.95677432 -122.56453629 62.93424266 -120 63 C-119.01 63 -118.02 63 -117 63 C-115.9790625 63.309375 -115.9790625 63.309375 -114.9375 63.625 C-113.9784375 63.810625 -113.9784375 63.810625 -113 64 C-112.01 63.01 -112.01 63.01 -111 62 C-109.33333333 62 -107.66666667 62 -106 62 C-103.74867483 61.08431094 -103.74867483 61.08431094 -102 60 C-102.66 59.67 -103.32 59.34 -104 59 C-104 58.34 -104 57.68 -104 57 C-105.32 57.33 -106.64 57.66 -108 58 C-108 58.66 -108 59.32 -108 60 C-108.66 60 -109.32 60 -110 60 C-109.01 57.03 -109.01 57.03 -108 54 C-107.071875 54.0825 -106.14375 54.165 -105.1875 54.25 C-101.90894778 54.35303045 -101.90894778 54.35303045 -100.125 52 C-99.75375 51.34 -99.3825 50.68 -99 50 C-97.35 50.33 -95.7 50.66 -94 51 C-94 52.65 -94 54.3 -94 56 C-91.36 55.67 -88.72 55.34 -86 55 C-86.66 51.7 -87.32 48.4 -88 45 C-83.68250072 44.01875016 -81.87166516 44.06416742 -78 46 C-75.84982472 45.25827123 -75.84982472 45.25827123 -74 44 C-73.34 43.67 -72.68 43.34 -72 43 C-71.34 42.01 -70.68 41.02 -70 40 C-68.68 40.66 -67.36 41.32 -66 42 C-66 41.34 -66 40.68 -66 40 C-66.66 39.34 -67.32 38.68 -68 38 C-67.625 35.875 -67.625 35.875 -67 34 C-67 34.99 -67 35.98 -67 37 C-65.68 36.01 -64.36 35.02 -63 34 C-62.1646875 34.7734375 -62.1646875 34.7734375 -61.3125 35.5625 C-59.08015067 37.26389247 -59.08015067 37.26389247 -56.375 36.8125 C-53.84979635 36.14323449 -53.84979635 36.14323449 -52 34 C-50.515 33.505 -50.515 33.505 -49 33 C-49 32.34 -49 31.68 -49 31 C-49.66 31 -50.32 31 -51 31 C-51.33 31.66 -51.66 32.32 -52 33 C-52.99 32.67 -53.98 32.34 -55 32 C-55.66 33.32 -56.32 34.64 -57 36 C-57.99 35.67 -58.98 35.34 -60 35 C-58.07423885 32.56070254 -56.19909405 30.19909405 -54 28 C-52.33333333 28 -50.66666667 28 -49 28 C-47.515 27.01 -47.515 27.01 -46 26 C-45.34 26.66 -44.68 27.32 -44 28 C-42.68 28 -41.36 28 -40 28 C-39.34 27.34 -38.68 26.68 -38 26 C-37.236875 26.020625 -36.47375 26.04125 -35.6875 26.0625 C-32.24899931 25.98253487 -30.69328673 25.11095446 -28 23 C-26.65310085 20.42900598 -26.65310085 20.42900598 -26 18 C-25.32453125 18.03480469 -24.6490625 18.06960937 -23.953125 18.10546875 C-23.06109375 18.13253906 -22.1690625 18.15960938 -21.25 18.1875 C-20.36828125 18.22230469 -19.4865625 18.25710937 -18.578125 18.29296875 C-15.55328417 17.94923684 -14.24416398 16.99772541 -12 15 C-13.32 15 -14.64 15 -16 15 C-16.33 14.01 -16.66 13.02 -17 12 C-16.34 11.01 -15.68 10.02 -15 9 C-14.67 8.01 -14.34 7.02 -14 6 C-13.34 6 -12.68 6 -12 6 C-11.34 6.99 -10.68 7.98 -10 9 C-8.69481525 10.03647024 -7.36538653 11.04422943 -6 12 C-5.67 10.02 -5.34 8.04 -5 6 C-4.34 6.33 -3.68 6.66 -3 7 C-2.375 9.0625 -2.375 9.0625 -2 11 C-1.34 10.34 -0.68 9.68 0 9 C-0.66 9 -1.32 9 -2 9 C-2 6.69 -2 4.38 -2 2 C-1.34 2 -0.68 2 0 2 C0 1.34 0 0.68 0 0 Z M-276 190 C-276 191.32 -276 192.64 -276 194 C-275.34 194 -274.68 194 -274 194 C-274.33 192.68 -274.66 191.36 -275 190 C-275.33 190 -275.66 190 -276 190 Z M-277 194 C-277.99 195.485 -277.99 195.485 -279 197 C-277.68 196.67 -276.36 196.34 -275 196 C-275.66 195.34 -276.32 194.68 -277 194 Z " fill="#1A9FFE" transform="translate(363,23)"/>
<path d="M0 0 C22.41738634 9.81067236 40.24838812 52.96756451 49 74 C55.64046973 91.20433316 60.86346646 108.81394992 64 127 C64.24121582 128.32088623 64.24121582 128.32088623 64.48730469 129.66845703 C69.37538345 157.31885718 68.7837992 187.3759676 64 215 C63.80277344 216.19367188 63.60554688 217.38734375 63.40234375 218.6171875 C63.26957031 219.40351563 63.13679688 220.18984375 63 221 C62.67 221 62.34 221 62 221 C61.34 217.7 60.68 214.4 60 211 C58.02 210.67 56.04 210.34 54 210 C53.401875 210.99 52.80375 211.98 52.1875 213 C51.465625 213.99 50.74375 214.98 50 216 C49.01 216 48.02 216 47 216 C44.88399566 216.97629507 42.87865306 218.09504663 40.83984375 219.22265625 C39.92912109 219.60744141 39.92912109 219.60744141 39 220 C38.34 219.67 37.68 219.34 37 219 C36.34 219.66 35.68 220.32 35 221 C32.59617432 223.04770335 30.5826457 224.17003323 27.625 225.375 C24.59828003 226.7318055 23.14639427 227.6110893 20.8125 229.75 C18 232 18 232 15.8125 231.8125 C15.214375 231.544375 14.61625 231.27625 14 231 C13.01 231 12.02 231 11 231 C10.525625 231.804375 10.05125 232.60875 9.5625 233.4375 C8 236 8 236 5.875 236.625 C5.25625 236.74875 4.6375 236.8725 4 237 C3.67 237.99 3.34 238.98 3 240 C2.401875 239.79375 1.80375 239.5875 1.1875 239.375 C-1.28450846 238.69328085 -1.28450846 238.69328085 -4 241 C-4.99 241 -5.98 241 -7 241 C-9.52093031 243.2704415 -9.52093031 243.2704415 -12 246 C-14 248 -16 250 -18 252 C-18.66 251.01 -19.32 250.02 -20 249 C-20.86625 249.433125 -20.86625 249.433125 -21.75 249.875 C-22.4925 250.24625 -23.235 250.6175 -24 251 C-24.680625 251.37125 -25.36125 251.7425 -26.0625 252.125 C-28 253 -28 253 -31 253 C-31.33 253.66 -31.66 254.32 -32 255 C-34.3140622 255.73075648 -36.64828869 256.40138258 -39 257 C-39 258.98 -39 260.96 -39 263 C-39.33 263 -39.66 263 -40 263 C-40.00146656 261.91147295 -40.00293312 260.8229459 -40.00444412 259.70143318 C-40.04105683 233.2018343 -40.10052978 206.70236164 -40.18390274 180.20286751 C-40.22369354 167.38784707 -40.25608589 154.57288804 -40.27099609 141.7578125 C-40.28401232 130.58677272 -40.31097648 119.41586807 -40.35461307 108.2449044 C-40.37722827 102.33124045 -40.39291063 96.41774317 -40.39188385 90.50403214 C-40.39113729 84.93406158 -40.40908698 79.36445948 -40.44116783 73.79458427 C-40.44966309 71.75407912 -40.45141932 69.71353261 -40.44580269 67.6730175 C-40.39706583 51.62788921 -40.39706583 51.62788921 -46.875 37.1875 C-48 35 -48 35 -47.1875 32.1875 C-46.795625 31.465625 -46.40375 30.74375 -46 30 C-45.34 30.66 -44.68 31.32 -44 32 C-44.33 32.66 -44.66 33.32 -45 34 C-44.34 34.33 -43.68 34.66 -43 35 C-40.77260299 33.93798263 -40.77260299 33.93798263 -38 32 C-37.67 32.33 -37.34 32.66 -37 33 C-36.79375 32.21625 -36.5875 31.4325 -36.375 30.625 C-35 28 -35 28 -32.0625 26.6875 C-29 26 -29 26 -26 26 C-25.34 25.67 -24.68 25.34 -24 25 C-23.34 24.67 -22.68 24.34 -22 24 C-20.73854232 21.63813861 -20.73854232 21.63813861 -20 19 C-20.33 18.01 -20.66 17.02 -21 16 C-20.34 15.34 -19.68 14.68 -19 14 C-18.34 16.31 -17.68 18.62 -17 21 C-16.01 20.34 -15.02 19.68 -14 19 C-14 18.01 -14 17.02 -14 16 C-13.68911632 14.32900023 -13.35919668 12.66128463 -13 11 C-11 14.75 -11 14.75 -11 17 C-8.37812506 15.95125002 -7.20628639 15.35068687 -5.75 12.875 C-5.5025 12.25625 -5.255 11.6375 -5 11 C-4.01 12.32 -3.02 13.64 -2 15 C1.09756244 12.61149897 1.09756244 12.61149897 4 10 C3.34 9.67 2.68 9.34 2 9 C3 6 3 6 4 5 C2.68 4.34 1.36 3.68 0 3 C0 2.01 0 1.02 0 0 Z " fill="#3978FF" transform="translate(445,85)"/>
<path d="M0 0 C0 64.68 0 129.36 0 196 C-78.49484536 225.07216495 -78.49484536 225.07216495 -86 224 C-87.91327 222.90248871 -87.91327 222.90248871 -89 221 C-89.29677085 218.43958666 -89.40915453 216.12145656 -89.38768005 213.56018066 C-89.39306559 212.7961098 -89.39845113 212.03203893 -89.40399987 211.2448144 C-89.4183424 208.67671909 -89.41116043 206.10913467 -89.40405273 203.54101562 C-89.40975298 201.70309533 -89.4167159 199.86517859 -89.42485046 198.02726746 C-89.44283412 193.02941838 -89.44160386 188.03174436 -89.43590808 183.0338726 C-89.43282407 178.86609642 -89.4388998 174.69835426 -89.44494683 170.5305829 C-89.45900723 160.70151233 -89.45741786 150.87252864 -89.44604492 141.04345703 C-89.43455873 130.89196115 -89.44864438 120.74072929 -89.4754414 110.58926821 C-89.49756679 101.88263219 -89.50424302 93.17607924 -89.49836498 84.4694171 C-89.49498704 79.26525776 -89.49746601 74.06126775 -89.51461601 68.85713196 C-89.53003307 63.96512279 -89.52618816 59.07350619 -89.50731087 54.18151283 C-89.50361057 52.38315725 -89.50677514 50.58477291 -89.51719666 48.78644371 C-89.53031032 46.33711021 -89.51894629 43.88909493 -89.50120544 41.43981934 C-89.51081045 40.72299689 -89.52041546 40.00617444 -89.53031152 39.2676301 C-89.48225761 36.05800328 -89.43051757 34.43533671 -87.12355137 32.10254669 C-84.67710692 30.83235409 -82.26176826 29.82647487 -79.6640625 28.8984375 C-78.55885254 28.49882812 -77.45364258 28.09921875 -76.31494141 27.6875 C-75.09726074 27.254375 -73.87958008 26.82125 -72.625 26.375 C-70.64886347 25.66305664 -68.67371072 24.94842635 -66.69857788 24.23370361 C-65.2476987 23.70882094 -63.79653691 23.18471893 -62.34512329 22.66131592 C-52.78442682 19.21013032 -43.25476906 15.67466125 -33.72235107 12.14630127 C-30.66238364 11.01383534 -27.60200645 9.88248374 -24.54150391 8.75146484 C-22.6240129 8.04267173 -20.70653199 7.33385131 -18.7890625 6.625 C-17.91926758 6.30350983 -17.04947266 5.98201965 -16.15332031 5.65078735 C-15.32880371 5.34579315 -14.50428711 5.04079895 -13.65478516 4.7265625 C-12.87468079 4.43813477 -12.09457642 4.14970703 -11.29083252 3.85253906 C-9.00699174 3.00260199 -6.72889888 2.13831845 -4.45068359 1.2734375 C-1 0 -1 0 0 0 Z " fill="#367DFE" transform="translate(375,151)"/>
<path d="M0 0 C1.5625 1.5625 1.5625 1.5625 3 4 C2.71815606 10.26498818 0.3484363 15.23491068 -2.375 20.8125 C-2.82198242 21.73466309 -3.26896484 22.65682617 -3.72949219 23.60693359 C-13.92889894 44.26481345 -27.12985577 63.30060499 -43 80 C-44.21572509 81.3894001 -45.42462611 82.78481591 -46.625 84.1875 C-50.20715947 88.2971984 -53.87113361 92.43114078 -58 96 C-58.66 96 -59.32 96 -60 96 C-60 96.66 -60 97.32 -60 98 C-62.89623513 100.73359558 -66.0752239 103.13315429 -69.20751953 105.59033203 C-70.42660914 106.54906581 -71.64097589 107.513829 -72.85107422 108.48388672 C-110.35337089 138.53325548 -155.27269107 157.32685205 -203 163 C-204.04824951 163.14139404 -204.04824951 163.14139404 -205.11767578 163.28564453 C-214.07650392 164.36892053 -223.11470583 164.2419951 -232.125 164.25 C-233.45759354 164.25200912 -233.45759354 164.25200912 -234.81710815 164.25405884 C-249.0832703 164.2493999 -262.92212786 163.43672038 -277 161 C-278.5219231 160.76813335 -280.0440497 160.53759724 -281.56640625 160.30859375 C-293.91838079 158.31847352 -293.91838079 158.31847352 -298 153 C-298.59368796 149.70173353 -298.66187231 148.01022616 -296.8125 145.1875 C-294.58917118 143.73083629 -292.59074318 143.51814864 -290 143 C-288.20614008 141.5420814 -288.20614008 141.5420814 -287 140 C-285.35 140.66 -283.7 141.32 -282 142 C-280.02 140.35 -278.04 138.7 -276 137 C-275.34 137.66 -274.68 138.32 -274 139 C-274.66 137.68 -275.32 136.36 -276 135 C-273.66666667 135 -271.33333333 135 -269 135 C-266.32601524 133.06102121 -266.32601524 133.06102121 -264 131 C-264 131.99 -264 132.98 -264 134 C-262.68 133.01 -261.36 132.02 -260 131 C-259.34 131.33 -258.68 131.66 -258 132 C-256.14334973 130.23618225 -254.64549318 128.51550734 -253.125 126.4375 C-250.82455753 123.79875716 -249.39596929 122.78368522 -246 122 C-245.01 122.66 -244.02 123.32 -243 124 C-242.938125 123.401875 -242.87625 122.80375 -242.8125 122.1875 C-241.65729457 119.07733153 -239.93122813 118.39582292 -237 117 C-236.01 117 -235.02 117 -234 117 C-233.34 116.67 -232.68 116.34 -232 116 C-230 115 -230 115 -227 115 C-223.47943488 113.51353917 -220.87875335 111.89854872 -217.9375 109.4375 C-215.22822835 107.18938097 -213.37596307 105.88841134 -210 105 C-207.6875 105.375 -207.6875 105.375 -206 106 C-206.66 104.68 -207.32 103.36 -208 102 C-203.54049652 99.50267805 -198.79690503 98.24189106 -193.75 97.5625 C-190.71708797 96.94213163 -190.01726696 96.20938762 -188 94 C-187.01 94 -186.02 94 -185 94 C-184.071875 92.9790625 -184.071875 92.9790625 -183.125 91.9375 C-182.42375 91.298125 -181.7225 90.65875 -181 90 C-178.25 90.25 -178.25 90.25 -176 91 C-176.33 90.01 -176.66 89.02 -177 88 C-176.0925 87.401875 -175.185 86.80375 -174.25 86.1875 C-171.77098519 84.51893234 -169.36682089 82.82063145 -167 81 C-164.53199953 82.15173355 -162.95216435 83.04783565 -161 85 C-160.731875 84.360625 -160.46375 83.72125 -160.1875 83.0625 C-159 81 -159 81 -156 80 C-155.34 80.66 -154.68 81.32 -154 82 C-153.90754997 80.53774984 -153.90754997 80.53774984 -156 78 C-152.375 75 -152.375 75 -149 75 C-148.01 74.67 -147.02 74.34 -146 74 C-145.67 73.01 -145.34 72.02 -145 71 C-144.01 71.33 -143.02 71.66 -142 72 C-140.64664105 71.02727325 -139.31337396 70.0260734 -138 69 C-137.01 69 -136.02 69 -135 69 C-134.01 68.67 -133.02 68.34 -132 68 C-132 68.99 -132 69.98 -132 71 C-131.01 68.69 -130.02 66.38 -129 64 C-128.01 64 -127.02 64 -126 64 C-124 67.75 -124 67.75 -124 70 C-123.34 69.67 -122.68 69.34 -122 69 C-122.99 65.535 -122.99 65.535 -124 62 C-113.92190889 54.55097614 -113.92190889 54.55097614 -108 53 C-107.278125 52.62875 -106.55625 52.2575 -105.8125 51.875 C-104 51 -104 51 -101 51 C-98.9866347 49.68693567 -96.98768394 48.35162508 -95 47 C-93.35008418 46.29289322 -91.68437744 45.62056011 -90 45 C-89.29875 44.608125 -88.5975 44.21625 -87.875 43.8125 C-86 43 -86 43 -83 44 C-82.34 44.99 -81.68 45.98 -81 47 C-81.99 47 -82.98 47 -84 47 C-83.01 47.33 -82.02 47.66 -81 48 C-80.06934867 45.39417629 -79.85082593 44.35801776 -80.9375 41.75 C-81.288125 41.1725 -81.63875 40.595 -82 40 C-76.92272236 36.61514824 -72.95069187 37 -67 37 C-67.99 35.02 -67.99 35.02 -69 33 C-67.35 32.34 -65.7 31.68 -64 31 C-63.01 32.485 -63.01 32.485 -62 34 C-61.401875 33.525625 -60.80375 33.05125 -60.1875 32.5625 C-58 31 -58 31 -55 30 C-54.0409375 28.7625 -54.0409375 28.7625 -53.0625 27.5 C-51 25 -51 25 -48.875 24.125 C-47 24 -47 24 -45 25 C-44.7525 24.38125 -44.505 23.7625 -44.25 23.125 C-42.74208214 20.56153963 -41.64413754 20.25798285 -39 19 C-36.95002455 17.66613882 -34.92345881 16.30293259 -32.90234375 14.92578125 C-31 14 -31 14 -28 15 C-25.95436401 13.73779907 -23.95597184 12.39712274 -22 11 C-19.22649768 9.41514153 -18.26347266 9 -15 9 C-14.175 8.34 -13.35 7.68 -12.5 7 C-10 5 -10 5 -7 5 C-5.29749607 3.71274093 -3.62935241 2.37868281 -2 1 C-1.34 0.67 -0.68 0.34 0 0 Z M-76 38 C-76 39.65 -76 41.3 -76 43 C-75.01 42.01 -74.02 41.02 -73 40 C-73.33 39.34 -73.66 38.68 -74 38 C-74.66 38 -75.32 38 -76 38 Z " fill="#4668FF" transform="translate(489,348)"/>
<path d="M0 0 C0 26.73 0 53.46 0 81 C-1.98 80.01 -1.98 80.01 -4 79 C-3.46375 79.886875 -2.9275 80.77375 -2.375 81.6875 C-1 85 -1 85 -1.8125 87.6875 C-2.204375 88.450625 -2.59625 89.21375 -3 90 C-3 90.99 -3 91.98 -3 93 C-4.485 93.495 -4.485 93.495 -6 94 C-6.66 93.01 -7.32 92.02 -8 91 C-9.485 91.495 -9.485 91.495 -11 92 C-11.37125 92.9590625 -11.37125 92.9590625 -11.75 93.9375 C-13 96 -13 96 -16.4375 97.25 C-19.78491394 97.95471872 -22.60072616 98 -26 98 C-26.66 98.66 -27.32 99.32 -28 100 C-28.33 100 -28.66 100 -29 100 C-29.66 101.32 -30.32 102.64 -31 104 C-31.78375 103.814375 -32.5675 103.62875 -33.375 103.4375 C-35.97089775 102.74037734 -35.97089775 102.74037734 -38 104 C-38.78375 103.175 -39.5675 102.35 -40.375 101.5 C-42.63721264 98.77011494 -42.63721264 98.77011494 -45 99 C-44.54625 99.433125 -44.0925 99.86625 -43.625 100.3125 C-42 102 -42 102 -40 105 C-40.99 105.495 -40.99 105.495 -42 106 C-42.28875 106.804375 -42.5775 107.60875 -42.875 108.4375 C-44.19888557 111.45301712 -45.04147005 111.79809721 -48 113 C-48.66 113.66 -49.32 114.32 -50 115 C-50.99 114.67 -51.98 114.34 -53 114 C-53 113.01 -53 112.02 -53 111 C-53.99 111.495 -53.99 111.495 -55 112 C-55.65555119 114.52733235 -55.65555119 114.52733235 -56 117 C-58.475 117.495 -58.475 117.495 -61 118 C-60.67 118.99 -60.34 119.98 -60 121 C-62.07553648 121.5534764 -63.84365964 122 -66 122 C-66.99 122.99 -66.99 122.99 -68 124 C-69.32 124 -70.64 124 -72 124 C-74.22743787 125.41977909 -74.22743787 125.41977909 -76 127 C-76.66 125.68 -77.32 124.36 -78 123 C-78.33 123.99 -78.66 124.98 -79 126 C-79.495 126.495 -79.495 126.495 -80 127 C-80.495 127.99 -80.495 127.99 -81 129 C-81.66 129 -82.32 129 -83 129 C-83.33 129.99 -83.66 130.98 -84 132 C-84.66 132 -85.32 132 -86 132 C-86.12375 130.865625 -86.2475 129.73125 -86.375 128.5625 C-86.684375 126.7990625 -86.684375 126.7990625 -87 125 C-87.66 124.67 -88.32 124.34 -89 124 C-89.09258084 112.31733761 -89.16370445 100.63476215 -89.20724869 88.95180798 C-89.22814521 83.52722934 -89.25650068 78.10290123 -89.30175781 72.6784668 C-89.34514169 67.44595685 -89.36912154 62.21368823 -89.37950897 56.98101234 C-89.38691375 54.98224397 -89.40137316 52.98348917 -89.42292023 50.98482323 C-89.45185508 48.19035421 -89.45596017 45.39688904 -89.45410156 42.60229492 C-89.46848267 41.77151428 -89.48286377 40.94073364 -89.49768066 40.08477783 C-89.45720979 34.48078487 -89.45720979 34.48078487 -87.12649536 32.02989197 C-84.66819574 30.83930248 -82.23820214 29.81805581 -79.6640625 28.8984375 C-78.55885254 28.49882812 -77.45364258 28.09921875 -76.31494141 27.6875 C-75.09726074 27.254375 -73.87958008 26.82125 -72.625 26.375 C-70.64886347 25.66305664 -68.67371072 24.94842635 -66.69857788 24.23370361 C-65.2476987 23.70882094 -63.79653691 23.18471893 -62.34512329 22.66131592 C-52.78442682 19.21013032 -43.25476906 15.67466125 -33.72235107 12.14630127 C-30.66238364 11.01383534 -27.60200645 9.88248374 -24.54150391 8.75146484 C-22.6240129 8.04267173 -20.70653199 7.33385131 -18.7890625 6.625 C-17.91926758 6.30350983 -17.04947266 5.98201965 -16.15332031 5.65078735 C-15.32880371 5.34579315 -14.50428711 5.04079895 -13.65478516 4.7265625 C-12.87468079 4.43813477 -12.09457642 4.14970703 -11.29083252 3.85253906 C-9.00699174 3.00260199 -6.72889888 2.13831845 -4.45068359 1.2734375 C-1 0 -1 0 0 0 Z M-85 125 C-84 127 -84 127 -84 127 Z " fill="#2A8CFE" transform="translate(375,151)"/>
<path d="M0 0 C1.82608032 1.29222107 1.82608032 1.29222107 3.63525391 2.94311523 C4.32903137 3.57547089 5.02280884 4.20782654 5.73760986 4.85934448 C9.99167607 8.88450802 14.17803692 12.97332736 18.3359375 17.09765625 C18.81153736 17.56918058 19.28713722 18.04070492 19.7771492 18.52651787 C22.28516935 21.0138713 24.79004043 23.50434776 27.29248047 25.99731445 C29.86631521 28.56000838 32.45163877 31.11078944 35.03957176 33.65923405 C37.04169603 35.63519697 39.03486705 37.62001059 41.02574539 39.6072979 C42.43409895 41.00845484 43.85202386 42.39997018 45.27011108 43.79127502 C46.12505157 44.64914108 46.97999207 45.50700714 47.86083984 46.39086914 C48.61392426 47.13808731 49.36700867 47.88530548 50.14291382 48.65516663 C52.66231438 51.83626537 53.89327055 55.06463933 54.1171875 59.125 C53.3334501 65.19264436 50.82627087 70.05123292 46 74 C45.34 74 44.68 74 44 74 C44 74.66 44 75.32 44 76 C43.34 76 42.68 76 42 76 C42 76.66 42 77.32 42 78 C41.34 78 40.68 78 40 78 C40 78.66 40 79.32 40 80 C39.34 80 38.68 80 38 80 C38 80.66 38 81.32 38 82 C37.34 82 36.68 82 36 82 C36 82.66 36 83.32 36 84 C35.34 84 34.68 84 34 84 C34 84.66 34 85.32 34 86 C33.34 86 32.68 86 32 86 C32 86.66 32 87.32 32 88 C31.34 88 30.68 88 30 88 C30 88.66 30 89.32 30 90 C29.34 90 28.68 90 28 90 C28 90.66 28 91.32 28 92 C26.625 93.625 26.625 93.625 25 95 C24.34 95 23.68 95 23 95 C23 95.66 23 96.32 23 97 C21.34997172 98.35386936 19.6825613 99.68678142 18 101 C17.67 101.66 17.34 102.32 17 103 C16.34 103 15.68 103 15 103 C15 103.66 15 104.32 15 105 C13.33784732 106.33895632 11.67036393 107.67130142 10 109 C9.360625 109.825 8.72125 110.65 8.0625 111.5 C4.57912469 115.72227311 1.01890455 118.07161712 -4.375 119 C-9.37189636 119.33705878 -13.06691595 118.08964616 -17 115 C-20.05091822 111.59672221 -20.91875177 108.56873764 -21.5625 104.0625 C-21.03491536 95.2170159 -13.13274178 88.75088769 -7.1875 83 C-6.39923828 82.22527344 -5.61097656 81.45054687 -4.79882812 80.65234375 C-2.87260283 78.76114073 -0.9397037 76.87735951 1 75 C0.13635834 74.99413376 -0.72728333 74.98826752 -1.61709595 74.98222351 C-9.76815219 74.92424714 -17.91893585 74.85214206 -26.06972694 74.76428509 C-30.25984386 74.7196152 -34.4498643 74.68035177 -38.64013672 74.65356445 C-42.6862907 74.62749751 -46.73207279 74.58707152 -50.77799606 74.53681374 C-52.3192519 74.52016786 -53.86057202 74.50863939 -55.40190506 74.50238609 C-57.56601925 74.4927198 -59.72918693 74.46463264 -61.89306641 74.43237305 C-63.12328522 74.42126999 -64.35350403 74.41016693 -65.6210022 74.39872742 C-70.66773605 73.80320434 -73.91610392 72.20107403 -77.3125 68.4375 C-80.43608143 63.92566016 -80.49092552 60.39108956 -80 55 C-78.22907026 49.78559576 -75.75341032 47.67379331 -71 45 C-67.59190446 43.86396815 -64.92003549 43.84051047 -61.32543945 43.79467773 C-60.652005 43.78477814 -59.97857056 43.77487854 -59.284729 43.76467896 C-57.06094873 43.73311611 -54.8371471 43.70832725 -52.61328125 43.68359375 C-51.07056628 43.66301971 -49.5278569 43.64202312 -47.9851532 43.62062073 C-43.92622398 43.5654465 -39.86724427 43.51601675 -35.80822754 43.46777344 C-31.66572582 43.41752446 -27.52329734 43.36185613 -23.38085938 43.30664062 C-15.25396819 43.19911591 -7.1270157 43.09765834 1 43 C0.44014404 42.45585449 -0.11971191 41.91170898 -0.6965332 41.35107422 C-3.24314156 38.86705491 -5.77785032 36.37121817 -8.3125 33.875 C-9.19357422 33.0190625 -10.07464844 32.163125 -10.98242188 31.28125 C-11.82998047 30.44335938 -12.67753906 29.60546875 -13.55078125 28.7421875 C-14.72120972 27.59532471 -14.72120972 27.59532471 -15.9152832 26.42529297 C-19.05850032 22.76857452 -20.81694098 19.41216961 -21.4375 14.625 C-20.80394216 9.37552073 -19.45866109 5.03130917 -15.26953125 1.5703125 C-10.18543135 -1.37257966 -5.56438938 -1.84213487 0 0 Z " fill="#FDF7F8" transform="translate(187,182)"/>
<path d="M0 0 C19.65638683 8.60235747 34.82041774 44.08863635 43.625 62.25 C44.38889038 63.82116577 44.38889038 63.82116577 45.16821289 65.42407227 C51.83152195 79.50543414 51.83152195 79.50543414 50 85 C49.34 85 48.68 85 48 85 C47.34 83.68 46.68 82.36 46 81 C44.66666667 84 44.66666667 84 46 87 C44.35 87 42.7 87 41 87 C40.67 85.68 40.34 84.36 40 83 C37.37098712 84.52206009 35.15634036 85.84365964 33 88 C32.59952556 90.32275177 32.2602896 92.65739357 32 95 C31.67 94.01 31.34 93.02 31 92 C30.01 92 29.02 92 28 92 C27.01 93.98 27.01 93.98 26 96 C26 93 26 93 27 90 C23.84012675 90 22.63965207 90.38214873 20 92 C19.34 92.99 18.68 93.98 18 95 C18.66 96.32 19.32 97.64 20 99 C19.236875 98.505 18.47375 98.01 17.6875 97.5 C15.07636249 95.75631692 15.07636249 95.75631692 12 96 C9.85146564 96.53195637 9.85146564 96.53195637 8 98 C6.70768358 101.04199472 6.70768358 101.04199472 6 104 C5.01 103.01 5.01 103.01 4 102 C3.01 102 2.02 102 1 102 C0.54625 102.474375 0.0925 102.94875 -0.375 103.4375 C-2.46894313 105.45090685 -4.18824386 105.49532582 -7 106 C-7.66 106.66 -8.32 107.32 -9 108 C-11.32176742 109.27322729 -13.47587248 110.15862416 -16 111 C-16.33 111.99 -16.66 112.98 -17 114 C-18.485 113.505 -18.485 113.505 -20 113 C-20.99 113.99 -20.99 113.99 -22 115 C-22.66 114.67 -23.32 114.34 -24 114 C-24.66 115.65 -25.32 117.3 -26 119 C-26.99 119 -27.98 119 -29 119 C-29 118.34 -29 117.68 -29 117 C-29.4125 117.495 -29.825 117.99 -30.25 118.5 C-32 120 -32 120 -36 120 C-38.6524852 122.6524852 -38.25872789 123.88793451 -38.2784729 127.59341431 C-38.28963638 128.78255936 -38.30079987 129.97170441 -38.31230164 131.19688416 C-38.31446182 132.50814774 -38.31662201 133.81941132 -38.31884766 135.17041016 C-38.32814197 136.55985602 -38.33830989 137.94929628 -38.34928894 139.33872986 C-38.37665926 143.11740461 -38.39175905 146.89604194 -38.40471697 150.67478991 C-38.42031687 154.621321 -38.44711703 158.56777531 -38.4727478 162.51425171 C-38.51959138 169.990467 -38.55630841 177.46669665 -38.58942068 184.94298398 C-38.62760274 193.4531939 -38.67702309 201.96332681 -38.72740483 210.47347188 C-38.83080763 227.98225894 -38.92004078 245.49109051 -39 263 C-39.33 263 -39.66 263 -40 263 C-40.00146656 261.91147295 -40.00293312 260.8229459 -40.00444412 259.70143318 C-40.04105683 233.2018343 -40.10052978 206.70236164 -40.18390274 180.20286751 C-40.22369354 167.38784707 -40.25608589 154.57288804 -40.27099609 141.7578125 C-40.28401232 130.58677272 -40.31097648 119.41586807 -40.35461307 108.2449044 C-40.37722827 102.33124045 -40.39291063 96.41774317 -40.39188385 90.50403214 C-40.39113729 84.93406158 -40.40908698 79.36445948 -40.44116783 73.79458427 C-40.44966309 71.75407912 -40.45141932 69.71353261 -40.44580269 67.6730175 C-40.39706583 51.62788921 -40.39706583 51.62788921 -46.875 37.1875 C-48 35 -48 35 -47.1875 32.1875 C-46.795625 31.465625 -46.40375 30.74375 -46 30 C-45.34 30.66 -44.68 31.32 -44 32 C-44.33 32.66 -44.66 33.32 -45 34 C-44.34 34.33 -43.68 34.66 -43 35 C-40.77260299 33.93798263 -40.77260299 33.93798263 -38 32 C-37.67 32.33 -37.34 32.66 -37 33 C-36.79375 32.21625 -36.5875 31.4325 -36.375 30.625 C-35 28 -35 28 -32.0625 26.6875 C-29 26 -29 26 -26 26 C-25.34 25.67 -24.68 25.34 -24 25 C-23.34 24.67 -22.68 24.34 -22 24 C-20.73854232 21.63813861 -20.73854232 21.63813861 -20 19 C-20.33 18.01 -20.66 17.02 -21 16 C-20.34 15.34 -19.68 14.68 -19 14 C-18.34 16.31 -17.68 18.62 -17 21 C-16.01 20.34 -15.02 19.68 -14 19 C-14 18.01 -14 17.02 -14 16 C-13.68911632 14.32900023 -13.35919668 12.66128463 -13 11 C-11 14.75 -11 14.75 -11 17 C-8.37812506 15.95125002 -7.20628639 15.35068687 -5.75 12.875 C-5.5025 12.25625 -5.255 11.6375 -5 11 C-4.01 12.32 -3.02 13.64 -2 15 C1.09756244 12.61149897 1.09756244 12.61149897 4 10 C3.34 9.67 2.68 9.34 2 9 C3 6 3 6 4 5 C2.68 4.34 1.36 3.68 0 3 C0 2.01 0 1.02 0 0 Z M-33 120 C-32.67 120.66 -32.34 121.32 -32 122 C-32.66 121.67 -33.32 121.34 -34 121 C-33.67 120.67 -33.34 120.34 -33 120 Z " fill="#2B8EFE" transform="translate(445,85)"/>
<path d="M0 0 C0.99 0.66 1.98 1.32 3 2 C3 2.99 3 3.98 3 5 C3.66 3.68 4.32 2.36 5 1 C7 2 7 2 7.88208008 4.10351562 C8.87264917 7.23191539 9.85730154 10.36056617 10.8125 13.5 C11.34327148 15.23382935 11.34327148 15.23382935 11.88476562 17.00268555 C20.29601469 45.26425259 20.29601469 45.26425259 20 58 C19.67 57.34 19.34 56.68 19 56 C18.34 56 17.68 56 17 56 C17.33 56.99 17.66 57.98 18 59 C13.5 63 13.5 63 9 63 C6.40374131 63.92612419 6.40374131 63.92612419 3.8125 65.25 C2.93207031 65.66765625 2.05164063 66.0853125 1.14453125 66.515625 C-1.41420486 68.28669917 -1.39378399 69.07486062 -2 72 C-5.48225657 73.9420277 -7.8019429 75.15974095 -11.8125 74.625 C-12.534375 74.41875 -13.25625 74.2125 -14 74 C-14.99 74.495 -14.99 74.495 -16 75 C-16.495 76.485 -16.495 76.485 -17 78 C-18.485 78.495 -18.485 78.495 -20 79 C-20.99 78.01 -20.99 78.01 -22 77 C-22.61875 77.825 -23.2375 78.65 -23.875 79.5 C-24.57625 80.325 -25.2775 81.15 -26 82 C-26.66 82 -27.32 82 -28 82 C-28.33 82.66 -28.66 83.32 -29 84 C-31.33333333 84 -33.66666667 84 -36 84 C-36.33 84.66 -36.66 85.32 -37 86 C-37.99 85.67 -38.98 85.34 -40 85 C-40.680625 85.7425 -41.36125 86.485 -42.0625 87.25 C-45.05458023 90.25062904 -48.23014451 92.07950758 -52 94 C-52.66 94 -53.32 94 -54 94 C-54.639375 94.33 -55.27875 94.66 -55.9375 95 C-58 96 -58 96 -61 96 C-62.485 96.495 -62.485 96.495 -64 97 C-64.33 97.99 -64.66 98.98 -65 100 C-66.32 99.34 -67.64 98.68 -69 98 C-68.01 99.32 -67.02 100.64 -66 102 C-70.75 105 -70.75 105 -73 105 C-74.82908618 106.00513462 -76.57750532 107.11126924 -78.34375 108.22265625 C-78.8903125 108.47917969 -79.436875 108.73570312 -80 109 C-80.66 108.67 -81.32 108.34 -82 108 C-82 108.66 -82 109.32 -82 110 C-82.66 110 -83.32 110 -84 110 C-84.09268792 101.20305508 -84.16375846 92.40627829 -84.20724869 83.60895157 C-84.22812211 79.5239563 -84.25643463 75.43929515 -84.30175781 71.35449219 C-84.3452253 67.41225655 -84.36913895 63.47034223 -84.37950897 59.52788544 C-84.38689882 58.02395316 -84.40132967 56.52003843 -84.42292023 55.01624298 C-84.45196812 52.90920541 -84.45595571 50.80349471 -84.45410156 48.69628906 C-84.46298401 47.49715881 -84.47186646 46.29802856 -84.48101807 45.06256104 C-84 42 -84 42 -82.22161865 39.58148193 C-80 38 -80 38 -76 38 C-75.01 37.34 -74.02 36.68 -73 36 C-72.67 36.99 -72.34 37.98 -72 39 C-71.01 37.02 -70.02 35.04 -69 33 C-67 33 -65 33 -63 33 C-62.525625 32.360625 -62.05125 31.72125 -61.5625 31.0625 C-59.6927122 28.5943801 -58.93700552 28.60467761 -56 28 C-54.32580562 27.0126546 -52.65948148 26.01187895 -51 25 C-50.13375 24.67 -49.2675 24.34 -48.375 24 C-45.95769855 22.98218886 -44.69737101 21.96537696 -43 20 C-40 21 -40 21 -39 22 C-38.7525 21.21625 -38.505 20.4325 -38.25 19.625 C-37 17 -37 17 -35.0625 15.6875 C-32.23575804 14.74525268 -30.52795073 14.75865109 -27.8125 16 C-27.214375 16.33 -26.61625 16.66 -26 17 C-26.66 16.01 -27.32 15.02 -28 14 C-25.75 11.4375 -25.75 11.4375 -23 9 C-20.875 9.1875 -20.875 9.1875 -19 10 C-18.01 10 -17.02 10 -16 10 C-16.66 10.33 -17.32 10.66 -18 11 C-18 11.99 -18 12.98 -18 14 C-17.67 13.34 -17.34 12.68 -17 12 C-16.01 11.67 -15.02 11.34 -14 11 C-13.71125 10.21625 -13.4225 9.4325 -13.125 8.625 C-11.70674678 5.31574249 -10.19992562 4.51996467 -7 3 C-6.34 3 -5.68 3 -5 3 C-4.505 4.485 -4.505 4.485 -4 6 C-3.01 6.495 -3.01 6.495 -2 7 C-0.8509288 5.0745356 -0.8509288 5.0745356 -1 3 C-0.67 2.01 -0.34 1.02 0 0 Z M-78 40 C-78.33 40.66 -78.66 41.32 -79 42 C-78.34 42 -77.68 42 -77 42 C-77.33 41.34 -77.66 40.68 -78 40 Z " fill="#3282FF" transform="translate(490,165)"/>
<path d="M0 0 C0.70744354 0.00141495 1.41488708 0.0028299 2.14376831 0.00428772 C4.40578419 0.00989025 6.66770148 0.02244307 8.9296875 0.03515625 C10.46223815 0.04017093 11.99479036 0.04473389 13.52734375 0.04882812 C17.28649638 0.05986048 21.04557522 0.07712673 24.8046875 0.09765625 C22.19659738 2.70574637 20.98634786 2.38537032 17.3515625 2.4765625 C16.25714844 2.51072266 15.16273438 2.54488281 14.03515625 2.58007812 C12.31232422 2.6197168 12.31232422 2.6197168 10.5546875 2.66015625 C8.29938269 2.72045166 6.04416572 2.78414734 3.7890625 2.8515625 C2.28424316 2.88745483 2.28424316 2.88745483 0.74902344 2.92407227 C-3.41601769 3.1696232 -7.23589577 3.77785067 -11.1953125 5.09765625 C-8.65179371 -0.53442108 -5.73783499 -0.04294222 0 0 Z " fill="#2FA5FE" transform="translate(237.1953125,135.90234375)"/>
<path d="M0 0 C0.495 0.680625 0.99 1.36125 1.5 2.0625 C4.67198797 5.78958586 8.26389901 8.85333242 12 12 C10.68 12.99 9.36 13.98 8 15 C5 10.25 5 10.25 5 8 C4.01 8 3.02 8 2 8 C1.67 7.01 1.34 6.02 1 5 C0.34 4.67 -0.32 4.34 -1 4 C-0.67 2.68 -0.34 1.36 0 0 Z M-3 4 C-2.01 4.495 -2.01 4.495 -1 5 C-1.99 5.495 -1.99 5.495 -3 6 C-3 5.34 -3 4.68 -3 4 Z " fill="#4086FE" transform="translate(200,357)"/>
<path d="M0 0 C0.33 0 0.66 0 1 0 C1 4.29 1 8.58 1 13 C0.67 12.34 0.34 11.68 0 11 C-1.65 11 -3.3 11 -5 11 C-4.48847632 7.21472479 -3.79154158 5.55891312 -1 3 C-0.67 2.01 -0.34 1.02 0 0 Z " fill="#348BFE" transform="translate(255,280)"/>
<path d="M0 0 C0.33 0 0.66 0 1 0 C1.33 6.6 1.66 13.2 2 20 C1.01 19.67 0.02 19.34 -1 19 C-1 18.01 -1 17.02 -1 16 C-1.66 16 -2.32 16 -3 16 C-3.33 16.66 -3.66 17.32 -4 18 C-4.33 17.34 -4.66 16.68 -5 16 C-4.67 15.01 -4.34 14.02 -4 13 C-3.34 13 -2.68 13 -2 13 C-0.71553081 10.43106162 -0.67022856 8.23423663 -0.4375 5.375 C-0.35371094 4.37210938 -0.26992187 3.36921875 -0.18359375 2.3359375 C-0.12300781 1.56507813 -0.06242188 0.79421875 0 0 Z " fill="#40A7FE" transform="translate(195,138)"/>
<path d="M0 0 C1.32 0.33 2.64 0.66 4 1 C3.67 1.99 3.34 2.98 3 4 C3.99 4 4.98 4 6 4 C6 4.66 6 5.32 6 6 C7.32 6.33 8.64 6.66 10 7 C9.01 7.99 8.02 8.98 7 10 C5.82438854 8.90536178 4.6597511 7.79892814 3.5 6.6875 C2.52546875 5.76517578 2.52546875 5.76517578 1.53125 4.82421875 C0 3 0 3 0 0 Z " fill="#379EFE" transform="translate(207,199)"/>
<path d="M0 0 C2.475 0.495 2.475 0.495 5 1 C5 5.95 5 10.9 5 16 C4.67 16 4.34 16 4 16 C3.96261719 15.39671875 3.92523438 14.7934375 3.88671875 14.171875 C3.50294663 9.50640998 3.19155881 6.60784909 0 3 C0 2.01 0 1.02 0 0 Z " fill="#4A94FE" transform="translate(191,324)"/>
<path d="M0 0 C0.33 0 0.66 0 1 0 C1.33 2.64 1.66 5.28 2 8 C2.9590625 8.1546875 2.9590625 8.1546875 3.9375 8.3125 C4.618125 8.539375 5.29875 8.76625 6 9 C6.33 9.99 6.66 10.98 7 12 C2.25 13.125 2.25 13.125 0 12 C0 8.04 0 4.08 0 0 Z " fill="#2396FF" transform="translate(0,235)"/>
<path d="M0 0 C0 0.99 0 1.98 0 3 C-0.66 3 -1.32 3 -2 3 C-2.66 3.66 -3.32 4.32 -4 5 C-4.99 4.34 -5.98 3.68 -7 3 C-7.66 3 -8.32 3 -9 3 C-9 2.34 -9 1.68 -9 1 C-2.25 -1.125 -2.25 -1.125 0 0 Z " fill="#4979FE" transform="translate(312,403)"/>
<path d="M0 0 C0.99 1.32 1.98 2.64 3 4 C1.35 5.65 -0.3 7.3 -2 9 C-2.66 8.67 -3.32 8.34 -4 8 C-3.2884375 7.13375 -3.2884375 7.13375 -2.5625 6.25 C-1.0515133 4.07417916 -0.45963849 2.57397552 0 0 Z " fill="#3C95FE" transform="translate(240,243)"/>
<path d="M0 0 C2.31361802 3.47042703 2.51020728 4.91834173 2 9 C0.68 9.99 -0.64 10.98 -2 12 C-1.34 8.04 -0.68 4.08 0 0 Z " fill="#2098FF" transform="translate(6,197)"/>
<path d="M0 0 C0.33 0 0.66 0 1 0 C1 3.63 1 7.26 1 11 C-1.76223278 8.23776722 -1.57856291 5.79293383 -2 2 C-1.34 2 -0.68 2 0 2 C0 1.34 0 0.68 0 0 Z " fill="#4591FE" transform="translate(255,294)"/>
<path d="M0 0 C0.33 0 0.66 0 1 0 C1 2.97 1 5.94 1 9 C-0.32 8.34 -1.64 7.68 -3 7 C-2.690625 6.401875 -2.38125 5.80375 -2.0625 5.1875 C-0.89790296 2.91043228 -0.89790296 2.91043228 0 0 Z " fill="#4091FE" transform="translate(255,280)"/>
<path d="M0 0 C1.98 0.99 3.96 1.98 6 3 C5.01 3.495 5.01 3.495 4 4 C3.67 4.66 3.34 5.32 3 6 C1.68 5.01 0.36 4.02 -1 3 C-0.67 2.01 -0.34 1.02 0 0 Z " fill="#3D8AFE" transform="translate(216,313)"/>
</svg>
