<?xml version="1.0" encoding="UTF-8"?>
<svg version="1.1" xmlns="http://www.w3.org/2000/svg" width="64" height="64">
<path d="M0 0 C8.04071716 5.46768767 14.35713546 11.78672485 16.953125 21.328125 C17.97008074 32.73931439 17.08780568 41.52074309 9.640625 50.578125 C3.75028057 56.89640044 -1.9995096 60.87830798 -10.81640625 61.6640625 C-22.23808647 61.92046185 -29.76998744 60.10045244 -38.2578125 52.1875 C-45.41707366 44.7468705 -47.46537447 37.63799487 -47.41040039 27.37304688 C-47.154444 17.46241552 -43.06295379 11.07888989 -36.046875 4.328125 C-26.55128048 -3.80505814 -11.27874483 -6.1129075 0 0 Z " fill="#3B1249" transform="translate(47.046875,2.671875)"/>
<path d="M0 0 C3.71088209 1.7250587 5.52886724 2.70541024 7.85546875 6.1953125 C4.13947684 6.39617693 3.0833843 6.3472562 -0.14453125 4.1953125 C-4.21916649 3.52906405 -8.38809828 3.25035156 -12.09765625 5.24609375 C-14.89939228 7.55140568 -16.97144321 9.50104686 -17.34765625 13.18359375 C-17.46951665 19.22583874 -16.62527757 22.42832622 -12.51953125 27.0078125 C-8.86565336 28.83475145 -5.15482955 28.73896209 -1.14453125 28.1953125 C0.19957412 27.55063974 1.53436186 26.8858911 2.85546875 26.1953125 C5.60546875 26.0703125 5.60546875 26.0703125 7.85546875 26.1953125 C3.57984416 30.70847179 1.30696864 32.90930418 -4.89453125 33.6328125 C-9.91762293 33.4737947 -13.41972289 31.47536762 -17.14453125 28.1953125 C-20.29813473 24.61410176 -22.40966188 21.01566802 -22.76953125 16.1953125 C-22.3482262 10.55204223 -19.49336375 6.22474309 -15.27734375 2.58203125 C-10.27228858 -0.87476756 -5.95586649 -2.234806 0 0 Z " fill="#EBE6EC" transform="translate(37.14453125,15.8046875)"/>
<path d="M0 0 C3.37503669 1.1858237 5.64722731 2.27573689 8 5 C6.49776416 9.20626034 3.71449966 10.73900021 0 13 C0 11.35 0 9.7 0 8 C-4.29 8 -8.58 8 -13 8 C-13 6.68 -13 5.36 -13 4 C-8.71 4 -4.42 4 0 4 C0 2.68 0 1.36 0 0 Z " fill="#DED7E0" transform="translate(43,26)"/>
</svg>
