<?xml version="1.0" encoding="UTF-8"?>
<svg version="1.1" xmlns="http://www.w3.org/2000/svg" width="64" height="64">
<path d="M0 0 C8.04071716 5.46768767 14.35713546 11.78672485 16.953125 21.328125 C17.97008074 32.73931439 17.08780568 41.52074309 9.640625 50.578125 C3.75028057 56.89640044 -1.9995096 60.87830798 -10.81640625 61.6640625 C-22.23808647 61.92046185 -29.76998744 60.10045244 -38.2578125 52.1875 C-45.41707366 44.7468705 -47.46537447 37.63799487 -47.41040039 27.37304688 C-47.154444 17.46241552 -43.06295379 11.07888989 -36.046875 4.328125 C-26.55128048 -3.80505814 -11.27874483 -6.1129075 0 0 Z " fill="#EC75FF" transform="translate(47.046875,2.671875)"/>
<path d="M0 0 C3.95691113 2.10184312 6.57963417 4.59323697 9.06640625 8.27734375 C9.47890625 8.87546875 9.89140625 9.47359375 10.31640625 10.08984375 C11.71545598 14.17040546 11.84937534 18.18237239 10.34375 22.2109375 C8.24190688 26.16784863 5.75051303 28.79057167 2.06640625 31.27734375 C1.46828125 31.68984375 0.87015625 32.10234375 0.25390625 32.52734375 C-3.82665546 33.92639348 -7.83862239 34.06031284 -11.8671875 32.5546875 C-15.82409863 30.45284438 -18.44682167 27.96145053 -20.93359375 24.27734375 C-21.34609375 23.67921875 -21.75859375 23.08109375 -22.18359375 22.46484375 C-23.58264348 18.38428204 -23.71656284 14.37231511 -22.2109375 10.34375 C-20.10909438 6.38683887 -17.61770053 3.76411583 -13.93359375 1.27734375 C-13.33546875 0.86484375 -12.73734375 0.45234375 -12.12109375 0.02734375 C-8.04053204 -1.37170598 -4.02856511 -1.50562534 0 0 Z " fill="#FEFAFF" transform="translate(37.93359375,15.72265625)"/>
<path d="M0 0 C4.55555556 0.55555556 4.55555556 0.55555556 6 2 C6.38021934 6.3091525 5.2834998 9.9088444 4 14 C2.68 14 1.36 14 0 14 C-2.47120419 6.12303665 -2.47120419 6.12303665 -2 2 C-1.34 1.34 -0.68 0.68 0 0 Z " fill="#EE86FF" transform="translate(30,25)"/>
</svg>
