<?xml version="1.0" encoding="UTF-8"?>
<svg version="1.1" xmlns="http://www.w3.org/2000/svg" width="512" height="512">
<path d="M0 0 C1.01803711 0.19335938 2.03607422 0.38671875 3.08496094 0.5859375 C53.97519307 10.58802134 98.87252771 35.16691954 136 71 C136.94101562 71.89976563 137.88203125 72.79953125 138.8515625 73.7265625 C144.72504639 79.45457311 149.93543947 85.55182242 155 92 C155.79148437 92.98613281 156.58296875 93.97226563 157.3984375 94.98828125 C175.10251036 117.41157858 188.97063454 142.88507843 198 170 C198.27247559 170.80920898 198.54495117 171.61841797 198.82568359 172.45214844 C202.06719326 182.22936903 204.60334585 192.11510751 206.75 202.1875 C206.94875732 203.11216064 207.14751465 204.03682129 207.35229492 204.98950195 C210.57634017 220.85821673 211.37711905 236.47403978 211.3125 252.625 C211.31034485 253.59588562 211.3081897 254.56677124 211.30596924 255.56707764 C211.25492827 269.90251026 210.87221848 283.91025803 208 298 C207.79600586 299.02609375 207.59201172 300.0521875 207.38183594 301.109375 C198.90748757 342.75333436 181.77540203 380.93620923 155 414 C154.55994629 414.54446777 154.11989258 415.08893555 153.66650391 415.64990234 C142.18825137 429.72173929 129.42280936 442.93680647 115 454 C114.06929688 454.75925781 113.13859375 455.51851563 112.1796875 456.30078125 C102.39049585 464.14965998 91.78703526 470.61917978 81 477 C80.34837891 477.38929688 79.69675781 477.77859375 79.02539062 478.1796875 C42.26993871 499.8821297 -1.71716185 509.48667441 -44.0625 509.3125 C-45.00809784 509.31034485 -45.95369568 509.3081897 -46.927948 509.30596924 C-61.46566094 509.2528923 -75.68951522 508.77512299 -90 506 C-91.01658691 505.80664062 -92.03317383 505.61328125 -93.08056641 505.4140625 C-143.97279797 495.41310236 -188.87122974 470.83433318 -226 435 C-226.94101563 434.10023438 -227.88203125 433.20046875 -228.8515625 432.2734375 C-234.72504639 426.54542689 -239.93543947 420.44817758 -245 414 C-245.79148438 413.01386719 -246.58296875 412.02773438 -247.3984375 411.01171875 C-265.10251036 388.58842142 -278.97063454 363.11492157 -288 336 C-288.27247559 335.19079102 -288.54495117 334.38158203 -288.82568359 333.54785156 C-292.06019772 323.79173129 -294.59882613 313.9237 -296.75 303.875 C-296.94875732 302.95871826 -297.14751465 302.04243652 -297.35229492 301.09838867 C-300.57792887 285.27715882 -301.38085755 269.48252368 -301.3125 253.375 C-301.31034485 252.45557617 -301.3081897 251.53615234 -301.30596924 250.58886719 C-301.25205258 236.21275492 -300.72876919 222.15301847 -298 208 C-297.80664062 206.98196289 -297.61328125 205.96392578 -297.4140625 204.91503906 C-287.41197866 154.02480693 -262.83308046 109.12747229 -227 72 C-226.10023438 71.05898437 -225.20046875 70.11796875 -224.2734375 69.1484375 C-218.54542689 63.27495361 -212.44817758 58.06456053 -206 53 C-205.01386719 52.20851562 -204.02773437 51.41703125 -203.01171875 50.6015625 C-180.5446984 32.8629686 -155.108952 19.17907726 -128 10 C-127.30970703 9.75991211 -126.61941406 9.51982422 -125.90820312 9.27246094 C-86.49418834 -4.3499837 -41.02603463 -7.91001436 0 0 Z " fill="#FEDB00" transform="translate(301,3)"/>
<path d="M0 0 C0 7.26 0 14.52 0 22 C6.6 22 13.2 22 20 22 C20 14.74 20 7.48 20 0 C25.61196894 0 30.50644408 0.19358127 35.9375 1.1875 C36.66767334 1.3205957 37.39784668 1.45369141 38.15014648 1.59082031 C64.65395905 6.66619965 89.51243208 18.42799579 110 36 C110.93714844 36.79664063 111.87429688 37.59328125 112.83984375 38.4140625 C118.01049122 42.93935096 122.71245384 47.63206026 127 53 C127.43570312 53.5451123 127.87140625 54.09022461 128.3203125 54.65185547 C135.9218803 64.24781856 142.41032589 74.10862306 148 85 C148.47953125 85.92941406 148.9590625 86.85882813 149.453125 87.81640625 C157.64033251 104.78672562 163 124.16714694 163 143 C155.74 143 148.48 143 141 143 C141 149.6 141 156.2 141 163 C148.26 163 155.52 163 163 163 C163 168.61196894 162.80641873 173.50644408 161.8125 178.9375 C161.6794043 179.66767334 161.54630859 180.39784668 161.40917969 181.15014648 C156.33380035 207.65395905 144.57200421 232.51243208 127 253 C126.20335937 253.93714844 125.40671875 254.87429688 124.5859375 255.83984375 C120.06064904 261.01049122 115.36793974 265.71245384 110 270 C109.4548877 270.43570312 108.90977539 270.87140625 108.34814453 271.3203125 C98.75218144 278.9218803 88.89137694 285.41032589 78 291 C77.07058594 291.47953125 76.14117187 291.9590625 75.18359375 292.453125 C58.21327438 300.64033251 38.83285306 306 20 306 C20 298.74 20 291.48 20 284 C13.4 284 6.8 284 0 284 C0 291.26 0 298.52 0 306 C-37.18905971 306 -71.43331689 286.6753464 -98 262 C-98.98226562 261.11634766 -98.98226562 261.11634766 -99.984375 260.21484375 C-106.96904806 253.64867383 -112.44865625 245.77188124 -118 238 C-118.67417969 237.06027344 -119.34835938 236.12054688 -120.04296875 235.15234375 C-128.42677302 222.73970906 -133.69068013 208.26023024 -138 194 C-138.29648438 193.03707031 -138.59296875 192.07414063 -138.8984375 191.08203125 C-141.60240104 181.80556226 -143 172.66389779 -143 163 C-135.74 163 -128.48 163 -121 163 C-121 156.4 -121 149.8 -121 143 C-128.26 143 -135.52 143 -143 143 C-143 105.79883023 -123.64589694 71.53497638 -99 45 C-98.41089844 44.34515625 -97.82179687 43.6903125 -97.21484375 43.015625 C-73.28107639 17.55640873 -34.7631608 0 0 0 Z " fill="#DFDFDF" transform="translate(246,103)"/>
<path d="M0 0 C0.54092285 0.39574219 1.0818457 0.79148438 1.63916016 1.19921875 C7.57604453 5.57075638 13.32014501 9.99778834 18.40234375 15.3671875 C20.13804995 17.14108772 21.97638235 18.7148374 23.875 20.3125 C49.8607537 42.91313636 66.24809605 76.5717255 76 109 C76.32742188 110.07378906 76.65484375 111.14757812 76.9921875 112.25390625 C77.79321604 115.15660247 78.42404272 118.04414375 79 121 C79.20085205 121.96873047 79.20085205 121.96873047 79.40576172 122.95703125 C89.44272513 173.08539743 77.66043481 225.93549402 49.9375 268.5 C48.64380222 270.34664924 47.33110495 272.18012996 46 274 C45.278125 275.00546875 44.55625 276.0109375 43.8125 277.046875 C39.02422001 283.50475261 33.85892734 289.49658963 28.375 295.375 C27.7658374 296.02887695 27.1566748 296.68275391 26.52905273 297.35644531 C-0.11860819 325.45332104 -37.12985304 345.25501098 -75 353 C-75.72477539 353.15098145 -76.44955078 353.30196289 -77.19628906 353.45751953 C-114.25072312 360.81286436 -155.55509148 356.37252585 -190 341 C-191.10577393 340.51273437 -191.10577393 340.51273437 -192.23388672 340.015625 C-212.22033451 331.13460033 -229.77252695 319.79453966 -245.859375 304.953125 C-247.59341258 303.37097392 -249.34699382 301.89053119 -251.1875 300.4375 C-254.85824195 297.25619031 -257.87708548 293.71039348 -261 290 C-261.76441406 289.1234375 -262.52882813 288.246875 -263.31640625 287.34375 C-297.15099956 247.94948173 -313.34319615 196.65417375 -309.79345703 144.99414062 C-307.98616133 124.15386881 -303.78003564 103.06508017 -295 84 C-294.67660645 83.27151855 -294.35321289 82.54303711 -294.02001953 81.79248047 C-285.1400798 61.79295187 -273.80271921 44.236339 -258.953125 28.140625 C-257.37097392 26.40658742 -255.89053119 24.65300618 -254.4375 22.8125 C-251.25619031 19.14175805 -247.71039348 16.12291452 -244 13 C-243.1234375 12.23558594 -242.246875 11.47117188 -241.34375 10.68359375 C-223.92948433 -4.27301346 -204.11159031 -15.17995191 -183 -24 C-182.07316406 -24.39960937 -181.14632812 -24.79921875 -180.19140625 -25.2109375 C-122.12907486 -48.43587006 -49.81416824 -36.53507403 0 0 Z M-222 51 C-222.65484375 51.58910156 -223.3096875 52.17820313 -223.984375 52.78515625 C-247.73816319 75.11568027 -263.91683065 109.82956195 -267 142 C-267 144.64 -267 147.28 -267 150 C-259.74 150 -252.48 150 -245 150 C-245 156.6 -245 163.2 -245 170 C-252.26 170 -259.52 170 -267 170 C-267 206.90041698 -247.40684984 241.72239339 -223 268 C-222.11634766 268.98226562 -222.11634766 268.98226562 -221.21484375 269.984375 C-198.88431973 293.73816319 -164.17043805 309.91683065 -132 313 C-129.36 313 -126.72 313 -124 313 C-124 305.74 -124 298.48 -124 291 C-117.4 291 -110.8 291 -104 291 C-104 298.26 -104 305.52 -104 313 C-98.38803106 313 -93.49355592 312.80641873 -88.0625 311.8125 C-87.33232666 311.6794043 -86.60215332 311.54630859 -85.84985352 311.40917969 C-59.34604095 306.33380035 -34.48756792 294.57200421 -14 277 C-13.06285156 276.20335937 -12.12570312 275.40671875 -11.16015625 274.5859375 C-5.98950878 270.06064904 -1.28754616 265.36793974 3 260 C3.43570312 259.4548877 3.87140625 258.90977539 4.3203125 258.34814453 C11.9218803 248.75218144 18.41032589 238.89137694 24 228 C24.47953125 227.07058594 24.9590625 226.14117187 25.453125 225.18359375 C33.64033251 208.21327438 39 188.83285306 39 170 C31.74 170 24.48 170 17 170 C17 163.4 17 156.8 17 150 C24.26 150 31.52 150 39 150 C39 144.38803106 38.80641873 139.49355592 37.8125 134.0625 C37.6794043 133.33232666 37.54630859 132.60215332 37.40917969 131.84985352 C32.33380035 105.34604095 20.57200421 80.48756792 3 60 C2.20335937 59.06285156 1.40671875 58.12570313 0.5859375 57.16015625 C-3.93935096 51.98950878 -8.63206026 47.28754616 -14 43 C-14.81766846 42.34644531 -14.81766846 42.34644531 -15.65185547 41.6796875 C-25.24781856 34.0781197 -35.10862306 27.58967411 -46 22 C-47.39412109 21.28070313 -47.39412109 21.28070313 -48.81640625 20.546875 C-65.78672562 12.35966749 -85.16714694 7 -104 7 C-104 14.26 -104 21.52 -104 29 C-110.6 29 -117.2 29 -124 29 C-124 21.74 -124 14.48 -124 7 C-161.18905971 7 -195.43331689 26.3246536 -222 51 Z " fill="#00263F" transform="translate(370,96)"/>
<path d="M0 0 C0 7.26 0 14.52 0 22 C3.3 22 6.6 22 10 22 C10 27.94 10 33.88 10 40 C6.7 40 3.4 40 0 40 C0.04663284 42.09447479 0.04663284 42.09447479 0.09420776 44.23126221 C0.3795183 57.46894664 0.58943264 70.7060911 0.72537041 83.94617081 C0.79711932 90.7513525 0.89464845 97.55421758 1.05615234 104.35791016 C1.21229625 110.93902296 1.29226101 117.51864704 1.3282814 124.10152435 C1.35390833 126.59735448 1.40394909 129.09307168 1.48022079 131.58786774 C1.99163517 149.02907023 -0.76408091 159.44063126 -12.18038559 172.79088593 C-15.25295951 176.5211632 -17.88508747 180.54448821 -20.5625 184.5625 C-21.61824036 186.11303656 -22.67534368 187.66264682 -23.734375 189.2109375 C-24.52618164 190.37254395 -24.52618164 190.37254395 -25.33398438 191.55761719 C-28.32176171 195.93770576 -31.31770943 200.31220507 -34.3125 204.6875 C-35.41279388 206.29555002 -36.51305754 207.90362072 -37.61328125 209.51171875 C-38.40885417 210.67447917 -39.20442708 211.83723958 -40 213 C-34.86601899 217.14443819 -29.83096952 220.89842047 -24 224 C-23.46375 223.18402344 -22.9275 222.36804688 -22.375 221.52734375 C-16.2367469 212.23422683 -9.91475679 203.07596155 -3.53515625 193.94702148 C-2.87644531 193.00415283 -2.21773437 192.06128418 -1.5390625 191.08984375 C-0.91676758 190.20280762 -0.29447266 189.31577148 0.34667969 188.40185547 C1.69591413 186.44175972 2.97112912 184.46146824 4.2265625 182.44140625 C6 180 6 180 10 178 C10 212.98 10 247.96 10 284 C6.7 284 3.4 284 0 284 C0 291.26 0 298.52 0 306 C-37.18905971 306 -71.43331689 286.6753464 -98 262 C-98.98226562 261.11634766 -98.98226562 261.11634766 -99.984375 260.21484375 C-106.96904806 253.64867383 -112.44865625 245.77188124 -118 238 C-118.67417969 237.06027344 -119.34835938 236.12054688 -120.04296875 235.15234375 C-128.42677302 222.73970906 -133.69068013 208.26023024 -138 194 C-138.29648438 193.03707031 -138.59296875 192.07414063 -138.8984375 191.08203125 C-141.60240104 181.80556226 -143 172.66389779 -143 163 C-135.74 163 -128.48 163 -121 163 C-121 156.4 -121 149.8 -121 143 C-128.26 143 -135.52 143 -143 143 C-143 105.79883023 -123.64589694 71.53497638 -99 45 C-98.41089844 44.34515625 -97.82179687 43.6903125 -97.21484375 43.015625 C-73.28107639 17.55640873 -34.7631608 0 0 0 Z " fill="#FEFEFE" transform="translate(246,103)"/>
<path d="M0 0 C3.333273 1.45139392 5.51675744 3.2714025 8.0741272 5.84034729 C9.27705666 7.0413205 9.27705666 7.0413205 10.50428772 8.26655579 C11.37508469 9.14611435 12.24588165 10.02567291 13.14306641 10.93188477 C14.06702713 11.85715973 14.99098785 12.78243469 15.94294739 13.73574829 C17.9500355 15.74576676 19.95392959 17.75889766 21.95540237 19.77450752 C25.1184838 22.95986274 28.28864533 26.13810763 31.45980835 29.31541443 C36.47245855 34.3394405 41.48041183 39.3681186 46.48633897 44.39884275 C55.45753629 53.41439784 64.43435507 62.42434742 73.41637361 71.42912143 C76.5695859 74.59075446 79.71996751 77.75517402 82.86812234 80.92184269 C84.35333061 82.41511836 85.83964867 83.90727867 87.32646179 85.3989563 C89.14182936 87.22037188 90.9553637 89.04361706 92.76676941 90.86897278 C93.56308273 91.66680176 94.35939606 92.46463074 95.17984009 93.28663635 C95.8733639 93.98367959 96.5668877 94.68072283 97.28142738 95.39888859 C98.9225324 97.07896766 98.9225324 97.07896766 101 98 C101.63698216 147.15869 101.63698216 147.15869 98 165 C97.69400879 166.53914063 97.69400879 166.53914063 97.38183594 168.109375 C88.90748757 209.75333436 71.77540203 247.93620923 45 281 C44.55994629 281.54446777 44.11989258 282.08893555 43.66650391 282.64990234 C32.18825137 296.72173929 19.42280936 309.93680647 5 321 C4.06929688 321.75925781 3.13859375 322.51851563 2.1796875 323.30078125 C-7.60950415 331.14965998 -18.21296474 337.61917978 -29 344 C-29.97743164 344.58394531 -29.97743164 344.58394531 -30.97460938 345.1796875 C-67.10407638 366.51251374 -110.60361605 376.23832689 -152.26953125 376.59033203 C-154.19137678 376.61366497 -156.11307881 376.65501716 -158.03417969 376.71337891 C-160.859587 376.79866523 -163.68127995 376.83100533 -166.5078125 376.8515625 C-167.35892609 376.88657867 -168.21003967 376.92159485 -169.08694458 376.95767212 C-172.52018336 376.93273292 -175.04953263 376.87560353 -177.65282345 374.47736168 C-178.16973531 373.82768236 -178.68664717 373.17800304 -179.21922302 372.50863647 C-183.21038904 367.70207054 -187.53916113 363.32759885 -191.96459961 358.921875 C-192.83368958 358.05263901 -193.70277954 357.18340302 -194.59820557 356.28782654 C-196.95748564 353.92911947 -199.3189463 351.57263797 -201.68144679 349.21715927 C-204.15895265 346.74594899 -206.6335844 344.27186387 -209.10853577 341.7980957 C-213.78474409 337.12498253 -218.46349326 332.45442204 -223.14318424 327.78479671 C-228.47534619 322.4638526 -233.80463351 317.14003326 -239.13369358 311.81598282 C-250.08595681 300.87414281 -261.04178451 289.93587904 -272 279 C-271.67 278.34 -271.34 277.68 -271 277 C-270.52401367 277.3714917 -270.04802734 277.7429834 -269.55761719 278.12573242 C-251.74647881 291.7868496 -230.50512107 301.7460783 -209 308 C-207.77667969 308.35707031 -206.55335938 308.71414063 -205.29296875 309.08203125 C-152.94996101 323.24168988 -99.57583304 313.6133178 -53 287 C-48.84699694 284.54172501 -44.89449094 281.85003402 -41 279 C-39.98292969 278.26652344 -38.96585938 277.53304688 -37.91796875 276.77734375 C-31.65654918 272.16652353 -25.82367412 267.16353958 -20.125 261.875 C-19.51873779 261.31345215 -18.91247559 260.7519043 -18.2878418 260.17333984 C9.7052921 233.73516675 29.27795424 196.60300545 37 159 C37.15098145 158.28585937 37.30196289 157.57171875 37.45751953 156.8359375 C42.66256258 131.05216438 41.75760802 102.56150872 36 77 C35.81808105 76.1848291 35.63616211 75.3696582 35.44873047 74.52978516 C29.76481335 50.04170254 18.50858687 26.45419931 4 6 C2.66178599 4.0032624 1.32726868 2.00402985 0 0 Z " fill="#FEC000" transform="translate(411,136)"/>
<path d="M0 0 C0 21.45 0 42.9 0 65 C-3.3 65 -6.6 65 -10 65 C-10 57.74 -10 50.48 -10 43 C-23.17697357 44.65802979 -35.4459135 46.69858782 -48 51 C-49.02649658 51.34635498 -49.02649658 51.34635498 -50.07373047 51.69970703 C-77.57011324 61.09769551 -103.48933827 79.0155957 -120.875 102.5 C-121.38820801 103.1906958 -121.90141602 103.8813916 -122.43017578 104.59301758 C-140.49506761 129.27983009 -149.06551772 155.90121054 -153 186 C-145.74 186 -138.48 186 -131 186 C-131 192.6 -131 199.2 -131 206 C-138.26 206 -145.52 206 -153 206 C-147.47402051 247.29942566 -130.97081836 287.39700509 -97.34375 313.9921875 C-96.06868785 314.96132059 -94.78721425 315.92206667 -93.5 316.875 C-92.8093042 317.38820801 -92.1186084 317.90141602 -91.40698242 318.43017578 C-66.72016991 336.49506761 -40.09878946 345.06551772 -10 349 C-10 341.74 -10 334.48 -10 327 C-6.7 327 -3.4 327 0 327 C0 348.45 0 369.9 0 392 C-10.10789704 392 -19.0276795 391.9401195 -28.8125 390.3125 C-29.92343018 390.13315918 -31.03436035 389.95381836 -32.17895508 389.76904297 C-47.44930609 387.20328102 -61.84215713 383.31854793 -76 377 C-77.10577393 376.51273437 -77.10577393 376.51273437 -78.23388672 376.015625 C-98.22033451 367.13460033 -115.77252695 355.79453966 -131.859375 340.953125 C-133.59341258 339.37097392 -135.34699382 337.89053119 -137.1875 336.4375 C-140.85824195 333.25619031 -143.87708548 329.71039348 -147 326 C-147.76441406 325.1234375 -148.52882812 324.246875 -149.31640625 323.34375 C-183.15099956 283.94948173 -199.34319615 232.65417375 -195.79345703 180.99414062 C-193.98616133 160.15386881 -189.78003564 139.06508017 -181 120 C-180.67660645 119.27151855 -180.35321289 118.54303711 -180.02001953 117.79248047 C-171.1400798 97.79295187 -159.80271921 80.236339 -144.953125 64.140625 C-143.37097392 62.40658742 -141.89053119 60.65300618 -140.4375 58.8125 C-137.25619031 55.14175805 -133.71039348 52.12291452 -130 49 C-129.1234375 48.23558594 -128.246875 47.47117188 -127.34375 46.68359375 C-109.92948433 31.72698654 -90.11159031 20.82004809 -69 12 C-68.07316406 11.60039063 -67.14632812 11.20078125 -66.19140625 10.7890625 C-52.68504706 5.38651882 -37.72863246 3.02192019 -23.375 1.1875 C-21.93797729 1.00175415 -21.93797729 1.00175415 -20.47192383 0.81225586 C-13.52060857 -0.0045913 -7.10200255 0 0 0 Z " fill="#185D75" transform="translate(256,60)"/>
<path d="M0 0 C6.6 0 13.2 0 20 0 C20.23241303 15.51702196 20.4104122 31.03378653 20.51812172 46.55214024 C20.56948423 53.75924336 20.63938561 60.96523909 20.75439453 68.17163086 C20.85469835 74.45965713 20.91872841 80.74688085 20.94088495 87.035685 C20.95382128 90.36040434 20.98916066 93.68102767 21.05730057 97.00534248 C21.37127394 112.96800335 20.9086049 123.87469921 10 136 C8.75287662 137.67427304 7.51980722 139.35929237 6.3125 141.0625 C5.35730469 142.35800781 5.35730469 142.35800781 4.3828125 143.6796875 C-0.98108567 151.06877963 -6.00687335 158.70746761 -11.13574219 166.26025391 C-13.88976673 170.30761685 -16.66157947 174.3426345 -19.4375 178.375 C-19.90389893 179.05264404 -20.37029785 179.73028809 -20.85083008 180.4284668 C-21.90017668 181.95257063 -22.9500219 183.47633115 -24 185 C-35.52164009 177.70159453 -35.52164009 177.70159453 -41 174 C-37.61752622 167.76867426 -33.6414244 162.04320581 -29.5625 156.25 C-28.12698004 154.19965558 -26.69209374 152.14886738 -25.2578125 150.09765625 C-24.54270508 149.07559082 -23.82759766 148.05352539 -23.09082031 147.00048828 C-19.50002135 141.84741504 -15.96102518 136.65921555 -12.42602539 131.46777344 C-11.94383545 130.76040039 -11.46164551 130.05302734 -10.96484375 129.32421875 C-10.52037431 128.66013945 -10.07590487 127.99606014 -9.61796665 127.31185722 C-8 125 -8 125 -6.2103796 122.80125618 C-1.08302835 116.27942352 0.0110187 111.49268641 -0.11352539 103.30810547 C-0.10274963 102.18498459 -0.09197388 101.06186371 -0.08087158 99.90470886 C-0.05365531 96.22485215 -0.07529006 92.54704797 -0.09765625 88.8671875 C-0.08826569 86.30313859 -0.07580454 83.73909924 -0.06040955 81.17507935 C-0.03152055 75.13672309 -0.03339368 69.09914831 -0.05048412 63.06081116 C-0.06821818 56.18030466 -0.04617864 49.30009973 -0.02097714 42.41963744 C0.02993256 28.2796423 0.03006596 14.14003411 0 0 Z " fill="#4E4E4D" transform="translate(246,143)"/>
<path d="M0 0 C3.3 0 6.6 0 10 0 C10.20901292 15.55168799 10.36929075 31.10300704 10.46630955 46.65576458 C10.51257014 53.87850166 10.57555056 61.10034603 10.67895508 68.32250977 C10.76911933 74.62296704 10.8268307 80.92277741 10.84679645 87.22386199 C10.85845624 90.55605161 10.89035625 93.88493699 10.95157051 97.2168026 C11.39444267 122.33297402 11.39444267 122.33297402 3.0355072 132.13142395 C1 134 1 134 0 134 C0 89.78 0 45.56 0 0 Z " fill="#323434" transform="translate(256,143)"/>
</svg>
