<?xml version="1.0" encoding="UTF-8"?>
<svg version="1.1" xmlns="http://www.w3.org/2000/svg" width="512" height="512">
<path d="M0 0 C0.91942383 0.00215515 1.83884766 0.0043103 2.78613281 0.00653076 C17.16224508 0.06044742 31.22198153 0.58373081 45.375 3.3125 C46.39303711 3.50585938 47.41107422 3.69921875 48.45996094 3.8984375 C99.35019307 13.90052134 144.24752771 38.47941954 181.375 74.3125 C182.31601562 75.21226563 183.25703125 76.11203125 184.2265625 77.0390625 C190.10004639 82.76707311 195.31043947 88.86432242 200.375 95.3125 C201.16648437 96.29863281 201.95796875 97.28476563 202.7734375 98.30078125 C220.47751036 120.72407858 234.34563454 146.19757843 243.375 173.3125 C243.64747559 174.12170898 243.91995117 174.93091797 244.20068359 175.76464844 C247.43519772 185.52076871 249.97382613 195.3888 252.125 205.4375 C252.32375732 206.35378174 252.52251465 207.27006348 252.72729492 208.21411133 C255.95292887 224.03534118 256.75585755 239.82997632 256.6875 255.9375 C256.68534485 256.85692383 256.6831897 257.77634766 256.68096924 258.72363281 C256.62705258 273.09974508 256.10376919 287.15948153 253.375 301.3125 C253.18164062 302.33053711 252.98828125 303.34857422 252.7890625 304.39746094 C242.78697866 355.28769307 218.20808046 400.18502771 182.375 437.3125 C181.47523438 438.25351562 180.57546875 439.19453125 179.6484375 440.1640625 C173.92042689 446.03754639 167.82317758 451.24793947 161.375 456.3125 C160.38886719 457.10398437 159.40273438 457.89546875 158.38671875 458.7109375 C135.96342142 476.41501036 110.48992157 490.28313454 83.375 499.3125 C82.56579102 499.58497559 81.75658203 499.85745117 80.92285156 500.13818359 C71.16673129 503.37269772 61.2987 505.91132613 51.25 508.0625 C50.33371826 508.26125732 49.41743652 508.46001465 48.47338867 508.66479492 C32.82169868 511.85586306 17.18576869 512.69285054 1.25 512.625 C-0.09212555 512.62226578 -0.09212555 512.62226578 -1.46136475 512.61947632 C-15.70538712 512.57079426 -29.58717009 511.89161529 -43.625 509.3125 C-44.97658203 509.07901855 -44.97658203 509.07901855 -46.35546875 508.84082031 C-86.37706909 501.77071391 -124.81943271 484.59977516 -156.625 459.3125 C-157.5325 458.59707031 -158.44 457.88164062 -159.375 457.14453125 C-174.13384927 445.29971614 -187.95038159 432.22667221 -199.625 417.3125 C-200.41519531 416.32765625 -201.20539063 415.3428125 -202.01953125 414.328125 C-227.3482061 382.48521433 -244.19781686 344.3185752 -251.9375 304.4375 C-252.08477539 303.67953125 -252.23205078 302.9215625 -252.38378906 302.140625 C-255.09836442 287.03563423 -256.00457949 272.0056981 -255.9375 256.6875 C-255.93567719 255.81642609 -255.93385437 254.94535217 -255.93197632 254.04788208 C-255.88251402 239.94822675 -255.16282653 226.20951601 -252.625 212.3125 C-252.4693457 211.40999512 -252.31369141 210.50749023 -252.15332031 209.57763672 C-246.2134656 175.95995602 -233.07232411 142.45042244 -213.625 114.3125 C-213.22361816 113.72017578 -212.82223633 113.12785156 -212.40869141 112.51757812 C-206.36893282 103.62896707 -199.71206408 95.38253933 -192.625 87.3125 C-191.87476563 86.45011719 -191.12453125 85.58773437 -190.3515625 84.69921875 C-181.1923724 74.33313176 -171.54031227 64.82734941 -160.625 56.3125 C-159.64144531 55.52359375 -158.65789062 54.7346875 -157.64453125 53.921875 C-112.97445156 18.38005958 -56.83850218 -0.24121278 0 0 Z " fill="#EBECEE" transform="translate(255.625,-0.3125)"/>
<path d="M0 0 C0 168.96 0 337.92 0 512 C-23.32376053 512 -23.32376053 512 -31.8125 510.8125 C-32.81200684 510.677229 -33.81151367 510.54195801 -34.84130859 510.40258789 C-79.32793519 504.08080411 -121.7201073 487.04956585 -157 459 C-157.9075 458.28457031 -158.815 457.56914062 -159.75 456.83203125 C-174.50884927 444.98721614 -188.32538159 431.91417221 -200 417 C-200.79019531 416.01515625 -201.58039063 415.0303125 -202.39453125 414.015625 C-227.7232061 382.17271433 -244.57281686 344.0060752 -252.3125 304.125 C-252.45977539 303.36703125 -252.60705078 302.6090625 -252.75878906 301.828125 C-255.47336442 286.72313423 -256.37957949 271.6931981 -256.3125 256.375 C-256.31067719 255.50392609 -256.30885437 254.63285217 -256.30697632 253.73538208 C-256.25751402 239.63572675 -255.53782653 225.89701601 -253 212 C-252.8443457 211.09749512 -252.68869141 210.19499023 -252.52832031 209.26513672 C-246.5884656 175.64745602 -233.44732411 142.13792244 -214 114 C-213.59861816 113.40767578 -213.19723633 112.81535156 -212.78369141 112.20507812 C-206.74393282 103.31646707 -200.08706408 95.07003933 -193 87 C-192.24976563 86.13761719 -191.49953125 85.27523437 -190.7265625 84.38671875 C-181.5673724 74.02063176 -171.91531227 64.51484941 -161 56 C-160.01644531 55.21109375 -159.03289062 54.4221875 -158.01953125 53.609375 C-124.04853481 26.58030111 -81.9961302 8.28132766 -39 2 C-38.31486328 1.89848633 -37.62972656 1.79697266 -36.92382812 1.69238281 C-24.47145074 -0.09377268 -12.7160716 0 0 0 Z " fill="#68727E" transform="translate(256,0)"/>
<path d="M0 0 C63.78017648 -1.79381746 127.21159545 23.61885548 173.75 67.0625 C176.18033562 69.36100504 178.59309134 71.67700448 181 74 C181.94101562 74.89976563 182.88203125 75.79953125 183.8515625 76.7265625 C189.72504639 82.45457311 194.93543947 88.55182242 200 95 C200.79148437 95.98613281 201.58296875 96.97226563 202.3984375 97.98828125 C220.10251036 120.41157858 233.97063454 145.88507843 243 173 C243.27247559 173.80920898 243.54495117 174.61841797 243.82568359 175.45214844 C247.06019772 185.20826871 249.59882613 195.0763 251.75 205.125 C252.04813599 206.49942261 252.04813599 206.49942261 252.35229492 207.90161133 C255.57792887 223.72284118 256.38085755 239.51747632 256.3125 255.625 C256.31034485 256.54442383 256.3081897 257.46384766 256.30596924 258.41113281 C256.25205258 272.78724508 255.72876919 286.84698153 253 301 C252.80664062 302.01803711 252.61328125 303.03607422 252.4140625 304.08496094 C242.41197866 354.97519307 217.83308046 399.87252771 182 437 C181.10023438 437.94101562 180.20046875 438.88203125 179.2734375 439.8515625 C173.54542689 445.72504639 167.44817758 450.93543947 161 456 C160.01386719 456.79148437 159.02773438 457.58296875 158.01171875 458.3984375 C135.58842142 476.10251036 110.11492157 489.97063454 83 499 C81.78618652 499.40871338 81.78618652 499.40871338 80.54785156 499.82568359 C54.05615376 508.60865965 27.80819643 512.37077595 0 512 C0 504.08 0 496.16 0 488 C3.196875 487.896875 6.39375 487.79375 9.6875 487.6875 C58.53661291 485.61299588 105.76301122 468.65367537 144 438 C144.98484375 437.21882813 145.9696875 436.43765625 146.984375 435.6328125 C161.61486704 423.77944717 174.93328814 410.23594185 186 395 C186.9590625 393.69869141 186.9590625 393.69869141 187.9375 392.37109375 C220.46138023 347.14257281 236.99860035 289.66853953 231 234 C230.91766113 233.22479004 230.83532227 232.44958008 230.75048828 231.65087891 C225.18139802 182.03801678 204.38448868 131.5083764 168.171875 96.24609375 C166 94 166 94 166 92 C165.41992188 91.75121094 164.83984375 91.50242187 164.2421875 91.24609375 C161.67760512 89.82082932 160.12129212 88.21026176 158.125 86.0625 C119.52875059 46.64370756 61.26897592 26.05978569 7.07885742 24.28979492 C1.09137947 24.09137947 1.09137947 24.09137947 0 23 C-0.08713831 21.29227642 -0.10700007 19.58101351 -0.09765625 17.87109375 C-0.09443359 16.83662109 -0.09121094 15.80214844 -0.08789062 14.73632812 C-0.07951172 13.64771484 -0.07113281 12.55910156 -0.0625 11.4375 C-0.05798828 10.34501953 -0.05347656 9.25253906 -0.04882812 8.12695312 C-0.03699826 5.41791505 -0.02051543 2.70898401 0 0 Z " fill="#D8DBDE" transform="translate(256,0)"/>
<path d="M0 0 C0 7.59 0 15.18 0 23 C-4.40896571 23.62985224 -8.39950878 24.10096132 -12.79467773 24.23925781 C-31.51394967 24.87908709 -50.10878817 28.55189585 -68 34 C-68.77698242 34.23525391 -69.55396484 34.47050781 -70.35449219 34.71289062 C-102.53157011 44.6884428 -132.67847002 61.91718724 -156.99609375 85.26953125 C-159 87 -159 87 -161 87 C-161 87.66 -161 88.32 -161 89 C-161.66 89 -162.32 89 -163 89 C-163 89.66 -163 90.32 -163 91 C-164.375 92.625 -164.375 92.625 -166 94 C-166.66 94 -167.32 94 -168 94 C-168.23074219 94.55429688 -168.46148437 95.10859375 -168.69921875 95.6796875 C-170.35260367 98.6289687 -172.45343525 100.70030973 -174.8125 103.125 C-187.05034124 116.14611216 -196.61859616 131.2825064 -205 147 C-205.4237793 147.79148438 -205.84755859 148.58296875 -206.28417969 149.3984375 C-235.0247989 204.00782313 -239.23007399 268.3514147 -221.04589844 326.9519043 C-212.1528905 354.41641184 -198.74618488 380.60250622 -179.9375 402.625 C-178 405 -178 405 -178 407 C-177.34 407 -176.68 407 -176 407 C-174.2734375 408.6796875 -174.2734375 408.6796875 -172.375 410.875 C-171.74335938 411.59429687 -171.11171875 412.31359375 -170.4609375 413.0546875 C-169 415 -169 415 -169 417 C-168.34 417 -167.68 417 -167 417 C-167 417.66 -167 418.32 -167 419 C-166.34 419 -165.68 419 -165 419 C-163.375 420.375 -163.375 420.375 -162 422 C-162 422.66 -162 423.32 -162 424 C-161.41734375 424.268125 -160.8346875 424.53625 -160.234375 424.8125 C-157.97213399 426.01480991 -156.19423682 427.33825913 -154.25 429 C-153.63640625 429.515625 -153.0228125 430.03125 -152.390625 430.5625 C-151 432 -151 432 -151 434 C-150.484375 434.21914063 -149.96875 434.43828125 -149.4375 434.6640625 C-146.73880281 436.14315615 -144.39884107 437.94008782 -141.97827148 439.83227539 C-104.68913698 468.91163377 -58.01327961 485.91363723 -10.77172852 487.7097168 C-7.01264968 487.85282335 -3.72326898 488.2553462 0 489 C0 496.59 0 504.18 0 512 C-56.40616272 513.24425359 -112.80427566 494.13817037 -157 459 C-157.9075 458.28457031 -158.815 457.56914062 -159.75 456.83203125 C-174.50884927 444.98721614 -188.32538159 431.91417221 -200 417 C-200.79019531 416.01515625 -201.58039063 415.0303125 -202.39453125 414.015625 C-227.7232061 382.17271433 -244.57281686 344.0060752 -252.3125 304.125 C-252.45977539 303.36703125 -252.60705078 302.6090625 -252.75878906 301.828125 C-255.47336442 286.72313423 -256.37957949 271.6931981 -256.3125 256.375 C-256.31067719 255.50392609 -256.30885437 254.63285217 -256.30697632 253.73538208 C-256.25751402 239.63572675 -255.53782653 225.89701601 -253 212 C-252.8443457 211.09749512 -252.68869141 210.19499023 -252.52832031 209.26513672 C-246.5884656 175.64745602 -233.44732411 142.13792244 -214 114 C-213.59861816 113.40767578 -213.19723633 112.81535156 -212.78369141 112.20507812 C-206.74393282 103.31646707 -200.08706408 95.07003933 -193 87 C-192.24976563 86.13761719 -191.49953125 85.27523437 -190.7265625 84.38671875 C-181.5673724 74.02063176 -171.91531227 64.51484941 -161 56 C-160.01644531 55.21109375 -159.03289062 54.4221875 -158.01953125 53.609375 C-124.04853481 26.58030111 -81.9961302 8.28132766 -39 2 C-38.31486328 1.89848633 -37.62972656 1.79697266 -36.92382812 1.69238281 C-24.56971985 -0.07967706 -12.47544988 -0.16633933 0 0 Z " fill="#55606E" transform="translate(256,0)"/>
<path d="M0 0 C12.4091847 9.28230615 20.9535837 21.36294435 23.46484375 36.84375 C25.47466445 54.44398253 20.59626866 69.43774145 9.83984375 83.53125 C0.4970636 93.69400819 -13.71245979 101.24873065 -27.46875 102.08203125 C-42.37501174 102.451745 -54.32696827 99.87501181 -66.53515625 90.84375 C-67.16808594 90.40546875 -67.80101562 89.9671875 -68.453125 89.515625 C-78.62664193 81.78654577 -86.67428489 67.34077824 -88.53515625 54.84375 C-89.60780257 39.68878988 -87.46308886 27.04003098 -79.53515625 13.84375 C-78.87515625 13.84375 -78.21515625 13.84375 -77.53515625 13.84375 C-77.28765625 13.286875 -77.04015625 12.73 -76.78515625 12.15625 C-73.89310243 6.80595044 -69.8769669 3.2573933 -64.97265625 -0.21875 C-64.357854 -0.65630615 -63.74305176 -1.0938623 -63.10961914 -1.54467773 C-43.66792829 -14.92923421 -19.07380719 -12.77613626 0 0 Z " fill="#FFC44F" transform="translate(408.53515625,210.15625)"/>
<path d="M0 0 C2.50031654 3.75047482 2.53603554 5.55856266 2 10 C-0.0625 12.4375 -0.0625 12.4375 -3 15 C-11.2898916 23.54895071 -15.8130365 32.28194434 -16.3125 44.3125 C-15.97074894 55.85162398 -11.8544485 66.51255115 -3.625 74.6875 C0.83065552 78.37883255 6.08050147 80.41161794 11.45263672 82.4284668 C14.74740661 83.72021575 16.77214231 84.70645768 18.96484375 87.53125 C20.44113075 91.05205523 20.4328213 92.41794674 19 96 C11.5850125 104.21660777 -0.99329481 108.56870937 -11.87109375 109.23828125 C-21.60942108 109.47488749 -29.8642351 108.74355631 -39 105 C-39.85722656 104.67257812 -40.71445313 104.34515625 -41.59765625 104.0078125 C-54.16746902 98.54960537 -63.93049174 87.46223086 -69.2734375 75.0390625 C-74.73930153 60.57972007 -74.85409109 45.35986107 -69 31 C-68.72285156 30.278125 -68.44570312 29.55625 -68.16015625 28.8125 C-62.20914881 15.21019729 -50.00693965 5.56618998 -36.59765625 -0.03515625 C-25.21883261 -4.26157646 -11.177284 -5.20321842 0 0 Z " fill="#FEC34F" transform="translate(169,203)"/>
<path d="M0 0 C4.55887442 3.81251002 7.58827544 6.84924071 9.6484375 12.46484375 C11.24202452 16.20053507 12.03083046 16.97902436 15.8828125 18.53125 C18.50717225 19.24680795 21.08539595 19.74533208 23.76953125 20.23828125 C31.52102962 22.15769989 37.06633465 27.68199233 41.4609375 34.15234375 C44.01108023 40.10742565 46.37064479 46.61819622 45.4609375 53.15234375 C43.41036308 56.13247198 41.76155145 57.8933463 38.13043213 58.61642838 C35.12366784 58.80549102 32.15331022 58.82761365 29.140625 58.79931641 C27.42519501 58.8124588 27.42519501 58.8124588 25.67510986 58.8258667 C21.89499976 58.84787243 18.11605949 58.83330215 14.3359375 58.81640625 C11.70947037 58.819774 9.08300476 58.82462627 6.45654297 58.8309021 C0.95201952 58.83999128 -4.55216819 58.82803042 -10.05664062 58.80419922 C-16.4149599 58.77698873 -22.7724775 58.78580346 -29.13077736 58.81333125 C-35.25459017 58.83877972 -41.37804837 58.83605526 -47.50189209 58.82142258 C-50.10463574 58.81808524 -52.70739983 58.82218704 -55.31011963 58.83382034 C-58.94688241 58.84650783 -62.58210226 58.82717779 -66.21875 58.79931641 C-67.83508331 58.81449814 -67.83508331 58.81449814 -69.48406982 58.82998657 C-76.78419036 58.72628537 -76.78419036 58.72628537 -80.70727539 55.74349976 C-83.54015961 51.73624098 -83.34174823 48.8784373 -82.5390625 44.15234375 C-79.73383478 34.0284493 -74.5410177 26.58954013 -65.3984375 21.3671875 C-62.17629642 19.99821773 -59.17610199 19.46816188 -55.7265625 18.90234375 C-51.12186813 18.07236115 -51.12186813 18.07236115 -47.84765625 14.99609375 C-47.0561592 13.26159197 -46.3175746 11.50200019 -45.6328125 9.72265625 C-42.85796333 3.2017607 -36.77579585 -0.94434934 -30.5390625 -3.84765625 C-20.4025135 -7.3935213 -8.740606 -6.36047175 0 0 Z " fill="#C5C9CE" transform="translate(354.5390625,373.84765625)"/>
<path d="M0 0 C4.55887442 3.81251002 7.58827544 6.84924071 9.6484375 12.46484375 C11.24202452 16.20053507 12.03083046 16.97902436 15.8828125 18.53125 C18.50717225 19.24680795 21.08539595 19.74533208 23.76953125 20.23828125 C31.52102962 22.15769989 37.06633465 27.68199233 41.4609375 34.15234375 C44.01108023 40.10742565 46.37064479 46.61819622 45.4609375 53.15234375 C43.41036308 56.13247198 41.76155145 57.8933463 38.13043213 58.61642838 C35.12366784 58.80549102 32.15331022 58.82761365 29.140625 58.79931641 C27.42519501 58.8124588 27.42519501 58.8124588 25.67510986 58.8258667 C21.89499976 58.84787243 18.11605949 58.83330215 14.3359375 58.81640625 C11.70947037 58.819774 9.08300476 58.82462627 6.45654297 58.8309021 C0.95201952 58.83999128 -4.55216819 58.82803042 -10.05664062 58.80419922 C-16.4149599 58.77698873 -22.7724775 58.78580346 -29.13077736 58.81333125 C-35.25459017 58.83877972 -41.37804837 58.83605526 -47.50189209 58.82142258 C-50.10463574 58.81808524 -52.70739983 58.82218704 -55.31011963 58.83382034 C-58.94688241 58.84650783 -62.58210226 58.82717779 -66.21875 58.79931641 C-67.83508331 58.81449814 -67.83508331 58.81449814 -69.48406982 58.82998657 C-76.78419036 58.72628537 -76.78419036 58.72628537 -80.70727539 55.74349976 C-83.54015961 51.73624098 -83.34174823 48.8784373 -82.5390625 44.15234375 C-79.73383478 34.0284493 -74.5410177 26.58954013 -65.3984375 21.3671875 C-62.17629642 19.99821773 -59.17610199 19.46816188 -55.7265625 18.90234375 C-51.12186813 18.07236115 -51.12186813 18.07236115 -47.84765625 14.99609375 C-47.0561592 13.26159197 -46.3175746 11.50200019 -45.6328125 9.72265625 C-42.85796333 3.2017607 -36.77579585 -0.94434934 -30.5390625 -3.84765625 C-20.4025135 -7.3935213 -8.740606 -6.36047175 0 0 Z " fill="#C5C9CE" transform="translate(386.5390625,77.84765625)"/>
<path d="M0 0 C12.4091847 9.28230615 20.9535837 21.36294435 23.46484375 36.84375 C25.47466445 54.44398253 20.59626866 69.43774145 9.83984375 83.53125 C0.4970636 93.69400819 -13.71245979 101.24873065 -27.46875 102.08203125 C-42.37501174 102.451745 -54.32696827 99.87501181 -66.53515625 90.84375 C-67.16808594 90.40546875 -67.80101562 89.9671875 -68.453125 89.515625 C-78.62664193 81.78654577 -86.67428489 67.34077824 -88.53515625 54.84375 C-89.60780257 39.68878988 -87.46308886 27.04003098 -79.53515625 13.84375 C-78.87515625 13.84375 -78.21515625 13.84375 -77.53515625 13.84375 C-77.28765625 13.286875 -77.04015625 12.73 -76.78515625 12.15625 C-73.89310243 6.80595044 -69.8769669 3.2573933 -64.97265625 -0.21875 C-64.357854 -0.65630615 -63.74305176 -1.0938623 -63.10961914 -1.54467773 C-43.66792829 -14.92923421 -19.07380719 -12.77613626 0 0 Z M-64.84765625 21.55859375 C-71.04576087 29.95186042 -73.84785333 40.4242169 -72.53515625 50.84375 C-69.61367244 64.17301986 -64.05422554 73.35635496 -52.53515625 80.84375 C-42.81846419 85.78783155 -32.17704059 87.56327883 -21.53515625 84.71875 C-10.91914257 81.12461371 -2.22829356 74.8992959 3.03515625 64.84375 C5.33750323 59.58124261 7.13775562 54.62230693 7.46484375 48.84375 C7.51511719 48.16054688 7.56539063 47.47734375 7.6171875 46.7734375 C8.02740546 37.35483306 4.96945886 29.37720897 -0.53515625 21.84375 C-0.96570313 21.23660156 -1.39625 20.62945312 -1.83984375 20.00390625 C-8.52455098 11.37421358 -17.97945653 7.52370221 -28.53515625 5.84375 C-42.92630448 4.30641666 -55.73602766 10.55483261 -64.84765625 21.55859375 Z " fill="#F69F4E" transform="translate(408.53515625,210.15625)"/>
<path d="M0 0 C1.1845666 3.55369981 0.66649439 5.34761074 0 9 C-1.22495299 22.82446942 2.00939949 35.42579554 9.66796875 46.984375 C10.95478853 48.93158616 11.99921775 50.89408854 13 53 C13.66 53 14.32 53 15 53 C15 53.66 15 54.32 15 55 C15.66 55 16.32 55 17 55 C17 55.66 17 56.32 17 57 C17.56589844 57.27070313 18.13179687 57.54140625 18.71484375 57.8203125 C21.09440593 59.04873605 23.30320036 60.43827898 25.5625 61.875 C37.87514929 69.30254212 52.95052671 72.57392145 67.1875 69.25 C68.46826257 68.86493413 69.73848839 68.44409113 71 68 C72.44826172 67.49339844 72.44826172 67.49339844 73.92578125 66.9765625 C76.62704282 66.00863904 79.31657452 65.01615009 82 64 C83.34654747 66.48552438 83.99600393 67.94005902 84.1875 70.8125 C82.27523193 75.94543008 78.64917524 78.29743065 74 81 C58.9922013 87.3873454 43.53867489 89.86345835 27.87890625 84.1796875 C26.92886719 83.79039062 25.97882813 83.40109375 25 83 C24.14277344 82.67257812 23.28554687 82.34515625 22.40234375 82.0078125 C9.83253098 76.54960537 0.06950826 65.46223086 -5.2734375 53.0390625 C-11.16207236 37.46132632 -10.59317243 21.66746369 -3.87890625 6.4609375 C-1.47312287 1.47312287 -1.47312287 1.47312287 0 0 Z " fill="#F59E4D" transform="translate(105,225)"/>
<path d="M0 0 C0.66 0 1.32 0 2 0 C1.67515625 0.94359375 1.67515625 0.94359375 1.34375 1.90625 C-0.86162047 8.68572218 -2.33681001 14.98956998 0 22 C3.0007718 22.86540803 5.6900349 23.13417428 8.80889893 23.15821838 C9.77361115 23.1680072 10.73832336 23.17779602 11.73226929 23.18788147 C13.30967392 23.19651466 13.30967392 23.19651466 14.91894531 23.20532227 C16.03143646 23.21522186 17.14392761 23.22512146 18.29013062 23.23532104 C21.96944038 23.26692316 25.64876307 23.29168852 29.328125 23.31640625 C31.87831967 23.33697688 34.42851094 23.35797338 36.97869873 23.37937927 C43.00634138 23.42894485 49.03400151 23.47421311 55.061692 23.51740164 C61.9250468 23.56681736 68.78835429 23.62171939 75.6516633 23.67708123 C89.76773136 23.79082349 103.88384486 23.89767936 118 24 C117.67396702 27.01580508 117.40214852 28.59022047 115.2454443 30.78784943 C112.63536859 32.19683774 111.02793245 32.38159684 108.07289124 32.39440918 C107.0817482 32.40575897 106.09060516 32.41710876 105.06942749 32.42880249 C103.98827667 32.42587189 102.90712585 32.42294128 101.79321289 32.41992188 C100.64973892 32.42839142 99.50626495 32.43686096 98.32814026 32.44558716 C94.54286623 32.46901371 90.75799733 32.46997794 86.97265625 32.46875 C84.3447605 32.47584799 81.71686631 32.48354645 79.088974 32.49182129 C73.57856954 32.50642581 68.06827825 32.50700976 62.55786133 32.50097656 C56.19221984 32.49433517 49.82715772 32.51720432 43.46163374 32.55429029 C37.33306424 32.58869759 31.20476831 32.59532337 25.07610893 32.59120178 C22.47055777 32.59289729 19.86499928 32.60258086 17.25950813 32.62034607 C13.61792977 32.64244305 9.97775458 32.63287904 6.33618164 32.61523438 C5.25705505 32.62849762 4.17792847 32.64176086 3.06610107 32.65542603 C-4.245544 32.57297347 -4.245544 32.57297347 -8.16920471 29.59313965 C-10.99977243 25.58392167 -10.80278802 22.72669582 -10 18 C-8.13340637 11.26357828 -4.91848493 5.03090744 0 0 Z " fill="#B3B9BF" transform="translate(282,400)"/>
<path d="M0 0 C0.66 0 1.32 0 2 0 C1.67515625 0.94359375 1.67515625 0.94359375 1.34375 1.90625 C-0.86162047 8.68572218 -2.33681001 14.98956998 0 22 C3.0007718 22.86540803 5.6900349 23.13417428 8.80889893 23.15821838 C9.77361115 23.1680072 10.73832336 23.17779602 11.73226929 23.18788147 C13.30967392 23.19651466 13.30967392 23.19651466 14.91894531 23.20532227 C16.03143646 23.21522186 17.14392761 23.22512146 18.29013062 23.23532104 C21.96944038 23.26692316 25.64876307 23.29168852 29.328125 23.31640625 C31.87831967 23.33697688 34.42851094 23.35797338 36.97869873 23.37937927 C43.00634138 23.42894485 49.03400151 23.47421311 55.061692 23.51740164 C61.9250468 23.56681736 68.78835429 23.62171939 75.6516633 23.67708123 C89.76773136 23.79082349 103.88384486 23.89767936 118 24 C117.67396702 27.01580508 117.40214852 28.59022047 115.2454443 30.78784943 C112.63536859 32.19683774 111.02793245 32.38159684 108.07289124 32.39440918 C107.0817482 32.40575897 106.09060516 32.41710876 105.06942749 32.42880249 C103.98827667 32.42587189 102.90712585 32.42294128 101.79321289 32.41992188 C100.64973892 32.42839142 99.50626495 32.43686096 98.32814026 32.44558716 C94.54286623 32.46901371 90.75799733 32.46997794 86.97265625 32.46875 C84.3447605 32.47584799 81.71686631 32.48354645 79.088974 32.49182129 C73.57856954 32.50642581 68.06827825 32.50700976 62.55786133 32.50097656 C56.19221984 32.49433517 49.82715772 32.51720432 43.46163374 32.55429029 C37.33306424 32.58869759 31.20476831 32.59532337 25.07610893 32.59120178 C22.47055777 32.59289729 19.86499928 32.60258086 17.25950813 32.62034607 C13.61792977 32.64244305 9.97775458 32.63287904 6.33618164 32.61523438 C5.25705505 32.62849762 4.17792847 32.64176086 3.06610107 32.65542603 C-4.245544 32.57297347 -4.245544 32.57297347 -8.16920471 29.59313965 C-10.99977243 25.58392167 -10.80278802 22.72669582 -10 18 C-8.13340637 11.26357828 -4.91848493 5.03090744 0 0 Z " fill="#B3B9BF" transform="translate(314,104)"/>
<path d="M0 0 C4.4822563 3.27969973 6.93794984 7.9555963 9.66796875 12.6953125 C10.71286279 14.50319369 11.84172038 16.26258057 13 18 C13.5 21.375 13.5 21.375 13 25 C10.375 28 10.375 28 7 30 C3.9375 30.1875 3.9375 30.1875 1 29 C-4.37771505 24.03595534 -8.42594969 16.78685935 -11 10 C-10.78856491 6.58179931 -10.60086657 4.03482577 -8.875 1.0625 C-5.76581435 -0.69937187 -3.49155423 -0.48159369 0 0 Z " fill="#F6A051" transform="translate(335,172)"/>
<path d="M0 0 C4.11289267 0.85685264 5.59686932 2.20235933 8 5.625 C7.76883585 11.09368339 5.99668062 15.1825255 3.25 19.8125 C2.91484375 20.41513672 2.5796875 21.01777344 2.234375 21.63867188 C0.00498129 25.48522049 -2.26373209 28.20033661 -6 30.625 C-9.5948199 30.625 -11.41546447 30.02494536 -14.375 28 C-16.64752575 24.67861622 -16.35085179 22.60407204 -16 18.625 C-14.42578125 15.2734375 -14.42578125 15.2734375 -12.3125 12 C-11.62800781 10.91460937 -10.94351562 9.82921875 -10.23828125 8.7109375 C-4.61789376 0.9620612 -4.61789376 0.9620612 0 0 Z " fill="#F6A050" transform="translate(420,171.375)"/>
<path d="M0 0 C1.46847464 2.93694928 1.34947821 4.70814071 1 8 C-0.34275915 11.08049065 -2.05080759 13.89306905 -3.8125 16.75 C-4.26431641 17.51699219 -4.71613281 18.28398437 -5.18164062 19.07421875 C-8.5800399 24.7200266 -8.5800399 24.7200266 -12 27 C-15.4375 27.4375 -15.4375 27.4375 -19 27 C-21.81310559 24.54754898 -22.86304365 23.0067749 -23.3671875 19.30078125 C-22.87452368 14.87204796 -21.05266003 12.01975084 -18.6875 8.3125 C-18.28337891 7.64927734 -17.87925781 6.98605469 -17.46289062 6.30273438 C-12.91315646 -1.04342177 -12.91315646 -1.04342177 -9.25 -2.875 C-5.68218078 -3.07321218 -3.12730871 -1.59315727 0 0 Z " fill="#F6A050" transform="translate(347,313)"/>
<path d="M0 0 C2.87971029 1.19092857 5.51203307 2.72201505 8.1875 4.3125 C8.89841797 4.71662109 9.60933594 5.12074219 10.34179688 5.53710938 C16.66293363 9.19421107 16.66293363 9.19421107 19 12 C19.65341537 16.41055377 19.51318284 18.2906002 16.875 21.9375 C13.38111733 24.44398105 12.22385653 24.50986197 8 24 C5.27364619 22.81065345 2.816632 21.28509163 0.3125 19.6875 C-0.68233398 19.08131836 -0.68233398 19.08131836 -1.69726562 18.46289062 C-7.79519078 14.68623003 -7.79519078 14.68623003 -10 12 C-10.75912409 5.16788321 -10.75912409 5.16788321 -8.375 1.5 C-5.22265227 -0.49095646 -3.71383974 -0.40114645 0 0 Z " fill="#F6A050" transform="translate(441,284)"/>
<path d="M0 0 C3.60744257 0.91272643 5.10985756 3.50680899 6.9453125 6.4921875 C7.55890625 7.43578125 8.1725 8.379375 8.8046875 9.3515625 C14.6222284 18.70616827 14.6222284 18.70616827 13.9453125 24.4921875 C11.31319785 28.16119579 9.85676924 29.33228281 5.3828125 30.1171875 C0.97694603 29.31612087 0.49254156 28.08741937 -2.0546875 24.4921875 C-3.52669857 22.19552789 -4.93584671 19.90960064 -6.3046875 17.5546875 C-6.84996094 16.66233398 -6.84996094 16.66233398 -7.40625 15.75195312 C-9.68164726 11.83844093 -10.60179911 9.00585828 -10.0546875 4.4921875 C-7.52570868 0.48797104 -4.70767107 -0.29531516 0 0 Z " fill="#F6A050" transform="translate(414.0546875,310.5078125)"/>
<path d="M0 0 C2.875 1.5625 2.875 1.5625 5 4 C5.625 7.4375 5.625 7.4375 5 11 C1.51111697 15.06496947 -2.34018526 17.70455073 -6.9375 20.3125 C-7.53240234 20.67150391 -8.12730469 21.03050781 -8.74023438 21.40039062 C-12.64780705 23.64244052 -15.51070592 24.5376788 -20 24 C-22.375 22.5 -22.375 22.5 -24 20 C-24.51616523 16.74815903 -24.77448046 15.06104182 -24 12 C-21.95670622 9.67291542 -20.57752518 8.58470067 -18 7 C-17.05640625 6.38640625 -16.1128125 5.7728125 -15.140625 5.140625 C-5.87460605 -0.6218246 -5.87460605 -0.6218246 0 0 Z " fill="#F6A050" transform="translate(455,204)"/>
<path d="M0 0 C2.54261144 1.09749108 4.88163367 2.4447528 7.25 3.875 C7.86101562 4.22691406 8.47203125 4.57882813 9.1015625 4.94140625 C15.12958881 8.48188459 15.12958881 8.48188459 17 11 C17.75471698 17.79245283 17.75471698 17.79245283 15.4375 21.5 C12.06673344 23.57431788 9.92343476 23.33815689 6 23 C2.6484375 21.42578125 2.6484375 21.42578125 -0.625 19.3125 C-1.71039063 18.62800781 -2.79578125 17.94351563 -3.9140625 17.23828125 C-11.72391858 11.57366412 -11.72391858 11.57366412 -12.625 6.4375 C-12 3 -12 3 -9.9375 0.5 C-6.05486482 -1.48262222 -4.2288671 -0.93780058 0 0 Z " fill="#F6A050" transform="translate(304,205)"/>
<path d="M0 0 C1.9392218 2.87292118 2.39967604 5.08751678 2.17578125 8.5546875 C1.26099611 12.19919151 -1.2785686 13.68291518 -4.3125 15.5 C-5.31796875 16.12519531 -6.3234375 16.75039063 -7.359375 17.39453125 C-17.34741743 23.22856064 -17.34741743 23.22856064 -24.3125 21.5 C-27.11868215 19.14642787 -27.29168231 17.6457238 -27.8125 14 C-27.3125 10.5 -27.3125 10.5 -25.25 8.3125 C-21.97713001 6.29306958 -18.66288878 4.38840095 -15.3125 2.5 C-14.590625 1.943125 -13.86875 1.38625 -13.125 0.8125 C-9.14221831 -2.07158329 -4.17867945 -2.71049478 0 0 Z " fill="#F6A050" transform="translate(319.3125,285.5)"/>
<path d="M0 0 C3.90244727 1.20621097 5.11173838 1.73208973 7.4375 5.0625 C7.98646867 8.57182735 7.90385179 12.01901201 7.8125 15.5625 C7.81121094 16.51253906 7.80992187 17.46257812 7.80859375 18.44140625 C7.70821019 26.37170776 7.70821019 26.37170776 5.4375 30.0625 C2.47891053 32.10290653 -0.01271536 32.5949677 -3.5625 32.0625 C-6.40833246 29.69097295 -8.40382154 27.77000073 -8.75537109 23.98706055 C-8.84253816 21.2412981 -8.89702397 18.49685053 -8.9375 15.75 C-8.97488281 14.79931641 -9.01226562 13.84863281 -9.05078125 12.86914062 C-9.11025431 8.14103232 -9.10995192 5.81536257 -6.26171875 1.8984375 C-3.5625 0.0625 -3.5625 0.0625 0 0 Z " fill="#F6A04F" transform="translate(376.5625,319.9375)"/>
<path d="M0 0 C1.41829102 0.00870117 1.41829102 0.00870117 2.86523438 0.01757812 C10.86702714 0.15895256 10.86702714 0.15895256 14.4375 2.4375 C16.4375 5.4375 16.4375 5.4375 16.25 8.9375 C15.4659084 12.31512534 15.16925021 13.47063985 12.4375 15.4375 C8.68487357 17.31381321 4.19247651 16.70870023 0.0625 16.75 C-0.8965625 16.77900391 -1.855625 16.80800781 -2.84375 16.83789062 C-9.8943063 16.90171878 -9.8943063 16.90171878 -13.16015625 14.6328125 C-15.19269443 11.45095607 -15.62867029 9.20920666 -15.5625 5.4375 C-11.37433961 -0.6850226 -6.77851311 -0.23662161 0 0 Z " fill="#F6A04F" transform="translate(455.5625,247.5625)"/>
<path d="M0 0 C1.41829102 0.00870117 1.41829102 0.00870117 2.86523438 0.01757812 C10.86702714 0.15895256 10.86702714 0.15895256 14.4375 2.4375 C16.4375 5.4375 16.4375 5.4375 16.25 8.9375 C15.4659084 12.31512534 15.16925021 13.47063985 12.4375 15.4375 C8.68487357 17.31381321 4.19247651 16.70870023 0.0625 16.75 C-0.8965625 16.77900391 -1.855625 16.80800781 -2.84375 16.83789062 C-9.8943063 16.90171878 -9.8943063 16.90171878 -13.16015625 14.6328125 C-15.19269443 11.45095607 -15.62867029 9.20920666 -15.5625 5.4375 C-11.37433961 -0.6850226 -6.77851311 -0.23662161 0 0 Z " fill="#F6A04F" transform="translate(295.5625,247.5625)"/>
<path d="M0 0 C3.90244727 1.20621097 5.11173838 1.73208973 7.4375 5.0625 C7.98646867 8.57182735 7.90385179 12.01901201 7.8125 15.5625 C7.81121094 16.51253906 7.80992187 17.46257812 7.80859375 18.44140625 C7.70821019 26.37170776 7.70821019 26.37170776 5.4375 30.0625 C2.47891053 32.10290653 -0.01271536 32.5949677 -3.5625 32.0625 C-6.40833246 29.69097295 -8.40382154 27.77000073 -8.75537109 23.98706055 C-8.84253816 21.2412981 -8.89702397 18.49685053 -8.9375 15.75 C-8.97488281 14.79931641 -9.01226562 13.84863281 -9.05078125 12.86914062 C-9.11025431 8.14103232 -9.10995192 5.81536257 -6.26171875 1.8984375 C-3.5625 0.0625 -3.5625 0.0625 0 0 Z " fill="#F6A04F" transform="translate(376.5625,159.9375)"/>
<path d="M0 0 C4.4297642 0.79102932 5.89210172 1.98974785 8.5 5.625 C9.125 8.625 9.125 8.625 8.5 11.625 C5.89210172 15.26025215 4.4297642 16.45897068 0 17.25 C-4.4297642 16.45897068 -5.89210172 15.26025215 -8.5 11.625 C-9.125 8.625 -9.125 8.625 -8.5 5.625 C-5.89210172 1.98974785 -4.4297642 0.79102932 0 0 Z " fill="#E5E6E9" transform="translate(184.5,391.375)"/>
<path d="M0 0 C4.4297642 0.79102932 5.89210172 1.98974785 8.5 5.625 C9.125 8.625 9.125 8.625 8.5 11.625 C5.89210172 15.26025215 4.4297642 16.45897068 0 17.25 C-4.4297642 16.45897068 -5.89210172 15.26025215 -8.5 11.625 C-9.125 8.625 -9.125 8.625 -8.5 5.625 C-5.89210172 1.98974785 -4.4297642 0.79102932 0 0 Z " fill="#E5E6E9" transform="translate(96.5,351.375)"/>
<path d="M0 0 C4.4297642 0.79102932 5.89210172 1.98974785 8.5 5.625 C9.125 8.625 9.125 8.625 8.5 11.625 C5.89210172 15.26025215 4.4297642 16.45897068 0 17.25 C-4.4297642 16.45897068 -5.89210172 15.26025215 -8.5 11.625 C-9.125 8.625 -9.125 8.625 -8.5 5.625 C-5.89210172 1.98974785 -4.4297642 0.79102932 0 0 Z " fill="#E5E6E9" transform="translate(232.5,335.375)"/>
<path d="M0 0 C4.4297642 0.79102932 5.89210172 1.98974785 8.5 5.625 C9.125 8.625 9.125 8.625 8.5 11.625 C5.89210172 15.26025215 4.4297642 16.45897068 0 17.25 C-4.4297642 16.45897068 -5.89210172 15.26025215 -8.5 11.625 C-9.125 8.625 -9.125 8.625 -8.5 5.625 C-5.89210172 1.98974785 -4.4297642 0.79102932 0 0 Z " fill="#E5E6E9" transform="translate(48.5,239.375)"/>
<path d="M0 0 C4.4297642 0.79102932 5.89210172 1.98974785 8.5 5.625 C9.125 8.625 9.125 8.625 8.5 11.625 C5.89210172 15.26025215 4.4297642 16.45897068 0 17.25 C-4.4297642 16.45897068 -5.89210172 15.26025215 -8.5 11.625 C-9.125 8.625 -9.125 8.625 -8.5 5.625 C-5.89210172 1.98974785 -4.4297642 0.79102932 0 0 Z " fill="#E5E6E9" transform="translate(208.5,231.375)"/>
<path d="M0 0 C4.4297642 0.79102932 5.89210172 1.98974785 8.5 5.625 C9.125 8.625 9.125 8.625 8.5 11.625 C5.89210172 15.26025215 4.4297642 16.45897068 0 17.25 C-4.4297642 16.45897068 -5.89210172 15.26025215 -8.5 11.625 C-9.125 8.625 -9.125 8.625 -8.5 5.625 C-5.89210172 1.98974785 -4.4297642 0.79102932 0 0 Z " fill="#E5E6E9" transform="translate(96.5,159.375)"/>
<path d="M0 0 C4.4297642 0.79102932 5.89210172 1.98974785 8.5 5.625 C9.125 8.625 9.125 8.625 8.5 11.625 C5.89210172 15.26025215 4.4297642 16.45897068 0 17.25 C-4.4297642 16.45897068 -5.89210172 15.26025215 -8.5 11.625 C-9.125 8.625 -9.125 8.625 -8.5 5.625 C-5.89210172 1.98974785 -4.4297642 0.79102932 0 0 Z " fill="#E5E6E9" transform="translate(192.5,119.375)"/>
</svg>
